%TF.GenerationSoftware,Altium Limited,Altium Designer,21.6.4 (81)*%
G04 Layer_Color=8388736*
%FSLAX45Y45*%
%MOMM*%
%TF.SameCoordinates,FD19CA96-AA1C-43A6-A510-41EB6BA20D2A*%
%TF.FilePolarity,Positive*%
%TF.FileFunction,Other,Bottom_Assembly*%
%TF.Part,Single*%
G01*
G75*
%TA.AperFunction,NonConductor*%
%ADD33C,0.25400*%
D33*
X14637640Y-2113380D02*
X14661639D01*
Y-2089380D01*
X14637640D02*
X14661639D01*
X14637640Y-2113380D02*
Y-2089380D01*
Y-2367380D02*
X14661639D01*
Y-2343380D01*
X14637640D02*
X14661639D01*
X14637640Y-2367380D02*
Y-2343380D01*
X14617641Y-2387380D02*
X14637640Y-2367380D01*
X14617641Y-2387380D02*
X14681641D01*
X14661639Y-2367380D02*
X14681641Y-2387380D01*
X14617641Y-2323380D02*
X14637640Y-2343380D01*
X14617641Y-2387380D02*
Y-2323380D01*
X14681641Y-2387380D02*
Y-2323380D01*
X14661639Y-2343380D02*
X14681641Y-2323380D01*
X14617641D02*
X14681641D01*
X14617641Y-2069380D02*
X14637640Y-2089380D01*
X14617641Y-2133380D02*
Y-2069380D01*
Y-2133380D02*
X14637640Y-2113380D01*
X14681641Y-2133380D02*
Y-2069380D01*
X14661639Y-2089380D02*
X14681641Y-2069380D01*
X14661639Y-2113380D02*
X14681641Y-2133380D01*
X14617641Y-2069380D02*
X14681641D01*
X14617641Y-2133380D02*
X14681641D01*
X14522639Y-2036380D02*
X14562640Y-1996380D01*
X14522639Y-2166380D02*
Y-2036380D01*
Y-2166380D02*
X14562640Y-2206380D01*
X14736639D01*
X14776640Y-2166380D02*
Y-2036380D01*
X14736639Y-1996380D02*
X14776640Y-2036380D01*
X14736639Y-2206380D02*
X14776640Y-2166380D01*
X14562640Y-1996380D02*
X14736639D01*
X14522639Y-2420380D02*
X14562640Y-2460380D01*
X14522639Y-2290380D02*
X14562640Y-2250380D01*
X14736639D02*
X14776640Y-2290380D01*
X14562640Y-2250380D02*
X14736639D01*
X14522639Y-2420380D02*
Y-2290380D01*
X14736639Y-2460380D02*
X14776640Y-2420380D01*
Y-2290380D01*
X14562640Y-2460380D02*
X14736639D01*
X14716640Y-2250380D02*
Y-2206380D01*
X14582640Y-2250380D02*
Y-2206380D01*
Y-2482380D02*
Y-2460380D01*
Y-2482380D02*
X14716640D01*
Y-2460380D01*
X14717360Y-1993620D02*
Y-1971620D01*
X14583360D02*
X14717360D01*
X14583360Y-1993620D02*
Y-1971620D01*
X17637640Y-1388380D02*
X17661639D01*
Y-1364380D01*
X17637640D02*
X17661639D01*
X17637640Y-1388380D02*
Y-1364380D01*
Y-1642380D02*
X17661639D01*
Y-1618380D01*
X17637640D02*
X17661639D01*
X17637640Y-1642380D02*
Y-1618380D01*
X17617641Y-1662380D02*
X17637640Y-1642380D01*
X17617641Y-1662380D02*
X17681641D01*
X17661639Y-1642380D02*
X17681641Y-1662380D01*
X17617641Y-1598380D02*
X17637640Y-1618380D01*
X17617641Y-1662380D02*
Y-1598380D01*
X17681641Y-1662380D02*
Y-1598380D01*
X17661639Y-1618380D02*
X17681641Y-1598380D01*
X17617641D02*
X17681641D01*
X17617641Y-1344380D02*
X17637640Y-1364380D01*
X17617641Y-1408380D02*
Y-1344380D01*
Y-1408380D02*
X17637640Y-1388380D01*
X17681641Y-1408380D02*
Y-1344380D01*
X17661639Y-1364380D02*
X17681641Y-1344380D01*
X17661639Y-1388380D02*
X17681641Y-1408380D01*
X17617641Y-1344380D02*
X17681641D01*
X17617641Y-1408380D02*
X17681641D01*
X17522639Y-1311380D02*
X17562640Y-1271380D01*
X17522639Y-1441380D02*
Y-1311380D01*
Y-1441380D02*
X17562640Y-1481380D01*
X17736639D01*
X17776640Y-1441380D02*
Y-1311380D01*
X17736639Y-1271380D02*
X17776640Y-1311380D01*
X17736639Y-1481380D02*
X17776640Y-1441380D01*
X17562640Y-1271380D02*
X17736639D01*
X17522639Y-1695380D02*
X17562640Y-1735380D01*
X17522639Y-1565380D02*
X17562640Y-1525380D01*
X17736639D02*
X17776640Y-1565380D01*
X17562640Y-1525380D02*
X17736639D01*
X17522639Y-1695380D02*
Y-1565380D01*
X17736639Y-1735380D02*
X17776640Y-1695380D01*
Y-1565380D01*
X17562640Y-1735380D02*
X17736639D01*
X17716640Y-1525380D02*
Y-1481380D01*
X17582640Y-1525380D02*
Y-1481380D01*
Y-1757380D02*
Y-1735380D01*
Y-1757380D02*
X17716640D01*
Y-1735380D01*
X17717360Y-1268620D02*
Y-1246620D01*
X17583360D02*
X17717360D01*
X17583360Y-1268620D02*
Y-1246620D01*
X17962640Y-1388380D02*
X17986639D01*
Y-1364380D01*
X17962640D02*
X17986639D01*
X17962640Y-1388380D02*
Y-1364380D01*
Y-1642380D02*
X17986639D01*
Y-1618380D01*
X17962640D02*
X17986639D01*
X17962640Y-1642380D02*
Y-1618380D01*
X17942641Y-1662380D02*
X17962640Y-1642380D01*
X17942641Y-1662380D02*
X18006641D01*
X17986639Y-1642380D02*
X18006641Y-1662380D01*
X17942641Y-1598380D02*
X17962640Y-1618380D01*
X17942641Y-1662380D02*
Y-1598380D01*
X18006641Y-1662380D02*
Y-1598380D01*
X17986639Y-1618380D02*
X18006641Y-1598380D01*
X17942641D02*
X18006641D01*
X17942641Y-1344380D02*
X17962640Y-1364380D01*
X17942641Y-1408380D02*
Y-1344380D01*
Y-1408380D02*
X17962640Y-1388380D01*
X18006641Y-1408380D02*
Y-1344380D01*
X17986639Y-1364380D02*
X18006641Y-1344380D01*
X17986639Y-1388380D02*
X18006641Y-1408380D01*
X17942641Y-1344380D02*
X18006641D01*
X17942641Y-1408380D02*
X18006641D01*
X17847639Y-1311380D02*
X17887640Y-1271380D01*
X17847639Y-1441380D02*
Y-1311380D01*
Y-1441380D02*
X17887640Y-1481380D01*
X18061639D01*
X18101640Y-1441380D02*
Y-1311380D01*
X18061639Y-1271380D02*
X18101640Y-1311380D01*
X18061639Y-1481380D02*
X18101640Y-1441380D01*
X17887640Y-1271380D02*
X18061639D01*
X17847639Y-1695380D02*
X17887640Y-1735380D01*
X17847639Y-1565380D02*
X17887640Y-1525380D01*
X18061639D02*
X18101640Y-1565380D01*
X17887640Y-1525380D02*
X18061639D01*
X17847639Y-1695380D02*
Y-1565380D01*
X18061639Y-1735380D02*
X18101640Y-1695380D01*
Y-1565380D01*
X17887640Y-1735380D02*
X18061639D01*
X18041640Y-1525380D02*
Y-1481380D01*
X17907640Y-1525380D02*
Y-1481380D01*
Y-1757380D02*
Y-1735380D01*
Y-1757380D02*
X18041640D01*
Y-1735380D01*
X18042360Y-1268620D02*
Y-1246620D01*
X17908360D02*
X18042360D01*
X17908360Y-1268620D02*
Y-1246620D01*
X18837640Y-2113380D02*
X18861639D01*
Y-2089380D01*
X18837640D02*
X18861639D01*
X18837640Y-2113380D02*
Y-2089380D01*
Y-2367380D02*
X18861639D01*
Y-2343380D01*
X18837640D02*
X18861639D01*
X18837640Y-2367380D02*
Y-2343380D01*
X18817641Y-2387380D02*
X18837640Y-2367380D01*
X18817641Y-2387380D02*
X18881641D01*
X18861639Y-2367380D02*
X18881641Y-2387380D01*
X18817641Y-2323380D02*
X18837640Y-2343380D01*
X18817641Y-2387380D02*
Y-2323380D01*
X18881641Y-2387380D02*
Y-2323380D01*
X18861639Y-2343380D02*
X18881641Y-2323380D01*
X18817641D02*
X18881641D01*
X18817641Y-2069380D02*
X18837640Y-2089380D01*
X18817641Y-2133380D02*
Y-2069380D01*
Y-2133380D02*
X18837640Y-2113380D01*
X18881641Y-2133380D02*
Y-2069380D01*
X18861639Y-2089380D02*
X18881641Y-2069380D01*
X18861639Y-2113380D02*
X18881641Y-2133380D01*
X18817641Y-2069380D02*
X18881641D01*
X18817641Y-2133380D02*
X18881641D01*
X18722639Y-2036380D02*
X18762640Y-1996380D01*
X18722639Y-2166380D02*
Y-2036380D01*
Y-2166380D02*
X18762640Y-2206380D01*
X18936639D01*
X18976640Y-2166380D02*
Y-2036380D01*
X18936639Y-1996380D02*
X18976640Y-2036380D01*
X18936639Y-2206380D02*
X18976640Y-2166380D01*
X18762640Y-1996380D02*
X18936639D01*
X18722639Y-2420380D02*
X18762640Y-2460380D01*
X18722639Y-2290380D02*
X18762640Y-2250380D01*
X18936639D02*
X18976640Y-2290380D01*
X18762640Y-2250380D02*
X18936639D01*
X18722639Y-2420380D02*
Y-2290380D01*
X18936639Y-2460380D02*
X18976640Y-2420380D01*
Y-2290380D01*
X18762640Y-2460380D02*
X18936639D01*
X18916640Y-2250380D02*
Y-2206380D01*
X18782640Y-2250380D02*
Y-2206380D01*
Y-2482380D02*
Y-2460380D01*
Y-2482380D02*
X18916640D01*
Y-2460380D01*
X18917360Y-1993620D02*
Y-1971620D01*
X18783360D02*
X18917360D01*
X18783360Y-1993620D02*
Y-1971620D01*
X9837640Y-2113380D02*
X9861640D01*
Y-2089380D01*
X9837640D02*
X9861640D01*
X9837640Y-2113380D02*
Y-2089380D01*
Y-2367380D02*
X9861640D01*
Y-2343380D01*
X9837640D02*
X9861640D01*
X9837640Y-2367380D02*
Y-2343380D01*
X9817640Y-2387380D02*
X9837640Y-2367380D01*
X9817640Y-2387380D02*
X9881640D01*
X9861640Y-2367380D02*
X9881640Y-2387380D01*
X9817640Y-2323380D02*
X9837640Y-2343380D01*
X9817640Y-2387380D02*
Y-2323380D01*
X9881640Y-2387380D02*
Y-2323380D01*
X9861640Y-2343380D02*
X9881640Y-2323380D01*
X9817640D02*
X9881640D01*
X9817640Y-2069380D02*
X9837640Y-2089380D01*
X9817640Y-2133380D02*
Y-2069380D01*
Y-2133380D02*
X9837640Y-2113380D01*
X9881640Y-2133380D02*
Y-2069380D01*
X9861640Y-2089380D02*
X9881640Y-2069380D01*
X9861640Y-2113380D02*
X9881640Y-2133380D01*
X9817640Y-2069380D02*
X9881640D01*
X9817640Y-2133380D02*
X9881640D01*
X9722640Y-2036380D02*
X9762640Y-1996380D01*
X9722640Y-2166380D02*
Y-2036380D01*
Y-2166380D02*
X9762640Y-2206380D01*
X9936640D01*
X9976640Y-2166380D02*
Y-2036380D01*
X9936640Y-1996380D02*
X9976640Y-2036380D01*
X9936640Y-2206380D02*
X9976640Y-2166380D01*
X9762640Y-1996380D02*
X9936640D01*
X9722640Y-2420380D02*
X9762640Y-2460380D01*
X9722640Y-2290380D02*
X9762640Y-2250380D01*
X9936640D02*
X9976640Y-2290380D01*
X9762640Y-2250380D02*
X9936640D01*
X9722640Y-2420380D02*
Y-2290380D01*
X9936640Y-2460380D02*
X9976640Y-2420380D01*
Y-2290380D01*
X9762640Y-2460380D02*
X9936640D01*
X9916640Y-2250380D02*
Y-2206380D01*
X9782640Y-2250380D02*
Y-2206380D01*
Y-2482380D02*
Y-2460380D01*
Y-2482380D02*
X9916640D01*
Y-2460380D01*
X9917360Y-1993620D02*
Y-1971620D01*
X9783360D02*
X9917360D01*
X9783360Y-1993620D02*
Y-1971620D01*
X12837640Y-1388379D02*
X12861639D01*
Y-1364380D01*
X12837640D02*
X12861639D01*
X12837640Y-1388379D02*
Y-1364380D01*
Y-1642379D02*
X12861639D01*
Y-1618380D01*
X12837640D02*
X12861639D01*
X12837640Y-1642379D02*
Y-1618380D01*
X12817641Y-1662379D02*
X12837640Y-1642379D01*
X12817641Y-1662379D02*
X12881641D01*
X12861639Y-1642379D02*
X12881641Y-1662379D01*
X12817641Y-1598380D02*
X12837640Y-1618380D01*
X12817641Y-1662379D02*
Y-1598380D01*
X12881641Y-1662379D02*
Y-1598380D01*
X12861639Y-1618380D02*
X12881641Y-1598380D01*
X12817641D02*
X12881641D01*
X12817641Y-1344380D02*
X12837640Y-1364380D01*
X12817641Y-1408379D02*
Y-1344380D01*
Y-1408379D02*
X12837640Y-1388379D01*
X12881641Y-1408379D02*
Y-1344380D01*
X12861639Y-1364380D02*
X12881641Y-1344380D01*
X12861639Y-1388379D02*
X12881641Y-1408379D01*
X12817641Y-1344380D02*
X12881641D01*
X12817641Y-1408379D02*
X12881641D01*
X12722640Y-1311380D02*
X12762640Y-1271379D01*
X12722640Y-1441380D02*
Y-1311380D01*
Y-1441380D02*
X12762640Y-1481380D01*
X12936639D01*
X12976640Y-1441380D02*
Y-1311380D01*
X12936639Y-1271379D02*
X12976640Y-1311380D01*
X12936639Y-1481380D02*
X12976640Y-1441380D01*
X12762640Y-1271379D02*
X12936639D01*
X12722640Y-1695380D02*
X12762640Y-1735380D01*
X12722640Y-1565380D02*
X12762640Y-1525379D01*
X12936639D02*
X12976640Y-1565380D01*
X12762640Y-1525379D02*
X12936639D01*
X12722640Y-1695380D02*
Y-1565380D01*
X12936639Y-1735380D02*
X12976640Y-1695380D01*
Y-1565380D01*
X12762640Y-1735380D02*
X12936639D01*
X12916640Y-1525379D02*
Y-1481380D01*
X12782640Y-1525379D02*
Y-1481380D01*
Y-1757380D02*
Y-1735380D01*
Y-1757380D02*
X12916640D01*
Y-1735380D01*
X12917360Y-1268620D02*
Y-1246620D01*
X12783360D02*
X12917360D01*
X12783360Y-1268620D02*
Y-1246620D01*
X13162640Y-1388379D02*
X13186639D01*
Y-1364380D01*
X13162640D02*
X13186639D01*
X13162640Y-1388379D02*
Y-1364380D01*
Y-1642379D02*
X13186639D01*
Y-1618380D01*
X13162640D02*
X13186639D01*
X13162640Y-1642379D02*
Y-1618380D01*
X13142641Y-1662379D02*
X13162640Y-1642379D01*
X13142641Y-1662379D02*
X13206641D01*
X13186639Y-1642379D02*
X13206641Y-1662379D01*
X13142641Y-1598380D02*
X13162640Y-1618380D01*
X13142641Y-1662379D02*
Y-1598380D01*
X13206641Y-1662379D02*
Y-1598380D01*
X13186639Y-1618380D02*
X13206641Y-1598380D01*
X13142641D02*
X13206641D01*
X13142641Y-1344380D02*
X13162640Y-1364380D01*
X13142641Y-1408379D02*
Y-1344380D01*
Y-1408379D02*
X13162640Y-1388379D01*
X13206641Y-1408379D02*
Y-1344380D01*
X13186639Y-1364380D02*
X13206641Y-1344380D01*
X13186639Y-1388379D02*
X13206641Y-1408379D01*
X13142641Y-1344380D02*
X13206641D01*
X13142641Y-1408379D02*
X13206641D01*
X13047639Y-1311380D02*
X13087640Y-1271379D01*
X13047639Y-1441380D02*
Y-1311380D01*
Y-1441380D02*
X13087640Y-1481380D01*
X13261639D01*
X13301640Y-1441380D02*
Y-1311380D01*
X13261639Y-1271379D02*
X13301640Y-1311380D01*
X13261639Y-1481380D02*
X13301640Y-1441380D01*
X13087640Y-1271379D02*
X13261639D01*
X13047639Y-1695380D02*
X13087640Y-1735380D01*
X13047639Y-1565380D02*
X13087640Y-1525379D01*
X13261639D02*
X13301640Y-1565380D01*
X13087640Y-1525379D02*
X13261639D01*
X13047639Y-1695380D02*
Y-1565380D01*
X13261639Y-1735380D02*
X13301640Y-1695380D01*
Y-1565380D01*
X13087640Y-1735380D02*
X13261639D01*
X13241640Y-1525379D02*
Y-1481380D01*
X13107640Y-1525379D02*
Y-1481380D01*
Y-1757380D02*
Y-1735380D01*
Y-1757380D02*
X13241640D01*
Y-1735380D01*
X13242360Y-1268620D02*
Y-1246620D01*
X13108360D02*
X13242360D01*
X13108360Y-1268620D02*
Y-1246620D01*
X14037640Y-2113380D02*
X14061639D01*
Y-2089380D01*
X14037640D02*
X14061639D01*
X14037640Y-2113380D02*
Y-2089380D01*
Y-2367380D02*
X14061639D01*
Y-2343380D01*
X14037640D02*
X14061639D01*
X14037640Y-2367380D02*
Y-2343380D01*
X14017641Y-2387380D02*
X14037640Y-2367380D01*
X14017641Y-2387380D02*
X14081641D01*
X14061639Y-2367380D02*
X14081641Y-2387380D01*
X14017641Y-2323380D02*
X14037640Y-2343380D01*
X14017641Y-2387380D02*
Y-2323380D01*
X14081641Y-2387380D02*
Y-2323380D01*
X14061639Y-2343380D02*
X14081641Y-2323380D01*
X14017641D02*
X14081641D01*
X14017641Y-2069380D02*
X14037640Y-2089380D01*
X14017641Y-2133380D02*
Y-2069380D01*
Y-2133380D02*
X14037640Y-2113380D01*
X14081641Y-2133380D02*
Y-2069380D01*
X14061639Y-2089380D02*
X14081641Y-2069380D01*
X14061639Y-2113380D02*
X14081641Y-2133380D01*
X14017641Y-2069380D02*
X14081641D01*
X14017641Y-2133380D02*
X14081641D01*
X13922639Y-2036380D02*
X13962640Y-1996380D01*
X13922639Y-2166380D02*
Y-2036380D01*
Y-2166380D02*
X13962640Y-2206380D01*
X14136639D01*
X14176640Y-2166380D02*
Y-2036380D01*
X14136639Y-1996380D02*
X14176640Y-2036380D01*
X14136639Y-2206380D02*
X14176640Y-2166380D01*
X13962640Y-1996380D02*
X14136639D01*
X13922639Y-2420380D02*
X13962640Y-2460380D01*
X13922639Y-2290380D02*
X13962640Y-2250380D01*
X14136639D02*
X14176640Y-2290380D01*
X13962640Y-2250380D02*
X14136639D01*
X13922639Y-2420380D02*
Y-2290380D01*
X14136639Y-2460380D02*
X14176640Y-2420380D01*
Y-2290380D01*
X13962640Y-2460380D02*
X14136639D01*
X14116640Y-2250380D02*
Y-2206380D01*
X13982640Y-2250380D02*
Y-2206380D01*
Y-2482380D02*
Y-2460380D01*
Y-2482380D02*
X14116640D01*
Y-2460380D01*
X14117360Y-1993620D02*
Y-1971620D01*
X13983360D02*
X14117360D01*
X13983360Y-1993620D02*
Y-1971620D01*
X5037640Y-2113380D02*
X5061640D01*
Y-2089380D01*
X5037640D02*
X5061640D01*
X5037640Y-2113380D02*
Y-2089380D01*
Y-2367380D02*
X5061640D01*
Y-2343380D01*
X5037640D02*
X5061640D01*
X5037640Y-2367380D02*
Y-2343380D01*
X5017640Y-2387380D02*
X5037640Y-2367380D01*
X5017640Y-2387380D02*
X5081640D01*
X5061640Y-2367380D02*
X5081640Y-2387380D01*
X5017640Y-2323380D02*
X5037640Y-2343380D01*
X5017640Y-2387380D02*
Y-2323380D01*
X5081640Y-2387380D02*
Y-2323380D01*
X5061640Y-2343380D02*
X5081640Y-2323380D01*
X5017640D02*
X5081640D01*
X5017640Y-2069380D02*
X5037640Y-2089380D01*
X5017640Y-2133380D02*
Y-2069380D01*
Y-2133380D02*
X5037640Y-2113380D01*
X5081640Y-2133380D02*
Y-2069380D01*
X5061640Y-2089380D02*
X5081640Y-2069380D01*
X5061640Y-2113380D02*
X5081640Y-2133380D01*
X5017640Y-2069380D02*
X5081640D01*
X5017640Y-2133380D02*
X5081640D01*
X4922640Y-2036380D02*
X4962640Y-1996380D01*
X4922640Y-2166380D02*
Y-2036380D01*
Y-2166380D02*
X4962640Y-2206380D01*
X5136640D01*
X5176640Y-2166380D02*
Y-2036380D01*
X5136640Y-1996380D02*
X5176640Y-2036380D01*
X5136640Y-2206380D02*
X5176640Y-2166380D01*
X4962640Y-1996380D02*
X5136640D01*
X4922640Y-2420380D02*
X4962640Y-2460380D01*
X4922640Y-2290380D02*
X4962640Y-2250380D01*
X5136640D02*
X5176640Y-2290380D01*
X4962640Y-2250380D02*
X5136640D01*
X4922640Y-2420380D02*
Y-2290380D01*
X5136640Y-2460380D02*
X5176640Y-2420380D01*
Y-2290380D01*
X4962640Y-2460380D02*
X5136640D01*
X5116640Y-2250380D02*
Y-2206380D01*
X4982640Y-2250380D02*
Y-2206380D01*
Y-2482380D02*
Y-2460380D01*
Y-2482380D02*
X5116640D01*
Y-2460380D01*
X5117360Y-1993620D02*
Y-1971620D01*
X4983360D02*
X5117360D01*
X4983360Y-1993620D02*
Y-1971620D01*
X8037640Y-1388379D02*
X8061640D01*
Y-1364380D01*
X8037640D02*
X8061640D01*
X8037640Y-1388379D02*
Y-1364380D01*
Y-1642379D02*
X8061640D01*
Y-1618380D01*
X8037640D02*
X8061640D01*
X8037640Y-1642379D02*
Y-1618380D01*
X8017640Y-1662379D02*
X8037640Y-1642379D01*
X8017640Y-1662379D02*
X8081640D01*
X8061640Y-1642379D02*
X8081640Y-1662379D01*
X8017640Y-1598380D02*
X8037640Y-1618380D01*
X8017640Y-1662379D02*
Y-1598380D01*
X8081640Y-1662379D02*
Y-1598380D01*
X8061640Y-1618380D02*
X8081640Y-1598380D01*
X8017640D02*
X8081640D01*
X8017640Y-1344380D02*
X8037640Y-1364380D01*
X8017640Y-1408379D02*
Y-1344380D01*
Y-1408379D02*
X8037640Y-1388379D01*
X8081640Y-1408379D02*
Y-1344380D01*
X8061640Y-1364380D02*
X8081640Y-1344380D01*
X8061640Y-1388379D02*
X8081640Y-1408379D01*
X8017640Y-1344380D02*
X8081640D01*
X8017640Y-1408379D02*
X8081640D01*
X7922640Y-1311380D02*
X7962640Y-1271379D01*
X7922640Y-1441380D02*
Y-1311380D01*
Y-1441380D02*
X7962640Y-1481380D01*
X8136640D01*
X8176640Y-1441380D02*
Y-1311380D01*
X8136640Y-1271379D02*
X8176640Y-1311380D01*
X8136640Y-1481380D02*
X8176640Y-1441380D01*
X7962640Y-1271379D02*
X8136640D01*
X7922640Y-1695380D02*
X7962640Y-1735380D01*
X7922640Y-1565380D02*
X7962640Y-1525379D01*
X8136640D02*
X8176640Y-1565380D01*
X7962640Y-1525379D02*
X8136640D01*
X7922640Y-1695380D02*
Y-1565380D01*
X8136640Y-1735380D02*
X8176640Y-1695380D01*
Y-1565380D01*
X7962640Y-1735380D02*
X8136640D01*
X8116640Y-1525379D02*
Y-1481380D01*
X7982640Y-1525379D02*
Y-1481380D01*
Y-1757380D02*
Y-1735380D01*
Y-1757380D02*
X8116640D01*
Y-1735380D01*
X8117360Y-1268620D02*
Y-1246620D01*
X7983360D02*
X8117360D01*
X7983360Y-1268620D02*
Y-1246620D01*
X8362640Y-1388379D02*
X8386640D01*
Y-1364380D01*
X8362640D02*
X8386640D01*
X8362640Y-1388379D02*
Y-1364380D01*
Y-1642379D02*
X8386640D01*
Y-1618380D01*
X8362640D02*
X8386640D01*
X8362640Y-1642379D02*
Y-1618380D01*
X8342640Y-1662379D02*
X8362640Y-1642379D01*
X8342640Y-1662379D02*
X8406640D01*
X8386640Y-1642379D02*
X8406640Y-1662379D01*
X8342640Y-1598380D02*
X8362640Y-1618380D01*
X8342640Y-1662379D02*
Y-1598380D01*
X8406640Y-1662379D02*
Y-1598380D01*
X8386640Y-1618380D02*
X8406640Y-1598380D01*
X8342640D02*
X8406640D01*
X8342640Y-1344380D02*
X8362640Y-1364380D01*
X8342640Y-1408379D02*
Y-1344380D01*
Y-1408379D02*
X8362640Y-1388379D01*
X8406640Y-1408379D02*
Y-1344380D01*
X8386640Y-1364380D02*
X8406640Y-1344380D01*
X8386640Y-1388379D02*
X8406640Y-1408379D01*
X8342640Y-1344380D02*
X8406640D01*
X8342640Y-1408379D02*
X8406640D01*
X8247640Y-1311380D02*
X8287640Y-1271379D01*
X8247640Y-1441380D02*
Y-1311380D01*
Y-1441380D02*
X8287640Y-1481380D01*
X8461640D01*
X8501640Y-1441380D02*
Y-1311380D01*
X8461640Y-1271379D02*
X8501640Y-1311380D01*
X8461640Y-1481380D02*
X8501640Y-1441380D01*
X8287640Y-1271379D02*
X8461640D01*
X8247640Y-1695380D02*
X8287640Y-1735380D01*
X8247640Y-1565380D02*
X8287640Y-1525379D01*
X8461640D02*
X8501640Y-1565380D01*
X8287640Y-1525379D02*
X8461640D01*
X8247640Y-1695380D02*
Y-1565380D01*
X8461640Y-1735380D02*
X8501640Y-1695380D01*
Y-1565380D01*
X8287640Y-1735380D02*
X8461640D01*
X8441640Y-1525379D02*
Y-1481380D01*
X8307640Y-1525379D02*
Y-1481380D01*
Y-1757380D02*
Y-1735380D01*
Y-1757380D02*
X8441640D01*
Y-1735380D01*
X8442360Y-1268620D02*
Y-1246620D01*
X8308360D02*
X8442360D01*
X8308360Y-1268620D02*
Y-1246620D01*
X9237640Y-2113380D02*
X9261640D01*
Y-2089380D01*
X9237640D02*
X9261640D01*
X9237640Y-2113380D02*
Y-2089380D01*
Y-2367380D02*
X9261640D01*
Y-2343380D01*
X9237640D02*
X9261640D01*
X9237640Y-2367380D02*
Y-2343380D01*
X9217640Y-2387380D02*
X9237640Y-2367380D01*
X9217640Y-2387380D02*
X9281640D01*
X9261640Y-2367380D02*
X9281640Y-2387380D01*
X9217640Y-2323380D02*
X9237640Y-2343380D01*
X9217640Y-2387380D02*
Y-2323380D01*
X9281640Y-2387380D02*
Y-2323380D01*
X9261640Y-2343380D02*
X9281640Y-2323380D01*
X9217640D02*
X9281640D01*
X9217640Y-2069380D02*
X9237640Y-2089380D01*
X9217640Y-2133380D02*
Y-2069380D01*
Y-2133380D02*
X9237640Y-2113380D01*
X9281640Y-2133380D02*
Y-2069380D01*
X9261640Y-2089380D02*
X9281640Y-2069380D01*
X9261640Y-2113380D02*
X9281640Y-2133380D01*
X9217640Y-2069380D02*
X9281640D01*
X9217640Y-2133380D02*
X9281640D01*
X9122640Y-2036380D02*
X9162640Y-1996380D01*
X9122640Y-2166380D02*
Y-2036380D01*
Y-2166380D02*
X9162640Y-2206380D01*
X9336640D01*
X9376640Y-2166380D02*
Y-2036380D01*
X9336640Y-1996380D02*
X9376640Y-2036380D01*
X9336640Y-2206380D02*
X9376640Y-2166380D01*
X9162640Y-1996380D02*
X9336640D01*
X9122640Y-2420380D02*
X9162640Y-2460380D01*
X9122640Y-2290380D02*
X9162640Y-2250380D01*
X9336640D02*
X9376640Y-2290380D01*
X9162640Y-2250380D02*
X9336640D01*
X9122640Y-2420380D02*
Y-2290380D01*
X9336640Y-2460380D02*
X9376640Y-2420380D01*
Y-2290380D01*
X9162640Y-2460380D02*
X9336640D01*
X9316640Y-2250380D02*
Y-2206380D01*
X9182640Y-2250380D02*
Y-2206380D01*
Y-2482380D02*
Y-2460380D01*
Y-2482380D02*
X9316640D01*
Y-2460380D01*
X9317360Y-1993620D02*
Y-1971620D01*
X9183360D02*
X9317360D01*
X9183360Y-1993620D02*
Y-1971620D01*
X3237640Y-1388380D02*
X3261640D01*
Y-1364380D01*
X3237640D02*
X3261640D01*
X3237640Y-1388380D02*
Y-1364380D01*
Y-1642380D02*
X3261640D01*
Y-1618380D01*
X3237640D02*
X3261640D01*
X3237640Y-1642380D02*
Y-1618380D01*
X3217640Y-1662380D02*
X3237640Y-1642380D01*
X3217640Y-1662380D02*
X3281640D01*
X3261640Y-1642380D02*
X3281640Y-1662380D01*
X3217640Y-1598380D02*
X3237640Y-1618380D01*
X3217640Y-1662380D02*
Y-1598380D01*
X3281640Y-1662380D02*
Y-1598380D01*
X3261640Y-1618380D02*
X3281640Y-1598380D01*
X3217640D02*
X3281640D01*
X3217640Y-1344380D02*
X3237640Y-1364380D01*
X3217640Y-1408380D02*
Y-1344380D01*
Y-1408380D02*
X3237640Y-1388380D01*
X3281640Y-1408380D02*
Y-1344380D01*
X3261640Y-1364380D02*
X3281640Y-1344380D01*
X3261640Y-1388380D02*
X3281640Y-1408380D01*
X3217640Y-1344380D02*
X3281640D01*
X3217640Y-1408380D02*
X3281640D01*
X3122640Y-1311380D02*
X3162640Y-1271380D01*
X3122640Y-1441380D02*
Y-1311380D01*
Y-1441380D02*
X3162640Y-1481380D01*
X3336640D01*
X3376640Y-1441380D02*
Y-1311380D01*
X3336640Y-1271380D02*
X3376640Y-1311380D01*
X3336640Y-1481380D02*
X3376640Y-1441380D01*
X3162640Y-1271380D02*
X3336640D01*
X3122640Y-1695380D02*
X3162640Y-1735380D01*
X3122640Y-1565380D02*
X3162640Y-1525380D01*
X3336640D02*
X3376640Y-1565380D01*
X3162640Y-1525380D02*
X3336640D01*
X3122640Y-1695380D02*
Y-1565380D01*
X3336640Y-1735380D02*
X3376640Y-1695380D01*
Y-1565380D01*
X3162640Y-1735380D02*
X3336640D01*
X3316640Y-1525380D02*
Y-1481380D01*
X3182640Y-1525380D02*
Y-1481380D01*
Y-1757380D02*
Y-1735380D01*
Y-1757380D02*
X3316640D01*
Y-1735380D01*
X3317360Y-1268620D02*
Y-1246620D01*
X3183360D02*
X3317360D01*
X3183360Y-1268620D02*
Y-1246620D01*
X3562640Y-1388380D02*
X3586640D01*
Y-1364380D01*
X3562640D02*
X3586640D01*
X3562640Y-1388380D02*
Y-1364380D01*
Y-1642380D02*
X3586640D01*
Y-1618380D01*
X3562640D02*
X3586640D01*
X3562640Y-1642380D02*
Y-1618380D01*
X3542640Y-1662380D02*
X3562640Y-1642380D01*
X3542640Y-1662380D02*
X3606640D01*
X3586640Y-1642380D02*
X3606640Y-1662380D01*
X3542640Y-1598380D02*
X3562640Y-1618380D01*
X3542640Y-1662380D02*
Y-1598380D01*
X3606640Y-1662380D02*
Y-1598380D01*
X3586640Y-1618380D02*
X3606640Y-1598380D01*
X3542640D02*
X3606640D01*
X3542640Y-1344380D02*
X3562640Y-1364380D01*
X3542640Y-1408380D02*
Y-1344380D01*
Y-1408380D02*
X3562640Y-1388380D01*
X3606640Y-1408380D02*
Y-1344380D01*
X3586640Y-1364380D02*
X3606640Y-1344380D01*
X3586640Y-1388380D02*
X3606640Y-1408380D01*
X3542640Y-1344380D02*
X3606640D01*
X3542640Y-1408380D02*
X3606640D01*
X3447640Y-1311380D02*
X3487640Y-1271380D01*
X3447640Y-1441380D02*
Y-1311380D01*
Y-1441380D02*
X3487640Y-1481380D01*
X3661640D01*
X3701640Y-1441380D02*
Y-1311380D01*
X3661640Y-1271380D02*
X3701640Y-1311380D01*
X3661640Y-1481380D02*
X3701640Y-1441380D01*
X3487640Y-1271380D02*
X3661640D01*
X3447640Y-1695380D02*
X3487640Y-1735380D01*
X3447640Y-1565380D02*
X3487640Y-1525380D01*
X3661640D02*
X3701640Y-1565380D01*
X3487640Y-1525380D02*
X3661640D01*
X3447640Y-1695380D02*
Y-1565380D01*
X3661640Y-1735380D02*
X3701640Y-1695380D01*
Y-1565380D01*
X3487640Y-1735380D02*
X3661640D01*
X3641640Y-1525380D02*
Y-1481380D01*
X3507640Y-1525380D02*
Y-1481380D01*
Y-1757380D02*
Y-1735380D01*
Y-1757380D02*
X3641640D01*
Y-1735380D01*
X3642360Y-1268620D02*
Y-1246620D01*
X3508360D02*
X3642360D01*
X3508360Y-1268620D02*
Y-1246620D01*
X4437640Y-2113380D02*
X4461640D01*
Y-2089380D01*
X4437640D02*
X4461640D01*
X4437640Y-2113380D02*
Y-2089380D01*
Y-2367380D02*
X4461640D01*
Y-2343380D01*
X4437640D02*
X4461640D01*
X4437640Y-2367380D02*
Y-2343380D01*
X4417640Y-2387380D02*
X4437640Y-2367380D01*
X4417640Y-2387380D02*
X4481640D01*
X4461640Y-2367380D02*
X4481640Y-2387380D01*
X4417640Y-2323380D02*
X4437640Y-2343380D01*
X4417640Y-2387380D02*
Y-2323380D01*
X4481640Y-2387380D02*
Y-2323380D01*
X4461640Y-2343380D02*
X4481640Y-2323380D01*
X4417640D02*
X4481640D01*
X4417640Y-2069380D02*
X4437640Y-2089380D01*
X4417640Y-2133380D02*
Y-2069380D01*
Y-2133380D02*
X4437640Y-2113380D01*
X4481640Y-2133380D02*
Y-2069380D01*
X4461640Y-2089380D02*
X4481640Y-2069380D01*
X4461640Y-2113380D02*
X4481640Y-2133380D01*
X4417640Y-2069380D02*
X4481640D01*
X4417640Y-2133380D02*
X4481640D01*
X4322640Y-2036380D02*
X4362640Y-1996380D01*
X4322640Y-2166380D02*
Y-2036380D01*
Y-2166380D02*
X4362640Y-2206380D01*
X4536640D01*
X4576640Y-2166380D02*
Y-2036380D01*
X4536640Y-1996380D02*
X4576640Y-2036380D01*
X4536640Y-2206380D02*
X4576640Y-2166380D01*
X4362640Y-1996380D02*
X4536640D01*
X4322640Y-2420380D02*
X4362640Y-2460380D01*
X4322640Y-2290380D02*
X4362640Y-2250380D01*
X4536640D02*
X4576640Y-2290380D01*
X4362640Y-2250380D02*
X4536640D01*
X4322640Y-2420380D02*
Y-2290380D01*
X4536640Y-2460380D02*
X4576640Y-2420380D01*
Y-2290380D01*
X4362640Y-2460380D02*
X4536640D01*
X4516640Y-2250380D02*
Y-2206380D01*
X4382640Y-2250380D02*
Y-2206380D01*
Y-2482380D02*
Y-2460380D01*
Y-2482380D02*
X4516640D01*
Y-2460380D01*
X4517360Y-1993620D02*
Y-1971620D01*
X4383360D02*
X4517360D01*
X4383360Y-1993620D02*
Y-1971620D01*
X237640Y-2113380D02*
X261640D01*
Y-2089380D01*
X237640D02*
X261640D01*
X237640Y-2113380D02*
Y-2089380D01*
Y-2367380D02*
X261640D01*
Y-2343380D01*
X237640D02*
X261640D01*
X237640Y-2367380D02*
Y-2343380D01*
X217640Y-2387380D02*
X237640Y-2367380D01*
X217640Y-2387380D02*
X281640D01*
X261640Y-2367380D02*
X281640Y-2387380D01*
X217640Y-2323380D02*
X237640Y-2343380D01*
X217640Y-2387380D02*
Y-2323380D01*
X281640Y-2387380D02*
Y-2323380D01*
X261640Y-2343380D02*
X281640Y-2323380D01*
X217640D02*
X281640D01*
X217640Y-2069380D02*
X237640Y-2089380D01*
X217640Y-2133380D02*
Y-2069380D01*
Y-2133380D02*
X237640Y-2113380D01*
X281640Y-2133380D02*
Y-2069380D01*
X261640Y-2089380D02*
X281640Y-2069380D01*
X261640Y-2113380D02*
X281640Y-2133380D01*
X217640Y-2069380D02*
X281640D01*
X217640Y-2133380D02*
X281640D01*
X122640Y-2036380D02*
X162640Y-1996380D01*
X122640Y-2166380D02*
Y-2036380D01*
Y-2166380D02*
X162640Y-2206380D01*
X336640D01*
X376640Y-2166380D02*
Y-2036380D01*
X336640Y-1996380D02*
X376640Y-2036380D01*
X336640Y-2206380D02*
X376640Y-2166380D01*
X162640Y-1996380D02*
X336640D01*
X122640Y-2420380D02*
X162640Y-2460380D01*
X122640Y-2290380D02*
X162640Y-2250380D01*
X336640D02*
X376640Y-2290380D01*
X162640Y-2250380D02*
X336640D01*
X122640Y-2420380D02*
Y-2290380D01*
X336640Y-2460380D02*
X376640Y-2420380D01*
Y-2290380D01*
X162640Y-2460380D02*
X336640D01*
X316640Y-2250380D02*
Y-2206380D01*
X182640Y-2250380D02*
Y-2206380D01*
Y-2482380D02*
Y-2460380D01*
Y-2482380D02*
X316640D01*
Y-2460380D01*
X317360Y-1993620D02*
Y-1971620D01*
X183360D02*
X317360D01*
X183360Y-1993620D02*
Y-1971620D01*
%TF.MD5,6ac76003928171c3afead2ff415ca3aa*%
M02*
