%TF.GenerationSoftware,Altium Limited,Altium Designer,21.6.4 (81)*%
G04 Layer_Color=0*
%FSLAX45Y45*%
%MOMM*%
%TF.SameCoordinates,E19561C2-E2DB-472D-B720-4EF24A879867*%
%TF.FilePolarity,Positive*%
%TF.FileFunction,Plated,1,2,PTH,Drill*%
%TF.Part,Single*%
G01*
G75*
%TA.AperFunction,ComponentDrill*%
%ADD62C,0.80000*%
%ADD63C,1.20000*%
%ADD64C,1.00000*%
%ADD65C,0.95000*%
%ADD66C,1.80000*%
%ADD67C,0.80000*%
%ADD68C,1.20000*%
%ADD69C,2.50000*%
%TA.AperFunction,OtherDrill,Pad Free-O1 (187.5mm,-13.25mm)*%
%ADD70C,3.50000*%
%TA.AperFunction,OtherDrill,Pad Free-O1 (147.5mm,-13.25mm)*%
%ADD71C,3.50000*%
%TA.AperFunction,OtherDrill,Pad Free-O1 (139.5mm,-13.25mm)*%
%ADD72C,3.50000*%
%TA.AperFunction,OtherDrill,Pad Free-O1 (99.5mm,-13.25mm)*%
%ADD73C,3.50000*%
%TA.AperFunction,OtherDrill,Pad Free-O1 (91.5mm,-13.25mm)*%
%ADD74C,3.50000*%
%TA.AperFunction,OtherDrill,Pad Free-O1 (51.5mm,-13.25mm)*%
%ADD75C,3.50000*%
%TA.AperFunction,OtherDrill,Pad Free-O1 (43.5mm,-13.25mm)*%
%ADD76C,3.50000*%
%TA.AperFunction,OtherDrill,Pad Free-O1 (187.5mm,-49.5mm)*%
%ADD77C,3.50000*%
%TA.AperFunction,OtherDrill,Pad Free-O1 (43.5mm,-49.5mm)*%
%ADD78C,3.50000*%
%TA.AperFunction,OtherDrill,Pad Free-O1 (147.5mm,-49.5mm)*%
%ADD79C,3.50000*%
%TA.AperFunction,OtherDrill,Pad Free-O1 (51.5mm,-49.5mm)*%
%ADD80C,3.50000*%
%TA.AperFunction,OtherDrill,Pad Free-O1 (91.5mm,-49.5mm)*%
%ADD81C,3.50000*%
%TA.AperFunction,OtherDrill,Pad Free-O1 (3.5mm,-49.5mm)*%
%ADD82C,3.50000*%
%TA.AperFunction,OtherDrill,Pad Free-O1 (139.5mm,-49.5mm)*%
%ADD83C,3.50000*%
%TA.AperFunction,OtherDrill,Pad Free-O1 (99.5mm,-49.5mm)*%
%ADD84C,3.50000*%
%TA.AperFunction,ComponentDrill*%
%ADD85C,1.50000*%
%TA.AperFunction,OtherDrill,Pad Free-O1 (3.5mm,-13.25mm)*%
%ADD86C,3.50000*%
%TA.AperFunction,ViaDrill,NotFilled*%
%ADD87C,0.40000*%
%ADD88C,0.71120*%
D62*
X18140680Y-398780D02*
D03*
X17632680D02*
D03*
X17124680D02*
D03*
X16870680D02*
D03*
X16616679D02*
D03*
X16108681D02*
D03*
X15600681D02*
D03*
X15346680D02*
D03*
X13335001D02*
D03*
X12827000D02*
D03*
X12319000D02*
D03*
X12065000D02*
D03*
X11811000D02*
D03*
X11303000D02*
D03*
X10795000D02*
D03*
X10541000D02*
D03*
X3738880D02*
D03*
X3230880D02*
D03*
X2722880D02*
D03*
X2468880D02*
D03*
X2214880D02*
D03*
X1706880D02*
D03*
X1198880D02*
D03*
X944880D02*
D03*
X5737860D02*
D03*
X5991860D02*
D03*
X6499860D02*
D03*
X7007860D02*
D03*
X7261860D02*
D03*
X7515860D02*
D03*
X8023860D02*
D03*
X8531860D02*
D03*
D63*
X14700000Y-3100000D02*
D03*
X15000000Y-2000000D02*
D03*
X18850000Y-2775000D02*
D03*
X10100000Y-2000000D02*
D03*
X5300000D02*
D03*
X18300000Y-3920000D02*
D03*
Y-4940000D02*
D03*
X16300000Y-3920000D02*
D03*
Y-4940000D02*
D03*
X5250000Y-3800000D02*
D03*
D64*
X13250000Y-2600000D02*
D03*
X12750000D02*
D03*
X1467000Y-4042000D02*
D03*
X1721000D02*
D03*
X18050000Y-2600000D02*
D03*
X17550000D02*
D03*
X8438960Y-2476500D02*
D03*
X7938960D02*
D03*
X3650000Y-2600000D02*
D03*
X3150000D02*
D03*
D65*
X4102100Y-3903980D02*
D03*
X3848100D02*
D03*
X3594100D02*
D03*
X3340100D02*
D03*
X3086100D02*
D03*
X2832100D02*
D03*
D66*
X959000Y-4550000D02*
D03*
X1975000D02*
D03*
D67*
X14650000Y-2354000D02*
D03*
Y-2100000D02*
D03*
X17650000Y-1629000D02*
D03*
Y-1375000D02*
D03*
X17975000Y-1629000D02*
D03*
Y-1375000D02*
D03*
X18850000Y-2354000D02*
D03*
Y-2100000D02*
D03*
X9850000Y-2354000D02*
D03*
Y-2100000D02*
D03*
X12850000Y-1629000D02*
D03*
Y-1375000D02*
D03*
X13175000Y-1629000D02*
D03*
Y-1375000D02*
D03*
X14050000Y-2354000D02*
D03*
Y-2100000D02*
D03*
X5050000Y-2354000D02*
D03*
Y-2100000D02*
D03*
X8050000Y-1629000D02*
D03*
Y-1375000D02*
D03*
X8375000Y-1629000D02*
D03*
Y-1375000D02*
D03*
X9250000Y-2354000D02*
D03*
Y-2100000D02*
D03*
X3250000Y-1629000D02*
D03*
Y-1375000D02*
D03*
X3575000Y-1629000D02*
D03*
Y-1375000D02*
D03*
X4450000Y-2354000D02*
D03*
Y-2100000D02*
D03*
X250000Y-2354000D02*
D03*
Y-2100000D02*
D03*
D68*
X17300000Y-3920000D02*
D03*
Y-4940000D02*
D03*
X15300000Y-3920000D02*
D03*
Y-4940000D02*
D03*
D69*
X17800000Y-4300000D02*
D03*
X15800000D02*
D03*
D70*
X18750000Y-1325000D02*
D03*
D71*
X14750000D02*
D03*
D72*
X13950000Y-1325000D02*
D03*
D73*
X9950000D02*
D03*
D74*
X9150000D02*
D03*
D75*
X5150000D02*
D03*
D76*
X4350000Y-1325000D02*
D03*
D77*
X18750000Y-4950000D02*
D03*
D78*
X4350000D02*
D03*
D79*
X14750000Y-4950000D02*
D03*
D80*
X5150000Y-4950000D02*
D03*
D81*
X9150000D02*
D03*
D82*
X350000D02*
D03*
D83*
X13950000D02*
D03*
D84*
X9950000D02*
D03*
D85*
X2597530Y-4814570D02*
D03*
X3097530D02*
D03*
X3597530D02*
D03*
D86*
X350000Y-1325000D02*
D03*
D87*
X16361000Y-2832000D02*
D03*
X16234000Y-3086000D02*
D03*
X16361000Y-3340000D02*
D03*
X16234000Y-3594000D02*
D03*
X16361000Y-4356000D02*
D03*
X16107001Y-2832000D02*
D03*
X15980000Y-3086000D02*
D03*
X16107001Y-3340000D02*
D03*
X15980000Y-3594000D02*
D03*
Y-4102000D02*
D03*
X16107001Y-4356000D02*
D03*
X15853000Y-3340000D02*
D03*
X15725999Y-3594000D02*
D03*
X15853000Y-3848000D02*
D03*
X15472000Y-3086000D02*
D03*
X15599001Y-3340000D02*
D03*
X15472000Y-3594000D02*
D03*
X15599001Y-3848000D02*
D03*
X15472000Y-4102000D02*
D03*
X15217999Y-3086000D02*
D03*
Y-3594000D02*
D03*
X15345000Y-4356000D02*
D03*
X14964000Y-3086000D02*
D03*
X15091000Y-3340000D02*
D03*
X14964000Y-3594000D02*
D03*
X15091000Y-3848000D02*
D03*
X14964000Y-4102000D02*
D03*
X14837000Y-2832000D02*
D03*
X14710001Y-3086000D02*
D03*
X14837000Y-3340000D02*
D03*
X14710001Y-3594000D02*
D03*
X14837000Y-3848000D02*
D03*
X14710001Y-4102000D02*
D03*
X14583000Y-2832000D02*
D03*
X14456000Y-3086000D02*
D03*
X14583000Y-3340000D02*
D03*
X14456000Y-3594000D02*
D03*
X14583000Y-3848000D02*
D03*
X14456000Y-4102000D02*
D03*
X14328999Y-2832000D02*
D03*
X14202000Y-3086000D02*
D03*
X14328999Y-3340000D02*
D03*
X14202000Y-3594000D02*
D03*
X14328999Y-3848000D02*
D03*
X14202000Y-4102000D02*
D03*
X14075000Y-2832000D02*
D03*
X13948000Y-3086000D02*
D03*
X14075000Y-3340000D02*
D03*
X13948000Y-3594000D02*
D03*
X14075000Y-3848000D02*
D03*
X13948000Y-4102000D02*
D03*
X13821001Y-2832000D02*
D03*
X13694000Y-3086000D02*
D03*
X13821001Y-3340000D02*
D03*
X13694000Y-3594000D02*
D03*
X13821001Y-3848000D02*
D03*
X13694000Y-4102000D02*
D03*
X13567000Y-2832000D02*
D03*
X13439999Y-3086000D02*
D03*
X13567000Y-3340000D02*
D03*
X13439999Y-3594000D02*
D03*
X13567000Y-3848000D02*
D03*
X13439999Y-4102000D02*
D03*
X13313000Y-2832000D02*
D03*
X13186000Y-3086000D02*
D03*
X13313000Y-3340000D02*
D03*
X13186000Y-3594000D02*
D03*
X13313000Y-3848000D02*
D03*
X13186000Y-4102000D02*
D03*
X13059000Y-2832000D02*
D03*
X12932001Y-3086000D02*
D03*
X13059000Y-3340000D02*
D03*
X12932001Y-3594000D02*
D03*
X13059000Y-3848000D02*
D03*
X12932001Y-4102000D02*
D03*
X12805000Y-2832000D02*
D03*
X12678000Y-3086000D02*
D03*
X12805000Y-3340000D02*
D03*
X12678000Y-3594000D02*
D03*
X12805000Y-3848000D02*
D03*
X12678000Y-4102000D02*
D03*
X12551000Y-2832000D02*
D03*
X12424000Y-3086000D02*
D03*
X12551000Y-3340000D02*
D03*
X12424000Y-3594000D02*
D03*
X12551000Y-3848000D02*
D03*
X12424000Y-4102000D02*
D03*
X12297000Y-2832000D02*
D03*
X12170000Y-3086000D02*
D03*
X12297000Y-3340000D02*
D03*
X12170000Y-3594000D02*
D03*
X12297000Y-3848000D02*
D03*
X12170000Y-4102000D02*
D03*
X12043000Y-2832000D02*
D03*
X11916000Y-3086000D02*
D03*
X12043000Y-3340000D02*
D03*
X11916000Y-3594000D02*
D03*
X12043000Y-3848000D02*
D03*
X11916000Y-4102000D02*
D03*
X11789000Y-2832000D02*
D03*
X11662000Y-3086000D02*
D03*
X11789000Y-3340000D02*
D03*
X11662000Y-3594000D02*
D03*
X11789000Y-3848000D02*
D03*
X11662000Y-4102000D02*
D03*
X11535000Y-2832000D02*
D03*
X11408000Y-3086000D02*
D03*
X11535000Y-3340000D02*
D03*
X11408000Y-3594000D02*
D03*
X11535000Y-3848000D02*
D03*
X11408000Y-4102000D02*
D03*
X11281000Y-2832000D02*
D03*
X11154000Y-3086000D02*
D03*
X11281000Y-3340000D02*
D03*
X11154000Y-3594000D02*
D03*
X11281000Y-3848000D02*
D03*
X11154000Y-4102000D02*
D03*
X11027000Y-2832000D02*
D03*
X10900000Y-3086000D02*
D03*
X11027000Y-3340000D02*
D03*
X10900000Y-3594000D02*
D03*
X11027000Y-3848000D02*
D03*
X10900000Y-4102000D02*
D03*
X10773000Y-2832000D02*
D03*
X10646000Y-3086000D02*
D03*
X10773000Y-3340000D02*
D03*
X10646000Y-3594000D02*
D03*
X10773000Y-3848000D02*
D03*
X10646000Y-4102000D02*
D03*
X10519000Y-2832000D02*
D03*
X10392000Y-3086000D02*
D03*
X10519000Y-3340000D02*
D03*
X10392000Y-3594000D02*
D03*
X10519000Y-3848000D02*
D03*
X10392000Y-4102000D02*
D03*
X10265000Y-2832000D02*
D03*
X10138000Y-3086000D02*
D03*
X10265000Y-3340000D02*
D03*
X10138000Y-3594000D02*
D03*
X10265000Y-3848000D02*
D03*
X10138000Y-4102000D02*
D03*
X10011000Y-2832000D02*
D03*
X9884000Y-3086000D02*
D03*
X10011000Y-3340000D02*
D03*
X9884000Y-3594000D02*
D03*
X10011000Y-3848000D02*
D03*
X9884000Y-4102000D02*
D03*
X9757000Y-2832000D02*
D03*
X9630000Y-3086000D02*
D03*
X9757000Y-3340000D02*
D03*
X9630000Y-3594000D02*
D03*
X9757000Y-3848000D02*
D03*
X9630000Y-4102000D02*
D03*
X9503000Y-2832000D02*
D03*
X9376000Y-3086000D02*
D03*
X9503000Y-3340000D02*
D03*
X9376000Y-3594000D02*
D03*
X9503000Y-3848000D02*
D03*
X9376000Y-4102000D02*
D03*
X9249000Y-2832000D02*
D03*
X9122000Y-3086000D02*
D03*
X9249000Y-3340000D02*
D03*
X9122000Y-3594000D02*
D03*
X9249000Y-3848000D02*
D03*
X9122000Y-4102000D02*
D03*
X8995000Y-2832000D02*
D03*
X8868000Y-3086000D02*
D03*
X8995000Y-3340000D02*
D03*
X8868000Y-3594000D02*
D03*
X8995000Y-3848000D02*
D03*
X8868000Y-4102000D02*
D03*
X8741000Y-2832000D02*
D03*
X8614000Y-3086000D02*
D03*
X8741000Y-3340000D02*
D03*
X8614000Y-3594000D02*
D03*
X8741000Y-3848000D02*
D03*
X8614000Y-4102000D02*
D03*
X8487000Y-2832000D02*
D03*
X8360000Y-3086000D02*
D03*
X8487000Y-3340000D02*
D03*
X8360000Y-3594000D02*
D03*
X8487000Y-3848000D02*
D03*
X8233000Y-2832000D02*
D03*
X8106000Y-3086000D02*
D03*
X8233000Y-3340000D02*
D03*
X8106000Y-3594000D02*
D03*
X7979000Y-2832000D02*
D03*
X7725000D02*
D03*
X7471000D02*
D03*
X7217000D02*
D03*
X6963000D02*
D03*
X6709000D02*
D03*
X6455000D02*
D03*
X6201000D02*
D03*
X5947000D02*
D03*
X5693000D02*
D03*
X5439000D02*
D03*
X5185000D02*
D03*
X4931000D02*
D03*
X4550000Y-546000D02*
D03*
Y-1054000D02*
D03*
Y-1562000D02*
D03*
Y-2578000D02*
D03*
X4677000Y-2832000D02*
D03*
X4296000Y-546000D02*
D03*
X4423000Y-1816000D02*
D03*
X4296000Y-2578000D02*
D03*
X4423000Y-2832000D02*
D03*
X4296000Y-3086000D02*
D03*
X4042000Y-546000D02*
D03*
Y-1054000D02*
D03*
Y-1562000D02*
D03*
X4169000Y-1816000D02*
D03*
Y-2324000D02*
D03*
X4042000Y-2578000D02*
D03*
X4169000Y-2832000D02*
D03*
X4042000Y-3086000D02*
D03*
X4169000Y-3340000D02*
D03*
X4042000Y-4610000D02*
D03*
Y-5118000D02*
D03*
X3788000Y-1054000D02*
D03*
X3915000Y-1308000D02*
D03*
X3788000Y-1562000D02*
D03*
X3915000Y-1816000D02*
D03*
Y-2324000D02*
D03*
Y-2832000D02*
D03*
X3788000Y-3086000D02*
D03*
X3915000Y-3340000D02*
D03*
X3788000Y-4102000D02*
D03*
X3915000Y-4356000D02*
D03*
X3788000Y-4610000D02*
D03*
X3915000Y-4864000D02*
D03*
X3788000Y-5118000D02*
D03*
X3661000Y-2832000D02*
D03*
X3534000Y-3086000D02*
D03*
Y-4102000D02*
D03*
Y-5118000D02*
D03*
X3407000Y-2832000D02*
D03*
X3280000Y-3086000D02*
D03*
Y-4610000D02*
D03*
Y-5118000D02*
D03*
X3026000Y-2070000D02*
D03*
X3153000Y-2832000D02*
D03*
X3026000Y-4102000D02*
D03*
X3153000Y-4356000D02*
D03*
X3026000Y-4610000D02*
D03*
Y-5118000D02*
D03*
X2772000Y-1054000D02*
D03*
X2899000Y-1308000D02*
D03*
X2772000Y-2070000D02*
D03*
X2899000Y-2324000D02*
D03*
X2772000Y-2578000D02*
D03*
X2899000Y-2832000D02*
D03*
Y-4356000D02*
D03*
X2772000Y-4610000D02*
D03*
X2899000Y-4864000D02*
D03*
X2772000Y-5118000D02*
D03*
X2645000Y-800000D02*
D03*
X2518000Y-1562000D02*
D03*
X2645000Y-1816000D02*
D03*
X2518000Y-2070000D02*
D03*
X2645000Y-2324000D02*
D03*
X2518000Y-3086000D02*
D03*
X2645000Y-3340000D02*
D03*
X2518000Y-4102000D02*
D03*
Y-5118000D02*
D03*
X2264000Y-1562000D02*
D03*
X2391000Y-1816000D02*
D03*
X2264000Y-2070000D02*
D03*
X2391000Y-2324000D02*
D03*
X2264000Y-3086000D02*
D03*
X2391000Y-3340000D02*
D03*
Y-3848000D02*
D03*
X2264000Y-4102000D02*
D03*
X2391000Y-4356000D02*
D03*
X2264000Y-4610000D02*
D03*
Y-5118000D02*
D03*
X2010000Y-1562000D02*
D03*
X2137000Y-1816000D02*
D03*
X2010000Y-2578000D02*
D03*
X2137000Y-2832000D02*
D03*
X2010000Y-3086000D02*
D03*
X2137000Y-3340000D02*
D03*
Y-3848000D02*
D03*
X2010000Y-4102000D02*
D03*
X2137000Y-4356000D02*
D03*
Y-4864000D02*
D03*
X2010000Y-5118000D02*
D03*
X1883000Y-1816000D02*
D03*
X1756000Y-2578000D02*
D03*
X1883000Y-2832000D02*
D03*
X1756000Y-3086000D02*
D03*
X1883000Y-3340000D02*
D03*
Y-3848000D02*
D03*
X1756000Y-4610000D02*
D03*
X1883000Y-4864000D02*
D03*
X1756000Y-5118000D02*
D03*
X1502000Y-546000D02*
D03*
X1629000Y-2324000D02*
D03*
X1502000Y-2578000D02*
D03*
X1629000Y-2832000D02*
D03*
Y-4356000D02*
D03*
X1502000Y-4610000D02*
D03*
X1629000Y-4864000D02*
D03*
X1502000Y-5118000D02*
D03*
X1248000Y-546000D02*
D03*
X1375000Y-2324000D02*
D03*
X1248000Y-2578000D02*
D03*
Y-3594000D02*
D03*
Y-4102000D02*
D03*
X1375000Y-4356000D02*
D03*
X1248000Y-4610000D02*
D03*
X1375000Y-4864000D02*
D03*
X1248000Y-5118000D02*
D03*
X1121000Y-1308000D02*
D03*
X994000Y-3086000D02*
D03*
X1121000Y-3340000D02*
D03*
X994000Y-3594000D02*
D03*
X1121000Y-3848000D02*
D03*
X994000Y-4102000D02*
D03*
X1121000Y-4356000D02*
D03*
Y-4864000D02*
D03*
X994000Y-5118000D02*
D03*
X867000Y-1308000D02*
D03*
X740000Y-2070000D02*
D03*
Y-2578000D02*
D03*
X867000Y-2832000D02*
D03*
X740000Y-3086000D02*
D03*
X867000Y-3340000D02*
D03*
X740000Y-3594000D02*
D03*
X867000Y-3848000D02*
D03*
X740000Y-4102000D02*
D03*
Y-4610000D02*
D03*
X867000Y-4864000D02*
D03*
X740000Y-5118000D02*
D03*
X486000Y-1054000D02*
D03*
X613000Y-1816000D02*
D03*
X486000Y-2070000D02*
D03*
X613000Y-2324000D02*
D03*
X486000Y-2578000D02*
D03*
X613000Y-2832000D02*
D03*
X486000Y-3086000D02*
D03*
X613000Y-3340000D02*
D03*
X486000Y-3594000D02*
D03*
X613000Y-3848000D02*
D03*
X486000Y-4102000D02*
D03*
X613000Y-4356000D02*
D03*
X486000Y-4610000D02*
D03*
X232000Y-1054000D02*
D03*
X359000Y-1816000D02*
D03*
X232000Y-2578000D02*
D03*
X359000Y-2832000D02*
D03*
X232000Y-3086000D02*
D03*
X359000Y-3340000D02*
D03*
X232000Y-3594000D02*
D03*
X359000Y-3848000D02*
D03*
X232000Y-4102000D02*
D03*
X359000Y-4356000D02*
D03*
X232000Y-4610000D02*
D03*
D88*
X13550861Y-828040D02*
D03*
X7825000Y-3800000D02*
D03*
X5600000Y-4750000D02*
D03*
X4475000Y-3800000D02*
D03*
X10883900Y-2882900D02*
D03*
X5821680Y-2702560D02*
D03*
X18366701Y-822920D02*
D03*
X8684220Y-835660D02*
D03*
X3865840Y-830580D02*
D03*
%TF.MD5,143b2d853830b91feb7be476c6614804*%
M02*
