%TF.GenerationSoftware,Altium Limited,Altium Designer,21.6.4 (81)*%
G04 Layer_Color=128*
%FSLAX45Y45*%
%MOMM*%
%TF.SameCoordinates,E19561C2-E2DB-472D-B720-4EF24A879867*%
%TF.FilePolarity,Positive*%
%TF.FileFunction,Drillmap*%
%TF.Part,Single*%
G01*
G75*
%TA.AperFunction,NonConductor*%
%ADD90C,0.12700*%
D90*
X18100681Y-398780D02*
X18180679D01*
X18140680Y-438780D02*
Y-358780D01*
X17592680Y-398780D02*
X17672681D01*
X17632680Y-438780D02*
Y-358780D01*
X17084680Y-398780D02*
X17164680D01*
X17124680Y-438780D02*
Y-358780D01*
X16830679Y-398780D02*
X16910680D01*
X16870680Y-438780D02*
Y-358780D01*
X16576680Y-398780D02*
X16656680D01*
X16616679Y-438780D02*
Y-358780D01*
X16068680Y-398780D02*
X16148680D01*
X16108681Y-438780D02*
Y-358780D01*
X15560680Y-398780D02*
X15640680D01*
X15600681Y-438780D02*
Y-358780D01*
X15306680Y-398780D02*
X15386681D01*
X15346680Y-438780D02*
Y-358780D01*
X13295000Y-398780D02*
X13375000D01*
X13335001Y-438780D02*
Y-358780D01*
X12787000Y-398780D02*
X12867000D01*
X12827000Y-438780D02*
Y-358780D01*
X12279000Y-398780D02*
X12359000D01*
X12319000Y-438780D02*
Y-358780D01*
X12025000Y-398780D02*
X12105000D01*
X12065000Y-438780D02*
Y-358780D01*
X11771000Y-398780D02*
X11851000D01*
X11811000Y-438780D02*
Y-358780D01*
X11263000Y-398780D02*
X11343000D01*
X11303000Y-438780D02*
Y-358780D01*
X10755000Y-398780D02*
X10835000D01*
X10795000Y-438780D02*
Y-358780D01*
X10501000Y-398780D02*
X10581000D01*
X10541000Y-438780D02*
Y-358780D01*
X3698880Y-398780D02*
X3778880D01*
X3738880Y-438780D02*
Y-358780D01*
X3190880Y-398780D02*
X3270880D01*
X3230880Y-438780D02*
Y-358780D01*
X2682880Y-398780D02*
X2762880D01*
X2722880Y-438780D02*
Y-358780D01*
X2428880Y-398780D02*
X2508880D01*
X2468880Y-438780D02*
Y-358780D01*
X2174880Y-398780D02*
X2254880D01*
X2214880Y-438780D02*
Y-358780D01*
X1666880Y-398780D02*
X1746880D01*
X1706880Y-438780D02*
Y-358780D01*
X1158880Y-398780D02*
X1238880D01*
X1198880Y-438780D02*
Y-358780D01*
X904880Y-398780D02*
X984880D01*
X944880Y-438780D02*
Y-358780D01*
X5697860Y-398780D02*
X5777860D01*
X5737860Y-438780D02*
Y-358780D01*
X5951860Y-398780D02*
X6031860D01*
X5991860Y-438780D02*
Y-358780D01*
X6459860Y-398780D02*
X6539860D01*
X6499860Y-438780D02*
Y-358780D01*
X6967860Y-398780D02*
X7047860D01*
X7007860Y-438780D02*
Y-358780D01*
X7221860Y-398780D02*
X7301860D01*
X7261860Y-438780D02*
Y-358780D01*
X7475860Y-398780D02*
X7555860D01*
X7515860Y-438780D02*
Y-358780D01*
X7983860Y-398780D02*
X8063860D01*
X8023860Y-438780D02*
Y-358780D01*
X8491860Y-398780D02*
X8571860D01*
X8531860Y-438780D02*
Y-358780D01*
X14639999Y-3100000D02*
X14760001D01*
X14700000Y-3160000D02*
Y-3040000D01*
X14939999Y-2000000D02*
X15060001D01*
X15000000Y-2060000D02*
Y-1940000D01*
X18789999Y-2775000D02*
X18910001D01*
X18850000Y-2835000D02*
Y-2715000D01*
X10040000Y-2000000D02*
X10160000D01*
X10100000Y-2060000D02*
Y-1940000D01*
X5240000Y-2000000D02*
X5360000D01*
X5300000Y-2060000D02*
Y-1940000D01*
X13200000Y-2600000D02*
X13300000D01*
X13250000Y-2650000D02*
Y-2550000D01*
X12700000Y-2600000D02*
X12800000D01*
X12750000Y-2650000D02*
Y-2550000D01*
X4054600Y-3903980D02*
X4149600D01*
X4102100Y-3951480D02*
Y-3856480D01*
X3800600Y-3903980D02*
X3895600D01*
X3848100Y-3951480D02*
Y-3856480D01*
X3546600Y-3903980D02*
X3641600D01*
X3594100Y-3951480D02*
Y-3856480D01*
X3292600Y-3903980D02*
X3387600D01*
X3340100Y-3951480D02*
Y-3856480D01*
X3038600Y-3903980D02*
X3133600D01*
X3086100Y-3951480D02*
Y-3856480D01*
X2784600Y-3903980D02*
X2879600D01*
X2832100Y-3951480D02*
Y-3856480D01*
X869000Y-4550000D02*
X1049000D01*
X959000Y-4640000D02*
Y-4460000D01*
X1417000Y-4042000D02*
X1517000D01*
X1467000Y-4092000D02*
Y-3992000D01*
X1671000Y-4042000D02*
X1771000D01*
X1721000Y-4092000D02*
Y-3992000D01*
X1885000Y-4550000D02*
X2065000D01*
X1975000Y-4640000D02*
Y-4460000D01*
X18000000Y-2600000D02*
X18100000D01*
X18050000Y-2650000D02*
Y-2550000D01*
X17500000Y-2600000D02*
X17600000D01*
X17550000Y-2650000D02*
Y-2550000D01*
X8388960Y-2476500D02*
X8488960D01*
X8438960Y-2526500D02*
Y-2426500D01*
X7888960Y-2476500D02*
X7988960D01*
X7938960Y-2526500D02*
Y-2426500D01*
X3600000Y-2600000D02*
X3700000D01*
X3650000Y-2650000D02*
Y-2550000D01*
X3100000Y-2600000D02*
X3200000D01*
X3150000Y-2650000D02*
Y-2550000D01*
X14610001Y-2354000D02*
X14689999D01*
X14650000Y-2394000D02*
Y-2314000D01*
X14610001Y-2100000D02*
X14689999D01*
X14650000Y-2140000D02*
Y-2060000D01*
X17610001Y-1629000D02*
X17689999D01*
X17650000Y-1669000D02*
Y-1589000D01*
X17610001Y-1375000D02*
X17689999D01*
X17650000Y-1415000D02*
Y-1335000D01*
X17935001Y-1629000D02*
X18014999D01*
X17975000Y-1669000D02*
Y-1589000D01*
X17935001Y-1375000D02*
X18014999D01*
X17975000Y-1415000D02*
Y-1335000D01*
X18810001Y-2354000D02*
X18889999D01*
X18850000Y-2394000D02*
Y-2314000D01*
X18810001Y-2100000D02*
X18889999D01*
X18850000Y-2140000D02*
Y-2060000D01*
X9810000Y-2354000D02*
X9890000D01*
X9850000Y-2394000D02*
Y-2314000D01*
X9810000Y-2100000D02*
X9890000D01*
X9850000Y-2140000D02*
Y-2060000D01*
X12810001Y-1629000D02*
X12889999D01*
X12850000Y-1668999D02*
Y-1589000D01*
X12810001Y-1375000D02*
X12889999D01*
X12850000Y-1414999D02*
Y-1335000D01*
X13135001Y-1629000D02*
X13214999D01*
X13175000Y-1668999D02*
Y-1589000D01*
X13135001Y-1375000D02*
X13214999D01*
X13175000Y-1414999D02*
Y-1335000D01*
X14010001Y-2354000D02*
X14089999D01*
X14050000Y-2394000D02*
Y-2314000D01*
X14010001Y-2100000D02*
X14089999D01*
X14050000Y-2140000D02*
Y-2060000D01*
X5010000Y-2354000D02*
X5090000D01*
X5050000Y-2394000D02*
Y-2314000D01*
X5010000Y-2100000D02*
X5090000D01*
X5050000Y-2140000D02*
Y-2060000D01*
X8010000Y-1629000D02*
X8090000D01*
X8050000Y-1668999D02*
Y-1589000D01*
X8010000Y-1375000D02*
X8090000D01*
X8050000Y-1414999D02*
Y-1335000D01*
X8335000Y-1629000D02*
X8415000D01*
X8375000Y-1668999D02*
Y-1589000D01*
X8335000Y-1375000D02*
X8415000D01*
X8375000Y-1414999D02*
Y-1335000D01*
X9210000Y-2354000D02*
X9290000D01*
X9250000Y-2394000D02*
Y-2314000D01*
X9210000Y-2100000D02*
X9290000D01*
X9250000Y-2140000D02*
Y-2060000D01*
X3210000Y-1629000D02*
X3290000D01*
X3250000Y-1669000D02*
Y-1589000D01*
X3210000Y-1375000D02*
X3290000D01*
X3250000Y-1415000D02*
Y-1335000D01*
X3535000Y-1629000D02*
X3615000D01*
X3575000Y-1669000D02*
Y-1589000D01*
X3535000Y-1375000D02*
X3615000D01*
X3575000Y-1415000D02*
Y-1335000D01*
X4410000Y-2354000D02*
X4490000D01*
X4450000Y-2394000D02*
Y-2314000D01*
X4410000Y-2100000D02*
X4490000D01*
X4450000Y-2140000D02*
Y-2060000D01*
X210000Y-2354000D02*
X290000D01*
X250000Y-2394000D02*
Y-2314000D01*
X210000Y-2100000D02*
X290000D01*
X250000Y-2140000D02*
Y-2060000D01*
X18239999Y-3920000D02*
X18360001D01*
X18300000Y-3980000D02*
Y-3860000D01*
X17239999Y-3920000D02*
X17360001D01*
X17300000Y-3980000D02*
Y-3860000D01*
X18239999Y-4940000D02*
X18360001D01*
X18300000Y-5000000D02*
Y-4880000D01*
X17239999Y-4940000D02*
X17360001D01*
X17300000Y-5000000D02*
Y-4880000D01*
X17675000Y-4300000D02*
X17925000D01*
X17800000Y-4425000D02*
Y-4175000D01*
X16239999Y-3920000D02*
X16360001D01*
X16300000Y-3980000D02*
Y-3860000D01*
X15239999Y-3920000D02*
X15360001D01*
X15300000Y-3980000D02*
Y-3860000D01*
X16239999Y-4940000D02*
X16360001D01*
X16300000Y-5000000D02*
Y-4880000D01*
X15239999Y-4940000D02*
X15360001D01*
X15300000Y-5000000D02*
Y-4880000D01*
X15675000Y-4300000D02*
X15925000D01*
X15800000Y-4425000D02*
Y-4175000D01*
X18575000Y-1325000D02*
X18924998D01*
X18750000Y-1500000D02*
Y-1150000D01*
X5190000Y-3800000D02*
X5310000D01*
X5250000Y-3860000D02*
Y-3740000D01*
X14575000Y-1325000D02*
X14925000D01*
X14750000Y-1500000D02*
Y-1150000D01*
X13775000Y-1325000D02*
X14125000D01*
X13950000Y-1500000D02*
Y-1150000D01*
X9775000Y-1325000D02*
X10125000D01*
X9950000Y-1500000D02*
Y-1150000D01*
X8975000Y-1325000D02*
X9325000D01*
X9150000Y-1500000D02*
Y-1150000D01*
X4975000Y-1325000D02*
X5325000D01*
X5150000Y-1500000D02*
Y-1150000D01*
X4175000Y-1325000D02*
X4525000D01*
X4350000Y-1500000D02*
Y-1150000D01*
X18575000Y-4950000D02*
X18925000D01*
X18750000Y-5125000D02*
Y-4775000D01*
X4175000Y-4950000D02*
X4525000D01*
X4350000Y-5125000D02*
Y-4775000D01*
X14575000Y-4950000D02*
X14925000D01*
X14750000Y-5125000D02*
Y-4775000D01*
X4975000Y-4950000D02*
X5325000D01*
X5150000Y-5125000D02*
Y-4775000D01*
X8975000Y-4950000D02*
X9325000D01*
X9150000Y-5125000D02*
Y-4775000D01*
X175000Y-4950000D02*
X525000D01*
X350000Y-5125000D02*
Y-4775000D01*
X13775000Y-4950000D02*
X14125000D01*
X13950000Y-5125000D02*
Y-4775000D01*
X9775000Y-4950000D02*
X10125000D01*
X9950000Y-5125000D02*
Y-4775000D01*
X2522530Y-4814570D02*
X2672530D01*
X2597530Y-4889570D02*
Y-4739570D01*
X3022530Y-4814570D02*
X3172530D01*
X3097530Y-4889570D02*
Y-4739570D01*
X3522530Y-4814570D02*
X3672530D01*
X3597530Y-4889570D02*
Y-4739570D01*
X175000Y-1325000D02*
X525000D01*
X350000Y-1500000D02*
Y-1150000D01*
X16341000Y-2832000D02*
X16381000D01*
X16361000Y-2852000D02*
Y-2812000D01*
X16214000Y-3086000D02*
X16253999D01*
X16234000Y-3106000D02*
Y-3066000D01*
X16341000Y-3340000D02*
X16381000D01*
X16361000Y-3360000D02*
Y-3320000D01*
X16214000Y-3594000D02*
X16253999D01*
X16234000Y-3614000D02*
Y-3574000D01*
X16341000Y-4356000D02*
X16381000D01*
X16361000Y-4376000D02*
Y-4336000D01*
X16087000Y-2832000D02*
X16127000D01*
X16107001Y-2852000D02*
Y-2812000D01*
X15960001Y-3086000D02*
X16000000D01*
X15980000Y-3106000D02*
Y-3066000D01*
X16087000Y-3340000D02*
X16127000D01*
X16107001Y-3360000D02*
Y-3320000D01*
X15960001Y-3594000D02*
X16000000D01*
X15980000Y-3614000D02*
Y-3574000D01*
X15960001Y-4102000D02*
X16000000D01*
X15980000Y-4122000D02*
Y-4082000D01*
X16087000Y-4356000D02*
X16127000D01*
X16107001Y-4376000D02*
Y-4336000D01*
X15833000Y-3340000D02*
X15873000D01*
X15853000Y-3360000D02*
Y-3320000D01*
X15706000Y-3594000D02*
X15746001D01*
X15725999Y-3614000D02*
Y-3574000D01*
X15833000Y-3848000D02*
X15873000D01*
X15853000Y-3868000D02*
Y-3828000D01*
X15452000Y-3086000D02*
X15492000D01*
X15472000Y-3106000D02*
Y-3066000D01*
X15578999Y-3340000D02*
X15619000D01*
X15599001Y-3360000D02*
Y-3320000D01*
X15452000Y-3594000D02*
X15492000D01*
X15472000Y-3614000D02*
Y-3574000D01*
X15578999Y-3848000D02*
X15619000D01*
X15599001Y-3868000D02*
Y-3828000D01*
X15452000Y-4102000D02*
X15492000D01*
X15472000Y-4122000D02*
Y-4082000D01*
X15198000Y-3086000D02*
X15238000D01*
X15217999Y-3106000D02*
Y-3066000D01*
X15198000Y-3594000D02*
X15238000D01*
X15217999Y-3614000D02*
Y-3574000D01*
X15325000Y-4356000D02*
X15364999D01*
X15345000Y-4376000D02*
Y-4336000D01*
X14944000Y-3086000D02*
X14984000D01*
X14964000Y-3106000D02*
Y-3066000D01*
X15071001Y-3340000D02*
X15111000D01*
X15091000Y-3360000D02*
Y-3320000D01*
X14944000Y-3594000D02*
X14984000D01*
X14964000Y-3614000D02*
Y-3574000D01*
X15071001Y-3848000D02*
X15111000D01*
X15091000Y-3868000D02*
Y-3828000D01*
X14944000Y-4102000D02*
X14984000D01*
X14964000Y-4122000D02*
Y-4082000D01*
X14817000Y-2832000D02*
X14857001D01*
X14837000Y-2852000D02*
Y-2812000D01*
X14689999Y-3086000D02*
X14730000D01*
X14710001Y-3106000D02*
Y-3066000D01*
X14817000Y-3340000D02*
X14857001D01*
X14837000Y-3360000D02*
Y-3320000D01*
X14689999Y-3594000D02*
X14730000D01*
X14710001Y-3614000D02*
Y-3574000D01*
X14817000Y-3848000D02*
X14857001D01*
X14837000Y-3868000D02*
Y-3828000D01*
X14689999Y-4102000D02*
X14730000D01*
X14710001Y-4122000D02*
Y-4082000D01*
X14563000Y-2832000D02*
X14603000D01*
X14583000Y-2852000D02*
Y-2812000D01*
X14436000Y-3086000D02*
X14475999D01*
X14456000Y-3106000D02*
Y-3066000D01*
X14563000Y-3340000D02*
X14603000D01*
X14583000Y-3360000D02*
Y-3320000D01*
X14436000Y-3594000D02*
X14475999D01*
X14456000Y-3614000D02*
Y-3574000D01*
X14563000Y-3848000D02*
X14603000D01*
X14583000Y-3868000D02*
Y-3828000D01*
X14436000Y-4102000D02*
X14475999D01*
X14456000Y-4122000D02*
Y-4082000D01*
X14309000Y-2832000D02*
X14349001D01*
X14328999Y-2852000D02*
Y-2812000D01*
X14182001Y-3086000D02*
X14222000D01*
X14202000Y-3106000D02*
Y-3066000D01*
X14309000Y-3340000D02*
X14349001D01*
X14328999Y-3360000D02*
Y-3320000D01*
X14182001Y-3594000D02*
X14222000D01*
X14202000Y-3614000D02*
Y-3574000D01*
X14309000Y-3848000D02*
X14349001D01*
X14328999Y-3868000D02*
Y-3828000D01*
X14182001Y-4102000D02*
X14222000D01*
X14202000Y-4122000D02*
Y-4082000D01*
X14055000Y-2832000D02*
X14095000D01*
X14075000Y-2852000D02*
Y-2812000D01*
X13928000Y-3086000D02*
X13967999D01*
X13948000Y-3106000D02*
Y-3066000D01*
X14055000Y-3340000D02*
X14095000D01*
X14075000Y-3360000D02*
Y-3320000D01*
X13928000Y-3594000D02*
X13967999D01*
X13948000Y-3614000D02*
Y-3574000D01*
X14055000Y-3848000D02*
X14095000D01*
X14075000Y-3868000D02*
Y-3828000D01*
X13928000Y-4102000D02*
X13967999D01*
X13948000Y-4122000D02*
Y-4082000D01*
X13800999Y-2832000D02*
X13841000D01*
X13821001Y-2852000D02*
Y-2812000D01*
X13674001Y-3086000D02*
X13714000D01*
X13694000Y-3106000D02*
Y-3066000D01*
X13800999Y-3340000D02*
X13841000D01*
X13821001Y-3360000D02*
Y-3320000D01*
X13674001Y-3594000D02*
X13714000D01*
X13694000Y-3614000D02*
Y-3574000D01*
X13800999Y-3848000D02*
X13841000D01*
X13821001Y-3868000D02*
Y-3828000D01*
X13674001Y-4102000D02*
X13714000D01*
X13694000Y-4122000D02*
Y-4082000D01*
X13547000Y-2832000D02*
X13587000D01*
X13567000Y-2852000D02*
Y-2812000D01*
X13420000Y-3086000D02*
X13460001D01*
X13439999Y-3106000D02*
Y-3066000D01*
X13547000Y-3340000D02*
X13587000D01*
X13567000Y-3360000D02*
Y-3320000D01*
X13420000Y-3594000D02*
X13460001D01*
X13439999Y-3614000D02*
Y-3574000D01*
X13547000Y-3848000D02*
X13587000D01*
X13567000Y-3868000D02*
Y-3828000D01*
X13420000Y-4102000D02*
X13460001D01*
X13439999Y-4122000D02*
Y-4082000D01*
X13292999Y-2832000D02*
X13333000D01*
X13313000Y-2852000D02*
Y-2812000D01*
X13166000Y-3086000D02*
X13206000D01*
X13186000Y-3106000D02*
Y-3066000D01*
X13292999Y-3340000D02*
X13333000D01*
X13313000Y-3360000D02*
Y-3320000D01*
X13166000Y-3594000D02*
X13206000D01*
X13186000Y-3614000D02*
Y-3574000D01*
X13292999Y-3848000D02*
X13333000D01*
X13313000Y-3868000D02*
Y-3828000D01*
X13166000Y-4102000D02*
X13206000D01*
X13186000Y-4122000D02*
Y-4082000D01*
X13039000Y-2832000D02*
X13078999D01*
X13059000Y-2852000D02*
Y-2812000D01*
X12912000Y-3086000D02*
X12952000D01*
X12932001Y-3106000D02*
Y-3066000D01*
X13039000Y-3340000D02*
X13078999D01*
X13059000Y-3360000D02*
Y-3320000D01*
X12912000Y-3594000D02*
X12952000D01*
X12932001Y-3614000D02*
Y-3574000D01*
X13039000Y-3848000D02*
X13078999D01*
X13059000Y-3868000D02*
Y-3828000D01*
X12912000Y-4102000D02*
X12952000D01*
X12932001Y-4122000D02*
Y-4082000D01*
X12785000Y-2832000D02*
X12825000D01*
X12805000Y-2852000D02*
Y-2812000D01*
X12658000Y-3086000D02*
X12698000D01*
X12678000Y-3106000D02*
Y-3066000D01*
X12785000Y-3340000D02*
X12825000D01*
X12805000Y-3360000D02*
Y-3320000D01*
X12658000Y-3594000D02*
X12698000D01*
X12678000Y-3614000D02*
Y-3574000D01*
X12785000Y-3848000D02*
X12825000D01*
X12805000Y-3868000D02*
Y-3828000D01*
X12658000Y-4102000D02*
X12698000D01*
X12678000Y-4122000D02*
Y-4082000D01*
X12531000Y-2832000D02*
X12571000D01*
X12551000Y-2852000D02*
Y-2812000D01*
X12404000Y-3086000D02*
X12444000D01*
X12424000Y-3106000D02*
Y-3066000D01*
X12531000Y-3340000D02*
X12571000D01*
X12551000Y-3360000D02*
Y-3320000D01*
X12404000Y-3594000D02*
X12444000D01*
X12424000Y-3614000D02*
Y-3574000D01*
X12531000Y-3848000D02*
X12571000D01*
X12551000Y-3868000D02*
Y-3828000D01*
X12404000Y-4102000D02*
X12444000D01*
X12424000Y-4122000D02*
Y-4082000D01*
X12277000Y-2832000D02*
X12317000D01*
X12297000Y-2852000D02*
Y-2812000D01*
X12150000Y-3086000D02*
X12190000D01*
X12170000Y-3106000D02*
Y-3066000D01*
X12277000Y-3340000D02*
X12317000D01*
X12297000Y-3360000D02*
Y-3320000D01*
X12150000Y-3594000D02*
X12190000D01*
X12170000Y-3614000D02*
Y-3574000D01*
X12277000Y-3848000D02*
X12317000D01*
X12297000Y-3868000D02*
Y-3828000D01*
X12150000Y-4102000D02*
X12190000D01*
X12170000Y-4122000D02*
Y-4082000D01*
X12023000Y-2832000D02*
X12063000D01*
X12043000Y-2852000D02*
Y-2812000D01*
X11896000Y-3086000D02*
X11936000D01*
X11916000Y-3106000D02*
Y-3066000D01*
X12023000Y-3340000D02*
X12063000D01*
X12043000Y-3360000D02*
Y-3320000D01*
X11896000Y-3594000D02*
X11936000D01*
X11916000Y-3614000D02*
Y-3574000D01*
X12023000Y-3848000D02*
X12063000D01*
X12043000Y-3868000D02*
Y-3828000D01*
X11896000Y-4102000D02*
X11936000D01*
X11916000Y-4122000D02*
Y-4082000D01*
X11769000Y-2832000D02*
X11809000D01*
X11789000Y-2852000D02*
Y-2812000D01*
X11642000Y-3086000D02*
X11682000D01*
X11662000Y-3106000D02*
Y-3066000D01*
X11769000Y-3340000D02*
X11809000D01*
X11789000Y-3360000D02*
Y-3320000D01*
X11642000Y-3594000D02*
X11682000D01*
X11662000Y-3614000D02*
Y-3574000D01*
X11769000Y-3848000D02*
X11809000D01*
X11789000Y-3868000D02*
Y-3828000D01*
X11642000Y-4102000D02*
X11682000D01*
X11662000Y-4122000D02*
Y-4082000D01*
X11515000Y-2832000D02*
X11555000D01*
X11535000Y-2852000D02*
Y-2812000D01*
X11388000Y-3086000D02*
X11428000D01*
X11408000Y-3106000D02*
Y-3066000D01*
X11515000Y-3340000D02*
X11555000D01*
X11535000Y-3360000D02*
Y-3320000D01*
X11388000Y-3594000D02*
X11428000D01*
X11408000Y-3614000D02*
Y-3574000D01*
X11515000Y-3848000D02*
X11555000D01*
X11535000Y-3868000D02*
Y-3828000D01*
X11388000Y-4102000D02*
X11428000D01*
X11408000Y-4122000D02*
Y-4082000D01*
X11261000Y-2832000D02*
X11301000D01*
X11281000Y-2852000D02*
Y-2812000D01*
X11134000Y-3086000D02*
X11174000D01*
X11154000Y-3106000D02*
Y-3066000D01*
X11261000Y-3340000D02*
X11301000D01*
X11281000Y-3360000D02*
Y-3320000D01*
X11134000Y-3594000D02*
X11174000D01*
X11154000Y-3614000D02*
Y-3574000D01*
X11261000Y-3848000D02*
X11301000D01*
X11281000Y-3868000D02*
Y-3828000D01*
X11134000Y-4102000D02*
X11174000D01*
X11154000Y-4122000D02*
Y-4082000D01*
X11007000Y-2832000D02*
X11047000D01*
X11027000Y-2852000D02*
Y-2812000D01*
X10880000Y-3086000D02*
X10920000D01*
X10900000Y-3106000D02*
Y-3066000D01*
X11007000Y-3340000D02*
X11047000D01*
X11027000Y-3360000D02*
Y-3320000D01*
X10880000Y-3594000D02*
X10920000D01*
X10900000Y-3614000D02*
Y-3574000D01*
X11007000Y-3848000D02*
X11047000D01*
X11027000Y-3868000D02*
Y-3828000D01*
X10880000Y-4102000D02*
X10920000D01*
X10900000Y-4122000D02*
Y-4082000D01*
X10753000Y-2832000D02*
X10793000D01*
X10773000Y-2852000D02*
Y-2812000D01*
X10626000Y-3086000D02*
X10666000D01*
X10646000Y-3106000D02*
Y-3066000D01*
X10753000Y-3340000D02*
X10793000D01*
X10773000Y-3360000D02*
Y-3320000D01*
X10626000Y-3594000D02*
X10666000D01*
X10646000Y-3614000D02*
Y-3574000D01*
X10753000Y-3848000D02*
X10793000D01*
X10773000Y-3868000D02*
Y-3828000D01*
X10626000Y-4102000D02*
X10666000D01*
X10646000Y-4122000D02*
Y-4082000D01*
X10499000Y-2832000D02*
X10539000D01*
X10519000Y-2852000D02*
Y-2812000D01*
X10372000Y-3086000D02*
X10412000D01*
X10392000Y-3106000D02*
Y-3066000D01*
X10499000Y-3340000D02*
X10539000D01*
X10519000Y-3360000D02*
Y-3320000D01*
X10372000Y-3594000D02*
X10412000D01*
X10392000Y-3614000D02*
Y-3574000D01*
X10499000Y-3848000D02*
X10539000D01*
X10519000Y-3868000D02*
Y-3828000D01*
X10372000Y-4102000D02*
X10412000D01*
X10392000Y-4122000D02*
Y-4082000D01*
X10245000Y-2832000D02*
X10285000D01*
X10265000Y-2852000D02*
Y-2812000D01*
X10118000Y-3086000D02*
X10158000D01*
X10138000Y-3106000D02*
Y-3066000D01*
X10245000Y-3340000D02*
X10285000D01*
X10265000Y-3360000D02*
Y-3320000D01*
X10118000Y-3594000D02*
X10158000D01*
X10138000Y-3614000D02*
Y-3574000D01*
X10245000Y-3848000D02*
X10285000D01*
X10265000Y-3868000D02*
Y-3828000D01*
X10118000Y-4102000D02*
X10158000D01*
X10138000Y-4122000D02*
Y-4082000D01*
X9991000Y-2832000D02*
X10031000D01*
X10011000Y-2852000D02*
Y-2812000D01*
X9864000Y-3086000D02*
X9904000D01*
X9884000Y-3106000D02*
Y-3066000D01*
X9991000Y-3340000D02*
X10031000D01*
X10011000Y-3360000D02*
Y-3320000D01*
X9864000Y-3594000D02*
X9904000D01*
X9884000Y-3614000D02*
Y-3574000D01*
X9991000Y-3848000D02*
X10031000D01*
X10011000Y-3868000D02*
Y-3828000D01*
X9864000Y-4102000D02*
X9904000D01*
X9884000Y-4122000D02*
Y-4082000D01*
X9737000Y-2832000D02*
X9777000D01*
X9757000Y-2852000D02*
Y-2812000D01*
X9610000Y-3086000D02*
X9650000D01*
X9630000Y-3106000D02*
Y-3066000D01*
X9737000Y-3340000D02*
X9777000D01*
X9757000Y-3360000D02*
Y-3320000D01*
X9610000Y-3594000D02*
X9650000D01*
X9630000Y-3614000D02*
Y-3574000D01*
X9737000Y-3848000D02*
X9777000D01*
X9757000Y-3868000D02*
Y-3828000D01*
X9610000Y-4102000D02*
X9650000D01*
X9630000Y-4122000D02*
Y-4082000D01*
X9483000Y-2832000D02*
X9523000D01*
X9503000Y-2852000D02*
Y-2812000D01*
X9356000Y-3086000D02*
X9396000D01*
X9376000Y-3106000D02*
Y-3066000D01*
X9483000Y-3340000D02*
X9523000D01*
X9503000Y-3360000D02*
Y-3320000D01*
X9356000Y-3594000D02*
X9396000D01*
X9376000Y-3614000D02*
Y-3574000D01*
X9483000Y-3848000D02*
X9523000D01*
X9503000Y-3868000D02*
Y-3828000D01*
X9356000Y-4102000D02*
X9396000D01*
X9376000Y-4122000D02*
Y-4082000D01*
X9229000Y-2832000D02*
X9269000D01*
X9249000Y-2852000D02*
Y-2812000D01*
X9102000Y-3086000D02*
X9142000D01*
X9122000Y-3106000D02*
Y-3066000D01*
X9229000Y-3340000D02*
X9269000D01*
X9249000Y-3360000D02*
Y-3320000D01*
X9102000Y-3594000D02*
X9142000D01*
X9122000Y-3614000D02*
Y-3574000D01*
X9229000Y-3848000D02*
X9269000D01*
X9249000Y-3868000D02*
Y-3828000D01*
X9102000Y-4102000D02*
X9142000D01*
X9122000Y-4122000D02*
Y-4082000D01*
X8975000Y-2832000D02*
X9015000D01*
X8995000Y-2852000D02*
Y-2812000D01*
X8848000Y-3086000D02*
X8888000D01*
X8868000Y-3106000D02*
Y-3066000D01*
X8975000Y-3340000D02*
X9015000D01*
X8995000Y-3360000D02*
Y-3320000D01*
X8848000Y-3594000D02*
X8888000D01*
X8868000Y-3614000D02*
Y-3574000D01*
X8975000Y-3848000D02*
X9015000D01*
X8995000Y-3868000D02*
Y-3828000D01*
X8848000Y-4102000D02*
X8888000D01*
X8868000Y-4122000D02*
Y-4082000D01*
X8721000Y-2832000D02*
X8761000D01*
X8741000Y-2852000D02*
Y-2812000D01*
X8594000Y-3086000D02*
X8634000D01*
X8614000Y-3106000D02*
Y-3066000D01*
X8721000Y-3340000D02*
X8761000D01*
X8741000Y-3360000D02*
Y-3320000D01*
X8594000Y-3594000D02*
X8634000D01*
X8614000Y-3614000D02*
Y-3574000D01*
X8721000Y-3848000D02*
X8761000D01*
X8741000Y-3868000D02*
Y-3828000D01*
X8594000Y-4102000D02*
X8634000D01*
X8614000Y-4122000D02*
Y-4082000D01*
X8467000Y-2832000D02*
X8507000D01*
X8487000Y-2852000D02*
Y-2812000D01*
X8340000Y-3086000D02*
X8380000D01*
X8360000Y-3106000D02*
Y-3066000D01*
X8467000Y-3340000D02*
X8507000D01*
X8487000Y-3360000D02*
Y-3320000D01*
X8340000Y-3594000D02*
X8380000D01*
X8360000Y-3614000D02*
Y-3574000D01*
X8467000Y-3848000D02*
X8507000D01*
X8487000Y-3868000D02*
Y-3828000D01*
X8213000Y-2832000D02*
X8253000D01*
X8233000Y-2852000D02*
Y-2812000D01*
X8086000Y-3086000D02*
X8126000D01*
X8106000Y-3106000D02*
Y-3066000D01*
X8213000Y-3340000D02*
X8253000D01*
X8233000Y-3360000D02*
Y-3320000D01*
X8086000Y-3594000D02*
X8126000D01*
X8106000Y-3614000D02*
Y-3574000D01*
X7959000Y-2832000D02*
X7999000D01*
X7979000Y-2852000D02*
Y-2812000D01*
X7705000Y-2832000D02*
X7745000D01*
X7725000Y-2852000D02*
Y-2812000D01*
X7451000Y-2832000D02*
X7491000D01*
X7471000Y-2852000D02*
Y-2812000D01*
X7197000Y-2832000D02*
X7237000D01*
X7217000Y-2852000D02*
Y-2812000D01*
X6943000Y-2832000D02*
X6983000D01*
X6963000Y-2852000D02*
Y-2812000D01*
X6689000Y-2832000D02*
X6729000D01*
X6709000Y-2852000D02*
Y-2812000D01*
X6435000Y-2832000D02*
X6475000D01*
X6455000Y-2852000D02*
Y-2812000D01*
X6181000Y-2832000D02*
X6221000D01*
X6201000Y-2852000D02*
Y-2812000D01*
X5927000Y-2832000D02*
X5967000D01*
X5947000Y-2852000D02*
Y-2812000D01*
X5673000Y-2832000D02*
X5713000D01*
X5693000Y-2852000D02*
Y-2812000D01*
X5419000Y-2832000D02*
X5459000D01*
X5439000Y-2852000D02*
Y-2812000D01*
X5165000Y-2832000D02*
X5205000D01*
X5185000Y-2852000D02*
Y-2812000D01*
X4911000Y-2832000D02*
X4951000D01*
X4931000Y-2852000D02*
Y-2812000D01*
X4530000Y-546000D02*
X4570000D01*
X4550000Y-566000D02*
Y-526000D01*
X4530000Y-1054000D02*
X4570000D01*
X4550000Y-1074000D02*
Y-1034000D01*
X4530000Y-1562000D02*
X4570000D01*
X4550000Y-1582000D02*
Y-1542000D01*
X4530000Y-2578000D02*
X4570000D01*
X4550000Y-2598000D02*
Y-2558000D01*
X4657000Y-2832000D02*
X4697000D01*
X4677000Y-2852000D02*
Y-2812000D01*
X4276000Y-546000D02*
X4316000D01*
X4296000Y-566000D02*
Y-526000D01*
X4403000Y-1816000D02*
X4443000D01*
X4423000Y-1836000D02*
Y-1796000D01*
X4276000Y-2578000D02*
X4316000D01*
X4296000Y-2598000D02*
Y-2558000D01*
X4403000Y-2832000D02*
X4443000D01*
X4423000Y-2852000D02*
Y-2812000D01*
X4276000Y-3086000D02*
X4316000D01*
X4296000Y-3106000D02*
Y-3066000D01*
X4022000Y-546000D02*
X4062000D01*
X4042000Y-566000D02*
Y-526000D01*
X4022000Y-1054000D02*
X4062000D01*
X4042000Y-1074000D02*
Y-1034000D01*
X4022000Y-1562000D02*
X4062000D01*
X4042000Y-1582000D02*
Y-1542000D01*
X4149000Y-1816000D02*
X4189000D01*
X4169000Y-1836000D02*
Y-1796000D01*
X4149000Y-2324000D02*
X4189000D01*
X4169000Y-2344000D02*
Y-2304000D01*
X4022000Y-2578000D02*
X4062000D01*
X4042000Y-2598000D02*
Y-2558000D01*
X4149000Y-2832000D02*
X4189000D01*
X4169000Y-2852000D02*
Y-2812000D01*
X4022000Y-3086000D02*
X4062000D01*
X4042000Y-3106000D02*
Y-3066000D01*
X4149000Y-3340000D02*
X4189000D01*
X4169000Y-3360000D02*
Y-3320000D01*
X4022000Y-4610000D02*
X4062000D01*
X4042000Y-4630000D02*
Y-4590000D01*
X4022000Y-5118000D02*
X4062000D01*
X4042000Y-5138000D02*
Y-5098000D01*
X3768000Y-1054000D02*
X3808000D01*
X3788000Y-1074000D02*
Y-1034000D01*
X3895000Y-1308000D02*
X3935000D01*
X3915000Y-1328000D02*
Y-1288000D01*
X3768000Y-1562000D02*
X3808000D01*
X3788000Y-1582000D02*
Y-1542000D01*
X3895000Y-1816000D02*
X3935000D01*
X3915000Y-1836000D02*
Y-1796000D01*
X3895000Y-2324000D02*
X3935000D01*
X3915000Y-2344000D02*
Y-2304000D01*
X3895000Y-2832000D02*
X3935000D01*
X3915000Y-2852000D02*
Y-2812000D01*
X3768000Y-3086000D02*
X3808000D01*
X3788000Y-3106000D02*
Y-3066000D01*
X3895000Y-3340000D02*
X3935000D01*
X3915000Y-3360000D02*
Y-3320000D01*
X3768000Y-4102000D02*
X3808000D01*
X3788000Y-4122000D02*
Y-4082000D01*
X3895000Y-4356000D02*
X3935000D01*
X3915000Y-4376000D02*
Y-4336000D01*
X3768000Y-4610000D02*
X3808000D01*
X3788000Y-4630000D02*
Y-4590000D01*
X3895000Y-4864000D02*
X3935000D01*
X3915000Y-4884000D02*
Y-4844000D01*
X3768000Y-5118000D02*
X3808000D01*
X3788000Y-5138000D02*
Y-5098000D01*
X3641000Y-2832000D02*
X3681000D01*
X3661000Y-2852000D02*
Y-2812000D01*
X3514000Y-3086000D02*
X3554000D01*
X3534000Y-3106000D02*
Y-3066000D01*
X3514000Y-4102000D02*
X3554000D01*
X3534000Y-4122000D02*
Y-4082000D01*
X3514000Y-5118000D02*
X3554000D01*
X3534000Y-5138000D02*
Y-5098000D01*
X3387000Y-2832000D02*
X3427000D01*
X3407000Y-2852000D02*
Y-2812000D01*
X3260000Y-3086000D02*
X3300000D01*
X3280000Y-3106000D02*
Y-3066000D01*
X3260000Y-4610000D02*
X3300000D01*
X3280000Y-4630000D02*
Y-4590000D01*
X3260000Y-5118000D02*
X3300000D01*
X3280000Y-5138000D02*
Y-5098000D01*
X3006000Y-2070000D02*
X3046000D01*
X3026000Y-2090000D02*
Y-2050000D01*
X3133000Y-2832000D02*
X3173000D01*
X3153000Y-2852000D02*
Y-2812000D01*
X3006000Y-4102000D02*
X3046000D01*
X3026000Y-4122000D02*
Y-4082000D01*
X3133000Y-4356000D02*
X3173000D01*
X3153000Y-4376000D02*
Y-4336000D01*
X3006000Y-4610000D02*
X3046000D01*
X3026000Y-4630000D02*
Y-4590000D01*
X3006000Y-5118000D02*
X3046000D01*
X3026000Y-5138000D02*
Y-5098000D01*
X2752000Y-1054000D02*
X2792000D01*
X2772000Y-1074000D02*
Y-1034000D01*
X2879000Y-1308000D02*
X2919000D01*
X2899000Y-1328000D02*
Y-1288000D01*
X2752000Y-2070000D02*
X2792000D01*
X2772000Y-2090000D02*
Y-2050000D01*
X2879000Y-2324000D02*
X2919000D01*
X2899000Y-2344000D02*
Y-2304000D01*
X2752000Y-2578000D02*
X2792000D01*
X2772000Y-2598000D02*
Y-2558000D01*
X2879000Y-2832000D02*
X2919000D01*
X2899000Y-2852000D02*
Y-2812000D01*
X2879000Y-4356000D02*
X2919000D01*
X2899000Y-4376000D02*
Y-4336000D01*
X2752000Y-4610000D02*
X2792000D01*
X2772000Y-4630000D02*
Y-4590000D01*
X2879000Y-4864000D02*
X2919000D01*
X2899000Y-4884000D02*
Y-4844000D01*
X2752000Y-5118000D02*
X2792000D01*
X2772000Y-5138000D02*
Y-5098000D01*
X2625000Y-800000D02*
X2665000D01*
X2645000Y-820000D02*
Y-780000D01*
X2498000Y-1562000D02*
X2538000D01*
X2518000Y-1582000D02*
Y-1542000D01*
X2625000Y-1816000D02*
X2665000D01*
X2645000Y-1836000D02*
Y-1796000D01*
X2498000Y-2070000D02*
X2538000D01*
X2518000Y-2090000D02*
Y-2050000D01*
X2625000Y-2324000D02*
X2665000D01*
X2645000Y-2344000D02*
Y-2304000D01*
X2498000Y-3086000D02*
X2538000D01*
X2518000Y-3106000D02*
Y-3066000D01*
X2625000Y-3340000D02*
X2665000D01*
X2645000Y-3360000D02*
Y-3320000D01*
X2498000Y-4102000D02*
X2538000D01*
X2518000Y-4122000D02*
Y-4082000D01*
X2498000Y-5118000D02*
X2538000D01*
X2518000Y-5138000D02*
Y-5098000D01*
X2244000Y-1562000D02*
X2284000D01*
X2264000Y-1582000D02*
Y-1542000D01*
X2371000Y-1816000D02*
X2411000D01*
X2391000Y-1836000D02*
Y-1796000D01*
X2244000Y-2070000D02*
X2284000D01*
X2264000Y-2090000D02*
Y-2050000D01*
X2371000Y-2324000D02*
X2411000D01*
X2391000Y-2344000D02*
Y-2304000D01*
X2244000Y-3086000D02*
X2284000D01*
X2264000Y-3106000D02*
Y-3066000D01*
X2371000Y-3340000D02*
X2411000D01*
X2391000Y-3360000D02*
Y-3320000D01*
X2371000Y-3848000D02*
X2411000D01*
X2391000Y-3868000D02*
Y-3828000D01*
X2244000Y-4102000D02*
X2284000D01*
X2264000Y-4122000D02*
Y-4082000D01*
X2371000Y-4356000D02*
X2411000D01*
X2391000Y-4376000D02*
Y-4336000D01*
X2244000Y-4610000D02*
X2284000D01*
X2264000Y-4630000D02*
Y-4590000D01*
X2244000Y-5118000D02*
X2284000D01*
X2264000Y-5138000D02*
Y-5098000D01*
X1990000Y-1562000D02*
X2030000D01*
X2010000Y-1582000D02*
Y-1542000D01*
X2117000Y-1816000D02*
X2157000D01*
X2137000Y-1836000D02*
Y-1796000D01*
X1990000Y-2578000D02*
X2030000D01*
X2010000Y-2598000D02*
Y-2558000D01*
X2117000Y-2832000D02*
X2157000D01*
X2137000Y-2852000D02*
Y-2812000D01*
X1990000Y-3086000D02*
X2030000D01*
X2010000Y-3106000D02*
Y-3066000D01*
X2117000Y-3340000D02*
X2157000D01*
X2137000Y-3360000D02*
Y-3320000D01*
X2117000Y-3848000D02*
X2157000D01*
X2137000Y-3868000D02*
Y-3828000D01*
X1990000Y-4102000D02*
X2030000D01*
X2010000Y-4122000D02*
Y-4082000D01*
X2117000Y-4356000D02*
X2157000D01*
X2137000Y-4376000D02*
Y-4336000D01*
X2117000Y-4864000D02*
X2157000D01*
X2137000Y-4884000D02*
Y-4844000D01*
X1990000Y-5118000D02*
X2030000D01*
X2010000Y-5138000D02*
Y-5098000D01*
X1863000Y-1816000D02*
X1903000D01*
X1883000Y-1836000D02*
Y-1796000D01*
X1736000Y-2578000D02*
X1776000D01*
X1756000Y-2598000D02*
Y-2558000D01*
X1863000Y-2832000D02*
X1903000D01*
X1883000Y-2852000D02*
Y-2812000D01*
X1736000Y-3086000D02*
X1776000D01*
X1756000Y-3106000D02*
Y-3066000D01*
X1863000Y-3340000D02*
X1903000D01*
X1883000Y-3360000D02*
Y-3320000D01*
X1863000Y-3848000D02*
X1903000D01*
X1883000Y-3868000D02*
Y-3828000D01*
X1736000Y-4610000D02*
X1776000D01*
X1756000Y-4630000D02*
Y-4590000D01*
X1863000Y-4864000D02*
X1903000D01*
X1883000Y-4884000D02*
Y-4844000D01*
X1736000Y-5118000D02*
X1776000D01*
X1756000Y-5138000D02*
Y-5098000D01*
X1482000Y-546000D02*
X1522000D01*
X1502000Y-566000D02*
Y-526000D01*
X1609000Y-2324000D02*
X1649000D01*
X1629000Y-2344000D02*
Y-2304000D01*
X1482000Y-2578000D02*
X1522000D01*
X1502000Y-2598000D02*
Y-2558000D01*
X1609000Y-2832000D02*
X1649000D01*
X1629000Y-2852000D02*
Y-2812000D01*
X1609000Y-4356000D02*
X1649000D01*
X1629000Y-4376000D02*
Y-4336000D01*
X1482000Y-4610000D02*
X1522000D01*
X1502000Y-4630000D02*
Y-4590000D01*
X1609000Y-4864000D02*
X1649000D01*
X1629000Y-4884000D02*
Y-4844000D01*
X1482000Y-5118000D02*
X1522000D01*
X1502000Y-5138000D02*
Y-5098000D01*
X1228000Y-546000D02*
X1268000D01*
X1248000Y-566000D02*
Y-526000D01*
X1355000Y-2324000D02*
X1395000D01*
X1375000Y-2344000D02*
Y-2304000D01*
X1228000Y-2578000D02*
X1268000D01*
X1248000Y-2598000D02*
Y-2558000D01*
X1228000Y-3594000D02*
X1268000D01*
X1248000Y-3614000D02*
Y-3574000D01*
X1228000Y-4102000D02*
X1268000D01*
X1248000Y-4122000D02*
Y-4082000D01*
X1355000Y-4356000D02*
X1395000D01*
X1375000Y-4376000D02*
Y-4336000D01*
X1228000Y-4610000D02*
X1268000D01*
X1248000Y-4630000D02*
Y-4590000D01*
X1355000Y-4864000D02*
X1395000D01*
X1375000Y-4884000D02*
Y-4844000D01*
X1228000Y-5118000D02*
X1268000D01*
X1248000Y-5138000D02*
Y-5098000D01*
X1101000Y-1308000D02*
X1141000D01*
X1121000Y-1328000D02*
Y-1288000D01*
X974000Y-3086000D02*
X1014000D01*
X994000Y-3106000D02*
Y-3066000D01*
X1101000Y-3340000D02*
X1141000D01*
X1121000Y-3360000D02*
Y-3320000D01*
X974000Y-3594000D02*
X1014000D01*
X994000Y-3614000D02*
Y-3574000D01*
X1101000Y-3848000D02*
X1141000D01*
X1121000Y-3868000D02*
Y-3828000D01*
X974000Y-4102000D02*
X1014000D01*
X994000Y-4122000D02*
Y-4082000D01*
X1101000Y-4356000D02*
X1141000D01*
X1121000Y-4376000D02*
Y-4336000D01*
X1101000Y-4864000D02*
X1141000D01*
X1121000Y-4884000D02*
Y-4844000D01*
X974000Y-5118000D02*
X1014000D01*
X994000Y-5138000D02*
Y-5098000D01*
X847000Y-1308000D02*
X887000D01*
X867000Y-1328000D02*
Y-1288000D01*
X720000Y-2070000D02*
X760000D01*
X740000Y-2090000D02*
Y-2050000D01*
X720000Y-2578000D02*
X760000D01*
X740000Y-2598000D02*
Y-2558000D01*
X847000Y-2832000D02*
X887000D01*
X867000Y-2852000D02*
Y-2812000D01*
X720000Y-3086000D02*
X760000D01*
X740000Y-3106000D02*
Y-3066000D01*
X847000Y-3340000D02*
X887000D01*
X867000Y-3360000D02*
Y-3320000D01*
X720000Y-3594000D02*
X760000D01*
X740000Y-3614000D02*
Y-3574000D01*
X847000Y-3848000D02*
X887000D01*
X867000Y-3868000D02*
Y-3828000D01*
X720000Y-4102000D02*
X760000D01*
X740000Y-4122000D02*
Y-4082000D01*
X720000Y-4610000D02*
X760000D01*
X740000Y-4630000D02*
Y-4590000D01*
X847000Y-4864000D02*
X887000D01*
X867000Y-4884000D02*
Y-4844000D01*
X720000Y-5118000D02*
X760000D01*
X740000Y-5138000D02*
Y-5098000D01*
X466000Y-1054000D02*
X506000D01*
X486000Y-1074000D02*
Y-1034000D01*
X593000Y-1816000D02*
X633000D01*
X613000Y-1836000D02*
Y-1796000D01*
X466000Y-2070000D02*
X506000D01*
X486000Y-2090000D02*
Y-2050000D01*
X593000Y-2324000D02*
X633000D01*
X613000Y-2344000D02*
Y-2304000D01*
X466000Y-2578000D02*
X506000D01*
X486000Y-2598000D02*
Y-2558000D01*
X593000Y-2832000D02*
X633000D01*
X613000Y-2852000D02*
Y-2812000D01*
X466000Y-3086000D02*
X506000D01*
X486000Y-3106000D02*
Y-3066000D01*
X593000Y-3340000D02*
X633000D01*
X613000Y-3360000D02*
Y-3320000D01*
X466000Y-3594000D02*
X506000D01*
X486000Y-3614000D02*
Y-3574000D01*
X593000Y-3848000D02*
X633000D01*
X613000Y-3868000D02*
Y-3828000D01*
X466000Y-4102000D02*
X506000D01*
X486000Y-4122000D02*
Y-4082000D01*
X593000Y-4356000D02*
X633000D01*
X613000Y-4376000D02*
Y-4336000D01*
X466000Y-4610000D02*
X506000D01*
X486000Y-4630000D02*
Y-4590000D01*
X212000Y-1054000D02*
X252000D01*
X232000Y-1074000D02*
Y-1034000D01*
X339000Y-1816000D02*
X379000D01*
X359000Y-1836000D02*
Y-1796000D01*
X212000Y-2578000D02*
X252000D01*
X232000Y-2598000D02*
Y-2558000D01*
X339000Y-2832000D02*
X379000D01*
X359000Y-2852000D02*
Y-2812000D01*
X212000Y-3086000D02*
X252000D01*
X232000Y-3106000D02*
Y-3066000D01*
X339000Y-3340000D02*
X379000D01*
X359000Y-3360000D02*
Y-3320000D01*
X212000Y-3594000D02*
X252000D01*
X232000Y-3614000D02*
Y-3574000D01*
X339000Y-3848000D02*
X379000D01*
X359000Y-3868000D02*
Y-3828000D01*
X212000Y-4102000D02*
X252000D01*
X232000Y-4122000D02*
Y-4082000D01*
X339000Y-4356000D02*
X379000D01*
X359000Y-4376000D02*
Y-4336000D01*
X212000Y-4610000D02*
X252000D01*
X232000Y-4630000D02*
Y-4590000D01*
X13515300Y-828040D02*
X13586420D01*
X13550861Y-863600D02*
Y-792480D01*
X7789440Y-3800000D02*
X7860560D01*
X7825000Y-3835560D02*
Y-3764440D01*
X5564440Y-4750000D02*
X5635560D01*
X5600000Y-4785560D02*
Y-4714440D01*
X4439440Y-3800000D02*
X4510560D01*
X4475000Y-3835560D02*
Y-3764440D01*
X10848340Y-2882900D02*
X10919460D01*
X10883900Y-2918460D02*
Y-2847340D01*
X5786120Y-2702560D02*
X5857240D01*
X5821680Y-2738120D02*
Y-2667000D01*
X18331140Y-822920D02*
X18402260D01*
X18366701Y-858480D02*
Y-787360D01*
X8648660Y-835660D02*
X8719780D01*
X8684220Y-871220D02*
Y-800100D01*
X3830280Y-830580D02*
X3901400D01*
X3865840Y-866140D02*
Y-795020D01*
%TF.MD5,4c1d9b6bb2862effd5d5151bd4b6a3d2*%
M02*
