G04*
G04 #@! TF.GenerationSoftware,Altium Limited,Altium Designer,21.6.4 (81)*
G04*
G04 Layer_Color=16711935*
%FSLAX44Y44*%
%MOMM*%
G71*
G04*
G04 #@! TF.SameCoordinates,43C67DF6-979F-4C5B-9B03-454D23029C34*
G04*
G04*
G04 #@! TF.FilePolarity,Negative*
G04*
G01*
G75*
%ADD22C,1.6256*%
%ADD23C,2.2032*%
%ADD24P,2.1683X8X202.5*%
%ADD25C,2.0032*%
%ADD26C,1.7032*%
%ADD27P,1.8435X8X202.5*%
%ADD28C,2.4032*%
%ADD29P,1.6271X8X292.5*%
%ADD30C,1.5032*%
%ADD31C,3.7032*%
%ADD32P,2.9259X8X22.5*%
%ADD33C,2.7032*%
%ADD34C,1.0032*%
%ADD35C,1.4732*%
D22*
X1814068Y-39878D02*
D03*
X1763268D02*
D03*
X1712468D02*
D03*
X1687068D02*
D03*
X1661668D02*
D03*
X1610868D02*
D03*
X1560068D02*
D03*
X1534668D02*
D03*
X1333500D02*
D03*
X1282700D02*
D03*
X1231900D02*
D03*
X1206500D02*
D03*
X1181100D02*
D03*
X1130300D02*
D03*
X1079500D02*
D03*
X1054100D02*
D03*
X373888D02*
D03*
X323088D02*
D03*
X272288D02*
D03*
X246888D02*
D03*
X221488D02*
D03*
X170688D02*
D03*
X119888D02*
D03*
X94488D02*
D03*
X573786D02*
D03*
X599186D02*
D03*
X649986D02*
D03*
X700786D02*
D03*
X726186D02*
D03*
X751586D02*
D03*
X802386D02*
D03*
X853186D02*
D03*
D23*
X1470000Y-310000D02*
D03*
X1500000Y-200000D02*
D03*
X1885000Y-277500D02*
D03*
X1010000Y-200000D02*
D03*
X530000D02*
D03*
X1830000Y-392000D02*
D03*
X1730000D02*
D03*
X1830000Y-494000D02*
D03*
X1730000D02*
D03*
X1630000Y-392000D02*
D03*
X1530000D02*
D03*
X1630000Y-494000D02*
D03*
X1530000D02*
D03*
X525000Y-380000D02*
D03*
D24*
X1325000Y-260000D02*
D03*
X1805000D02*
D03*
X843896Y-247650D02*
D03*
X365000Y-260000D02*
D03*
D25*
X1275000D02*
D03*
X1755000D02*
D03*
X793896Y-247650D02*
D03*
X315000Y-260000D02*
D03*
D26*
X410210Y-390398D02*
D03*
X384810D02*
D03*
X359410D02*
D03*
X334010D02*
D03*
X308610D02*
D03*
X146700Y-404200D02*
D03*
X172100D02*
D03*
D27*
X283210Y-390398D02*
D03*
D28*
X95900Y-455000D02*
D03*
X197500D02*
D03*
D29*
X1465000Y-235400D02*
D03*
X1765000Y-162900D02*
D03*
X1797500D02*
D03*
X1885000Y-235400D02*
D03*
X985000Y-235400D02*
D03*
X1285000Y-162900D02*
D03*
X1317500D02*
D03*
X1405000Y-235400D02*
D03*
X505000D02*
D03*
X805000Y-162900D02*
D03*
X837500D02*
D03*
X925000Y-235400D02*
D03*
X325000Y-162900D02*
D03*
X357500Y-162900D02*
D03*
X445000Y-235400D02*
D03*
X25000D02*
D03*
D30*
X1465000Y-210000D02*
D03*
X1765000Y-137500D02*
D03*
X1797500D02*
D03*
X1885000Y-210000D02*
D03*
X985000Y-210000D02*
D03*
X1285000Y-137500D02*
D03*
X1317500D02*
D03*
X1405000Y-210000D02*
D03*
X505000D02*
D03*
X805000Y-137500D02*
D03*
X837500D02*
D03*
X925000Y-210000D02*
D03*
X325000Y-137500D02*
D03*
X357500Y-137500D02*
D03*
X445000Y-210000D02*
D03*
X25000D02*
D03*
D31*
X1780000Y-430000D02*
D03*
X1580000D02*
D03*
X1875000Y-132500D02*
D03*
X1475000D02*
D03*
X1395000Y-132500D02*
D03*
X995000D02*
D03*
X915000D02*
D03*
X515000D02*
D03*
X435000Y-132500D02*
D03*
X1875000Y-495000D02*
D03*
X435000D02*
D03*
X1475000Y-495000D02*
D03*
X515000Y-495000D02*
D03*
X915000D02*
D03*
X35000D02*
D03*
X1395000D02*
D03*
X995000D02*
D03*
X35000Y-132500D02*
D03*
D32*
X259753Y-481457D02*
D03*
D33*
X309753D02*
D03*
X359753D02*
D03*
D34*
X1636100Y-283200D02*
D03*
X1623400Y-308600D02*
D03*
X1636100Y-334000D02*
D03*
X1623400Y-359400D02*
D03*
X1636100Y-435600D02*
D03*
X1610700Y-283200D02*
D03*
X1598000Y-308600D02*
D03*
X1610700Y-334000D02*
D03*
X1598000Y-359400D02*
D03*
Y-410200D02*
D03*
X1610700Y-435600D02*
D03*
X1585300Y-334000D02*
D03*
X1572600Y-359400D02*
D03*
X1585300Y-384800D02*
D03*
X1547200Y-308600D02*
D03*
X1559900Y-334000D02*
D03*
X1547200Y-359400D02*
D03*
X1559900Y-384800D02*
D03*
X1547200Y-410200D02*
D03*
X1521800Y-308600D02*
D03*
Y-359400D02*
D03*
X1534500Y-435600D02*
D03*
X1496400Y-308600D02*
D03*
X1509100Y-334000D02*
D03*
X1496400Y-359400D02*
D03*
X1509100Y-384800D02*
D03*
X1496400Y-410200D02*
D03*
X1483700Y-283200D02*
D03*
X1471000Y-308600D02*
D03*
X1483700Y-334000D02*
D03*
X1471000Y-359400D02*
D03*
X1483700Y-384800D02*
D03*
X1471000Y-410200D02*
D03*
X1458300Y-283200D02*
D03*
X1445600Y-308600D02*
D03*
X1458300Y-334000D02*
D03*
X1445600Y-359400D02*
D03*
X1458300Y-384800D02*
D03*
X1445600Y-410200D02*
D03*
X1432900Y-283200D02*
D03*
X1420200Y-308600D02*
D03*
X1432900Y-334000D02*
D03*
X1420200Y-359400D02*
D03*
X1432900Y-384800D02*
D03*
X1420200Y-410200D02*
D03*
X1407500Y-283200D02*
D03*
X1394800Y-308600D02*
D03*
X1407500Y-334000D02*
D03*
X1394800Y-359400D02*
D03*
X1407500Y-384800D02*
D03*
X1394800Y-410200D02*
D03*
X1382100Y-283200D02*
D03*
X1369400Y-308600D02*
D03*
X1382100Y-334000D02*
D03*
X1369400Y-359400D02*
D03*
X1382100Y-384800D02*
D03*
X1369400Y-410200D02*
D03*
X1356700Y-283200D02*
D03*
X1344000Y-308600D02*
D03*
X1356700Y-334000D02*
D03*
X1344000Y-359400D02*
D03*
X1356700Y-384800D02*
D03*
X1344000Y-410200D02*
D03*
X1331300Y-283200D02*
D03*
X1318600Y-308600D02*
D03*
X1331300Y-334000D02*
D03*
X1318600Y-359400D02*
D03*
X1331300Y-384800D02*
D03*
X1318600Y-410200D02*
D03*
X1305900Y-283200D02*
D03*
X1293200Y-308600D02*
D03*
X1305900Y-334000D02*
D03*
X1293200Y-359400D02*
D03*
X1305900Y-384800D02*
D03*
X1293200Y-410200D02*
D03*
X1280500Y-283200D02*
D03*
X1267800Y-308600D02*
D03*
X1280500Y-334000D02*
D03*
X1267800Y-359400D02*
D03*
X1280500Y-384800D02*
D03*
X1267800Y-410200D02*
D03*
X1255100Y-283200D02*
D03*
X1242400Y-308600D02*
D03*
X1255100Y-334000D02*
D03*
X1242400Y-359400D02*
D03*
X1255100Y-384800D02*
D03*
X1242400Y-410200D02*
D03*
X1229700Y-283200D02*
D03*
X1217000Y-308600D02*
D03*
X1229700Y-334000D02*
D03*
X1217000Y-359400D02*
D03*
X1229700Y-384800D02*
D03*
X1217000Y-410200D02*
D03*
X1204300Y-283200D02*
D03*
X1191600Y-308600D02*
D03*
X1204300Y-334000D02*
D03*
X1191600Y-359400D02*
D03*
X1204300Y-384800D02*
D03*
X1191600Y-410200D02*
D03*
X1178900Y-283200D02*
D03*
X1166200Y-308600D02*
D03*
X1178900Y-334000D02*
D03*
X1166200Y-359400D02*
D03*
X1178900Y-384800D02*
D03*
X1166200Y-410200D02*
D03*
X1153500Y-283200D02*
D03*
X1140800Y-308600D02*
D03*
X1153500Y-334000D02*
D03*
X1140800Y-359400D02*
D03*
X1153500Y-384800D02*
D03*
X1140800Y-410200D02*
D03*
X1128100Y-283200D02*
D03*
X1115400Y-308600D02*
D03*
X1128100Y-334000D02*
D03*
X1115400Y-359400D02*
D03*
X1128100Y-384800D02*
D03*
X1115400Y-410200D02*
D03*
X1102700Y-283200D02*
D03*
X1090000Y-308600D02*
D03*
X1102700Y-334000D02*
D03*
X1090000Y-359400D02*
D03*
X1102700Y-384800D02*
D03*
X1090000Y-410200D02*
D03*
X1077300Y-283200D02*
D03*
X1064600Y-308600D02*
D03*
X1077300Y-334000D02*
D03*
X1064600Y-359400D02*
D03*
X1077300Y-384800D02*
D03*
X1064600Y-410200D02*
D03*
X1051900Y-283200D02*
D03*
X1039200Y-308600D02*
D03*
X1051900Y-334000D02*
D03*
X1039200Y-359400D02*
D03*
X1051900Y-384800D02*
D03*
X1039200Y-410200D02*
D03*
X1026500Y-283200D02*
D03*
X1013800Y-308600D02*
D03*
X1026500Y-334000D02*
D03*
X1013800Y-359400D02*
D03*
X1026500Y-384800D02*
D03*
X1013800Y-410200D02*
D03*
X1001100Y-283200D02*
D03*
X988400Y-308600D02*
D03*
X1001100Y-334000D02*
D03*
X988400Y-359400D02*
D03*
X1001100Y-384800D02*
D03*
X988400Y-410200D02*
D03*
X975700Y-283200D02*
D03*
X963000Y-308600D02*
D03*
X975700Y-334000D02*
D03*
X963000Y-359400D02*
D03*
X975700Y-384800D02*
D03*
X963000Y-410200D02*
D03*
X950300Y-283200D02*
D03*
X937600Y-308600D02*
D03*
X950300Y-334000D02*
D03*
X937600Y-359400D02*
D03*
X950300Y-384800D02*
D03*
X937600Y-410200D02*
D03*
X924900Y-283200D02*
D03*
X912200Y-308600D02*
D03*
X924900Y-334000D02*
D03*
X912200Y-359400D02*
D03*
X924900Y-384800D02*
D03*
X912200Y-410200D02*
D03*
X899500Y-283200D02*
D03*
X886800Y-308600D02*
D03*
X899500Y-334000D02*
D03*
X886800Y-359400D02*
D03*
X899500Y-384800D02*
D03*
X886800Y-410200D02*
D03*
X874100Y-283200D02*
D03*
X861400Y-308600D02*
D03*
X874100Y-334000D02*
D03*
X861400Y-359400D02*
D03*
X874100Y-384800D02*
D03*
X861400Y-410200D02*
D03*
X848700Y-283200D02*
D03*
X836000Y-308600D02*
D03*
X848700Y-334000D02*
D03*
X836000Y-359400D02*
D03*
X848700Y-384800D02*
D03*
X823300Y-283200D02*
D03*
X810600Y-308600D02*
D03*
X823300Y-334000D02*
D03*
X810600Y-359400D02*
D03*
X797900Y-283200D02*
D03*
X772500D02*
D03*
X747100D02*
D03*
X721700D02*
D03*
X696300D02*
D03*
X670900D02*
D03*
X645500D02*
D03*
X620100D02*
D03*
X594700D02*
D03*
X569300D02*
D03*
X543900D02*
D03*
X518500D02*
D03*
X493100D02*
D03*
X455000Y-54600D02*
D03*
Y-105400D02*
D03*
Y-156200D02*
D03*
Y-257800D02*
D03*
X467700Y-283200D02*
D03*
X429600Y-54600D02*
D03*
X442300Y-181600D02*
D03*
X429600Y-257800D02*
D03*
X442300Y-283200D02*
D03*
X429600Y-308600D02*
D03*
X404200Y-54600D02*
D03*
Y-105400D02*
D03*
Y-156200D02*
D03*
X416900Y-181600D02*
D03*
Y-232400D02*
D03*
X404200Y-257800D02*
D03*
X416900Y-283200D02*
D03*
X404200Y-308600D02*
D03*
X416900Y-334000D02*
D03*
X404200Y-461000D02*
D03*
Y-511800D02*
D03*
X378800Y-105400D02*
D03*
X391500Y-130800D02*
D03*
X378800Y-156200D02*
D03*
X391500Y-181600D02*
D03*
Y-232400D02*
D03*
Y-283200D02*
D03*
X378800Y-308600D02*
D03*
X391500Y-334000D02*
D03*
X378800Y-410200D02*
D03*
X391500Y-435600D02*
D03*
X378800Y-461000D02*
D03*
X391500Y-486400D02*
D03*
X378800Y-511800D02*
D03*
X366100Y-283200D02*
D03*
X353400Y-308600D02*
D03*
Y-410200D02*
D03*
Y-511800D02*
D03*
X340700Y-283200D02*
D03*
X328000Y-308600D02*
D03*
Y-461000D02*
D03*
Y-511800D02*
D03*
X302600Y-207000D02*
D03*
X315300Y-283200D02*
D03*
X302600Y-410200D02*
D03*
X315300Y-435600D02*
D03*
X302600Y-461000D02*
D03*
Y-511800D02*
D03*
X277200Y-105400D02*
D03*
X289900Y-130800D02*
D03*
X277200Y-207000D02*
D03*
X289900Y-232400D02*
D03*
X277200Y-257800D02*
D03*
X289900Y-283200D02*
D03*
Y-435600D02*
D03*
X277200Y-461000D02*
D03*
X289900Y-486400D02*
D03*
X277200Y-511800D02*
D03*
X264500Y-80000D02*
D03*
X251800Y-156200D02*
D03*
X264500Y-181600D02*
D03*
X251800Y-207000D02*
D03*
X264500Y-232400D02*
D03*
X251800Y-308600D02*
D03*
X264500Y-334000D02*
D03*
X251800Y-410200D02*
D03*
Y-511800D02*
D03*
X226400Y-156200D02*
D03*
X239100Y-181600D02*
D03*
X226400Y-207000D02*
D03*
X239100Y-232400D02*
D03*
X226400Y-308600D02*
D03*
X239100Y-334000D02*
D03*
Y-384800D02*
D03*
X226400Y-410200D02*
D03*
X239100Y-435600D02*
D03*
X226400Y-461000D02*
D03*
Y-511800D02*
D03*
X201000Y-156200D02*
D03*
X213700Y-181600D02*
D03*
X201000Y-257800D02*
D03*
X213700Y-283200D02*
D03*
X201000Y-308600D02*
D03*
X213700Y-334000D02*
D03*
Y-384800D02*
D03*
X201000Y-410200D02*
D03*
X213700Y-435600D02*
D03*
Y-486400D02*
D03*
X201000Y-511800D02*
D03*
X188300Y-181600D02*
D03*
X175600Y-257800D02*
D03*
X188300Y-283200D02*
D03*
X175600Y-308600D02*
D03*
X188300Y-334000D02*
D03*
Y-384800D02*
D03*
X175600Y-461000D02*
D03*
X188300Y-486400D02*
D03*
X175600Y-511800D02*
D03*
X150200Y-54600D02*
D03*
X162900Y-232400D02*
D03*
X150200Y-257800D02*
D03*
X162900Y-283200D02*
D03*
Y-435600D02*
D03*
X150200Y-461000D02*
D03*
X162900Y-486400D02*
D03*
X150200Y-511800D02*
D03*
X124800Y-54600D02*
D03*
X137500Y-232400D02*
D03*
X124800Y-257800D02*
D03*
Y-359400D02*
D03*
Y-410200D02*
D03*
X137500Y-435600D02*
D03*
X124800Y-461000D02*
D03*
X137500Y-486400D02*
D03*
X124800Y-511800D02*
D03*
X112100Y-130800D02*
D03*
X99400Y-308600D02*
D03*
X112100Y-334000D02*
D03*
X99400Y-359400D02*
D03*
X112100Y-384800D02*
D03*
X99400Y-410200D02*
D03*
X112100Y-435600D02*
D03*
Y-486400D02*
D03*
X99400Y-511800D02*
D03*
X86700Y-130800D02*
D03*
X74000Y-207000D02*
D03*
Y-257800D02*
D03*
X86700Y-283200D02*
D03*
X74000Y-308600D02*
D03*
X86700Y-334000D02*
D03*
X74000Y-359400D02*
D03*
X86700Y-384800D02*
D03*
X74000Y-410200D02*
D03*
Y-461000D02*
D03*
X86700Y-486400D02*
D03*
X74000Y-511800D02*
D03*
X48600Y-105400D02*
D03*
X61300Y-181600D02*
D03*
X48600Y-207000D02*
D03*
X61300Y-232400D02*
D03*
X48600Y-257800D02*
D03*
X61300Y-283200D02*
D03*
X48600Y-308600D02*
D03*
X61300Y-334000D02*
D03*
X48600Y-359400D02*
D03*
X61300Y-384800D02*
D03*
X48600Y-410200D02*
D03*
X61300Y-435600D02*
D03*
X48600Y-461000D02*
D03*
X23200Y-105400D02*
D03*
X35900Y-181600D02*
D03*
X23200Y-257800D02*
D03*
X35900Y-283200D02*
D03*
X23200Y-308600D02*
D03*
X35900Y-334000D02*
D03*
X23200Y-359400D02*
D03*
X35900Y-384800D02*
D03*
X23200Y-410200D02*
D03*
X35900Y-435600D02*
D03*
X23200Y-461000D02*
D03*
D35*
X1355086Y-82804D02*
D03*
X782500Y-380000D02*
D03*
X560000Y-475000D02*
D03*
X447500Y-380000D02*
D03*
X1088390Y-288290D02*
D03*
X582168Y-270256D02*
D03*
X1836670Y-82292D02*
D03*
X868422Y-83566D02*
D03*
X386584Y-83058D02*
D03*
M02*
