G04*
G04 #@! TF.GenerationSoftware,Altium Limited,Altium Designer,21.6.4 (81)*
G04*
G04 Layer_Physical_Order=2*
G04 Layer_Color=16711680*
%FSLAX44Y44*%
%MOMM*%
G71*
G04*
G04 #@! TF.SameCoordinates,43C67DF6-979F-4C5B-9B03-454D23029C34*
G04*
G04*
G04 #@! TF.FilePolarity,Positive*
G04*
G01*
G75*
%ADD36C,1.0000*%
%ADD37C,1.4224*%
%ADD38C,2.0000*%
%ADD39P,1.9483X8X202.5*%
%ADD40C,1.8000*%
%ADD41C,1.5000*%
%ADD42P,1.6236X8X202.5*%
%ADD43C,2.2000*%
%ADD44P,1.4071X8X292.5*%
%ADD45C,1.3000*%
%ADD46C,3.5000*%
%ADD47P,2.7060X8X22.5*%
%ADD48C,2.5000*%
%ADD49C,0.8000*%
%ADD50C,1.2700*%
G36*
X470000Y-222792D02*
X457608D01*
Y-216162D01*
X458046Y-215404D01*
X459000Y-211843D01*
Y-208157D01*
X458046Y-204596D01*
X456203Y-201404D01*
X453596Y-198797D01*
X450404Y-196954D01*
X446843Y-196000D01*
X443157D01*
X439596Y-196954D01*
X438838Y-197392D01*
X344000D01*
X324682Y-178073D01*
X325168Y-176900D01*
X332000D01*
X339000Y-169900D01*
Y-155900D01*
X333197Y-150097D01*
X333347Y-148953D01*
X333597Y-148701D01*
X336203Y-146096D01*
X338046Y-142904D01*
X339000Y-139343D01*
Y-135657D01*
X338046Y-132096D01*
X336203Y-128904D01*
X333596Y-126297D01*
X330404Y-124454D01*
X326843Y-123500D01*
X323157D01*
X319596Y-124454D01*
X316404Y-126297D01*
X313797Y-128904D01*
X311954Y-132096D01*
X311000Y-135657D01*
Y-139343D01*
X311954Y-142904D01*
X313797Y-146096D01*
X316402Y-148701D01*
X316653Y-148953D01*
X316803Y-150097D01*
X311000Y-155900D01*
Y-162732D01*
X309827Y-163218D01*
X259354Y-112746D01*
Y-49240D01*
X260492Y-48883D01*
X260624Y-48878D01*
X263316Y-51571D01*
X264590Y-52306D01*
X303740Y-91456D01*
X306352Y-93460D01*
X309392Y-94720D01*
X312655Y-95149D01*
X379827D01*
X381238Y-95964D01*
X384761Y-96908D01*
X388407D01*
X391930Y-95964D01*
X395088Y-94141D01*
X397667Y-91562D01*
X399490Y-88404D01*
X400434Y-84881D01*
Y-81235D01*
X399490Y-77712D01*
X397667Y-74554D01*
X395088Y-71975D01*
X391930Y-70152D01*
X388407Y-69208D01*
X384761D01*
X382053Y-69934D01*
X317878D01*
X286900Y-38956D01*
Y-37954D01*
X285904Y-34238D01*
X283981Y-30906D01*
X281260Y-28186D01*
X277928Y-26262D01*
X274212Y-25266D01*
X270364D01*
X266648Y-26262D01*
X263316Y-28186D01*
X260595Y-30906D01*
X260223Y-31551D01*
X258953D01*
X258580Y-30906D01*
X255860Y-28186D01*
X252528Y-26262D01*
X248812Y-25266D01*
X244964D01*
X241248Y-26262D01*
X237916Y-28186D01*
X235196Y-30906D01*
X234823Y-31551D01*
X233553D01*
X233181Y-30906D01*
X230460Y-28186D01*
X227128Y-26262D01*
X223412Y-25266D01*
X219564D01*
X215848Y-26262D01*
X212516Y-28186D01*
X209795Y-30906D01*
X207872Y-34238D01*
X206876Y-37954D01*
Y-41802D01*
X207872Y-45518D01*
X209795Y-48850D01*
X212516Y-51571D01*
X215848Y-53494D01*
X219564Y-54490D01*
X223412D01*
X227128Y-53494D01*
X230460Y-51571D01*
X232868Y-49162D01*
X234138Y-49604D01*
Y-117968D01*
X234568Y-121231D01*
X235827Y-124272D01*
X237831Y-126883D01*
X329863Y-218915D01*
X329863Y-218915D01*
X332474Y-220919D01*
X335515Y-222178D01*
X338778Y-222608D01*
X432392D01*
Y-227008D01*
X431000Y-228400D01*
Y-242400D01*
X438000Y-249400D01*
X452000D01*
X453392Y-248008D01*
X470000D01*
Y-257500D01*
X717500D01*
X735000Y-275000D01*
X1268097D01*
X1270187Y-275866D01*
X1273375Y-276500D01*
X1276625D01*
X1279813Y-275866D01*
X1281903Y-275000D01*
X1315250D01*
X1316750Y-276500D01*
X1333250D01*
X1334750Y-275000D01*
X1642500D01*
Y-378092D01*
X1641327Y-378578D01*
X1641156Y-378407D01*
X1638289Y-376492D01*
X1635105Y-375173D01*
X1631724Y-374500D01*
X1628276D01*
X1624895Y-375173D01*
X1621711Y-376492D01*
X1618844Y-378407D01*
X1616407Y-380844D01*
X1614492Y-383711D01*
X1613172Y-386895D01*
X1612500Y-390276D01*
Y-393724D01*
X1613172Y-397105D01*
X1614492Y-400289D01*
X1616407Y-403156D01*
X1618844Y-405593D01*
X1621711Y-407508D01*
X1624895Y-408828D01*
X1628276Y-409500D01*
X1631724D01*
X1635105Y-408828D01*
X1638289Y-407508D01*
X1641156Y-405593D01*
X1641327Y-405422D01*
X1642500Y-405908D01*
Y-452392D01*
X1547392D01*
X1522500Y-427500D01*
X870000D01*
X775000Y-332500D01*
X470000D01*
Y-412392D01*
X422818D01*
Y-398528D01*
X423503Y-397503D01*
X424633Y-394773D01*
X425210Y-391875D01*
Y-388921D01*
X424633Y-386023D01*
X423503Y-383293D01*
X421861Y-380836D01*
X419772Y-378747D01*
X417315Y-377105D01*
X414585Y-375975D01*
X411687Y-375398D01*
X408733D01*
X405835Y-375975D01*
X403105Y-377105D01*
X400648Y-378747D01*
X398688Y-380707D01*
X398152Y-380630D01*
X397418Y-380257D01*
Y-365108D01*
X434892D01*
Y-374137D01*
X434594Y-374654D01*
X433650Y-378177D01*
Y-381823D01*
X434594Y-385346D01*
X436417Y-388504D01*
X438996Y-391083D01*
X442154Y-392906D01*
X445677Y-393850D01*
X449323D01*
X452846Y-392906D01*
X456004Y-391083D01*
X458583Y-388504D01*
X460406Y-385346D01*
X461350Y-381823D01*
Y-378177D01*
X460406Y-374654D01*
X460108Y-374137D01*
Y-358358D01*
X459678Y-355095D01*
X458419Y-352054D01*
X456415Y-349443D01*
X450557Y-343585D01*
X447946Y-341581D01*
X444905Y-340322D01*
X441642Y-339892D01*
X152558D01*
X149295Y-340322D01*
X146254Y-341581D01*
X143643Y-343585D01*
X137785Y-349443D01*
X135781Y-352054D01*
X134522Y-355095D01*
X134092Y-358358D01*
Y-396070D01*
X133407Y-397095D01*
X132276Y-399825D01*
X131700Y-402723D01*
Y-405677D01*
X132276Y-408575D01*
X133407Y-411305D01*
X135049Y-413762D01*
X137138Y-415851D01*
X139595Y-417493D01*
X142325Y-418624D01*
X145223Y-419200D01*
X148177D01*
X151075Y-418624D01*
X153805Y-417493D01*
X156262Y-415851D01*
X158351Y-413762D01*
X159993Y-411305D01*
X161124Y-408575D01*
X161329Y-407545D01*
X162632Y-407502D01*
X162782Y-408060D01*
X164098Y-410340D01*
X165960Y-412202D01*
X167100Y-412860D01*
Y-404200D01*
Y-395540D01*
X165960Y-396198D01*
X164098Y-398060D01*
X162782Y-400340D01*
X162632Y-400898D01*
X161329Y-400855D01*
X161124Y-399825D01*
X159993Y-397095D01*
X159308Y-396070D01*
Y-365108D01*
X372202D01*
Y-380257D01*
X371468Y-380630D01*
X370932Y-380707D01*
X368972Y-378747D01*
X366515Y-377105D01*
X363785Y-375975D01*
X360887Y-375398D01*
X357933D01*
X355035Y-375975D01*
X352305Y-377105D01*
X349848Y-378747D01*
X347759Y-380836D01*
X347345Y-381455D01*
X346075D01*
X345661Y-380836D01*
X343572Y-378747D01*
X341115Y-377105D01*
X338385Y-375975D01*
X335487Y-375398D01*
X332533D01*
X329635Y-375975D01*
X326905Y-377105D01*
X324448Y-378747D01*
X322359Y-380836D01*
X320717Y-383293D01*
X319587Y-386023D01*
X319381Y-387053D01*
X318078Y-387096D01*
X317929Y-386538D01*
X316612Y-384258D01*
X314750Y-382396D01*
X313610Y-381738D01*
Y-390398D01*
Y-399058D01*
X314750Y-398400D01*
X316612Y-396538D01*
X317929Y-394258D01*
X318078Y-393700D01*
X319381Y-393742D01*
X319587Y-394773D01*
X320717Y-397503D01*
X321402Y-398528D01*
Y-417322D01*
X321832Y-420585D01*
X323091Y-423626D01*
X325095Y-426237D01*
X347145Y-448287D01*
Y-465827D01*
X347004Y-465922D01*
X344218Y-468708D01*
X342029Y-471983D01*
X340522Y-475623D01*
X339753Y-479487D01*
Y-483427D01*
X340522Y-487291D01*
X342029Y-490931D01*
X344218Y-494206D01*
X347004Y-496992D01*
X350279Y-499181D01*
X353919Y-500688D01*
X357783Y-501457D01*
X361723D01*
X365587Y-500688D01*
X369227Y-499181D01*
X372502Y-496992D01*
X375288Y-494206D01*
X377477Y-490931D01*
X378984Y-487291D01*
X379753Y-483427D01*
Y-479487D01*
X378984Y-475623D01*
X377477Y-471983D01*
X375288Y-468708D01*
X372502Y-465922D01*
X372361Y-465827D01*
Y-443065D01*
X371931Y-439802D01*
X370672Y-436761D01*
X368668Y-434150D01*
X346618Y-412100D01*
Y-400538D01*
X347352Y-400166D01*
X347888Y-400089D01*
X349848Y-402049D01*
X352305Y-403691D01*
X355035Y-404822D01*
X357933Y-405398D01*
X360887D01*
X363785Y-404822D01*
X366515Y-403691D01*
X368972Y-402049D01*
X371061Y-399960D01*
X371475Y-399341D01*
X372745D01*
X373159Y-399960D01*
X375248Y-402049D01*
X377705Y-403691D01*
X380435Y-404822D01*
X383333Y-405398D01*
X386287D01*
X389185Y-404822D01*
X391915Y-403691D01*
X394372Y-402049D01*
X396332Y-400089D01*
X396868Y-400166D01*
X397602Y-400538D01*
Y-419142D01*
X398032Y-422405D01*
X399291Y-425446D01*
X401295Y-428057D01*
X407153Y-433915D01*
X409764Y-435919D01*
X412805Y-437178D01*
X416068Y-437608D01*
X470000D01*
Y-520000D01*
X443291D01*
X443039Y-518730D01*
X446842Y-517155D01*
X450937Y-514419D01*
X454419Y-510937D01*
X457155Y-506842D01*
X459039Y-502292D01*
X460000Y-497462D01*
Y-492538D01*
X459039Y-487708D01*
X457155Y-483158D01*
X454419Y-479063D01*
X450937Y-475581D01*
X446842Y-472845D01*
X442292Y-470961D01*
X437462Y-470000D01*
X432538D01*
X427708Y-470961D01*
X423158Y-472845D01*
X419063Y-475581D01*
X415581Y-479063D01*
X412845Y-483158D01*
X410961Y-487708D01*
X410000Y-492538D01*
Y-497462D01*
X410961Y-502292D01*
X412845Y-506842D01*
X415581Y-510937D01*
X419063Y-514419D01*
X423158Y-517155D01*
X426961Y-518730D01*
X426709Y-520000D01*
X43291D01*
X43039Y-518730D01*
X46842Y-517155D01*
X50937Y-514419D01*
X54419Y-510937D01*
X57155Y-506842D01*
X59039Y-502292D01*
X60000Y-497462D01*
Y-492538D01*
X59039Y-487708D01*
X57155Y-483158D01*
X54419Y-479063D01*
X50937Y-475581D01*
X46842Y-472845D01*
X42292Y-470961D01*
X37462Y-470000D01*
X32538D01*
X27708Y-470961D01*
X23158Y-472845D01*
X19064Y-475581D01*
X15581Y-479063D01*
X12845Y-483158D01*
X10961Y-487708D01*
X10000Y-492538D01*
Y-497462D01*
X10961Y-502292D01*
X12845Y-506842D01*
X15581Y-510937D01*
X19064Y-514419D01*
X23158Y-517155D01*
X26961Y-518730D01*
X26709Y-520000D01*
X10000D01*
X7546Y-522454D01*
X6373Y-521968D01*
X6372Y-6372D01*
X470000D01*
Y-222792D01*
D02*
G37*
%LPC*%
G36*
X124888Y-31666D02*
Y-34878D01*
X128100D01*
X127579Y-33976D01*
X125790Y-32187D01*
X124888Y-31666D01*
D02*
G37*
G36*
X128100Y-44878D02*
X124888D01*
Y-48090D01*
X125790Y-47569D01*
X127579Y-45780D01*
X128100Y-44878D01*
D02*
G37*
G36*
X96412Y-25266D02*
X92564D01*
X88848Y-26262D01*
X85516Y-28186D01*
X82795Y-30906D01*
X80872Y-34238D01*
X79876Y-37954D01*
Y-41802D01*
X80872Y-45518D01*
X81738Y-47019D01*
Y-74346D01*
X82168Y-77609D01*
X83427Y-80650D01*
X85431Y-83261D01*
X88042Y-85265D01*
X91083Y-86524D01*
X94346Y-86954D01*
X97609Y-86524D01*
X100650Y-85265D01*
X103261Y-83261D01*
X105265Y-80650D01*
X106524Y-77609D01*
X106954Y-74346D01*
Y-47510D01*
X108104Y-45518D01*
X109100Y-41802D01*
Y-41662D01*
X110370Y-41494D01*
X110931Y-43588D01*
X112197Y-45780D01*
X113986Y-47569D01*
X114888Y-48090D01*
Y-39878D01*
Y-31666D01*
X113986Y-32187D01*
X112197Y-33976D01*
X110931Y-36168D01*
X110370Y-38262D01*
X109100Y-38094D01*
Y-37954D01*
X108104Y-34238D01*
X106180Y-30906D01*
X103460Y-28186D01*
X100128Y-26262D01*
X96412Y-25266D01*
D02*
G37*
G36*
X375812D02*
X371964D01*
X368248Y-26262D01*
X364916Y-28186D01*
X362196Y-30906D01*
X360272Y-34238D01*
X359276Y-37954D01*
Y-41802D01*
X360272Y-45518D01*
X362196Y-48850D01*
X364916Y-51571D01*
X368248Y-53494D01*
X371964Y-54490D01*
X375812D01*
X379528Y-53494D01*
X382860Y-51571D01*
X385580Y-48850D01*
X387504Y-45518D01*
X388500Y-41802D01*
Y-37954D01*
X387504Y-34238D01*
X385580Y-30906D01*
X382860Y-28186D01*
X379528Y-26262D01*
X375812Y-25266D01*
D02*
G37*
G36*
X325012D02*
X321164D01*
X317448Y-26262D01*
X314116Y-28186D01*
X311395Y-30906D01*
X309472Y-34238D01*
X308476Y-37954D01*
Y-41802D01*
X309472Y-45518D01*
X311395Y-48850D01*
X314116Y-51571D01*
X317448Y-53494D01*
X321164Y-54490D01*
X325012D01*
X328728Y-53494D01*
X332060Y-51571D01*
X334781Y-48850D01*
X336704Y-45518D01*
X337700Y-41802D01*
Y-37954D01*
X336704Y-34238D01*
X334781Y-30906D01*
X332060Y-28186D01*
X328728Y-26262D01*
X325012Y-25266D01*
D02*
G37*
G36*
X172612D02*
X168764D01*
X165048Y-26262D01*
X161716Y-28186D01*
X158996Y-30906D01*
X157072Y-34238D01*
X156076Y-37954D01*
Y-41802D01*
X157072Y-45518D01*
X158996Y-48850D01*
X161716Y-51571D01*
X165048Y-53494D01*
X168764Y-54490D01*
X172612D01*
X176328Y-53494D01*
X179660Y-51571D01*
X182381Y-48850D01*
X184304Y-45518D01*
X185300Y-41802D01*
Y-37954D01*
X184304Y-34238D01*
X182381Y-30906D01*
X179660Y-28186D01*
X176328Y-26262D01*
X172612Y-25266D01*
D02*
G37*
G36*
X37462Y-107500D02*
X32538D01*
X27708Y-108461D01*
X23158Y-110345D01*
X19064Y-113081D01*
X15581Y-116563D01*
X12845Y-120658D01*
X10961Y-125208D01*
X10000Y-130038D01*
Y-134962D01*
X10961Y-139792D01*
X12845Y-144342D01*
X15581Y-148436D01*
X19064Y-151919D01*
X23158Y-154655D01*
X27708Y-156539D01*
X32538Y-157500D01*
X37462D01*
X42292Y-156539D01*
X46842Y-154655D01*
X50937Y-151919D01*
X54419Y-148436D01*
X57155Y-144342D01*
X59039Y-139792D01*
X60000Y-134962D01*
Y-130038D01*
X59039Y-125208D01*
X57155Y-120658D01*
X54419Y-116563D01*
X50937Y-113081D01*
X46842Y-110345D01*
X42292Y-108461D01*
X37462Y-107500D01*
D02*
G37*
G36*
X437462Y-107500D02*
X432538D01*
X427708Y-108461D01*
X423158Y-110345D01*
X419063Y-113081D01*
X415581Y-116563D01*
X412845Y-120658D01*
X410961Y-125208D01*
X410000Y-130038D01*
Y-134962D01*
X410961Y-139792D01*
X412845Y-144342D01*
X415581Y-148437D01*
X419063Y-151919D01*
X423158Y-154655D01*
X427708Y-156539D01*
X432538Y-157500D01*
X437462D01*
X442292Y-156539D01*
X446842Y-154655D01*
X450937Y-151919D01*
X454419Y-148437D01*
X457155Y-144342D01*
X459039Y-139792D01*
X460000Y-134962D01*
Y-130038D01*
X459039Y-125208D01*
X457155Y-120658D01*
X454419Y-116563D01*
X450937Y-113081D01*
X446842Y-110345D01*
X442292Y-108461D01*
X437462Y-107500D01*
D02*
G37*
G36*
X359343Y-123500D02*
X355657D01*
X352096Y-124454D01*
X348904Y-126297D01*
X346297Y-128904D01*
X344454Y-132096D01*
X343500Y-135657D01*
Y-139343D01*
X344454Y-142904D01*
X346297Y-146096D01*
X348903Y-148701D01*
X349153Y-148953D01*
X349303Y-150097D01*
X343500Y-155900D01*
Y-169900D01*
X350500Y-176900D01*
X364500D01*
X371500Y-169900D01*
Y-155900D01*
X365697Y-150097D01*
X365847Y-148953D01*
X366097Y-148701D01*
X368703Y-146096D01*
X370546Y-142904D01*
X371500Y-139343D01*
Y-135657D01*
X370546Y-132096D01*
X368703Y-128904D01*
X366096Y-126297D01*
X362904Y-124454D01*
X359343Y-123500D01*
D02*
G37*
G36*
X30000Y-202495D02*
Y-205000D01*
X32506D01*
X32202Y-204474D01*
X30526Y-202798D01*
X30000Y-202495D01*
D02*
G37*
G36*
X20000Y-202494D02*
X19474Y-202798D01*
X17798Y-204474D01*
X17494Y-205000D01*
X20000D01*
Y-202494D01*
D02*
G37*
G36*
X32506Y-215000D02*
X30000D01*
Y-217505D01*
X30526Y-217202D01*
X32202Y-215526D01*
X32506Y-215000D01*
D02*
G37*
G36*
X20000D02*
X17495D01*
X17798Y-215526D01*
X19474Y-217202D01*
X20000Y-217506D01*
Y-215000D01*
D02*
G37*
G36*
X30000Y-226900D02*
Y-230400D01*
X33500D01*
X30000Y-226900D01*
D02*
G37*
G36*
X20000Y-226900D02*
X16500Y-230400D01*
X20000D01*
Y-226900D01*
D02*
G37*
G36*
X33500Y-240400D02*
X30000D01*
Y-243900D01*
X33500Y-240400D01*
D02*
G37*
G36*
X20000D02*
X16500D01*
X20000Y-243900D01*
Y-240400D01*
D02*
G37*
G36*
X373250Y-243500D02*
X356750D01*
X348500Y-251750D01*
Y-268250D01*
X356750Y-276500D01*
X373250D01*
X381500Y-268250D01*
Y-251750D01*
X373250Y-243500D01*
D02*
G37*
G36*
X316625D02*
X313375D01*
X310187Y-244134D01*
X307184Y-245378D01*
X304482Y-247184D01*
X302184Y-249482D01*
X300378Y-252184D01*
X299134Y-255187D01*
X298500Y-258375D01*
Y-261625D01*
X299134Y-264813D01*
X300378Y-267816D01*
X302184Y-270518D01*
X304482Y-272816D01*
X307184Y-274622D01*
X310187Y-275866D01*
X313375Y-276500D01*
X316625D01*
X319813Y-275866D01*
X322816Y-274622D01*
X325518Y-272816D01*
X327816Y-270518D01*
X329622Y-267816D01*
X330866Y-264813D01*
X331500Y-261625D01*
Y-258375D01*
X330866Y-255187D01*
X329622Y-252184D01*
X327816Y-249482D01*
X325518Y-247184D01*
X322816Y-245378D01*
X319813Y-244134D01*
X316625Y-243500D01*
D02*
G37*
G36*
X1475000Y-298453D02*
Y-305000D01*
X1481547D01*
X1480002Y-302325D01*
X1477675Y-299998D01*
X1475000Y-298453D01*
D02*
G37*
G36*
X1465000D02*
X1462325Y-299998D01*
X1459998Y-302325D01*
X1458453Y-305000D01*
X1465000D01*
Y-298453D01*
D02*
G37*
G36*
X1481547Y-315000D02*
X1475000D01*
Y-321547D01*
X1477675Y-320003D01*
X1480002Y-317675D01*
X1481547Y-315000D01*
D02*
G37*
G36*
X1465000D02*
X1458453D01*
X1459998Y-317675D01*
X1462325Y-320003D01*
X1465000Y-321547D01*
Y-315000D01*
D02*
G37*
G36*
X290710Y-375398D02*
X275710D01*
X268210Y-382898D01*
Y-397898D01*
X270602Y-400290D01*
Y-413624D01*
X250838Y-433388D01*
X248834Y-435999D01*
X247575Y-439040D01*
X247145Y-442303D01*
Y-464065D01*
X239753Y-471457D01*
Y-491457D01*
X249753Y-501457D01*
X269753D01*
X279753Y-491457D01*
Y-471457D01*
X272361Y-464065D01*
Y-447525D01*
X292125Y-427761D01*
X294129Y-425150D01*
X295388Y-422109D01*
X295818Y-418846D01*
Y-400290D01*
X298210Y-397898D01*
Y-394925D01*
X299480Y-394584D01*
X300608Y-396538D01*
X302470Y-398400D01*
X303610Y-399058D01*
Y-390398D01*
Y-381738D01*
X302470Y-382396D01*
X300608Y-384258D01*
X299480Y-386212D01*
X298210Y-385871D01*
Y-382898D01*
X290710Y-375398D01*
D02*
G37*
G36*
X177100Y-395540D02*
Y-399200D01*
X180760D01*
X180102Y-398060D01*
X178240Y-396198D01*
X177100Y-395540D01*
D02*
G37*
G36*
X1531724Y-374500D02*
X1528276D01*
X1524895Y-375173D01*
X1521711Y-376492D01*
X1518844Y-378407D01*
X1516407Y-380844D01*
X1514492Y-383711D01*
X1513172Y-386895D01*
X1512500Y-390276D01*
Y-393724D01*
X1513172Y-397105D01*
X1514492Y-400289D01*
X1516407Y-403156D01*
X1518844Y-405593D01*
X1521711Y-407508D01*
X1524895Y-408828D01*
X1528276Y-409500D01*
X1531724D01*
X1535105Y-408828D01*
X1538289Y-407508D01*
X1541156Y-405593D01*
X1543593Y-403156D01*
X1545508Y-400289D01*
X1546828Y-397105D01*
X1547500Y-393724D01*
Y-390276D01*
X1546828Y-386895D01*
X1545508Y-383711D01*
X1543593Y-380844D01*
X1541156Y-378407D01*
X1538289Y-376492D01*
X1535105Y-375173D01*
X1531724Y-374500D01*
D02*
G37*
G36*
X180760Y-409200D02*
X177100D01*
Y-412860D01*
X178240Y-412202D01*
X180102Y-410340D01*
X180760Y-409200D01*
D02*
G37*
G36*
X1585000Y-410603D02*
Y-425000D01*
X1599397D01*
X1599231Y-424166D01*
X1597724Y-420527D01*
X1595535Y-417251D01*
X1592749Y-414465D01*
X1589474Y-412276D01*
X1585834Y-410769D01*
X1585000Y-410603D01*
D02*
G37*
G36*
X1575000Y-410603D02*
X1574166Y-410769D01*
X1570526Y-412276D01*
X1567251Y-414465D01*
X1564465Y-417251D01*
X1562276Y-420527D01*
X1560769Y-424166D01*
X1560603Y-425000D01*
X1575000D01*
Y-410603D01*
D02*
G37*
G36*
Y-435000D02*
X1560603D01*
X1560769Y-435834D01*
X1562276Y-439473D01*
X1564465Y-442749D01*
X1567251Y-445535D01*
X1570526Y-447724D01*
X1574166Y-449231D01*
X1575000Y-449397D01*
Y-435000D01*
D02*
G37*
G36*
X1599397D02*
X1585000D01*
Y-449397D01*
X1585834Y-449231D01*
X1589474Y-447724D01*
X1592749Y-445535D01*
X1595535Y-442749D01*
X1597724Y-439473D01*
X1599231Y-435834D01*
X1599397Y-435000D01*
D02*
G37*
G36*
X199322Y-436500D02*
X195678D01*
X192104Y-437211D01*
X188737Y-438605D01*
X185707Y-440630D01*
X183130Y-443207D01*
X181105Y-446237D01*
X179711Y-449604D01*
X179000Y-453178D01*
Y-456822D01*
X179711Y-460396D01*
X181105Y-463763D01*
X183130Y-466793D01*
X185707Y-469370D01*
X188737Y-471395D01*
X192104Y-472789D01*
X195678Y-473500D01*
X199322D01*
X202896Y-472789D01*
X206263Y-471395D01*
X209293Y-469370D01*
X211870Y-466793D01*
X213895Y-463763D01*
X215289Y-460396D01*
X216000Y-456822D01*
Y-453178D01*
X215289Y-449604D01*
X213895Y-446237D01*
X211870Y-443207D01*
X209293Y-440630D01*
X206263Y-438605D01*
X202896Y-437211D01*
X199322Y-436500D01*
D02*
G37*
G36*
X97722D02*
X94078D01*
X90504Y-437211D01*
X87137Y-438605D01*
X84107Y-440630D01*
X81530Y-443207D01*
X79506Y-446237D01*
X78111Y-449604D01*
X77400Y-453178D01*
Y-456822D01*
X78111Y-460396D01*
X79506Y-463763D01*
X81530Y-466793D01*
X84107Y-469370D01*
X87137Y-471395D01*
X90504Y-472789D01*
X94078Y-473500D01*
X97722D01*
X101296Y-472789D01*
X104663Y-471395D01*
X107693Y-469370D01*
X110270Y-466793D01*
X112295Y-463763D01*
X113689Y-460396D01*
X114400Y-456822D01*
Y-453178D01*
X113689Y-449604D01*
X112295Y-446237D01*
X110270Y-443207D01*
X107693Y-440630D01*
X104663Y-438605D01*
X101296Y-437211D01*
X97722Y-436500D01*
D02*
G37*
G36*
X314753Y-467292D02*
Y-476457D01*
X323918D01*
X323046Y-474352D01*
X321404Y-471895D01*
X319315Y-469806D01*
X316858Y-468164D01*
X314753Y-467292D01*
D02*
G37*
G36*
X304753D02*
X302648Y-468164D01*
X300191Y-469806D01*
X298102Y-471895D01*
X296460Y-474352D01*
X295588Y-476457D01*
X304753D01*
Y-467292D01*
D02*
G37*
G36*
X323918Y-486457D02*
X314753D01*
Y-495622D01*
X316858Y-494750D01*
X319315Y-493108D01*
X321404Y-491019D01*
X323046Y-488562D01*
X323918Y-486457D01*
D02*
G37*
G36*
X304753D02*
X295588D01*
X296460Y-488562D01*
X298102Y-491019D01*
X300191Y-493108D01*
X302648Y-494750D01*
X304753Y-495622D01*
Y-486457D01*
D02*
G37*
%LPD*%
D36*
X1559260Y-40686D02*
X1560068Y-39878D01*
X1558036Y-44897D02*
X1559260Y-43673D01*
X1558036Y-141964D02*
Y-44897D01*
X1559260Y-43673D02*
Y-40686D01*
X1500000Y-200000D02*
X1558036Y-141964D01*
X1712468Y-39878D02*
X1713276Y-40686D01*
Y-43988D02*
Y-40686D01*
Y-43988D02*
X1752092Y-82804D01*
X1836670D01*
X152558Y-352500D02*
X384810D01*
X146700Y-404200D02*
Y-358358D01*
X152558Y-352500D01*
X35870Y-290000D02*
X480636D01*
X25000Y-279130D02*
X35870Y-290000D01*
X25000Y-279130D02*
Y-235400D01*
X480636Y-290000D02*
X500380Y-270256D01*
X582168D01*
X1207262Y-121158D02*
Y-39728D01*
Y-121158D02*
X1296104Y-210000D01*
X1231204Y-39573D02*
X1235267Y-43636D01*
X1235658D02*
X1274826Y-82804D01*
X1355086D01*
X1235267Y-43636D02*
X1235658D01*
X1487500Y-210000D02*
X1498750Y-198750D01*
X599806Y-129428D02*
Y-41524D01*
X529617Y-199617D02*
X599806Y-129428D01*
X794248Y-83566D02*
X867691D01*
X752206Y-41524D02*
X794248Y-83566D01*
X246746Y-117968D02*
X338778Y-210000D01*
X246746Y-117968D02*
Y-42032D01*
X312655Y-82541D02*
X385337D01*
X272146Y-42032D02*
X312655Y-82541D01*
X94346Y-74346D02*
Y-42032D01*
X56388Y-81788D02*
Y-17108D01*
X123190Y-39451D02*
Y-17108D01*
X56388D02*
X62246Y-11250D01*
X117332D01*
X123190Y-17108D01*
X1010000Y-200000D02*
X1085647Y-124353D01*
Y-40208D01*
X996500Y-210000D02*
X1008250Y-198250D01*
X725932Y-130048D02*
Y-39370D01*
Y-130048D02*
X805884Y-210000D01*
X925000D01*
X519234D02*
X529617Y-199617D01*
X338778Y-210000D02*
X445000D01*
X790517Y-380517D02*
X857500Y-447500D01*
X1517500D01*
X1535000Y-465000D01*
X1745000D01*
X1780000Y-430000D01*
X384810Y-352500D02*
X441642D01*
X447500Y-358358D01*
Y-380000D02*
Y-358358D01*
X384810Y-390398D02*
Y-352500D01*
X1465000Y-210000D02*
X1487500D01*
X1296104Y-210000D02*
X1404358D01*
X783017Y-380517D02*
X790517D01*
X782500Y-380000D02*
X783017Y-380517D01*
X560000Y-475000D02*
Y-430858D01*
X416068Y-425000D02*
X554142D01*
X560000Y-430858D01*
X410210Y-419142D02*
Y-390398D01*
Y-419142D02*
X416068Y-425000D01*
X1490726Y-288290D02*
X1580000Y-377564D01*
X680466Y-270256D02*
X698500Y-288290D01*
X1490726D01*
X582168Y-270256D02*
X680466D01*
X25000Y-210000D02*
X45016D01*
X99060Y-155956D02*
Y-124460D01*
X45016Y-210000D02*
X99060Y-155956D01*
X56388Y-81788D02*
X99060Y-124460D01*
X505000Y-210000D02*
X519234D01*
X985000D02*
X996500D01*
X1580000Y-430000D02*
Y-377564D01*
X925000Y-235400D02*
X985000D01*
Y-210000D01*
X925000Y-235400D02*
Y-210000D01*
X1465000Y-235400D02*
Y-210000D01*
X1405000Y-235400D02*
X1465000D01*
X1405000Y-235400D02*
X1405000Y-235400D01*
X1405000Y-235400D02*
Y-210000D01*
X505000Y-235400D02*
Y-210000D01*
X445000Y-235400D02*
X505000D01*
X445000D02*
Y-210000D01*
X334010Y-417322D02*
X359753Y-443065D01*
X334010Y-417322D02*
Y-390398D01*
X359753Y-481457D02*
Y-443065D01*
X259753Y-481457D02*
Y-442303D01*
X283210Y-418846D02*
Y-390398D01*
X259753Y-442303D02*
X283210Y-418846D01*
X308610Y-480314D02*
X310896Y-482600D01*
X308610Y-480314D02*
Y-390398D01*
X25000Y-235400D02*
Y-210000D01*
D37*
X1814068Y-39878D02*
D03*
X1763268D02*
D03*
X1712468D02*
D03*
X1687068D02*
D03*
X1661668D02*
D03*
X1610868D02*
D03*
X1560068D02*
D03*
X1534668D02*
D03*
X1333500D02*
D03*
X1282700D02*
D03*
X1231900D02*
D03*
X1206500D02*
D03*
X1181100D02*
D03*
X1130300D02*
D03*
X1079500D02*
D03*
X1054100D02*
D03*
X373888D02*
D03*
X323088D02*
D03*
X272288D02*
D03*
X246888D02*
D03*
X221488D02*
D03*
X170688D02*
D03*
X119888D02*
D03*
X94488D02*
D03*
X573786D02*
D03*
X599186D02*
D03*
X649986D02*
D03*
X700786D02*
D03*
X726186D02*
D03*
X751586D02*
D03*
X802386D02*
D03*
X853186D02*
D03*
D38*
X1470000Y-310000D02*
D03*
X1500000Y-200000D02*
D03*
X1885000Y-277500D02*
D03*
X1010000Y-200000D02*
D03*
X530000D02*
D03*
X1830000Y-392000D02*
D03*
X1730000D02*
D03*
X1830000Y-494000D02*
D03*
X1730000D02*
D03*
X1630000Y-392000D02*
D03*
X1530000D02*
D03*
X1630000Y-494000D02*
D03*
X1530000D02*
D03*
X525000Y-380000D02*
D03*
D39*
X1325000Y-260000D02*
D03*
X1805000D02*
D03*
X843896Y-247650D02*
D03*
X365000Y-260000D02*
D03*
D40*
X1275000D02*
D03*
X1755000D02*
D03*
X793896Y-247650D02*
D03*
X315000Y-260000D02*
D03*
D41*
X410210Y-390398D02*
D03*
X384810D02*
D03*
X359410D02*
D03*
X334010D02*
D03*
X308610D02*
D03*
X146700Y-404200D02*
D03*
X172100D02*
D03*
D42*
X283210Y-390398D02*
D03*
D43*
X95900Y-455000D02*
D03*
X197500D02*
D03*
D44*
X1465000Y-235400D02*
D03*
X1765000Y-162900D02*
D03*
X1797500D02*
D03*
X1885000Y-235400D02*
D03*
X985000Y-235400D02*
D03*
X1285000Y-162900D02*
D03*
X1317500D02*
D03*
X1405000Y-235400D02*
D03*
X505000D02*
D03*
X805000Y-162900D02*
D03*
X837500D02*
D03*
X925000Y-235400D02*
D03*
X325000Y-162900D02*
D03*
X357500Y-162900D02*
D03*
X445000Y-235400D02*
D03*
X25000D02*
D03*
D45*
X1465000Y-210000D02*
D03*
X1765000Y-137500D02*
D03*
X1797500D02*
D03*
X1885000Y-210000D02*
D03*
X985000Y-210000D02*
D03*
X1285000Y-137500D02*
D03*
X1317500D02*
D03*
X1405000Y-210000D02*
D03*
X505000D02*
D03*
X805000Y-137500D02*
D03*
X837500D02*
D03*
X925000Y-210000D02*
D03*
X325000Y-137500D02*
D03*
X357500Y-137500D02*
D03*
X445000Y-210000D02*
D03*
X25000D02*
D03*
D46*
X1780000Y-430000D02*
D03*
X1580000D02*
D03*
X1875000Y-132500D02*
D03*
X1475000D02*
D03*
X1395000Y-132500D02*
D03*
X995000D02*
D03*
X915000D02*
D03*
X515000D02*
D03*
X435000Y-132500D02*
D03*
X1875000Y-495000D02*
D03*
X435000D02*
D03*
X1475000Y-495000D02*
D03*
X515000Y-495000D02*
D03*
X915000D02*
D03*
X35000D02*
D03*
X1395000D02*
D03*
X995000D02*
D03*
X35000Y-132500D02*
D03*
D47*
X259753Y-481457D02*
D03*
D48*
X309753D02*
D03*
X359753D02*
D03*
D49*
X1636100Y-283200D02*
D03*
X1623400Y-308600D02*
D03*
X1636100Y-334000D02*
D03*
X1623400Y-359400D02*
D03*
X1636100Y-435600D02*
D03*
X1610700Y-283200D02*
D03*
X1598000Y-308600D02*
D03*
X1610700Y-334000D02*
D03*
X1598000Y-359400D02*
D03*
Y-410200D02*
D03*
X1610700Y-435600D02*
D03*
X1585300Y-334000D02*
D03*
X1572600Y-359400D02*
D03*
X1585300Y-384800D02*
D03*
X1547200Y-308600D02*
D03*
X1559900Y-334000D02*
D03*
X1547200Y-359400D02*
D03*
X1559900Y-384800D02*
D03*
X1547200Y-410200D02*
D03*
X1521800Y-308600D02*
D03*
Y-359400D02*
D03*
X1534500Y-435600D02*
D03*
X1496400Y-308600D02*
D03*
X1509100Y-334000D02*
D03*
X1496400Y-359400D02*
D03*
X1509100Y-384800D02*
D03*
X1496400Y-410200D02*
D03*
X1483700Y-283200D02*
D03*
X1471000Y-308600D02*
D03*
X1483700Y-334000D02*
D03*
X1471000Y-359400D02*
D03*
X1483700Y-384800D02*
D03*
X1471000Y-410200D02*
D03*
X1458300Y-283200D02*
D03*
X1445600Y-308600D02*
D03*
X1458300Y-334000D02*
D03*
X1445600Y-359400D02*
D03*
X1458300Y-384800D02*
D03*
X1445600Y-410200D02*
D03*
X1432900Y-283200D02*
D03*
X1420200Y-308600D02*
D03*
X1432900Y-334000D02*
D03*
X1420200Y-359400D02*
D03*
X1432900Y-384800D02*
D03*
X1420200Y-410200D02*
D03*
X1407500Y-283200D02*
D03*
X1394800Y-308600D02*
D03*
X1407500Y-334000D02*
D03*
X1394800Y-359400D02*
D03*
X1407500Y-384800D02*
D03*
X1394800Y-410200D02*
D03*
X1382100Y-283200D02*
D03*
X1369400Y-308600D02*
D03*
X1382100Y-334000D02*
D03*
X1369400Y-359400D02*
D03*
X1382100Y-384800D02*
D03*
X1369400Y-410200D02*
D03*
X1356700Y-283200D02*
D03*
X1344000Y-308600D02*
D03*
X1356700Y-334000D02*
D03*
X1344000Y-359400D02*
D03*
X1356700Y-384800D02*
D03*
X1344000Y-410200D02*
D03*
X1331300Y-283200D02*
D03*
X1318600Y-308600D02*
D03*
X1331300Y-334000D02*
D03*
X1318600Y-359400D02*
D03*
X1331300Y-384800D02*
D03*
X1318600Y-410200D02*
D03*
X1305900Y-283200D02*
D03*
X1293200Y-308600D02*
D03*
X1305900Y-334000D02*
D03*
X1293200Y-359400D02*
D03*
X1305900Y-384800D02*
D03*
X1293200Y-410200D02*
D03*
X1280500Y-283200D02*
D03*
X1267800Y-308600D02*
D03*
X1280500Y-334000D02*
D03*
X1267800Y-359400D02*
D03*
X1280500Y-384800D02*
D03*
X1267800Y-410200D02*
D03*
X1255100Y-283200D02*
D03*
X1242400Y-308600D02*
D03*
X1255100Y-334000D02*
D03*
X1242400Y-359400D02*
D03*
X1255100Y-384800D02*
D03*
X1242400Y-410200D02*
D03*
X1229700Y-283200D02*
D03*
X1217000Y-308600D02*
D03*
X1229700Y-334000D02*
D03*
X1217000Y-359400D02*
D03*
X1229700Y-384800D02*
D03*
X1217000Y-410200D02*
D03*
X1204300Y-283200D02*
D03*
X1191600Y-308600D02*
D03*
X1204300Y-334000D02*
D03*
X1191600Y-359400D02*
D03*
X1204300Y-384800D02*
D03*
X1191600Y-410200D02*
D03*
X1178900Y-283200D02*
D03*
X1166200Y-308600D02*
D03*
X1178900Y-334000D02*
D03*
X1166200Y-359400D02*
D03*
X1178900Y-384800D02*
D03*
X1166200Y-410200D02*
D03*
X1153500Y-283200D02*
D03*
X1140800Y-308600D02*
D03*
X1153500Y-334000D02*
D03*
X1140800Y-359400D02*
D03*
X1153500Y-384800D02*
D03*
X1140800Y-410200D02*
D03*
X1128100Y-283200D02*
D03*
X1115400Y-308600D02*
D03*
X1128100Y-334000D02*
D03*
X1115400Y-359400D02*
D03*
X1128100Y-384800D02*
D03*
X1115400Y-410200D02*
D03*
X1102700Y-283200D02*
D03*
X1090000Y-308600D02*
D03*
X1102700Y-334000D02*
D03*
X1090000Y-359400D02*
D03*
X1102700Y-384800D02*
D03*
X1090000Y-410200D02*
D03*
X1077300Y-283200D02*
D03*
X1064600Y-308600D02*
D03*
X1077300Y-334000D02*
D03*
X1064600Y-359400D02*
D03*
X1077300Y-384800D02*
D03*
X1064600Y-410200D02*
D03*
X1051900Y-283200D02*
D03*
X1039200Y-308600D02*
D03*
X1051900Y-334000D02*
D03*
X1039200Y-359400D02*
D03*
X1051900Y-384800D02*
D03*
X1039200Y-410200D02*
D03*
X1026500Y-283200D02*
D03*
X1013800Y-308600D02*
D03*
X1026500Y-334000D02*
D03*
X1013800Y-359400D02*
D03*
X1026500Y-384800D02*
D03*
X1013800Y-410200D02*
D03*
X1001100Y-283200D02*
D03*
X988400Y-308600D02*
D03*
X1001100Y-334000D02*
D03*
X988400Y-359400D02*
D03*
X1001100Y-384800D02*
D03*
X988400Y-410200D02*
D03*
X975700Y-283200D02*
D03*
X963000Y-308600D02*
D03*
X975700Y-334000D02*
D03*
X963000Y-359400D02*
D03*
X975700Y-384800D02*
D03*
X963000Y-410200D02*
D03*
X950300Y-283200D02*
D03*
X937600Y-308600D02*
D03*
X950300Y-334000D02*
D03*
X937600Y-359400D02*
D03*
X950300Y-384800D02*
D03*
X937600Y-410200D02*
D03*
X924900Y-283200D02*
D03*
X912200Y-308600D02*
D03*
X924900Y-334000D02*
D03*
X912200Y-359400D02*
D03*
X924900Y-384800D02*
D03*
X912200Y-410200D02*
D03*
X899500Y-283200D02*
D03*
X886800Y-308600D02*
D03*
X899500Y-334000D02*
D03*
X886800Y-359400D02*
D03*
X899500Y-384800D02*
D03*
X886800Y-410200D02*
D03*
X874100Y-283200D02*
D03*
X861400Y-308600D02*
D03*
X874100Y-334000D02*
D03*
X861400Y-359400D02*
D03*
X874100Y-384800D02*
D03*
X861400Y-410200D02*
D03*
X848700Y-283200D02*
D03*
X836000Y-308600D02*
D03*
X848700Y-334000D02*
D03*
X836000Y-359400D02*
D03*
X848700Y-384800D02*
D03*
X823300Y-283200D02*
D03*
X810600Y-308600D02*
D03*
X823300Y-334000D02*
D03*
X810600Y-359400D02*
D03*
X797900Y-283200D02*
D03*
X772500D02*
D03*
X747100D02*
D03*
X721700D02*
D03*
X696300D02*
D03*
X670900D02*
D03*
X645500D02*
D03*
X620100D02*
D03*
X594700D02*
D03*
X569300D02*
D03*
X543900D02*
D03*
X518500D02*
D03*
X493100D02*
D03*
X455000Y-54600D02*
D03*
Y-105400D02*
D03*
Y-156200D02*
D03*
Y-257800D02*
D03*
X467700Y-283200D02*
D03*
X429600Y-54600D02*
D03*
X442300Y-181600D02*
D03*
X429600Y-257800D02*
D03*
X442300Y-283200D02*
D03*
X429600Y-308600D02*
D03*
X404200Y-54600D02*
D03*
Y-105400D02*
D03*
Y-156200D02*
D03*
X416900Y-181600D02*
D03*
Y-232400D02*
D03*
X404200Y-257800D02*
D03*
X416900Y-283200D02*
D03*
X404200Y-308600D02*
D03*
X416900Y-334000D02*
D03*
X404200Y-461000D02*
D03*
Y-511800D02*
D03*
X378800Y-105400D02*
D03*
X391500Y-130800D02*
D03*
X378800Y-156200D02*
D03*
X391500Y-181600D02*
D03*
Y-232400D02*
D03*
Y-283200D02*
D03*
X378800Y-308600D02*
D03*
X391500Y-334000D02*
D03*
X378800Y-410200D02*
D03*
X391500Y-435600D02*
D03*
X378800Y-461000D02*
D03*
X391500Y-486400D02*
D03*
X378800Y-511800D02*
D03*
X366100Y-283200D02*
D03*
X353400Y-308600D02*
D03*
Y-410200D02*
D03*
Y-511800D02*
D03*
X340700Y-283200D02*
D03*
X328000Y-308600D02*
D03*
Y-461000D02*
D03*
Y-511800D02*
D03*
X302600Y-207000D02*
D03*
X315300Y-283200D02*
D03*
X302600Y-410200D02*
D03*
X315300Y-435600D02*
D03*
X302600Y-461000D02*
D03*
Y-511800D02*
D03*
X277200Y-105400D02*
D03*
X289900Y-130800D02*
D03*
X277200Y-207000D02*
D03*
X289900Y-232400D02*
D03*
X277200Y-257800D02*
D03*
X289900Y-283200D02*
D03*
Y-435600D02*
D03*
X277200Y-461000D02*
D03*
X289900Y-486400D02*
D03*
X277200Y-511800D02*
D03*
X264500Y-80000D02*
D03*
X251800Y-156200D02*
D03*
X264500Y-181600D02*
D03*
X251800Y-207000D02*
D03*
X264500Y-232400D02*
D03*
X251800Y-308600D02*
D03*
X264500Y-334000D02*
D03*
X251800Y-410200D02*
D03*
Y-511800D02*
D03*
X226400Y-156200D02*
D03*
X239100Y-181600D02*
D03*
X226400Y-207000D02*
D03*
X239100Y-232400D02*
D03*
X226400Y-308600D02*
D03*
X239100Y-334000D02*
D03*
Y-384800D02*
D03*
X226400Y-410200D02*
D03*
X239100Y-435600D02*
D03*
X226400Y-461000D02*
D03*
Y-511800D02*
D03*
X201000Y-156200D02*
D03*
X213700Y-181600D02*
D03*
X201000Y-257800D02*
D03*
X213700Y-283200D02*
D03*
X201000Y-308600D02*
D03*
X213700Y-334000D02*
D03*
Y-384800D02*
D03*
X201000Y-410200D02*
D03*
X213700Y-435600D02*
D03*
Y-486400D02*
D03*
X201000Y-511800D02*
D03*
X188300Y-181600D02*
D03*
X175600Y-257800D02*
D03*
X188300Y-283200D02*
D03*
X175600Y-308600D02*
D03*
X188300Y-334000D02*
D03*
Y-384800D02*
D03*
X175600Y-461000D02*
D03*
X188300Y-486400D02*
D03*
X175600Y-511800D02*
D03*
X150200Y-54600D02*
D03*
X162900Y-232400D02*
D03*
X150200Y-257800D02*
D03*
X162900Y-283200D02*
D03*
Y-435600D02*
D03*
X150200Y-461000D02*
D03*
X162900Y-486400D02*
D03*
X150200Y-511800D02*
D03*
X124800Y-54600D02*
D03*
X137500Y-232400D02*
D03*
X124800Y-257800D02*
D03*
Y-359400D02*
D03*
Y-410200D02*
D03*
X137500Y-435600D02*
D03*
X124800Y-461000D02*
D03*
X137500Y-486400D02*
D03*
X124800Y-511800D02*
D03*
X112100Y-130800D02*
D03*
X99400Y-308600D02*
D03*
X112100Y-334000D02*
D03*
X99400Y-359400D02*
D03*
X112100Y-384800D02*
D03*
X99400Y-410200D02*
D03*
X112100Y-435600D02*
D03*
Y-486400D02*
D03*
X99400Y-511800D02*
D03*
X86700Y-130800D02*
D03*
X74000Y-207000D02*
D03*
Y-257800D02*
D03*
X86700Y-283200D02*
D03*
X74000Y-308600D02*
D03*
X86700Y-334000D02*
D03*
X74000Y-359400D02*
D03*
X86700Y-384800D02*
D03*
X74000Y-410200D02*
D03*
Y-461000D02*
D03*
X86700Y-486400D02*
D03*
X74000Y-511800D02*
D03*
X48600Y-105400D02*
D03*
X61300Y-181600D02*
D03*
X48600Y-207000D02*
D03*
X61300Y-232400D02*
D03*
X48600Y-257800D02*
D03*
X61300Y-283200D02*
D03*
X48600Y-308600D02*
D03*
X61300Y-334000D02*
D03*
X48600Y-359400D02*
D03*
X61300Y-384800D02*
D03*
X48600Y-410200D02*
D03*
X61300Y-435600D02*
D03*
X48600Y-461000D02*
D03*
X23200Y-105400D02*
D03*
X35900Y-181600D02*
D03*
X23200Y-257800D02*
D03*
X35900Y-283200D02*
D03*
X23200Y-308600D02*
D03*
X35900Y-334000D02*
D03*
X23200Y-359400D02*
D03*
X35900Y-384800D02*
D03*
X23200Y-410200D02*
D03*
X35900Y-435600D02*
D03*
X23200Y-461000D02*
D03*
D50*
X1355086Y-82804D02*
D03*
X782500Y-380000D02*
D03*
X560000Y-475000D02*
D03*
X447500Y-380000D02*
D03*
X1088390Y-288290D02*
D03*
X582168Y-270256D02*
D03*
X1836670Y-82292D02*
D03*
X868422Y-83566D02*
D03*
X386584Y-83058D02*
D03*
M02*
