%TF.GenerationSoftware,Altium Limited,Altium Designer,21.6.4 (81)*%
G04 Layer_Color=255*
%FSLAX45Y45*%
%MOMM*%
%TF.SameCoordinates,F44DA2A8-8B11-4439-BB6E-0C3A021B2751*%
%TF.FilePolarity,Positive*%
%TF.FileFunction,Pads,Top*%
%TF.Part,Single*%
G01*
G75*
%TA.AperFunction,SMDPad,CuDef*%
G04:AMPARAMS|DCode=10|XSize=3.7mm|YSize=1.7mm|CornerRadius=0.425mm|HoleSize=0mm|Usage=FLASHONLY|Rotation=90.000|XOffset=0mm|YOffset=0mm|HoleType=Round|Shape=RoundedRectangle|*
%AMROUNDEDRECTD10*
21,1,3.70000,0.85000,0,0,90.0*
21,1,2.85000,1.70000,0,0,90.0*
1,1,0.85000,0.42500,1.42500*
1,1,0.85000,0.42500,-1.42500*
1,1,0.85000,-0.42500,-1.42500*
1,1,0.85000,-0.42500,1.42500*
%
%ADD10ROUNDEDRECTD10*%
G04:AMPARAMS|DCode=11|XSize=1.2mm|YSize=1.3mm|CornerRadius=0.3mm|HoleSize=0mm|Usage=FLASHONLY|Rotation=90.000|XOffset=0mm|YOffset=0mm|HoleType=Round|Shape=RoundedRectangle|*
%AMROUNDEDRECTD11*
21,1,1.20000,0.70000,0,0,90.0*
21,1,0.60000,1.30000,0,0,90.0*
1,1,0.60000,0.35000,0.30000*
1,1,0.60000,0.35000,-0.30000*
1,1,0.60000,-0.35000,-0.30000*
1,1,0.60000,-0.35000,0.30000*
%
%ADD11ROUNDEDRECTD11*%
G04:AMPARAMS|DCode=12|XSize=3.3mm|YSize=1.5mm|CornerRadius=0.375mm|HoleSize=0mm|Usage=FLASHONLY|Rotation=90.000|XOffset=0mm|YOffset=0mm|HoleType=Round|Shape=RoundedRectangle|*
%AMROUNDEDRECTD12*
21,1,3.30000,0.75000,0,0,90.0*
21,1,2.55000,1.50000,0,0,90.0*
1,1,0.75000,0.37500,1.27500*
1,1,0.75000,0.37500,-1.27500*
1,1,0.75000,-0.37500,-1.27500*
1,1,0.75000,-0.37500,1.27500*
%
%ADD12ROUNDEDRECTD12*%
G04:AMPARAMS|DCode=13|XSize=1.2mm|YSize=1.3mm|CornerRadius=0.3mm|HoleSize=0mm|Usage=FLASHONLY|Rotation=180.000|XOffset=0mm|YOffset=0mm|HoleType=Round|Shape=RoundedRectangle|*
%AMROUNDEDRECTD13*
21,1,1.20000,0.70000,0,0,180.0*
21,1,0.60000,1.30000,0,0,180.0*
1,1,0.60000,-0.30000,0.35000*
1,1,0.60000,0.30000,0.35000*
1,1,0.60000,0.30000,-0.35000*
1,1,0.60000,-0.30000,-0.35000*
%
%ADD13ROUNDEDRECTD13*%
G04:AMPARAMS|DCode=14|XSize=3.7mm|YSize=1.7mm|CornerRadius=0.425mm|HoleSize=0mm|Usage=FLASHONLY|Rotation=180.000|XOffset=0mm|YOffset=0mm|HoleType=Round|Shape=RoundedRectangle|*
%AMROUNDEDRECTD14*
21,1,3.70000,0.85000,0,0,180.0*
21,1,2.85000,1.70000,0,0,180.0*
1,1,0.85000,-1.42500,0.42500*
1,1,0.85000,1.42500,0.42500*
1,1,0.85000,1.42500,-0.42500*
1,1,0.85000,-1.42500,-0.42500*
%
%ADD14ROUNDEDRECTD14*%
G04:AMPARAMS|DCode=15|XSize=1.7mm|YSize=1.4mm|CornerRadius=0.35mm|HoleSize=0mm|Usage=FLASHONLY|Rotation=180.000|XOffset=0mm|YOffset=0mm|HoleType=Round|Shape=RoundedRectangle|*
%AMROUNDEDRECTD15*
21,1,1.70000,0.70000,0,0,180.0*
21,1,1.00000,1.40000,0,0,180.0*
1,1,0.70000,-0.50000,0.35000*
1,1,0.70000,0.50000,0.35000*
1,1,0.70000,0.50000,-0.35000*
1,1,0.70000,-0.50000,-0.35000*
%
%ADD15ROUNDEDRECTD15*%
G04:AMPARAMS|DCode=16|XSize=1.7mm|YSize=1.4mm|CornerRadius=0.35mm|HoleSize=0mm|Usage=FLASHONLY|Rotation=90.000|XOffset=0mm|YOffset=0mm|HoleType=Round|Shape=RoundedRectangle|*
%AMROUNDEDRECTD16*
21,1,1.70000,0.70000,0,0,90.0*
21,1,1.00000,1.40000,0,0,90.0*
1,1,0.70000,0.35000,0.50000*
1,1,0.70000,0.35000,-0.50000*
1,1,0.70000,-0.35000,-0.50000*
1,1,0.70000,-0.35000,0.50000*
%
%ADD16ROUNDEDRECTD16*%
%TA.AperFunction,ComponentPad*%
%ADD18C,1.42240*%
%ADD19C,2.00000*%
G04:AMPARAMS|DCode=20|XSize=1.8mm|YSize=1.8mm|CornerRadius=0mm|HoleSize=0mm|Usage=FLASHONLY|Rotation=180.000|XOffset=0mm|YOffset=0mm|HoleType=Round|Shape=Octagon|*
%AMOCTAGOND20*
4,1,8,-0.90000,0.45000,-0.90000,-0.45000,-0.45000,-0.90000,0.45000,-0.90000,0.90000,-0.45000,0.90000,0.45000,0.45000,0.90000,-0.45000,0.90000,-0.90000,0.45000,0.0*
%
%ADD20OCTAGOND20*%

%ADD21C,1.80000*%
%ADD22C,1.50000*%
G04:AMPARAMS|DCode=23|XSize=1.5mm|YSize=1.5mm|CornerRadius=0mm|HoleSize=0mm|Usage=FLASHONLY|Rotation=180.000|XOffset=0mm|YOffset=0mm|HoleType=Round|Shape=Octagon|*
%AMOCTAGOND23*
4,1,8,-0.75000,0.37500,-0.75000,-0.37500,-0.37500,-0.75000,0.37500,-0.75000,0.75000,-0.37500,0.75000,0.37500,0.37500,0.75000,-0.37500,0.75000,-0.75000,0.37500,0.0*
%
%ADD23OCTAGOND23*%

%ADD24C,2.20000*%
G04:AMPARAMS|DCode=25|XSize=1.3mm|YSize=1.3mm|CornerRadius=0mm|HoleSize=0mm|Usage=FLASHONLY|Rotation=270.000|XOffset=0mm|YOffset=0mm|HoleType=Round|Shape=Octagon|*
%AMOCTAGOND25*
4,1,8,-0.32500,-0.65000,0.32500,-0.65000,0.65000,-0.32500,0.65000,0.32500,0.32500,0.65000,-0.32500,0.65000,-0.65000,0.32500,-0.65000,-0.32500,-0.32500,-0.65000,0.0*
%
%ADD25OCTAGOND25*%

%ADD26C,1.30000*%
%ADD27C,3.50000*%
%TA.AperFunction,ViaPad*%
%ADD28C,3.50000*%
%TA.AperFunction,ComponentPad*%
G04:AMPARAMS|DCode=29|XSize=2.5mm|YSize=2.5mm|CornerRadius=0mm|HoleSize=0mm|Usage=FLASHONLY|Rotation=0.000|XOffset=0mm|YOffset=0mm|HoleType=Round|Shape=Octagon|*
%AMOCTAGOND29*
4,1,8,1.25000,-0.62500,1.25000,0.62500,0.62500,1.25000,-0.62500,1.25000,-1.25000,0.62500,-1.25000,-0.62500,-0.62500,-1.25000,0.62500,-1.25000,1.25000,-0.62500,0.0*
%
%ADD29OCTAGOND29*%

%ADD30C,2.50000*%
D10*
X4480000Y-3450000D02*
D03*
X5120000D02*
D03*
X6280000Y-4150000D02*
D03*
X6920000D02*
D03*
X5380000D02*
D03*
X6020000D02*
D03*
X7180000D02*
D03*
X7820000D02*
D03*
Y-3450000D02*
D03*
X7180000D02*
D03*
X5380000D02*
D03*
X6020000D02*
D03*
X5120000Y-4150000D02*
D03*
X4480000D02*
D03*
X6280000Y-3450000D02*
D03*
X6920000D02*
D03*
D11*
X1445260Y-1545100D02*
D03*
Y-1325100D02*
D03*
X1442720Y-926320D02*
D03*
Y-1146320D02*
D03*
X1445260Y-1949740D02*
D03*
Y-1729740D02*
D03*
X11000000Y-2060000D02*
D03*
Y-1840000D02*
D03*
Y-2460000D02*
D03*
Y-2240000D02*
D03*
X15699741Y-3212120D02*
D03*
Y-2992120D02*
D03*
X15697200Y-2794780D02*
D03*
Y-2574780D02*
D03*
X15694659Y-2368840D02*
D03*
Y-2148840D02*
D03*
X15699741Y-1948960D02*
D03*
Y-1728960D02*
D03*
X15697200Y-1537480D02*
D03*
Y-1317480D02*
D03*
X15694659Y-1126000D02*
D03*
Y-906000D02*
D03*
X14516100Y-828820D02*
D03*
Y-608820D02*
D03*
X14513560Y-407180D02*
D03*
Y-187180D02*
D03*
X11000000Y-1560000D02*
D03*
Y-1340000D02*
D03*
Y-1160000D02*
D03*
Y-940000D02*
D03*
X9710420Y-864380D02*
D03*
Y-644380D02*
D03*
X9715500Y-407180D02*
D03*
Y-187180D02*
D03*
X6164580Y-1570500D02*
D03*
Y-1350500D02*
D03*
X6177280Y-1144560D02*
D03*
Y-924560D02*
D03*
X4917440Y-833900D02*
D03*
Y-613900D02*
D03*
Y-415580D02*
D03*
Y-195580D02*
D03*
X216640Y-821140D02*
D03*
Y-601140D02*
D03*
X219180Y-412200D02*
D03*
Y-192200D02*
D03*
D12*
X3583440Y-1000760D02*
D03*
X3203440D02*
D03*
X17579340Y-906780D02*
D03*
X17959340D02*
D03*
X7986260Y-988060D02*
D03*
X8366260D02*
D03*
X12784320Y-962660D02*
D03*
X13164320D02*
D03*
D13*
X5410000Y-4500000D02*
D03*
X5190000D02*
D03*
X5010000D02*
D03*
X4790000D02*
D03*
X4610000D02*
D03*
X4390000D02*
D03*
X5110000Y-3100000D02*
D03*
X4890000D02*
D03*
X4710000D02*
D03*
X4490000D02*
D03*
X6210000Y-4500000D02*
D03*
X5990000D02*
D03*
X7010000D02*
D03*
X6790000D02*
D03*
X6610000D02*
D03*
X6390000D02*
D03*
X5810000D02*
D03*
X5590000D02*
D03*
X7760000Y-3100000D02*
D03*
X7540000D02*
D03*
X7460000Y-4500000D02*
D03*
X7240000D02*
D03*
X7860000D02*
D03*
X7640000D02*
D03*
X7360000Y-3100000D02*
D03*
X7140000D02*
D03*
X5560000D02*
D03*
X5340000D02*
D03*
X5960000D02*
D03*
X5740000D02*
D03*
X6460000D02*
D03*
X6240000D02*
D03*
X6640000D02*
D03*
X6860000D02*
D03*
D14*
X15350000Y-1830000D02*
D03*
Y-2470000D02*
D03*
Y-2730000D02*
D03*
Y-3370000D02*
D03*
X1021080Y-922060D02*
D03*
Y-1562060D02*
D03*
X520700Y-180340D02*
D03*
Y-820340D02*
D03*
X4239260Y-830580D02*
D03*
Y-190580D02*
D03*
X18724879Y-827960D02*
D03*
Y-187960D02*
D03*
X15349220Y-1559480D02*
D03*
Y-919480D02*
D03*
X14843761Y-822880D02*
D03*
Y-182880D02*
D03*
X5252720Y-835660D02*
D03*
Y-195660D02*
D03*
X9042400Y-835660D02*
D03*
Y-195660D02*
D03*
X10623740Y-2501860D02*
D03*
Y-1861860D02*
D03*
X10627360Y-1569640D02*
D03*
Y-929640D02*
D03*
X13911580Y-833080D02*
D03*
Y-193080D02*
D03*
X10045700Y-833080D02*
D03*
Y-193080D02*
D03*
X5821680Y-1556940D02*
D03*
Y-916940D02*
D03*
D15*
X16507460Y-1079760D02*
D03*
Y-794760D02*
D03*
X16256000D02*
D03*
Y-1079760D02*
D03*
X2128520Y-906520D02*
D03*
Y-1191520D02*
D03*
X6611620Y-848360D02*
D03*
Y-1133360D02*
D03*
X6875780Y-1135640D02*
D03*
Y-850640D02*
D03*
X1877060Y-903980D02*
D03*
Y-1188980D02*
D03*
X11732260Y-1145800D02*
D03*
Y-860800D02*
D03*
X11478260D02*
D03*
Y-1145800D02*
D03*
D16*
X17942500Y-1950000D02*
D03*
X17657500D02*
D03*
X8351780Y-1838960D02*
D03*
X8066780D02*
D03*
X3561340Y-1922780D02*
D03*
X3276340D02*
D03*
X13154919Y-1920240D02*
D03*
X12869920D02*
D03*
D18*
X18140680Y-398780D02*
D03*
X17632680D02*
D03*
X17124680D02*
D03*
X16870680D02*
D03*
X16616679D02*
D03*
X16108681D02*
D03*
X15600681D02*
D03*
X15346680D02*
D03*
X13335001D02*
D03*
X12827000D02*
D03*
X12319000D02*
D03*
X12065000D02*
D03*
X11811000D02*
D03*
X11303000D02*
D03*
X10795000D02*
D03*
X10541000D02*
D03*
X3738880D02*
D03*
X3230880D02*
D03*
X2722880D02*
D03*
X2468880D02*
D03*
X2214880D02*
D03*
X1706880D02*
D03*
X1198880D02*
D03*
X944880D02*
D03*
X5737860D02*
D03*
X5991860D02*
D03*
X6499860D02*
D03*
X7007860D02*
D03*
X7261860D02*
D03*
X7515860D02*
D03*
X8023860D02*
D03*
X8531860D02*
D03*
D19*
X14700000Y-3100000D02*
D03*
X15000000Y-2000000D02*
D03*
X18850000Y-2775000D02*
D03*
X10100000Y-2000000D02*
D03*
X5300000D02*
D03*
X18300000Y-3920000D02*
D03*
X17300000D02*
D03*
X18300000Y-4940000D02*
D03*
X17300000D02*
D03*
X16300000Y-3920000D02*
D03*
X15300000D02*
D03*
X16300000Y-4940000D02*
D03*
X15300000D02*
D03*
X5250000Y-3800000D02*
D03*
D20*
X13250000Y-2600000D02*
D03*
X18050000D02*
D03*
X8438960Y-2476500D02*
D03*
X3650000Y-2600000D02*
D03*
D21*
X12750000D02*
D03*
X17550000D02*
D03*
X7938960Y-2476500D02*
D03*
X3150000Y-2600000D02*
D03*
D22*
X4102100Y-3903980D02*
D03*
X3848100D02*
D03*
X3594100D02*
D03*
X3340100D02*
D03*
X3086100D02*
D03*
X1467000Y-4042000D02*
D03*
X1721000D02*
D03*
D23*
X2832100Y-3903980D02*
D03*
D24*
X959000Y-4550000D02*
D03*
X1975000D02*
D03*
D25*
X14650000Y-2354000D02*
D03*
X17650000Y-1629000D02*
D03*
X17975000D02*
D03*
X18850000Y-2354000D02*
D03*
X9850000Y-2354000D02*
D03*
X12850000Y-1629000D02*
D03*
X13175000D02*
D03*
X14050000Y-2354000D02*
D03*
X5050000D02*
D03*
X8050000Y-1629000D02*
D03*
X8375000D02*
D03*
X9250000Y-2354000D02*
D03*
X3250000Y-1629000D02*
D03*
X3575000Y-1629000D02*
D03*
X4450000Y-2354000D02*
D03*
X250000D02*
D03*
D26*
X14650000Y-2100000D02*
D03*
X17650000Y-1375000D02*
D03*
X17975000D02*
D03*
X18850000Y-2100000D02*
D03*
X9850000Y-2100000D02*
D03*
X12850000Y-1375000D02*
D03*
X13175000D02*
D03*
X14050000Y-2100000D02*
D03*
X5050000D02*
D03*
X8050000Y-1375000D02*
D03*
X8375000D02*
D03*
X9250000Y-2100000D02*
D03*
X3250000Y-1375000D02*
D03*
X3575000Y-1375000D02*
D03*
X4450000Y-2100000D02*
D03*
X250000D02*
D03*
D27*
X17800000Y-4300000D02*
D03*
X15800000D02*
D03*
D28*
X18750000Y-1325000D02*
D03*
X14750000D02*
D03*
X13950000Y-1325000D02*
D03*
X9950000D02*
D03*
X9150000D02*
D03*
X5150000D02*
D03*
X4350000Y-1325000D02*
D03*
X18750000Y-4950000D02*
D03*
X4350000D02*
D03*
X14750000Y-4950000D02*
D03*
X5150000Y-4950000D02*
D03*
X9150000D02*
D03*
X350000D02*
D03*
X13950000D02*
D03*
X9950000D02*
D03*
X350000Y-1325000D02*
D03*
D29*
X2597530Y-4814570D02*
D03*
D30*
X3097530D02*
D03*
X3597530D02*
D03*
%TF.MD5,cc7ec5619cd4406bf4401174eca44daf*%
M02*
