%TF.GenerationSoftware,Altium Limited,Altium Designer,21.6.4 (81)*%
G04 Layer_Color=255*
%FSLAX45Y45*%
%MOMM*%
%TF.SameCoordinates,F44DA2A8-8B11-4439-BB6E-0C3A021B2751*%
%TF.FilePolarity,Positive*%
%TF.FileFunction,Pads,Bot*%
%TF.Part,Single*%
G01*
G75*
%TA.AperFunction,ComponentPad*%
%ADD18C,1.42240*%
%ADD19C,2.00000*%
G04:AMPARAMS|DCode=20|XSize=1.8mm|YSize=1.8mm|CornerRadius=0mm|HoleSize=0mm|Usage=FLASHONLY|Rotation=180.000|XOffset=0mm|YOffset=0mm|HoleType=Round|Shape=Octagon|*
%AMOCTAGOND20*
4,1,8,-0.90000,0.45000,-0.90000,-0.45000,-0.45000,-0.90000,0.45000,-0.90000,0.90000,-0.45000,0.90000,0.45000,0.45000,0.90000,-0.45000,0.90000,-0.90000,0.45000,0.0*
%
%ADD20OCTAGOND20*%

%ADD21C,1.80000*%
%ADD22C,1.50000*%
G04:AMPARAMS|DCode=23|XSize=1.5mm|YSize=1.5mm|CornerRadius=0mm|HoleSize=0mm|Usage=FLASHONLY|Rotation=180.000|XOffset=0mm|YOffset=0mm|HoleType=Round|Shape=Octagon|*
%AMOCTAGOND23*
4,1,8,-0.75000,0.37500,-0.75000,-0.37500,-0.37500,-0.75000,0.37500,-0.75000,0.75000,-0.37500,0.75000,0.37500,0.37500,0.75000,-0.37500,0.75000,-0.75000,0.37500,0.0*
%
%ADD23OCTAGOND23*%

%ADD24C,2.20000*%
G04:AMPARAMS|DCode=25|XSize=1.3mm|YSize=1.3mm|CornerRadius=0mm|HoleSize=0mm|Usage=FLASHONLY|Rotation=270.000|XOffset=0mm|YOffset=0mm|HoleType=Round|Shape=Octagon|*
%AMOCTAGOND25*
4,1,8,-0.32500,-0.65000,0.32500,-0.65000,0.65000,-0.32500,0.65000,0.32500,0.32500,0.65000,-0.32500,0.65000,-0.65000,0.32500,-0.65000,-0.32500,-0.32500,-0.65000,0.0*
%
%ADD25OCTAGOND25*%

%ADD26C,1.30000*%
%ADD27C,3.50000*%
%TA.AperFunction,ViaPad*%
%ADD28C,3.50000*%
%TA.AperFunction,ComponentPad*%
G04:AMPARAMS|DCode=29|XSize=2.5mm|YSize=2.5mm|CornerRadius=0mm|HoleSize=0mm|Usage=FLASHONLY|Rotation=0.000|XOffset=0mm|YOffset=0mm|HoleType=Round|Shape=Octagon|*
%AMOCTAGOND29*
4,1,8,1.25000,-0.62500,1.25000,0.62500,0.62500,1.25000,-0.62500,1.25000,-1.25000,0.62500,-1.25000,-0.62500,-0.62500,-1.25000,0.62500,-1.25000,1.25000,-0.62500,0.0*
%
%ADD29OCTAGOND29*%

%ADD30C,2.50000*%
D18*
X18140680Y-398780D02*
D03*
X17632680D02*
D03*
X17124680D02*
D03*
X16870680D02*
D03*
X16616679D02*
D03*
X16108681D02*
D03*
X15600681D02*
D03*
X15346680D02*
D03*
X13335001D02*
D03*
X12827000D02*
D03*
X12319000D02*
D03*
X12065000D02*
D03*
X11811000D02*
D03*
X11303000D02*
D03*
X10795000D02*
D03*
X10541000D02*
D03*
X3738880D02*
D03*
X3230880D02*
D03*
X2722880D02*
D03*
X2468880D02*
D03*
X2214880D02*
D03*
X1706880D02*
D03*
X1198880D02*
D03*
X944880D02*
D03*
X5737860D02*
D03*
X5991860D02*
D03*
X6499860D02*
D03*
X7007860D02*
D03*
X7261860D02*
D03*
X7515860D02*
D03*
X8023860D02*
D03*
X8531860D02*
D03*
D19*
X14700000Y-3100000D02*
D03*
X15000000Y-2000000D02*
D03*
X18850000Y-2775000D02*
D03*
X10100000Y-2000000D02*
D03*
X5300000D02*
D03*
X18300000Y-3920000D02*
D03*
X17300000D02*
D03*
X18300000Y-4940000D02*
D03*
X17300000D02*
D03*
X16300000Y-3920000D02*
D03*
X15300000D02*
D03*
X16300000Y-4940000D02*
D03*
X15300000D02*
D03*
X5250000Y-3800000D02*
D03*
D20*
X13250000Y-2600000D02*
D03*
X18050000D02*
D03*
X8438960Y-2476500D02*
D03*
X3650000Y-2600000D02*
D03*
D21*
X12750000D02*
D03*
X17550000D02*
D03*
X7938960Y-2476500D02*
D03*
X3150000Y-2600000D02*
D03*
D22*
X4102100Y-3903980D02*
D03*
X3848100D02*
D03*
X3594100D02*
D03*
X3340100D02*
D03*
X3086100D02*
D03*
X1467000Y-4042000D02*
D03*
X1721000D02*
D03*
D23*
X2832100Y-3903980D02*
D03*
D24*
X959000Y-4550000D02*
D03*
X1975000D02*
D03*
D25*
X14650000Y-2354000D02*
D03*
X17650000Y-1629000D02*
D03*
X17975000D02*
D03*
X18850000Y-2354000D02*
D03*
X9850000Y-2354000D02*
D03*
X12850000Y-1629000D02*
D03*
X13175000D02*
D03*
X14050000Y-2354000D02*
D03*
X5050000D02*
D03*
X8050000Y-1629000D02*
D03*
X8375000D02*
D03*
X9250000Y-2354000D02*
D03*
X3250000Y-1629000D02*
D03*
X3575000Y-1629000D02*
D03*
X4450000Y-2354000D02*
D03*
X250000D02*
D03*
D26*
X14650000Y-2100000D02*
D03*
X17650000Y-1375000D02*
D03*
X17975000D02*
D03*
X18850000Y-2100000D02*
D03*
X9850000Y-2100000D02*
D03*
X12850000Y-1375000D02*
D03*
X13175000D02*
D03*
X14050000Y-2100000D02*
D03*
X5050000D02*
D03*
X8050000Y-1375000D02*
D03*
X8375000D02*
D03*
X9250000Y-2100000D02*
D03*
X3250000Y-1375000D02*
D03*
X3575000Y-1375000D02*
D03*
X4450000Y-2100000D02*
D03*
X250000D02*
D03*
D27*
X17800000Y-4300000D02*
D03*
X15800000D02*
D03*
D28*
X18750000Y-1325000D02*
D03*
X14750000D02*
D03*
X13950000Y-1325000D02*
D03*
X9950000D02*
D03*
X9150000D02*
D03*
X5150000D02*
D03*
X4350000Y-1325000D02*
D03*
X18750000Y-4950000D02*
D03*
X4350000D02*
D03*
X14750000Y-4950000D02*
D03*
X5150000Y-4950000D02*
D03*
X9150000D02*
D03*
X350000D02*
D03*
X13950000D02*
D03*
X9950000D02*
D03*
X350000Y-1325000D02*
D03*
D29*
X2597530Y-4814570D02*
D03*
D30*
X3097530D02*
D03*
X3597530D02*
D03*
%TF.MD5,52e36866f0f51c24e618f6ccf48a73bf*%
M02*
