%TF.GenerationSoftware,Altium Limited,Altium Designer,21.6.4 (81)*%
G04 Layer_Color=65535*
%FSLAX45Y45*%
%MOMM*%
%TF.SameCoordinates,E19561C2-E2DB-472D-B720-4EF24A879867*%
%TF.FilePolarity,Positive*%
%TF.FileFunction,Legend,Top*%
%TF.Part,Single*%
G01*
G75*
%TA.AperFunction,NonConductor*%
%ADD33C,0.25400*%
%ADD34C,0.20000*%
%ADD35C,0.10000*%
%ADD51C,0.15000*%
%ADD52C,0.20320*%
G36*
X2705100Y-3953980D02*
X2782100Y-4030980D01*
X2705100D01*
Y-3953980D01*
D02*
G37*
G36*
X3300000Y-2110000D02*
Y-3090000D01*
X3200000Y-3060000D01*
X3100000Y-3000000D01*
X3030000Y-2940000D01*
X2947138Y-2815717D01*
X2924847Y-2766669D01*
X2900000Y-2630000D01*
X2914668Y-2468666D01*
X2930912Y-2411814D01*
X2980000Y-2330000D01*
X3020000Y-2280000D01*
X3060000Y-2230000D01*
X3100000Y-2200000D01*
X3160000Y-2160000D01*
X3230000Y-2130000D01*
X3290000Y-2110000D01*
X3300000D01*
D02*
G37*
G36*
X8088960Y-1986500D02*
Y-2966500D01*
X7988960Y-2936500D01*
X7888960Y-2876500D01*
X7818960Y-2816500D01*
X7736098Y-2692217D01*
X7713807Y-2643169D01*
X7688960Y-2506500D01*
X7703627Y-2345166D01*
X7719872Y-2288314D01*
X7768960Y-2206500D01*
X7808960Y-2156500D01*
X7848960Y-2106500D01*
X7888960Y-2076500D01*
X7948960Y-2036500D01*
X8018960Y-2006500D01*
X8078960Y-1986500D01*
X8088960D01*
D02*
G37*
G36*
X12900000Y-2110000D02*
Y-3090000D01*
X12800000Y-3060000D01*
X12700000Y-3000000D01*
X12630000Y-2940000D01*
X12547138Y-2815717D01*
X12524846Y-2766669D01*
X12500000Y-2630000D01*
X12514667Y-2468666D01*
X12530912Y-2411814D01*
X12580000Y-2330000D01*
X12620000Y-2280000D01*
X12660000Y-2230000D01*
X12700000Y-2200000D01*
X12760000Y-2160000D01*
X12830000Y-2130000D01*
X12889999Y-2110000D01*
X12900000D01*
D02*
G37*
G36*
X17700000D02*
Y-3090000D01*
X17600000Y-3060000D01*
X17500000Y-3000000D01*
X17430000Y-2940000D01*
X17347137Y-2815717D01*
X17324846Y-2766669D01*
X17300000Y-2630000D01*
X17314667Y-2468666D01*
X17330911Y-2411814D01*
X17380000Y-2330000D01*
X17420000Y-2280000D01*
X17460001Y-2230000D01*
X17500000Y-2200000D01*
X17560001Y-2160000D01*
X17630000Y-2130000D01*
X17689999Y-2110000D01*
X17700000D01*
D02*
G37*
D33*
X19100000Y-1325000D02*
G03*
X19100000Y-1325000I-350000J0D01*
G01*
X15100000D02*
G03*
X15100000Y-1325000I-350000J0D01*
G01*
X14300000Y-1325000D02*
G03*
X14300000Y-1325000I-350000J0D01*
G01*
X10300000D02*
G03*
X10300000Y-1325000I-350000J0D01*
G01*
X9500000D02*
G03*
X9500000Y-1325000I-350000J0D01*
G01*
X5500000D02*
G03*
X5500000Y-1325000I-350000J0D01*
G01*
X4700000Y-1325000D02*
G03*
X4700000Y-1325000I-350000J0D01*
G01*
X19100000Y-4950000D02*
G03*
X19100000Y-4950000I-350000J0D01*
G01*
X4700000D02*
G03*
X4700000Y-4950000I-350000J0D01*
G01*
X15100000Y-4950000D02*
G03*
X15100000Y-4950000I-350000J0D01*
G01*
X5500000Y-4950000D02*
G03*
X5500000Y-4950000I-350000J0D01*
G01*
X9500000D02*
G03*
X9500000Y-4950000I-350000J0D01*
G01*
X700000D02*
G03*
X700000Y-4950000I-350000J0D01*
G01*
X14300000D02*
G03*
X14300000Y-4950000I-350000J0D01*
G01*
X10300000D02*
G03*
X10300000Y-4950000I-350000J0D01*
G01*
X700000Y-1325000D02*
G03*
X700000Y-1325000I-350000J0D01*
G01*
X4229100Y-4028980D02*
Y-3778980D01*
X3975100Y-4028980D02*
Y-3778980D01*
X3721100Y-4028980D02*
Y-3778980D01*
X3467100Y-4028980D02*
Y-3778980D01*
X3213100Y-4028980D02*
Y-3778980D01*
X2959100Y-4028980D02*
Y-3778980D01*
X2705100Y-3776980D02*
X4229100D01*
X2705100Y-4030980D02*
X4229098D01*
X2705100D02*
Y-3776980D01*
X14513335Y-2730479D02*
X14614902Y-2882830D01*
Y-2730479D02*
X14513335Y-2882830D01*
X14767253D02*
X14665685D01*
X14767253Y-2781263D01*
Y-2755871D01*
X14741861Y-2730479D01*
X14691077D01*
X14665685Y-2755871D01*
X14818036Y-2730479D02*
X14919603D01*
Y-2755871D01*
X14818036Y-2857438D01*
Y-2882830D01*
D34*
X13500000Y-2600000D02*
G03*
X13500000Y-2600000I-500000J0D01*
G01*
X18300000D02*
G03*
X18300000Y-2600000I-500000J0D01*
G01*
X8688960Y-2476500D02*
G03*
X8688960Y-2476500I-500000J0D01*
G01*
X3900000Y-2600000D02*
G03*
X3900000Y-2600000I-500000J0D01*
G01*
X14572993Y-2970000D02*
X14825993D01*
X14572993Y-3226741D02*
Y-2970000D01*
X14825993Y-3226741D02*
Y-2970000D01*
X14572993Y-3226741D02*
X14825993D01*
X14872993Y-1870000D02*
X15125993D01*
X14872993Y-2126741D02*
Y-1870000D01*
X15125993Y-2126741D02*
Y-1870000D01*
X14872993Y-2126741D02*
X15125993D01*
X18722993Y-2645000D02*
X18975993D01*
X18722993Y-2901741D02*
Y-2645000D01*
X18975993Y-2901741D02*
Y-2645000D01*
X18722993Y-2901741D02*
X18975993D01*
X9972993Y-1870000D02*
X10225993D01*
X9972993Y-2126741D02*
Y-1870000D01*
X10225993Y-2126741D02*
Y-1870000D01*
X9972993Y-2126741D02*
X10225993D01*
X5172993Y-1870000D02*
X5425993D01*
X5172993Y-2126741D02*
Y-1870000D01*
X5425993Y-2126741D02*
Y-1870000D01*
X5172993Y-2126741D02*
X5425993D01*
X2204868Y-5280000D02*
Y-3820000D01*
X729132D02*
X2204868Y-3820000D01*
X729132Y-5280000D02*
Y-3820000D01*
Y-5280000D02*
X2204868D01*
X18410001Y-5680000D02*
Y-3750000D01*
X17189999Y-3750000D02*
X18410001Y-3750000D01*
X17189999Y-3750000D02*
X17189999Y-5680000D01*
X18410001D01*
X16410001D02*
Y-3750000D01*
X15189999Y-3750000D02*
X16410001Y-3750000D01*
X15189999Y-3750000D02*
X15189999Y-5680000D01*
X16410001D01*
X5122993Y-3670000D02*
X5375993D01*
X5122993Y-3926741D02*
Y-3670000D01*
X5375993Y-3926741D02*
Y-3670000D01*
X5122993Y-3926741D02*
X5375993D01*
X14400000Y-5250000D02*
X14400000Y-75000D01*
X14300000Y-5250000D02*
X14300000Y-75000D01*
X9600000D02*
X9600000Y-5250000D01*
X9500000D02*
X9500000Y-75000D01*
X4800000Y-5277940D02*
X4800600Y-50800D01*
X4700001Y-5278120D02*
X4701540Y-20320D01*
X2347530Y-4254570D02*
X2802530D01*
X2347530Y-5304570D02*
X3847530D01*
X2347530D02*
Y-4254570D01*
X2802530D02*
X3847530D01*
Y-5304570D02*
Y-4254570D01*
D35*
X15187180Y-4148340D02*
X15194279Y-4155440D01*
X4808355Y-3764987D02*
Y-3685013D01*
X4848342D01*
X4861671Y-3698342D01*
Y-3725000D01*
X4848342Y-3738329D01*
X4808355D01*
X4835013D02*
X4861671Y-3764987D01*
X4928316D02*
Y-3685013D01*
X4888329Y-3725000D01*
X4941645D01*
X1655427Y-1501116D02*
X1575453D01*
Y-1461129D01*
X1588782Y-1447800D01*
X1615440D01*
X1628769Y-1461129D01*
Y-1501116D01*
Y-1474458D02*
X1655427Y-1447800D01*
Y-1421142D02*
Y-1394484D01*
Y-1407813D01*
X1575453D01*
X1588782Y-1421142D01*
X1591322Y-1046480D02*
X1577993Y-1059809D01*
Y-1086467D01*
X1591322Y-1099796D01*
X1644638D01*
X1657967Y-1086467D01*
Y-1059809D01*
X1644638Y-1046480D01*
X1657967Y-1019822D02*
Y-993164D01*
Y-1006493D01*
X1577993D01*
X1591322Y-1019822D01*
X5021684Y-2923342D02*
X5008355Y-2910013D01*
X4981697D01*
X4968368Y-2923342D01*
Y-2976658D01*
X4981697Y-2989987D01*
X5008355D01*
X5021684Y-2976658D01*
X5101658Y-2910013D02*
X5048342D01*
Y-2950000D01*
X5075000Y-2936671D01*
X5088329D01*
X5101658Y-2950000D01*
Y-2976658D01*
X5088329Y-2989987D01*
X5061671D01*
X5048342Y-2976658D01*
X5181632Y-2989987D02*
X5128316D01*
X5181632Y-2936671D01*
Y-2923342D01*
X5168303Y-2910013D01*
X5141645D01*
X5128316Y-2923342D01*
X4535013D02*
X4521684Y-2910013D01*
X4495026D01*
X4481697Y-2923342D01*
Y-2976658D01*
X4495026Y-2989987D01*
X4521684D01*
X4535013Y-2976658D01*
X4614987Y-2910013D02*
X4561671D01*
Y-2950000D01*
X4588329Y-2936671D01*
X4601658D01*
X4614987Y-2950000D01*
Y-2976658D01*
X4601658Y-2989987D01*
X4575000D01*
X4561671Y-2976658D01*
X4641645Y-2989987D02*
X4668303D01*
X4654974D01*
Y-2910013D01*
X4641645Y-2923342D01*
X18336284Y-2305062D02*
X18322955Y-2291733D01*
X18296297D01*
X18282968Y-2305062D01*
Y-2358378D01*
X18296297Y-2371707D01*
X18322955D01*
X18336284Y-2358378D01*
X18416258Y-2291733D02*
X18362943D01*
Y-2331720D01*
X18389600Y-2318391D01*
X18402930D01*
X18416258Y-2331720D01*
Y-2358378D01*
X18402930Y-2371707D01*
X18376271D01*
X18362943Y-2358378D01*
X18442915Y-2305062D02*
X18456245Y-2291733D01*
X18482903D01*
X18496233Y-2305062D01*
Y-2358378D01*
X18482903Y-2371707D01*
X18456245D01*
X18442915Y-2358378D01*
Y-2305062D01*
X13492784Y-2240602D02*
X13479456Y-2227273D01*
X13452797D01*
X13439468Y-2240602D01*
Y-2293918D01*
X13452797Y-2307247D01*
X13479456D01*
X13492784Y-2293918D01*
X13559428Y-2307247D02*
Y-2227273D01*
X13519443Y-2267260D01*
X13572758D01*
X13599416Y-2293918D02*
X13612746Y-2307247D01*
X13639403D01*
X13652731Y-2293918D01*
Y-2240602D01*
X13639403Y-2227273D01*
X13612746D01*
X13599416Y-2240602D01*
Y-2253931D01*
X13612746Y-2267260D01*
X13652731D01*
X8719844Y-2180602D02*
X8706515Y-2167273D01*
X8679857D01*
X8666528Y-2180602D01*
Y-2233918D01*
X8679857Y-2247247D01*
X8706515D01*
X8719844Y-2233918D01*
X8786489Y-2247247D02*
Y-2167273D01*
X8746502Y-2207260D01*
X8799818D01*
X8826476Y-2180602D02*
X8839805Y-2167273D01*
X8866463D01*
X8879792Y-2180602D01*
Y-2193931D01*
X8866463Y-2207260D01*
X8879792Y-2220589D01*
Y-2233918D01*
X8866463Y-2247247D01*
X8839805D01*
X8826476Y-2233918D01*
Y-2220589D01*
X8839805Y-2207260D01*
X8826476Y-2193931D01*
Y-2180602D01*
X8839805Y-2207260D02*
X8866463D01*
X4008144Y-2513342D02*
X3994815Y-2500013D01*
X3968157D01*
X3954828Y-2513342D01*
Y-2566658D01*
X3968157Y-2579987D01*
X3994815D01*
X4008144Y-2566658D01*
X4074789Y-2579987D02*
Y-2500013D01*
X4034802Y-2540000D01*
X4088118D01*
X4114776Y-2500013D02*
X4168092D01*
Y-2513342D01*
X4114776Y-2566658D01*
Y-2579987D01*
X7771684Y-4623342D02*
X7758355Y-4610013D01*
X7731697D01*
X7718368Y-4623342D01*
Y-4676658D01*
X7731697Y-4689987D01*
X7758355D01*
X7771684Y-4676658D01*
X7838329Y-4689987D02*
Y-4610013D01*
X7798342Y-4650000D01*
X7851658D01*
X7931632Y-4610013D02*
X7904974Y-4623342D01*
X7878316Y-4650000D01*
Y-4676658D01*
X7891645Y-4689987D01*
X7918303D01*
X7931632Y-4676658D01*
Y-4663329D01*
X7918303Y-4650000D01*
X7878316D01*
X7571684Y-2898342D02*
X7558355Y-2885013D01*
X7531697D01*
X7518368Y-2898342D01*
Y-2951658D01*
X7531697Y-2964987D01*
X7558355D01*
X7571684Y-2951658D01*
X7638329Y-2964987D02*
Y-2885013D01*
X7598342Y-2925000D01*
X7651658D01*
X7731632Y-2885013D02*
X7678316D01*
Y-2925000D01*
X7704974Y-2911671D01*
X7718303D01*
X7731632Y-2925000D01*
Y-2951658D01*
X7718303Y-2964987D01*
X7691645D01*
X7678316Y-2951658D01*
X7371684Y-4623342D02*
X7358355Y-4610013D01*
X7331697D01*
X7318368Y-4623342D01*
Y-4676658D01*
X7331697Y-4689987D01*
X7358355D01*
X7371684Y-4676658D01*
X7438329Y-4689987D02*
Y-4610013D01*
X7398342Y-4650000D01*
X7451658D01*
X7518303Y-4689987D02*
Y-4610013D01*
X7478316Y-4650000D01*
X7531632D01*
X7246684Y-2923342D02*
X7233355Y-2910013D01*
X7206697D01*
X7193368Y-2923342D01*
Y-2976658D01*
X7206697Y-2989987D01*
X7233355D01*
X7246684Y-2976658D01*
X7313329Y-2989987D02*
Y-2910013D01*
X7273342Y-2950000D01*
X7326658D01*
X7353316Y-2923342D02*
X7366645Y-2910013D01*
X7393303D01*
X7406632Y-2923342D01*
Y-2936671D01*
X7393303Y-2950000D01*
X7379974D01*
X7393303D01*
X7406632Y-2963329D01*
Y-2976658D01*
X7393303Y-2989987D01*
X7366645D01*
X7353316Y-2976658D01*
X6921684Y-4623342D02*
X6908355Y-4610013D01*
X6881697D01*
X6868368Y-4623342D01*
Y-4676658D01*
X6881697Y-4689987D01*
X6908355D01*
X6921684Y-4676658D01*
X6988329Y-4689987D02*
Y-4610013D01*
X6948342Y-4650000D01*
X7001658D01*
X7081632Y-4689987D02*
X7028316D01*
X7081632Y-4636671D01*
Y-4623342D01*
X7068303Y-4610013D01*
X7041645D01*
X7028316Y-4623342D01*
X6735013Y-2923342D02*
X6721684Y-2910013D01*
X6695026D01*
X6681697Y-2923342D01*
Y-2976658D01*
X6695026Y-2989987D01*
X6721684D01*
X6735013Y-2976658D01*
X6801658Y-2989987D02*
Y-2910013D01*
X6761671Y-2950000D01*
X6814987D01*
X6841645Y-2989987D02*
X6868303D01*
X6854974D01*
Y-2910013D01*
X6841645Y-2923342D01*
X6521684Y-4623342D02*
X6508355Y-4610013D01*
X6481697D01*
X6468368Y-4623342D01*
Y-4676658D01*
X6481697Y-4689987D01*
X6508355D01*
X6521684Y-4676658D01*
X6588329Y-4689987D02*
Y-4610013D01*
X6548342Y-4650000D01*
X6601658D01*
X6628316Y-4623342D02*
X6641645Y-4610013D01*
X6668303D01*
X6681632Y-4623342D01*
Y-4676658D01*
X6668303Y-4689987D01*
X6641645D01*
X6628316Y-4676658D01*
Y-4623342D01*
X6371683Y-2923342D02*
X6358355Y-2910013D01*
X6331697D01*
X6318367Y-2923342D01*
Y-2976658D01*
X6331697Y-2989987D01*
X6358355D01*
X6371683Y-2976658D01*
X6398342Y-2923342D02*
X6411671Y-2910013D01*
X6438329D01*
X6451658Y-2923342D01*
Y-2936671D01*
X6438329Y-2950000D01*
X6425000D01*
X6438329D01*
X6451658Y-2963329D01*
Y-2976658D01*
X6438329Y-2989987D01*
X6411671D01*
X6398342Y-2976658D01*
X6478316D02*
X6491645Y-2989987D01*
X6518303D01*
X6531632Y-2976658D01*
Y-2923342D01*
X6518303Y-2910013D01*
X6491645D01*
X6478316Y-2923342D01*
Y-2936671D01*
X6491645Y-2950000D01*
X6531632D01*
X6096684Y-4623342D02*
X6083355Y-4610013D01*
X6056697D01*
X6043368Y-4623342D01*
Y-4676658D01*
X6056697Y-4689987D01*
X6083355D01*
X6096684Y-4676658D01*
X6123342Y-4623342D02*
X6136671Y-4610013D01*
X6163329D01*
X6176658Y-4623342D01*
Y-4636671D01*
X6163329Y-4650000D01*
X6150000D01*
X6163329D01*
X6176658Y-4663329D01*
Y-4676658D01*
X6163329Y-4689987D01*
X6136671D01*
X6123342Y-4676658D01*
X6203316Y-4623342D02*
X6216645Y-4610013D01*
X6243303D01*
X6256632Y-4623342D01*
Y-4636671D01*
X6243303Y-4650000D01*
X6256632Y-4663329D01*
Y-4676658D01*
X6243303Y-4689987D01*
X6216645D01*
X6203316Y-4676658D01*
Y-4663329D01*
X6216645Y-4650000D01*
X6203316Y-4636671D01*
Y-4623342D01*
X6216645Y-4650000D02*
X6243303D01*
X5921684Y-2923342D02*
X5908355Y-2910013D01*
X5881697D01*
X5868368Y-2923342D01*
Y-2976658D01*
X5881697Y-2989987D01*
X5908355D01*
X5921684Y-2976658D01*
X5948342Y-2923342D02*
X5961671Y-2910013D01*
X5988329D01*
X6001658Y-2923342D01*
Y-2936671D01*
X5988329Y-2950000D01*
X5975000D01*
X5988329D01*
X6001658Y-2963329D01*
Y-2976658D01*
X5988329Y-2989987D01*
X5961671D01*
X5948342Y-2976658D01*
X6028316Y-2910013D02*
X6081632D01*
Y-2923342D01*
X6028316Y-2976658D01*
Y-2989987D01*
X5696684Y-4623342D02*
X5683355Y-4610013D01*
X5656697D01*
X5643368Y-4623342D01*
Y-4676658D01*
X5656697Y-4689987D01*
X5683355D01*
X5696684Y-4676658D01*
X5723342Y-4623342D02*
X5736671Y-4610013D01*
X5763329D01*
X5776658Y-4623342D01*
Y-4636671D01*
X5763329Y-4650000D01*
X5750000D01*
X5763329D01*
X5776658Y-4663329D01*
Y-4676658D01*
X5763329Y-4689987D01*
X5736671D01*
X5723342Y-4676658D01*
X5856632Y-4610013D02*
X5829974Y-4623342D01*
X5803316Y-4650000D01*
Y-4676658D01*
X5816645Y-4689987D01*
X5843303D01*
X5856632Y-4676658D01*
Y-4663329D01*
X5843303Y-4650000D01*
X5803316D01*
X5396684Y-2923342D02*
X5383355Y-2910013D01*
X5356697D01*
X5343368Y-2923342D01*
Y-2976658D01*
X5356697Y-2989987D01*
X5383355D01*
X5396684Y-2976658D01*
X5423342Y-2923342D02*
X5436671Y-2910013D01*
X5463329D01*
X5476658Y-2923342D01*
Y-2936671D01*
X5463329Y-2950000D01*
X5450000D01*
X5463329D01*
X5476658Y-2963329D01*
Y-2976658D01*
X5463329Y-2989987D01*
X5436671D01*
X5423342Y-2976658D01*
X5556632Y-2910013D02*
X5503316D01*
Y-2950000D01*
X5529974Y-2936671D01*
X5543303D01*
X5556632Y-2950000D01*
Y-2976658D01*
X5543303Y-2989987D01*
X5516645D01*
X5503316Y-2976658D01*
X15848341Y-3169896D02*
X15835013Y-3183225D01*
Y-3209883D01*
X15848341Y-3223212D01*
X15901659D01*
X15914987Y-3209883D01*
Y-3183225D01*
X15901659Y-3169896D01*
X15848341Y-3143238D02*
X15835013Y-3129909D01*
Y-3103251D01*
X15848341Y-3089922D01*
X15861671D01*
X15875000Y-3103251D01*
Y-3116580D01*
Y-3103251D01*
X15888329Y-3089922D01*
X15901659D01*
X15914987Y-3103251D01*
Y-3129909D01*
X15901659Y-3143238D01*
X15914987Y-3023277D02*
X15835013D01*
X15875000Y-3063264D01*
Y-3009948D01*
X15838182Y-2730476D02*
X15824854Y-2743805D01*
Y-2770463D01*
X15838182Y-2783792D01*
X15891498D01*
X15904826Y-2770463D01*
Y-2743805D01*
X15891498Y-2730476D01*
X15838182Y-2703818D02*
X15824854Y-2690489D01*
Y-2663831D01*
X15838182Y-2650502D01*
X15851511D01*
X15864841Y-2663831D01*
Y-2677160D01*
Y-2663831D01*
X15878169Y-2650502D01*
X15891498D01*
X15904826Y-2663831D01*
Y-2690489D01*
X15891498Y-2703818D01*
X15838182Y-2623844D02*
X15824854Y-2610515D01*
Y-2583857D01*
X15838182Y-2570528D01*
X15851511D01*
X15864841Y-2583857D01*
Y-2597186D01*
Y-2583857D01*
X15878169Y-2570528D01*
X15891498D01*
X15904826Y-2583857D01*
Y-2610515D01*
X15891498Y-2623844D01*
X15835641Y-2278356D02*
X15822313Y-2291685D01*
Y-2318343D01*
X15835641Y-2331672D01*
X15888959D01*
X15902287Y-2318343D01*
Y-2291685D01*
X15888959Y-2278356D01*
X15835641Y-2251698D02*
X15822313Y-2238369D01*
Y-2211711D01*
X15835641Y-2198382D01*
X15848972D01*
X15862300Y-2211711D01*
Y-2225040D01*
Y-2211711D01*
X15875629Y-2198382D01*
X15888959D01*
X15902287Y-2211711D01*
Y-2238369D01*
X15888959Y-2251698D01*
X15902287Y-2118408D02*
Y-2171724D01*
X15848972Y-2118408D01*
X15835641D01*
X15822313Y-2131737D01*
Y-2158395D01*
X15835641Y-2171724D01*
X15848341Y-1868787D02*
X15835013Y-1882116D01*
Y-1908774D01*
X15848341Y-1922103D01*
X15901659D01*
X15914987Y-1908774D01*
Y-1882116D01*
X15901659Y-1868787D01*
X15848341Y-1842129D02*
X15835013Y-1828800D01*
Y-1802142D01*
X15848341Y-1788813D01*
X15861671D01*
X15875000Y-1802142D01*
Y-1815471D01*
Y-1802142D01*
X15888329Y-1788813D01*
X15901659D01*
X15914987Y-1802142D01*
Y-1828800D01*
X15901659Y-1842129D01*
X15914987Y-1762155D02*
Y-1735497D01*
Y-1748826D01*
X15835013D01*
X15848341Y-1762155D01*
Y-1521436D02*
X15835013Y-1534765D01*
Y-1561423D01*
X15848341Y-1574752D01*
X15901659D01*
X15914987Y-1561423D01*
Y-1534765D01*
X15901659Y-1521436D01*
X15848341Y-1494778D02*
X15835013Y-1481449D01*
Y-1454791D01*
X15848341Y-1441462D01*
X15861671D01*
X15875000Y-1454791D01*
Y-1468120D01*
Y-1454791D01*
X15888329Y-1441462D01*
X15901659D01*
X15914987Y-1454791D01*
Y-1481449D01*
X15901659Y-1494778D01*
X15848341Y-1414804D02*
X15835013Y-1401475D01*
Y-1374817D01*
X15848341Y-1361488D01*
X15901659D01*
X15914987Y-1374817D01*
Y-1401475D01*
X15901659Y-1414804D01*
X15848341D01*
X15666743Y-679462D02*
X15653415Y-666133D01*
X15626756D01*
X15613428Y-679462D01*
Y-732778D01*
X15626756Y-746107D01*
X15653415D01*
X15666743Y-732778D01*
X15746718Y-746107D02*
X15693402D01*
X15746718Y-692791D01*
Y-679462D01*
X15733389Y-666133D01*
X15706731D01*
X15693402Y-679462D01*
X15773376Y-732778D02*
X15786705Y-746107D01*
X15813364D01*
X15826692Y-732778D01*
Y-679462D01*
X15813364Y-666133D01*
X15786705D01*
X15773376Y-679462D01*
Y-692791D01*
X15786705Y-706120D01*
X15826692D01*
X14314182Y-751816D02*
X14300853Y-765145D01*
Y-791803D01*
X14314182Y-805132D01*
X14367497D01*
X14380827Y-791803D01*
Y-765145D01*
X14367497Y-751816D01*
X14380827Y-671842D02*
Y-725158D01*
X14327512Y-671842D01*
X14314182D01*
X14300853Y-685171D01*
Y-711829D01*
X14314182Y-725158D01*
Y-645184D02*
X14300853Y-631854D01*
Y-605196D01*
X14314182Y-591867D01*
X14327512D01*
X14340839Y-605196D01*
X14354169Y-591867D01*
X14367497D01*
X14380827Y-605196D01*
Y-631854D01*
X14367497Y-645184D01*
X14354169D01*
X14340839Y-631854D01*
X14327512Y-645184D01*
X14314182D01*
X14340839Y-631854D02*
Y-605196D01*
X14334502Y-309856D02*
X14321173Y-323185D01*
Y-349843D01*
X14334502Y-363172D01*
X14387817D01*
X14401147Y-349843D01*
Y-323185D01*
X14387817Y-309856D01*
X14401147Y-229882D02*
Y-283198D01*
X14347832Y-229882D01*
X14334502D01*
X14321173Y-243211D01*
Y-269869D01*
X14334502Y-283198D01*
X14321173Y-203224D02*
Y-149908D01*
X14334502D01*
X14387817Y-203224D01*
X14401147D01*
X11173341Y-2403316D02*
X11160012Y-2416645D01*
Y-2443303D01*
X11173341Y-2456632D01*
X11226658D01*
X11239987Y-2443303D01*
Y-2416645D01*
X11226658Y-2403316D01*
X11239987Y-2323342D02*
Y-2376658D01*
X11186671Y-2323342D01*
X11173341D01*
X11160012Y-2336671D01*
Y-2363329D01*
X11173341Y-2376658D01*
X11160012Y-2243368D02*
X11173341Y-2270026D01*
X11199999Y-2296684D01*
X11226658D01*
X11239987Y-2283355D01*
Y-2256697D01*
X11226658Y-2243368D01*
X11213329D01*
X11199999Y-2256697D01*
Y-2296684D01*
X11173341Y-2003316D02*
X11160012Y-2016645D01*
Y-2043303D01*
X11173341Y-2056632D01*
X11226658D01*
X11239987Y-2043303D01*
Y-2016645D01*
X11226658Y-2003316D01*
X11239987Y-1923342D02*
Y-1976658D01*
X11186671Y-1923342D01*
X11173341D01*
X11160012Y-1936670D01*
Y-1963329D01*
X11173341Y-1976658D01*
X11160012Y-1843367D02*
Y-1896684D01*
X11199999D01*
X11186671Y-1870025D01*
Y-1856696D01*
X11199999Y-1843367D01*
X11226658D01*
X11239987Y-1856696D01*
Y-1883354D01*
X11226658Y-1896684D01*
X11131561Y-1450316D02*
X11118233Y-1463645D01*
Y-1490303D01*
X11131561Y-1503632D01*
X11184878D01*
X11198207Y-1490303D01*
Y-1463645D01*
X11184878Y-1450316D01*
X11198207Y-1370342D02*
Y-1423658D01*
X11144891Y-1370342D01*
X11131561D01*
X11118233Y-1383671D01*
Y-1410329D01*
X11131561Y-1423658D01*
X11198207Y-1303696D02*
X11118233D01*
X11158219Y-1343684D01*
Y-1290367D01*
X11131562Y-1092176D02*
X11118233Y-1105505D01*
Y-1132163D01*
X11131562Y-1145492D01*
X11184878D01*
X11198207Y-1132163D01*
Y-1105505D01*
X11184878Y-1092176D01*
X11198207Y-1012202D02*
Y-1065518D01*
X11144891Y-1012202D01*
X11131562D01*
X11118233Y-1025531D01*
Y-1052189D01*
X11131562Y-1065518D01*
Y-985544D02*
X11118233Y-972215D01*
Y-945557D01*
X11131562Y-932228D01*
X11144891D01*
X11158220Y-945557D01*
Y-958886D01*
Y-945557D01*
X11171549Y-932228D01*
X11184878D01*
X11198207Y-945557D01*
Y-972215D01*
X11184878Y-985544D01*
X9523742Y-774676D02*
X9510413Y-788005D01*
Y-814663D01*
X9523742Y-827992D01*
X9577058D01*
X9590387Y-814663D01*
Y-788005D01*
X9577058Y-774676D01*
X9590387Y-694702D02*
Y-748018D01*
X9537071Y-694702D01*
X9523742D01*
X9510413Y-708031D01*
Y-734689D01*
X9523742Y-748018D01*
X9590387Y-614728D02*
Y-668044D01*
X9537071Y-614728D01*
X9523742D01*
X9510413Y-628057D01*
Y-654715D01*
X9523742Y-668044D01*
Y-306687D02*
X9510413Y-320016D01*
Y-346674D01*
X9523742Y-360003D01*
X9577058D01*
X9590387Y-346674D01*
Y-320016D01*
X9577058Y-306687D01*
X9590387Y-226713D02*
Y-280029D01*
X9537071Y-226713D01*
X9523742D01*
X9510413Y-240042D01*
Y-266700D01*
X9523742Y-280029D01*
X9590387Y-200055D02*
Y-173397D01*
Y-186726D01*
X9510413D01*
X9523742Y-200055D01*
X6305562Y-1518896D02*
X6292233Y-1532225D01*
Y-1558883D01*
X6305562Y-1572212D01*
X6358878D01*
X6372207Y-1558883D01*
Y-1532225D01*
X6358878Y-1518896D01*
X6372207Y-1438922D02*
Y-1492238D01*
X6318891Y-1438922D01*
X6305562D01*
X6292233Y-1452251D01*
Y-1478909D01*
X6305562Y-1492238D01*
Y-1412264D02*
X6292233Y-1398935D01*
Y-1372277D01*
X6305562Y-1358948D01*
X6358878D01*
X6372207Y-1372277D01*
Y-1398935D01*
X6358878Y-1412264D01*
X6305562D01*
X6300482Y-1077892D02*
X6287153Y-1091221D01*
Y-1117879D01*
X6300482Y-1131208D01*
X6353798D01*
X6367127Y-1117879D01*
Y-1091221D01*
X6353798Y-1077892D01*
X6367127Y-1051234D02*
Y-1024576D01*
Y-1037904D01*
X6287153D01*
X6300482Y-1051234D01*
X6353798Y-984588D02*
X6367127Y-971259D01*
Y-944601D01*
X6353798Y-931272D01*
X6300482D01*
X6287153Y-944601D01*
Y-971259D01*
X6300482Y-984588D01*
X6313811D01*
X6327140Y-971259D01*
Y-931272D01*
X4870788Y-26682D02*
X4857459Y-13353D01*
X4830801D01*
X4817472Y-26682D01*
Y-79998D01*
X4830801Y-93327D01*
X4857459D01*
X4870788Y-79998D01*
X4897446Y-93327D02*
X4924104D01*
X4910776D01*
Y-13353D01*
X4897446Y-26682D01*
X4964092D02*
X4977421Y-13353D01*
X5004079D01*
X5017408Y-26682D01*
Y-40011D01*
X5004079Y-53340D01*
X5017408Y-66669D01*
Y-79998D01*
X5004079Y-93327D01*
X4977421D01*
X4964092Y-79998D01*
Y-66669D01*
X4977421Y-53340D01*
X4964092Y-40011D01*
Y-26682D01*
X4977421Y-53340D02*
X5004079D01*
X4792048Y-963942D02*
X4778719Y-950613D01*
X4752061D01*
X4738732Y-963942D01*
Y-1017258D01*
X4752061Y-1030587D01*
X4778719D01*
X4792048Y-1017258D01*
X4818706Y-1030587D02*
X4845364D01*
X4832036D01*
Y-950613D01*
X4818706Y-963942D01*
X4885352Y-950613D02*
X4938668D01*
Y-963942D01*
X4885352Y-1017258D01*
Y-1030587D01*
X29222Y-648632D02*
X15893Y-661961D01*
Y-688619D01*
X29222Y-701948D01*
X82538D01*
X95867Y-688619D01*
Y-661961D01*
X82538Y-648632D01*
X95867Y-621974D02*
Y-595316D01*
Y-608644D01*
X15893D01*
X29222Y-621974D01*
X15893Y-502012D02*
X29222Y-528670D01*
X55880Y-555328D01*
X82538D01*
X95867Y-541999D01*
Y-515341D01*
X82538Y-502012D01*
X69209D01*
X55880Y-515341D01*
Y-555328D01*
X31762Y-341292D02*
X18433Y-354621D01*
Y-381279D01*
X31762Y-394608D01*
X85078D01*
X98407Y-381279D01*
Y-354621D01*
X85078Y-341292D01*
X98407Y-314634D02*
Y-287976D01*
Y-301304D01*
X18433D01*
X31762Y-314634D01*
X18433Y-194672D02*
Y-247988D01*
X58420D01*
X45091Y-221330D01*
Y-208001D01*
X58420Y-194672D01*
X85078D01*
X98407Y-208001D01*
Y-234659D01*
X85078Y-247988D01*
X17488667Y-1163762D02*
X17475339Y-1150433D01*
X17448682D01*
X17435352Y-1163762D01*
Y-1217078D01*
X17448682Y-1230407D01*
X17475339D01*
X17488667Y-1217078D01*
X17515326Y-1230407D02*
X17541985D01*
X17528654D01*
Y-1150433D01*
X17515326Y-1163762D01*
X17635287Y-1230407D02*
X17581972D01*
X17635287Y-1177091D01*
Y-1163762D01*
X17621959Y-1150433D01*
X17595300D01*
X17581972Y-1163762D01*
X12800970Y-1228102D02*
X12787642Y-1214773D01*
X12760984D01*
X12747655Y-1228102D01*
Y-1281418D01*
X12760984Y-1294747D01*
X12787642D01*
X12800970Y-1281418D01*
X12827629D02*
X12840958Y-1294747D01*
X12867616D01*
X12880945Y-1281418D01*
Y-1228102D01*
X12867616Y-1214773D01*
X12840958D01*
X12827629Y-1228102D01*
Y-1241431D01*
X12840958Y-1254760D01*
X12880945D01*
X8007991Y-1238262D02*
X7994662Y-1224933D01*
X7968004D01*
X7954675Y-1238262D01*
Y-1291578D01*
X7968004Y-1304907D01*
X7994662D01*
X8007991Y-1291578D01*
X8087965Y-1224933D02*
X8061307Y-1238262D01*
X8034649Y-1264920D01*
Y-1291578D01*
X8047978Y-1304907D01*
X8074636D01*
X8087965Y-1291578D01*
Y-1278249D01*
X8074636Y-1264920D01*
X8034649D01*
X3197231Y-1248422D02*
X3183902Y-1235093D01*
X3157244D01*
X3143915Y-1248422D01*
Y-1301738D01*
X3157244Y-1315067D01*
X3183902D01*
X3197231Y-1301738D01*
X3223889Y-1248422D02*
X3237218Y-1235093D01*
X3263876D01*
X3277205Y-1248422D01*
Y-1261751D01*
X3263876Y-1275080D01*
X3250547D01*
X3263876D01*
X3277205Y-1288409D01*
Y-1301738D01*
X3263876Y-1315067D01*
X3237218D01*
X3223889Y-1301738D01*
X8544191Y-1814842D02*
X8530862Y-1801513D01*
X8504204D01*
X8490875Y-1814842D01*
Y-1868158D01*
X8504204Y-1881487D01*
X8530862D01*
X8544191Y-1868158D01*
X8570849Y-1801513D02*
X8624165D01*
Y-1814842D01*
X8570849Y-1868158D01*
Y-1881487D01*
X3735711Y-1878342D02*
X3722382Y-1865013D01*
X3695724D01*
X3682395Y-1878342D01*
Y-1931658D01*
X3695724Y-1944987D01*
X3722382D01*
X3735711Y-1931658D01*
X3802356Y-1944987D02*
Y-1865013D01*
X3762369Y-1905000D01*
X3815685D01*
X13364548Y-1875802D02*
X13351219Y-1862473D01*
X13324561D01*
X13311232Y-1875802D01*
Y-1929118D01*
X13324561Y-1942447D01*
X13351219D01*
X13364548Y-1929118D01*
X13391206Y-1942447D02*
X13417863D01*
X13404536D01*
Y-1862473D01*
X13391206Y-1875802D01*
X13457852D02*
X13471181Y-1862473D01*
X13497839D01*
X13511168Y-1875802D01*
Y-1929118D01*
X13497839Y-1942447D01*
X13471181D01*
X13457852Y-1929118D01*
Y-1875802D01*
X18162608Y-1929142D02*
X18149278Y-1915813D01*
X18122621D01*
X18109293Y-1929142D01*
Y-1982458D01*
X18122621Y-1995787D01*
X18149278D01*
X18162608Y-1982458D01*
X18189265Y-1995787D02*
X18215924D01*
X18202596D01*
Y-1915813D01*
X18189265Y-1929142D01*
X18255911D02*
X18269241Y-1915813D01*
X18295898D01*
X18309229Y-1929142D01*
Y-1942471D01*
X18295898Y-1955800D01*
X18282570D01*
X18295898D01*
X18309229Y-1969129D01*
Y-1982458D01*
X18295898Y-1995787D01*
X18269241D01*
X18255911Y-1982458D01*
X5567027Y-1716363D02*
X5487053D01*
Y-1676376D01*
X5500382Y-1663047D01*
X5527040D01*
X5540369Y-1676376D01*
Y-1716363D01*
Y-1689705D02*
X5567027Y-1663047D01*
Y-1583073D02*
Y-1636389D01*
X5513711Y-1583073D01*
X5500382D01*
X5487053Y-1596402D01*
Y-1623060D01*
X5500382Y-1636389D01*
X5567027Y-1556415D02*
Y-1529757D01*
Y-1543086D01*
X5487053D01*
X5500382Y-1556415D01*
X5579727Y-774652D02*
X5499753D01*
Y-734665D01*
X5513082Y-721336D01*
X5539740D01*
X5553069Y-734665D01*
Y-774652D01*
Y-747994D02*
X5579727Y-721336D01*
Y-641362D02*
Y-694678D01*
X5526411Y-641362D01*
X5513082D01*
X5499753Y-654691D01*
Y-681349D01*
X5513082Y-694678D01*
Y-614704D02*
X5499753Y-601375D01*
Y-574717D01*
X5513082Y-561388D01*
X5566398D01*
X5579727Y-574717D01*
Y-601375D01*
X5566398Y-614704D01*
X5513082D01*
X7550032Y-3914987D02*
Y-3835013D01*
X7590019D01*
X7603348Y-3848342D01*
Y-3875000D01*
X7590019Y-3888329D01*
X7550032D01*
X7576690D02*
X7603348Y-3914987D01*
X7630006D02*
X7656664D01*
X7643335D01*
Y-3835013D01*
X7630006Y-3848342D01*
X7749968Y-3835013D02*
X7723310Y-3848342D01*
X7696652Y-3875000D01*
Y-3901658D01*
X7709981Y-3914987D01*
X7736639D01*
X7749968Y-3901658D01*
Y-3888329D01*
X7736639Y-3875000D01*
X7696652D01*
X2110111Y-1342402D02*
X2096782Y-1329073D01*
X2070124D01*
X2056795Y-1342402D01*
Y-1395718D01*
X2070124Y-1409047D01*
X2096782D01*
X2110111Y-1395718D01*
X2190085Y-1329073D02*
X2136769D01*
Y-1369060D01*
X2163427Y-1355731D01*
X2176756D01*
X2190085Y-1369060D01*
Y-1395718D01*
X2176756Y-1409047D01*
X2150098D01*
X2136769Y-1395718D01*
X17232037Y-3643013D02*
X17285353Y-3722987D01*
Y-3643013D02*
X17232037Y-3722987D01*
X17365327D02*
X17312012D01*
X17365327Y-3669671D01*
Y-3656342D01*
X17351997Y-3643013D01*
X17325340D01*
X17312012Y-3656342D01*
X17391985Y-3722987D02*
X17418643D01*
X17405315D01*
Y-3643013D01*
X17391985Y-3656342D01*
X10370167Y-769572D02*
X10290193D01*
Y-729585D01*
X10303522Y-716256D01*
X10330180D01*
X10343509Y-729585D01*
Y-769572D01*
Y-742914D02*
X10370167Y-716256D01*
Y-636282D02*
Y-689598D01*
X10316851Y-636282D01*
X10303522D01*
X10290193Y-649611D01*
Y-676269D01*
X10303522Y-689598D01*
Y-609624D02*
X10290193Y-596295D01*
Y-569637D01*
X10303522Y-556308D01*
X10316851D01*
X10330180Y-569637D01*
X10343509Y-556308D01*
X10356838D01*
X10370167Y-569637D01*
Y-596295D01*
X10356838Y-609624D01*
X10343509D01*
X10330180Y-596295D01*
X10316851Y-609624D01*
X10303522D01*
X10330180Y-596295D02*
Y-569637D01*
X2384455Y-4143393D02*
X2437771Y-4223367D01*
Y-4143393D02*
X2384455Y-4223367D01*
X2464429Y-4156722D02*
X2477758Y-4143393D01*
X2504416D01*
X2517745Y-4156722D01*
Y-4170051D01*
X2504416Y-4183380D01*
X2491087D01*
X2504416D01*
X2517745Y-4196709D01*
Y-4210038D01*
X2504416Y-4223367D01*
X2477758D01*
X2464429Y-4210038D01*
X2699415Y-3660793D02*
X2752731Y-3740767D01*
Y-3660793D02*
X2699415Y-3740767D01*
X2832705D02*
X2779389D01*
X2832705Y-3687451D01*
Y-3674122D01*
X2819376Y-3660793D01*
X2792718D01*
X2779389Y-3674122D01*
X736624Y-3714133D02*
X789940Y-3794107D01*
Y-3714133D02*
X736624Y-3794107D01*
X816598D02*
X843256D01*
X829927D01*
Y-3714133D01*
X816598Y-3727462D01*
X10260013Y-2193368D02*
X10339987D01*
Y-2233355D01*
X10326658Y-2246684D01*
X10300000D01*
X10286671Y-2233355D01*
Y-2193368D01*
Y-2220026D02*
X10260013Y-2246684D01*
X10326658Y-2273342D02*
X10339987Y-2286671D01*
Y-2313329D01*
X10326658Y-2326658D01*
X10313329D01*
X10300000Y-2313329D01*
Y-2300000D01*
Y-2313329D01*
X10286671Y-2326658D01*
X10273342D01*
X10260013Y-2313329D01*
Y-2286671D01*
X10273342Y-2273342D01*
X10326658Y-2353316D02*
X10339987Y-2366645D01*
Y-2393303D01*
X10326658Y-2406632D01*
X10273342D01*
X10260013Y-2393303D01*
Y-2366645D01*
X10273342Y-2353316D01*
X10326658D01*
X10367627Y-1696672D02*
X10287653D01*
Y-1656685D01*
X10300982Y-1643356D01*
X10327640D01*
X10340969Y-1656685D01*
Y-1696672D01*
Y-1670014D02*
X10367627Y-1643356D01*
Y-1563382D02*
Y-1616698D01*
X10314311Y-1563382D01*
X10300982D01*
X10287653Y-1576711D01*
Y-1603369D01*
X10300982Y-1616698D01*
X10354298Y-1536724D02*
X10367627Y-1523395D01*
Y-1496737D01*
X10354298Y-1483408D01*
X10300982D01*
X10287653Y-1496737D01*
Y-1523395D01*
X10300982Y-1536724D01*
X10314311D01*
X10327640Y-1523395D01*
Y-1483408D01*
X11366548Y-1360787D02*
Y-1280813D01*
X11406535D01*
X11419864Y-1294142D01*
Y-1320800D01*
X11406535Y-1334129D01*
X11366548D01*
X11393206D02*
X11419864Y-1360787D01*
X11499838D02*
X11446522D01*
X11499838Y-1307471D01*
Y-1294142D01*
X11486509Y-1280813D01*
X11459851D01*
X11446522Y-1294142D01*
X11579812Y-1280813D02*
X11553154Y-1294142D01*
X11526496Y-1320800D01*
Y-1347458D01*
X11539825Y-1360787D01*
X11566483D01*
X11579812Y-1347458D01*
Y-1334129D01*
X11566483Y-1320800D01*
X11526496D01*
X15196867Y-3627773D02*
X15250185Y-3707747D01*
Y-3627773D02*
X15196867Y-3707747D01*
X15330157D02*
X15276842D01*
X15330157Y-3654431D01*
Y-3641102D01*
X15316829Y-3627773D01*
X15290170D01*
X15276842Y-3641102D01*
X15410132Y-3707747D02*
X15356816D01*
X15410132Y-3654431D01*
Y-3641102D01*
X15396803Y-3627773D01*
X15370145D01*
X15356816Y-3641102D01*
X4983355Y-3760013D02*
X5036671Y-3839987D01*
Y-3760013D02*
X4983355Y-3839987D01*
X5103316D02*
Y-3760013D01*
X5063329Y-3800000D01*
X5116645D01*
X4186671Y-4448342D02*
X4173342Y-4435013D01*
X4146684D01*
X4133355Y-4448342D01*
Y-4501658D01*
X4146684Y-4514987D01*
X4173342D01*
X4186671Y-4501658D01*
X4266645Y-4514987D02*
X4213329D01*
X4266645Y-4461671D01*
Y-4448342D01*
X4253316Y-4435013D01*
X4226658D01*
X4213329Y-4448342D01*
X6514192Y-1353167D02*
Y-1273193D01*
X6554179D01*
X6567508Y-1286522D01*
Y-1313180D01*
X6554179Y-1326509D01*
X6514192D01*
X6540850D02*
X6567508Y-1353167D01*
X6594166D02*
X6620824D01*
X6607496D01*
Y-1273193D01*
X6594166Y-1286522D01*
X6660812D02*
X6674141Y-1273193D01*
X6700799D01*
X6714128Y-1286522D01*
Y-1299851D01*
X6700799Y-1313180D01*
X6714128Y-1326509D01*
Y-1339838D01*
X6700799Y-1353167D01*
X6674141D01*
X6660812Y-1339838D01*
Y-1326509D01*
X6674141Y-1313180D01*
X6660812Y-1299851D01*
Y-1286522D01*
X6674141Y-1313180D02*
X6700799D01*
X9309753Y-131172D02*
X9389727D01*
Y-171159D01*
X9376398Y-184488D01*
X9349740D01*
X9336411Y-171159D01*
Y-131172D01*
Y-157830D02*
X9309753Y-184488D01*
Y-211146D02*
Y-237804D01*
Y-224476D01*
X9389727D01*
X9376398Y-211146D01*
X9389727Y-277792D02*
Y-331108D01*
X9376398D01*
X9323082Y-277792D01*
X9309753D01*
X7125032Y-3764987D02*
Y-3685013D01*
X7165019D01*
X7178348Y-3698342D01*
Y-3725000D01*
X7165019Y-3738329D01*
X7125032D01*
X7151690D02*
X7178348Y-3764987D01*
X7205006D02*
X7231664D01*
X7218336D01*
Y-3685013D01*
X7205006Y-3698342D01*
X7324968Y-3685013D02*
X7271652D01*
Y-3725000D01*
X7298310Y-3711671D01*
X7311639D01*
X7324968Y-3725000D01*
Y-3751658D01*
X7311639Y-3764987D01*
X7284981D01*
X7271652Y-3751658D01*
X11676077Y-1296682D02*
X11662749Y-1283353D01*
X11636091D01*
X11622761Y-1296682D01*
Y-1349998D01*
X11636091Y-1363327D01*
X11662749D01*
X11676077Y-1349998D01*
X11702736Y-1363327D02*
X11729394D01*
X11716065D01*
Y-1283353D01*
X11702736Y-1296682D01*
X11769381Y-1363327D02*
X11796039D01*
X11782710D01*
Y-1283353D01*
X11769381Y-1296682D01*
X6837051Y-1286522D02*
X6823722Y-1273193D01*
X6797064D01*
X6783735Y-1286522D01*
Y-1339838D01*
X6797064Y-1353167D01*
X6823722D01*
X6837051Y-1339838D01*
X6863709Y-1286522D02*
X6877038Y-1273193D01*
X6903696D01*
X6917025Y-1286522D01*
Y-1299851D01*
X6903696Y-1313180D01*
X6917025Y-1326509D01*
Y-1339838D01*
X6903696Y-1353167D01*
X6877038D01*
X6863709Y-1339838D01*
Y-1326509D01*
X6877038Y-1313180D01*
X6863709Y-1299851D01*
Y-1286522D01*
X6877038Y-1313180D02*
X6903696D01*
X15102966Y-3143972D02*
X15022993D01*
Y-3103985D01*
X15036322Y-3090656D01*
X15062981D01*
X15076309Y-3103985D01*
Y-3143972D01*
Y-3117314D02*
X15102966Y-3090656D01*
X15036322Y-3063998D02*
X15022993Y-3050669D01*
Y-3024011D01*
X15036322Y-3010682D01*
X15049651D01*
X15062981Y-3024011D01*
Y-3037340D01*
Y-3024011D01*
X15076309Y-3010682D01*
X15089638D01*
X15102966Y-3024011D01*
Y-3050669D01*
X15089638Y-3063998D01*
Y-2984024D02*
X15102966Y-2970695D01*
Y-2944037D01*
X15089638Y-2930708D01*
X15036322D01*
X15022993Y-2944037D01*
Y-2970695D01*
X15036322Y-2984024D01*
X15049651D01*
X15062981Y-2970695D01*
Y-2930708D01*
X15076787Y-2430732D02*
X14996812D01*
Y-2390745D01*
X15010143Y-2377416D01*
X15036800D01*
X15050130Y-2390745D01*
Y-2430732D01*
Y-2404074D02*
X15076787Y-2377416D01*
X15010143Y-2350758D02*
X14996812Y-2337429D01*
Y-2310771D01*
X15010143Y-2297442D01*
X15023471D01*
X15036800Y-2310771D01*
Y-2324100D01*
Y-2310771D01*
X15050130Y-2297442D01*
X15063458D01*
X15076787Y-2310771D01*
Y-2337429D01*
X15063458Y-2350758D01*
X15010143Y-2270784D02*
X14996812Y-2257455D01*
Y-2230797D01*
X15010143Y-2217468D01*
X15023471D01*
X15036800Y-2230797D01*
X15050130Y-2217468D01*
X15063458D01*
X15076787Y-2230797D01*
Y-2257455D01*
X15063458Y-2270784D01*
X15050130D01*
X15036800Y-2257455D01*
X15023471Y-2270784D01*
X15010143D01*
X15036800Y-2257455D02*
Y-2230797D01*
X15201949Y-761347D02*
Y-681373D01*
X15241936D01*
X15255264Y-694702D01*
Y-721360D01*
X15241936Y-734689D01*
X15201949D01*
X15228606D02*
X15255264Y-761347D01*
X15281921Y-694702D02*
X15295251Y-681373D01*
X15321909D01*
X15335239Y-694702D01*
Y-708031D01*
X15321909Y-721360D01*
X15308580D01*
X15321909D01*
X15335239Y-734689D01*
Y-748018D01*
X15321909Y-761347D01*
X15295251D01*
X15281921Y-748018D01*
X15361896Y-681373D02*
X15415211D01*
Y-694702D01*
X15361896Y-748018D01*
Y-761347D01*
X15093333Y-482648D02*
X15173306D01*
Y-522635D01*
X15159978Y-535964D01*
X15133321D01*
X15119991Y-522635D01*
Y-482648D01*
Y-509306D02*
X15093333Y-535964D01*
X15159978Y-562622D02*
X15173306Y-575951D01*
Y-602609D01*
X15159978Y-615938D01*
X15146649D01*
X15133321Y-602609D01*
Y-589280D01*
Y-602609D01*
X15119991Y-615938D01*
X15106662D01*
X15093333Y-602609D01*
Y-575951D01*
X15106662Y-562622D01*
X15173306Y-695912D02*
X15159978Y-669254D01*
X15133321Y-642596D01*
X15106662D01*
X15093333Y-655925D01*
Y-682583D01*
X15106662Y-695912D01*
X15119991D01*
X15133321Y-682583D01*
Y-642596D01*
X16141748Y-1315067D02*
Y-1235093D01*
X16181735D01*
X16195064Y-1248422D01*
Y-1275080D01*
X16181735Y-1288409D01*
X16141748D01*
X16168407D02*
X16195064Y-1315067D01*
X16221722Y-1248422D02*
X16235051Y-1235093D01*
X16261710D01*
X16275038Y-1248422D01*
Y-1261751D01*
X16261710Y-1275080D01*
X16248380D01*
X16261710D01*
X16275038Y-1288409D01*
Y-1301738D01*
X16261710Y-1315067D01*
X16235051D01*
X16221722Y-1301738D01*
X16341682Y-1315067D02*
Y-1235093D01*
X16301695Y-1275080D01*
X16355013D01*
X19002393Y-93988D02*
X19082367D01*
Y-133975D01*
X19069038Y-147304D01*
X19042380D01*
X19029051Y-133975D01*
Y-93988D01*
Y-120646D02*
X19002393Y-147304D01*
X19069038Y-173962D02*
X19082367Y-187291D01*
Y-213950D01*
X19069038Y-227278D01*
X19055708D01*
X19042380Y-213950D01*
Y-200620D01*
Y-213950D01*
X19029051Y-227278D01*
X19015723D01*
X19002393Y-213950D01*
Y-187291D01*
X19015723Y-173962D01*
X19069038Y-253936D02*
X19082367Y-267266D01*
Y-293924D01*
X19069038Y-307253D01*
X19055708D01*
X19042380Y-293924D01*
Y-280595D01*
Y-293924D01*
X19029051Y-307253D01*
X19015723D01*
X19002393Y-293924D01*
Y-267266D01*
X19015723Y-253936D01*
X14168773Y-124508D02*
X14248747D01*
Y-164495D01*
X14235419Y-177824D01*
X14208760D01*
X14195432Y-164495D01*
Y-124508D01*
Y-151166D02*
X14168773Y-177824D01*
Y-257798D02*
Y-204482D01*
X14222089Y-257798D01*
X14235419D01*
X14248747Y-244469D01*
Y-217811D01*
X14235419Y-204482D01*
X14248747Y-337773D02*
Y-284456D01*
X14208760D01*
X14222089Y-311114D01*
Y-324444D01*
X14208760Y-337773D01*
X14182101D01*
X14168773Y-324444D01*
Y-297786D01*
X14182101Y-284456D01*
X16473508Y-1250962D02*
X16460179Y-1237633D01*
X16433521D01*
X16420192Y-1250962D01*
Y-1304278D01*
X16433521Y-1317607D01*
X16460179D01*
X16473508Y-1304278D01*
X16500166Y-1317607D02*
X16526823D01*
X16513496D01*
Y-1237633D01*
X16500166Y-1250962D01*
X16606799Y-1317607D02*
Y-1237633D01*
X16566812Y-1277620D01*
X16620128D01*
X840087Y-770528D02*
X760113D01*
Y-730541D01*
X773442Y-717212D01*
X800100D01*
X813429Y-730541D01*
Y-770528D01*
Y-743870D02*
X840087Y-717212D01*
Y-690554D02*
Y-663896D01*
Y-677224D01*
X760113D01*
X773442Y-690554D01*
X840087Y-583921D02*
X760113D01*
X800100Y-623908D01*
Y-570592D01*
X6775032Y-3914987D02*
Y-3835013D01*
X6815019D01*
X6828348Y-3848342D01*
Y-3875000D01*
X6815019Y-3888329D01*
X6775032D01*
X6801690D02*
X6828348Y-3914987D01*
X6855006D02*
X6881664D01*
X6868336D01*
Y-3835013D01*
X6855006Y-3848342D01*
X6921652D02*
X6934981Y-3835013D01*
X6961639D01*
X6974968Y-3848342D01*
Y-3861671D01*
X6961639Y-3875000D01*
X6948310D01*
X6961639D01*
X6974968Y-3888329D01*
Y-3901658D01*
X6961639Y-3914987D01*
X6934981D01*
X6921652Y-3901658D01*
X6225032Y-3789987D02*
Y-3710013D01*
X6265019D01*
X6278348Y-3723342D01*
Y-3750000D01*
X6265019Y-3763329D01*
X6225032D01*
X6251690D02*
X6278348Y-3789987D01*
X6305006D02*
X6331665D01*
X6318336D01*
Y-3710013D01*
X6305006Y-3723342D01*
X6424968Y-3789987D02*
X6371652D01*
X6424968Y-3736671D01*
Y-3723342D01*
X6411639Y-3710013D01*
X6384981D01*
X6371652Y-3723342D01*
X5863361Y-3914987D02*
Y-3835013D01*
X5903349D01*
X5916678Y-3848342D01*
Y-3875000D01*
X5903349Y-3888329D01*
X5863361D01*
X5890019D02*
X5916678Y-3914987D01*
X5943336D02*
X5969994D01*
X5956665D01*
Y-3835013D01*
X5943336Y-3848342D01*
X6009981Y-3914987D02*
X6036639D01*
X6023310D01*
Y-3835013D01*
X6009981Y-3848342D01*
X5400032Y-3764987D02*
Y-3685013D01*
X5440019D01*
X5453348Y-3698342D01*
Y-3725000D01*
X5440019Y-3738329D01*
X5400032D01*
X5426690D02*
X5453348Y-3764987D01*
X5480006D02*
X5506664D01*
X5493335D01*
Y-3685013D01*
X5480006Y-3698342D01*
X5546652D02*
X5559981Y-3685013D01*
X5586639D01*
X5599968Y-3698342D01*
Y-3751658D01*
X5586639Y-3764987D01*
X5559981D01*
X5546652Y-3751658D01*
Y-3698342D01*
X1823115Y-1416667D02*
Y-1336693D01*
X1863102D01*
X1876431Y-1350022D01*
Y-1376680D01*
X1863102Y-1390009D01*
X1823115D01*
X1849773D02*
X1876431Y-1416667D01*
X1903089Y-1403338D02*
X1916418Y-1416667D01*
X1943076D01*
X1956405Y-1403338D01*
Y-1350022D01*
X1943076Y-1336693D01*
X1916418D01*
X1903089Y-1350022D01*
Y-1363351D01*
X1916418Y-1376680D01*
X1956405D01*
X4501533Y-164495D02*
X4581507D01*
Y-204482D01*
X4568178Y-217811D01*
X4541520D01*
X4528191Y-204482D01*
Y-164495D01*
Y-191153D02*
X4501533Y-217811D01*
X4568178Y-244469D02*
X4581507Y-257798D01*
Y-284456D01*
X4568178Y-297785D01*
X4554849D01*
X4541520Y-284456D01*
X4528191Y-297785D01*
X4514862D01*
X4501533Y-284456D01*
Y-257798D01*
X4514862Y-244469D01*
X4528191D01*
X4541520Y-257798D01*
X4554849Y-244469D01*
X4568178D01*
X4541520Y-257798D02*
Y-284456D01*
X5408355Y-4689987D02*
Y-4610013D01*
X5448342D01*
X5461671Y-4623342D01*
Y-4650000D01*
X5448342Y-4663329D01*
X5408355D01*
X5435013D02*
X5461671Y-4689987D01*
X5488329Y-4610013D02*
X5541645D01*
Y-4623342D01*
X5488329Y-4676658D01*
Y-4689987D01*
X4733355D02*
Y-4610013D01*
X4773342D01*
X4786671Y-4623342D01*
Y-4650000D01*
X4773342Y-4663329D01*
X4733355D01*
X4760013D02*
X4786671Y-4689987D01*
X4866645Y-4610013D02*
X4839987Y-4623342D01*
X4813329Y-4650000D01*
Y-4676658D01*
X4826658Y-4689987D01*
X4853316D01*
X4866645Y-4676658D01*
Y-4663329D01*
X4853316Y-4650000D01*
X4813329D01*
X4558355Y-3914987D02*
Y-3835013D01*
X4598342D01*
X4611671Y-3848342D01*
Y-3875000D01*
X4598342Y-3888329D01*
X4558355D01*
X4585013D02*
X4611671Y-3914987D01*
X4691645Y-3835013D02*
X4638329D01*
Y-3875000D01*
X4664987Y-3861671D01*
X4678316D01*
X4691645Y-3875000D01*
Y-3901658D01*
X4678316Y-3914987D01*
X4651658D01*
X4638329Y-3901658D01*
X857915Y-1812907D02*
Y-1732933D01*
X897902D01*
X911231Y-1746262D01*
Y-1772920D01*
X897902Y-1786249D01*
X857915D01*
X884573D02*
X911231Y-1812907D01*
X937889Y-1746262D02*
X951218Y-1732933D01*
X977876D01*
X991205Y-1746262D01*
Y-1759591D01*
X977876Y-1772920D01*
X964547D01*
X977876D01*
X991205Y-1786249D01*
Y-1799578D01*
X977876Y-1812907D01*
X951218D01*
X937889Y-1799578D01*
X1655427Y-1984345D02*
X1575453D01*
Y-1944358D01*
X1588782Y-1931029D01*
X1615440D01*
X1628769Y-1944358D01*
Y-1984345D01*
Y-1957687D02*
X1655427Y-1931029D01*
Y-1851055D02*
Y-1904371D01*
X1602111Y-1851055D01*
X1588782D01*
X1575453Y-1864384D01*
Y-1891042D01*
X1588782Y-1904371D01*
D51*
X1492720Y-1236320D02*
G03*
X1542720Y-1186320I0J50000D01*
G01*
X1342720D02*
G03*
X1392720Y-1236320I50000J0D01*
G01*
X1542720Y-886320D02*
G03*
X1492720Y-836320I-50000J0D01*
G01*
X1392720D02*
G03*
X1342720Y-886320I0J-50000D01*
G01*
X3093440Y-1150760D02*
G03*
X3143440Y-1200760I50000J0D01*
G01*
X3143440Y-800760D02*
G03*
X3093440Y-850760I0J-50000D01*
G01*
X3693440D02*
G03*
X3643440Y-800760I-50000J0D01*
G01*
X3643440Y-1200760D02*
G03*
X3693440Y-1150760I0J50000D01*
G01*
X4300000Y-4550000D02*
G03*
X4350000Y-4600000I50000J0D01*
G01*
Y-4400000D02*
G03*
X4300000Y-4450001I0J-50000D01*
G01*
X4650000Y-4600000D02*
G03*
X4700000Y-4550000I0J50000D01*
G01*
Y-4450001D02*
G03*
X4650000Y-4400000I-50000J0D01*
G01*
X4800000Y-3150000D02*
G03*
X4850000Y-3200000I50000J0D01*
G01*
Y-3000000D02*
G03*
X4800000Y-3050001I0J-50000D01*
G01*
X5150000Y-3200000D02*
G03*
X5200000Y-3150000I0J50000D01*
G01*
Y-3050001D02*
G03*
X5150000Y-3000000I-50000J0D01*
G01*
X4400000Y-3150000D02*
G03*
X4450000Y-3200000I50000J0D01*
G01*
Y-3000000D02*
G03*
X4400000Y-3050001I0J-50000D01*
G01*
X4750000Y-3200000D02*
G03*
X4800000Y-3150000I0J50000D01*
G01*
Y-3050001D02*
G03*
X4750000Y-3000000I-50000J0D01*
G01*
X5900000Y-4550000D02*
G03*
X5950000Y-4600000I50000J0D01*
G01*
Y-4400000D02*
G03*
X5900000Y-4450001I0J-50000D01*
G01*
X6249999Y-4600000D02*
G03*
X6300000Y-4550000I0J50000D01*
G01*
Y-4450001D02*
G03*
X6249999Y-4400000I-50000J0D01*
G01*
X6700000Y-4550000D02*
G03*
X6750000Y-4600000I50000J0D01*
G01*
Y-4400000D02*
G03*
X6700000Y-4450001I0J-50000D01*
G01*
X7050000Y-4600000D02*
G03*
X7100000Y-4550000I0J50000D01*
G01*
Y-4450001D02*
G03*
X7050000Y-4400000I-50000J0D01*
G01*
X6300000Y-4550000D02*
G03*
X6350000Y-4600000I50000J0D01*
G01*
Y-4400000D02*
G03*
X6300000Y-4450001I0J-50000D01*
G01*
X6650000Y-4600000D02*
G03*
X6700000Y-4550000I0J50000D01*
G01*
Y-4450001D02*
G03*
X6650000Y-4400000I-50000J0D01*
G01*
X5500000Y-4550000D02*
G03*
X5550000Y-4600000I50000J0D01*
G01*
Y-4400000D02*
G03*
X5500000Y-4450001I0J-50000D01*
G01*
X5849999Y-4600000D02*
G03*
X5900000Y-4550000I0J50000D01*
G01*
Y-4450001D02*
G03*
X5849999Y-4400000I-50000J0D01*
G01*
X7450000Y-3150000D02*
G03*
X7500000Y-3200000I50000J0D01*
G01*
Y-3000000D02*
G03*
X7450000Y-3050001I0J-50000D01*
G01*
X7800000Y-3200000D02*
G03*
X7850000Y-3150000I0J50000D01*
G01*
Y-3050001D02*
G03*
X7800000Y-3000000I-50000J0D01*
G01*
X7150000Y-4550000D02*
G03*
X7200000Y-4600000I50000J0D01*
G01*
Y-4400000D02*
G03*
X7150000Y-4450001I0J-50000D01*
G01*
X7499999Y-4600000D02*
G03*
X7550000Y-4550000I0J50000D01*
G01*
Y-4450001D02*
G03*
X7499999Y-4400000I-50000J0D01*
G01*
X7550000Y-4550000D02*
G03*
X7600000Y-4600000I50000J0D01*
G01*
Y-4400000D02*
G03*
X7550000Y-4450001I0J-50000D01*
G01*
X7900000Y-4600000D02*
G03*
X7950000Y-4550000I0J50000D01*
G01*
Y-4450001D02*
G03*
X7900000Y-4400000I-50000J0D01*
G01*
X7050000Y-3150000D02*
G03*
X7100000Y-3200000I50000J0D01*
G01*
Y-3000000D02*
G03*
X7050000Y-3050001I0J-50000D01*
G01*
X7400000Y-3200000D02*
G03*
X7450000Y-3150000I0J50000D01*
G01*
Y-3050001D02*
G03*
X7400000Y-3000000I-50000J0D01*
G01*
X5250000Y-3150000D02*
G03*
X5300000Y-3200000I50000J0D01*
G01*
Y-3000000D02*
G03*
X5250000Y-3050001I0J-50000D01*
G01*
X5599999Y-3200000D02*
G03*
X5650000Y-3150000I0J50000D01*
G01*
Y-3050001D02*
G03*
X5599999Y-3000000I-50000J0D01*
G01*
X5650000Y-3150000D02*
G03*
X5700000Y-3200000I50000J0D01*
G01*
Y-3000000D02*
G03*
X5650000Y-3050001I0J-50000D01*
G01*
X6000000Y-3200000D02*
G03*
X6050000Y-3150000I0J50000D01*
G01*
Y-3050001D02*
G03*
X6000000Y-3000000I-50000J0D01*
G01*
X6150000Y-3150000D02*
G03*
X6200000Y-3200000I50000J0D01*
G01*
Y-3000000D02*
G03*
X6150000Y-3050001I0J-50000D01*
G01*
X6500000Y-3200000D02*
G03*
X6550000Y-3150000I0J50000D01*
G01*
Y-3050001D02*
G03*
X6500000Y-3000000I-50000J0D01*
G01*
X10950000Y-1750000D02*
G03*
X10900000Y-1800000I0J-50000D01*
G01*
X11100000D02*
G03*
X11050000Y-1750000I-50000J0D01*
G01*
X10900000Y-2100000D02*
G03*
X10950000Y-2150000I50000J0D01*
G01*
X11050000D02*
G03*
X11100000Y-2100000I0J50000D01*
G01*
X10950000Y-2150000D02*
G03*
X10900000Y-2200000I0J-50000D01*
G01*
X11100000D02*
G03*
X11050000Y-2150000I-50000J0D01*
G01*
X10900000Y-2500000D02*
G03*
X10950000Y-2550000I50000J0D01*
G01*
X11050000D02*
G03*
X11100000Y-2500000I0J50000D01*
G01*
X6950000Y-3050001D02*
G03*
X6900000Y-3000000I-50000J0D01*
G01*
Y-3200000D02*
G03*
X6950000Y-3150000I0J50000D01*
G01*
X6600000Y-3000000D02*
G03*
X6550000Y-3050001I0J-50000D01*
G01*
Y-3150000D02*
G03*
X6600000Y-3200000I50000J0D01*
G01*
X15649741Y-2902120D02*
G03*
X15599741Y-2952120I0J-50000D01*
G01*
X15799741D02*
G03*
X15749741Y-2902120I-50000J0D01*
G01*
X15599741Y-3252120D02*
G03*
X15649741Y-3302120I50000J0D01*
G01*
X15749741D02*
G03*
X15799741Y-3252120I0J50000D01*
G01*
X15647200Y-2484780D02*
G03*
X15597200Y-2534780I0J-50000D01*
G01*
X15797200D02*
G03*
X15747200Y-2484780I-50000J0D01*
G01*
X15597200Y-2834780D02*
G03*
X15647200Y-2884780I50000J0D01*
G01*
X15747200D02*
G03*
X15797200Y-2834780I0J50000D01*
G01*
X15644659Y-2058840D02*
G03*
X15594659Y-2108840I0J-50000D01*
G01*
X15794659D02*
G03*
X15744659Y-2058840I-50000J0D01*
G01*
X15594659Y-2408840D02*
G03*
X15644659Y-2458840I50000J0D01*
G01*
X15744659D02*
G03*
X15794659Y-2408840I0J50000D01*
G01*
X15649741Y-1638960D02*
G03*
X15599741Y-1688960I0J-50000D01*
G01*
X15799741D02*
G03*
X15749741Y-1638960I-50000J0D01*
G01*
X15599741Y-1988960D02*
G03*
X15649741Y-2038960I50000J0D01*
G01*
X15749741D02*
G03*
X15799741Y-1988960I0J50000D01*
G01*
X15647200Y-1227480D02*
G03*
X15597200Y-1277480I0J-50000D01*
G01*
X15797200D02*
G03*
X15747200Y-1227480I-50000J0D01*
G01*
X15597200Y-1577480D02*
G03*
X15647200Y-1627480I50000J0D01*
G01*
X15747200D02*
G03*
X15797200Y-1577480I0J50000D01*
G01*
X15644659Y-816000D02*
G03*
X15594659Y-866000I0J-50000D01*
G01*
X15794659D02*
G03*
X15744659Y-816000I-50000J0D01*
G01*
X15594659Y-1166000D02*
G03*
X15644659Y-1216000I50000J0D01*
G01*
X15744659D02*
G03*
X15794659Y-1166000I0J50000D01*
G01*
X14466100Y-518820D02*
G03*
X14416100Y-568820I0J-50000D01*
G01*
X14616100D02*
G03*
X14566100Y-518820I-50000J0D01*
G01*
X14416100Y-868820D02*
G03*
X14466100Y-918820I50000J0D01*
G01*
X14566100D02*
G03*
X14616100Y-868820I0J50000D01*
G01*
X14463560Y-97180D02*
G03*
X14413560Y-147180I0J-50000D01*
G01*
X14613560D02*
G03*
X14563560Y-97180I-50000J0D01*
G01*
X14413560Y-447180D02*
G03*
X14463560Y-497180I50000J0D01*
G01*
X14563560D02*
G03*
X14613560Y-447180I0J50000D01*
G01*
X10950000Y-1250000D02*
G03*
X10900000Y-1300000I0J-50000D01*
G01*
X11100000D02*
G03*
X11050000Y-1250000I-50000J0D01*
G01*
X10900000Y-1600000D02*
G03*
X10950000Y-1650000I50000J0D01*
G01*
X11050000D02*
G03*
X11100000Y-1600000I0J50000D01*
G01*
X10950000Y-850000D02*
G03*
X10900000Y-900000I0J-50000D01*
G01*
X11100000D02*
G03*
X11050000Y-850000I-50000J0D01*
G01*
X10900000Y-1200000D02*
G03*
X10950000Y-1250000I50000J0D01*
G01*
X11050000D02*
G03*
X11100000Y-1200000I0J50000D01*
G01*
X9660420Y-554380D02*
G03*
X9610420Y-604380I0J-50000D01*
G01*
X9810420D02*
G03*
X9760420Y-554380I-50000J0D01*
G01*
X9610420Y-904380D02*
G03*
X9660420Y-954380I50000J0D01*
G01*
X9760420D02*
G03*
X9810420Y-904380I0J50000D01*
G01*
X9665500Y-97180D02*
G03*
X9615500Y-147180I0J-50000D01*
G01*
X9815500D02*
G03*
X9765500Y-97180I-50000J0D01*
G01*
X9615500Y-447180D02*
G03*
X9665500Y-497180I50000J0D01*
G01*
X9765500D02*
G03*
X9815500Y-447180I0J50000D01*
G01*
X6114580Y-1260500D02*
G03*
X6064580Y-1310500I0J-50000D01*
G01*
X6264580D02*
G03*
X6214580Y-1260500I-50000J0D01*
G01*
X6064580Y-1610500D02*
G03*
X6114580Y-1660500I50000J0D01*
G01*
X6214580D02*
G03*
X6264580Y-1610500I0J50000D01*
G01*
X6127280Y-834560D02*
G03*
X6077280Y-884560I0J-50000D01*
G01*
X6277280D02*
G03*
X6227280Y-834560I-50000J0D01*
G01*
X6077280Y-1184560D02*
G03*
X6127280Y-1234560I50000J0D01*
G01*
X6227280D02*
G03*
X6277280Y-1184560I0J50000D01*
G01*
X4867440Y-523900D02*
G03*
X4817440Y-573900I0J-50000D01*
G01*
X5017440D02*
G03*
X4967440Y-523900I-50000J0D01*
G01*
X4817440Y-873900D02*
G03*
X4867440Y-923900I50000J0D01*
G01*
X4967440D02*
G03*
X5017440Y-873900I0J50000D01*
G01*
X4867440Y-105580D02*
G03*
X4817440Y-155580I0J-50000D01*
G01*
X5017440D02*
G03*
X4967440Y-105580I-50000J0D01*
G01*
X4817440Y-455580D02*
G03*
X4867440Y-505580I50000J0D01*
G01*
X4967440D02*
G03*
X5017440Y-455580I0J50000D01*
G01*
X166640Y-511140D02*
G03*
X116640Y-561140I0J-50000D01*
G01*
X316640D02*
G03*
X266640Y-511140I-50000J0D01*
G01*
X116640Y-861140D02*
G03*
X166640Y-911140I50000J0D01*
G01*
X266640D02*
G03*
X316640Y-861140I0J50000D01*
G01*
X169180Y-102200D02*
G03*
X119180Y-152200I0J-50000D01*
G01*
X319180D02*
G03*
X269180Y-102200I-50000J0D01*
G01*
X119180Y-452200D02*
G03*
X169180Y-502200I50000J0D01*
G01*
X269180D02*
G03*
X319180Y-452200I0J50000D01*
G01*
X16632460Y-762260D02*
G03*
X16557460Y-687260I-75000J0D01*
G01*
X16457460D02*
G03*
X16382460Y-762260I0J-75000D01*
G01*
Y-1112260D02*
G03*
X16457460Y-1187260I75000J0D01*
G01*
X16557460D02*
G03*
X16632460Y-1112260I0J75000D01*
G01*
X18019341Y-1106780D02*
G03*
X18069341Y-1056780I0J50000D01*
G01*
Y-756780D02*
G03*
X18019341Y-706780I-50000J0D01*
G01*
X17519341D02*
G03*
X17469341Y-756780I0J-50000D01*
G01*
Y-1056780D02*
G03*
X17519341Y-1106780I50000J0D01*
G01*
X17550000Y-2000000D02*
G03*
X17625000Y-2075000I75000J0D01*
G01*
Y-1825000D02*
G03*
X17550000Y-1900000I0J-75000D01*
G01*
X18050000D02*
G03*
X17975000Y-1825000I-75000J0D01*
G01*
Y-2075000D02*
G03*
X18050000Y-2000000I0J75000D01*
G01*
X2178520Y-1299020D02*
G03*
X2253520Y-1224020I0J75000D01*
G01*
X2003520D02*
G03*
X2078520Y-1299020I75000J0D01*
G01*
Y-799020D02*
G03*
X2003520Y-874020I0J-75000D01*
G01*
X2253520D02*
G03*
X2178520Y-799020I-75000J0D01*
G01*
X7959280Y-1888960D02*
G03*
X8034280Y-1963960I75000J0D01*
G01*
Y-1713960D02*
G03*
X7959280Y-1788960I0J-75000D01*
G01*
X8459280D02*
G03*
X8384280Y-1713960I-75000J0D01*
G01*
Y-1963960D02*
G03*
X8459280Y-1888960I0J75000D01*
G01*
X8426260Y-1188060D02*
G03*
X8476260Y-1138060I0J50000D01*
G01*
Y-838060D02*
G03*
X8426260Y-788060I-50000J0D01*
G01*
X7926260D02*
G03*
X7876260Y-838060I0J-50000D01*
G01*
Y-1138060D02*
G03*
X7926260Y-1188060I50000J0D01*
G01*
X6825780Y-743140D02*
G03*
X6750780Y-818140I0J-75000D01*
G01*
X7000780D02*
G03*
X6925780Y-743140I-75000J0D01*
G01*
Y-1243140D02*
G03*
X7000780Y-1168140I0J75000D01*
G01*
X6750780D02*
G03*
X6825780Y-1243140I75000J0D01*
G01*
X13224319Y-1162660D02*
G03*
X13274319Y-1112660I0J50000D01*
G01*
Y-812660D02*
G03*
X13224319Y-762660I-50000J0D01*
G01*
X12724320D02*
G03*
X12674320Y-812660I0J-50000D01*
G01*
Y-1112660D02*
G03*
X12724320Y-1162660I50000J0D01*
G01*
X3168840Y-1972780D02*
G03*
X3243840Y-2047780I75000J0D01*
G01*
Y-1797780D02*
G03*
X3168840Y-1872780I0J-75000D01*
G01*
X3668840D02*
G03*
X3593840Y-1797780I-75000J0D01*
G01*
Y-2047780D02*
G03*
X3668840Y-1972780I0J75000D01*
G01*
X11682260Y-753300D02*
G03*
X11607260Y-828300I0J-75000D01*
G01*
X11857260D02*
G03*
X11782260Y-753300I-75000J0D01*
G01*
Y-1253300D02*
G03*
X11857260Y-1178300I0J75000D01*
G01*
X11607260D02*
G03*
X11682260Y-1253300I75000J0D01*
G01*
X12762420Y-1970240D02*
G03*
X12837421Y-2045240I75000J0D01*
G01*
Y-1795240D02*
G03*
X12762420Y-1870240I0J-75000D01*
G01*
X13262421D02*
G03*
X13187421Y-1795240I-75000J0D01*
G01*
Y-2045240D02*
G03*
X13262421Y-1970240I0J75000D01*
G01*
X4350000Y-3675000D02*
Y-3225000D01*
Y-3675000D02*
X5250000D01*
Y-3225000D01*
X4350000D02*
X5250000D01*
X1345260Y-1635100D02*
Y-1235100D01*
X1545260D01*
Y-1635100D02*
Y-1235100D01*
X1345260Y-1635100D02*
X1545260D01*
X1392720Y-1236320D02*
X1492720D01*
X1392720Y-836320D02*
X1492720D01*
X1342720Y-1186320D02*
Y-886320D01*
X1542720Y-1186320D02*
Y-886320D01*
X3268440Y-1200760D02*
X3518440D01*
X3268440Y-800760D02*
X3518440D01*
X3143440Y-1200760D02*
X3268440D01*
X3093440Y-1150760D02*
Y-850760D01*
X3143440Y-800760D02*
X3268440D01*
X3518440D02*
X3643440D01*
X3693440Y-1150760D02*
Y-850760D01*
X3518440Y-1200760D02*
X3643440D01*
X1345260Y-2039740D02*
Y-1639740D01*
X1545260D01*
Y-2039740D02*
Y-1639740D01*
X1345260Y-2039740D02*
X1545260D01*
X5100000Y-4600000D02*
X5500000D01*
X5100000D02*
Y-4400000D01*
X5500000D01*
Y-4600000D02*
Y-4400000D01*
X4700000Y-4600000D02*
X5100000D01*
X4700000D02*
Y-4400000D01*
X5100000D01*
Y-4600000D02*
Y-4400000D01*
X4350000D02*
X4650000D01*
X4350000Y-4600000D02*
X4650000D01*
X4300000Y-4550000D02*
Y-4450001D01*
X4700000Y-4550000D02*
Y-4450001D01*
X4850000Y-3000000D02*
X5150000D01*
X4850000Y-3200000D02*
X5150000D01*
X4800000Y-3150000D02*
Y-3050001D01*
X5200000Y-3150000D02*
Y-3050001D01*
X4450000Y-3000000D02*
X4750000D01*
X4450000Y-3200000D02*
X4750000D01*
X4400000Y-3150000D02*
Y-3050001D01*
X4800000Y-3150000D02*
Y-3050001D01*
X6150000Y-4375000D02*
X7050000D01*
X6150000D02*
Y-3925000D01*
X7050000D01*
Y-4375000D02*
Y-3925000D01*
X5900000Y-4550000D02*
Y-4450001D01*
X6300000Y-4550000D02*
Y-4450001D01*
X5950000Y-4400000D02*
X6249999D01*
X5950000Y-4600000D02*
X6249999D01*
X6700000Y-4550000D02*
Y-4450001D01*
X7100000Y-4550000D02*
Y-4450001D01*
X6750000Y-4400000D02*
X7050000D01*
X6750000Y-4600000D02*
X7050000D01*
X6300000Y-4550000D02*
Y-4450001D01*
X6700000Y-4550000D02*
Y-4450001D01*
X6350000Y-4400000D02*
X6650000D01*
X6350000Y-4600000D02*
X6650000D01*
X5250000Y-4375000D02*
X6150000D01*
X5250000D02*
Y-3925000D01*
X6150000D01*
Y-4375000D02*
Y-3925000D01*
X5500000Y-4550000D02*
Y-4450001D01*
X5900000Y-4550000D02*
Y-4450001D01*
X5550000Y-4400000D02*
X5849999D01*
X5550000Y-4600000D02*
X5849999D01*
X7450000Y-3150000D02*
Y-3050001D01*
X7850000Y-3150000D02*
Y-3050001D01*
X7500000Y-3000000D02*
X7800000D01*
X7500000Y-3200000D02*
X7800000D01*
X7150000Y-4550000D02*
Y-4450001D01*
X7550000Y-4550000D02*
Y-4450001D01*
X7200000Y-4400000D02*
X7499999D01*
X7200000Y-4600000D02*
X7499999D01*
X7550000Y-4550000D02*
Y-4450001D01*
X7950000Y-4550000D02*
Y-4450001D01*
X7600000Y-4400000D02*
X7900000D01*
X7600000Y-4600000D02*
X7900000D01*
X7050000Y-4375000D02*
X7950000D01*
X7050000D02*
Y-3925000D01*
X7950000D01*
Y-4375000D02*
Y-3925000D01*
Y-3675000D02*
Y-3225000D01*
X7050000D02*
X7950000D01*
X7050000Y-3675000D02*
Y-3225000D01*
Y-3675000D02*
X7950000D01*
X7050000Y-3150000D02*
Y-3050001D01*
X7450000Y-3150000D02*
Y-3050001D01*
X7100000Y-3000000D02*
X7400000D01*
X7100000Y-3200000D02*
X7400000D01*
X5250000Y-3675000D02*
X6150000D01*
X5250000D02*
Y-3225000D01*
X6150000D01*
Y-3675000D02*
Y-3225000D01*
X4350000Y-3925000D02*
X5250000D01*
Y-4375000D02*
Y-3925000D01*
X4350000Y-4375000D02*
X5250000D01*
X4350000D02*
Y-3925000D01*
X6150000Y-3675000D02*
X7050000D01*
X6150000D02*
Y-3225000D01*
X7050000D01*
Y-3675000D02*
Y-3225000D01*
X5250000Y-3150000D02*
Y-3050001D01*
X5650000Y-3150000D02*
Y-3050001D01*
X5300000Y-3000000D02*
X5599999D01*
X5300000Y-3200000D02*
X5599999D01*
X5650000Y-3150000D02*
Y-3050001D01*
X6050000Y-3150000D02*
Y-3050001D01*
X5700000Y-3000000D02*
X6000000D01*
X5700000Y-3200000D02*
X6000000D01*
X6150000Y-3150000D02*
Y-3050001D01*
X6550000Y-3150000D02*
Y-3050001D01*
X6200000Y-3000000D02*
X6500000D01*
X6200000Y-3200000D02*
X6500000D01*
X11100000Y-2100000D02*
Y-1800000D01*
X10900000Y-2100000D02*
Y-1800000D01*
X10950000Y-1750000D02*
X11050000D01*
X10950000Y-2150000D02*
X11050000D01*
X11100000Y-2500000D02*
Y-2200000D01*
X10900000Y-2500000D02*
Y-2200000D01*
X10950000Y-2150000D02*
X11050000D01*
X10950000Y-2550000D02*
X11050000D01*
X6600000Y-3200000D02*
X6900000D01*
X6600000Y-3000000D02*
X6900000D01*
X6950000Y-3150000D02*
Y-3050001D01*
X6550000Y-3150000D02*
Y-3050001D01*
X15799741Y-3252120D02*
Y-2952120D01*
X15599741Y-3252120D02*
Y-2952120D01*
X15649741Y-2902120D02*
X15749741D01*
X15649741Y-3302120D02*
X15749741D01*
X15797200Y-2834780D02*
Y-2534780D01*
X15597200Y-2834780D02*
Y-2534780D01*
X15647200Y-2484780D02*
X15747200D01*
X15647200Y-2884780D02*
X15747200D01*
X15794659Y-2408840D02*
Y-2108840D01*
X15594659Y-2408840D02*
Y-2108840D01*
X15644659Y-2058840D02*
X15744659D01*
X15644659Y-2458840D02*
X15744659D01*
X15799741Y-1988960D02*
Y-1688960D01*
X15599741Y-1988960D02*
Y-1688960D01*
X15649741Y-1638960D02*
X15749741D01*
X15649741Y-2038960D02*
X15749741D01*
X15797200Y-1577480D02*
Y-1277480D01*
X15597200Y-1577480D02*
Y-1277480D01*
X15647200Y-1227480D02*
X15747200D01*
X15647200Y-1627480D02*
X15747200D01*
X15794659Y-1166000D02*
Y-866000D01*
X15594659Y-1166000D02*
Y-866000D01*
X15644659Y-816000D02*
X15744659D01*
X15644659Y-1216000D02*
X15744659D01*
X14616100Y-868820D02*
Y-568820D01*
X14416100Y-868820D02*
Y-568820D01*
X14466100Y-518820D02*
X14566100D01*
X14466100Y-918820D02*
X14566100D01*
X14613560Y-447180D02*
Y-147180D01*
X14413560Y-447180D02*
Y-147180D01*
X14463560Y-97180D02*
X14563560D01*
X14463560Y-497180D02*
X14563560D01*
X11100000Y-1600000D02*
Y-1300000D01*
X10900000Y-1600000D02*
Y-1300000D01*
X10950000Y-1250000D02*
X11050000D01*
X10950000Y-1650000D02*
X11050000D01*
X11100000Y-1200000D02*
Y-900000D01*
X10900000Y-1200000D02*
Y-900000D01*
X10950000Y-850000D02*
X11050000D01*
X10950000Y-1250000D02*
X11050000D01*
X9810420Y-904380D02*
Y-604380D01*
X9610420Y-904380D02*
Y-604380D01*
X9660420Y-554380D02*
X9760420D01*
X9660420Y-954380D02*
X9760420D01*
X9815500Y-447180D02*
Y-147180D01*
X9615500Y-447180D02*
Y-147180D01*
X9665500Y-97180D02*
X9765500D01*
X9665500Y-497180D02*
X9765500D01*
X6264580Y-1610500D02*
Y-1310500D01*
X6064580Y-1610500D02*
Y-1310500D01*
X6114580Y-1260500D02*
X6214580D01*
X6114580Y-1660500D02*
X6214580D01*
X6277280Y-1184560D02*
Y-884560D01*
X6077280Y-1184560D02*
Y-884560D01*
X6127280Y-834560D02*
X6227280D01*
X6127280Y-1234560D02*
X6227280D01*
X5017440Y-873900D02*
Y-573900D01*
X4817440Y-873900D02*
Y-573900D01*
X4867440Y-523900D02*
X4967440D01*
X4867440Y-923900D02*
X4967440D01*
X5017440Y-455580D02*
Y-155580D01*
X4817440Y-455580D02*
Y-155580D01*
X4867440Y-105580D02*
X4967440D01*
X4867440Y-505580D02*
X4967440D01*
X316640Y-861140D02*
Y-561140D01*
X116640Y-861140D02*
Y-561140D01*
X166640Y-511140D02*
X266640D01*
X166640Y-911140D02*
X266640D01*
X319180Y-452200D02*
Y-152200D01*
X119180Y-452200D02*
Y-152200D01*
X169180Y-102200D02*
X269180D01*
X169180Y-502200D02*
X269180D01*
X15125000Y-2600000D02*
Y-1700000D01*
X15575000D01*
Y-2600000D02*
Y-1700000D01*
X15125000Y-2600000D02*
X15575000D01*
X15125000Y-3500000D02*
Y-2600000D01*
X15575000D01*
Y-3500000D02*
Y-2600000D01*
X15125000Y-3500000D02*
X15575000D01*
X796080Y-1692060D02*
Y-792060D01*
X1246080D01*
Y-1692060D02*
Y-792060D01*
X796080Y-1692060D02*
X1246080D01*
X295700Y-950340D02*
Y-50340D01*
X745700D01*
Y-950340D02*
Y-50340D01*
X295700Y-950340D02*
X745700D01*
X4014260Y-960580D02*
X4464260D01*
Y-60580D01*
X4014260D02*
X4464260D01*
X4014260Y-960580D02*
Y-60580D01*
X16457460Y-687260D02*
X16557460D01*
X16457460Y-1187260D02*
X16557460D01*
X16382460Y-1112260D02*
Y-762260D01*
X16632460Y-1112260D02*
Y-762260D01*
X17894341Y-1106780D02*
X18019341D01*
X18069341Y-1056780D02*
Y-756780D01*
X17894341Y-706780D02*
X18019341D01*
X17519341D02*
X17644341D01*
X17469341Y-1056780D02*
Y-756780D01*
X17519341Y-1106780D02*
X17644341D01*
Y-706780D02*
X17894341D01*
X17644341Y-1106780D02*
X17894341D01*
X18499879Y-957960D02*
X18949879D01*
Y-57960D01*
X18499879D02*
X18949879D01*
X18499879Y-957960D02*
Y-57960D01*
X17625000Y-2075000D02*
X17975000D01*
X17625000Y-1825000D02*
X17975000D01*
X17550000Y-2000000D02*
Y-1900000D01*
X18050000Y-2000000D02*
Y-1900000D01*
X15124220Y-1689480D02*
X15574220D01*
Y-789480D01*
X15124220D02*
X15574220D01*
X15124220Y-1689480D02*
Y-789480D01*
X16131000Y-687260D02*
X16381000D01*
X16131000Y-892260D02*
Y-687260D01*
X16381000Y-892260D02*
Y-687260D01*
Y-1187260D02*
Y-982260D01*
X16131000Y-1187260D02*
Y-982260D01*
Y-1187260D02*
X16381000D01*
X16131000Y-982260D02*
Y-892260D01*
X16381000Y-982260D02*
Y-892260D01*
X14618761Y-952880D02*
X15068761D01*
Y-52880D01*
X14618761D02*
X15068761D01*
X14618761Y-952880D02*
Y-52880D01*
X2253520Y-1224020D02*
Y-874020D01*
X2003520Y-1224020D02*
Y-874020D01*
X2078520Y-1299020D02*
X2178520D01*
X2078520Y-799020D02*
X2178520D01*
X8034280Y-1963960D02*
X8384280D01*
X8034280Y-1713960D02*
X8384280D01*
X7959280Y-1888960D02*
Y-1788960D01*
X8459280Y-1888960D02*
Y-1788960D01*
X6486620Y-1035860D02*
Y-945860D01*
X6736620Y-1035860D02*
Y-945860D01*
X6486620Y-740860D02*
X6736620D01*
Y-945860D02*
Y-740860D01*
X6486620Y-945860D02*
Y-740860D01*
Y-1240860D02*
Y-1035860D01*
X6736620Y-1240860D02*
Y-1035860D01*
X6486620Y-1240860D02*
X6736620D01*
X5027720Y-965660D02*
X5477720D01*
Y-65660D01*
X5027720D02*
X5477720D01*
X5027720Y-965660D02*
Y-65660D01*
X8817400Y-965660D02*
X9267400D01*
Y-65660D01*
X8817400D02*
X9267400D01*
X8817400Y-965660D02*
Y-65660D01*
X8301260Y-1188060D02*
X8426260D01*
X8476260Y-1138060D02*
Y-838060D01*
X8301260Y-788060D02*
X8426260D01*
X7926260D02*
X8051260D01*
X7876260Y-1138060D02*
Y-838060D01*
X7926260Y-1188060D02*
X8051260D01*
Y-788060D02*
X8301260D01*
X8051260Y-1188060D02*
X8301260D01*
X6750780Y-1168140D02*
Y-818140D01*
X7000780Y-1168140D02*
Y-818140D01*
X6825780Y-743140D02*
X6925780D01*
X6825780Y-1243140D02*
X6925780D01*
X1752060Y-796480D02*
X2002060D01*
X1752060Y-1001480D02*
Y-796480D01*
X2002060Y-1001480D02*
Y-796480D01*
Y-1296480D02*
Y-1091480D01*
X1752060Y-1296480D02*
Y-1091480D01*
Y-1296480D02*
X2002060D01*
X1752060Y-1091480D02*
Y-1001480D01*
X2002060Y-1091480D02*
Y-1001480D01*
X10398740Y-2631860D02*
X10848740D01*
Y-1731860D01*
X10398740D02*
X10848740D01*
X10398740Y-2631860D02*
Y-1731860D01*
X10402360Y-1699640D02*
X10852360D01*
Y-799640D01*
X10402360D02*
X10852360D01*
X10402360Y-1699640D02*
Y-799640D01*
X13099319Y-1162660D02*
X13224319D01*
X13274319Y-1112660D02*
Y-812660D01*
X13099319Y-762660D02*
X13224319D01*
X12724320D02*
X12849319D01*
X12674320Y-1112660D02*
Y-812660D01*
X12724320Y-1162660D02*
X12849319D01*
Y-762660D02*
X13099319D01*
X12849319Y-1162660D02*
X13099319D01*
X13686580Y-963080D02*
X14136580D01*
Y-63080D01*
X13686580D02*
X14136580D01*
X13686580Y-963080D02*
Y-63080D01*
X3243840Y-2047780D02*
X3593840D01*
X3243840Y-1797780D02*
X3593840D01*
X3168840Y-1972780D02*
Y-1872780D01*
X3668840Y-1972780D02*
Y-1872780D01*
X9820700Y-963080D02*
X10270700D01*
Y-63080D01*
X9820700D02*
X10270700D01*
X9820700Y-963080D02*
Y-63080D01*
X11607260Y-1178300D02*
Y-828300D01*
X11857260Y-1178300D02*
Y-828300D01*
X11682260Y-753300D02*
X11782260D01*
X11682260Y-1253300D02*
X11782260D01*
X11353260Y-1048300D02*
Y-958300D01*
X11603260Y-1048300D02*
Y-958300D01*
X11353260Y-753300D02*
X11603260D01*
Y-958300D02*
Y-753300D01*
X11353260Y-958300D02*
Y-753300D01*
Y-1253300D02*
Y-1048300D01*
X11603260Y-1253300D02*
Y-1048300D01*
X11353260Y-1253300D02*
X11603260D01*
X12837421Y-2045240D02*
X13187421D01*
X12837421Y-1795240D02*
X13187421D01*
X12762420Y-1970240D02*
Y-1870240D01*
X13262421Y-1970240D02*
Y-1870240D01*
X5596680Y-1686940D02*
X6046680D01*
Y-786940D01*
X5596680D02*
X6046680D01*
X5596680Y-1686940D02*
Y-786940D01*
D52*
X15203680Y-183780D02*
X18283681D01*
X15203680D02*
Y-8780D01*
Y-533780D02*
Y-183780D01*
Y-533780D02*
X18283681D01*
Y-8780D01*
X15203680D02*
X18283681D01*
X10398000Y-183780D02*
X13478000D01*
X10398000D02*
Y-8780D01*
Y-533780D02*
Y-183780D01*
Y-533780D02*
X13478000D01*
Y-8780D01*
X10398000D02*
X13478000D01*
X801880Y-183780D02*
X3881880D01*
X801880D02*
Y-8780D01*
Y-533780D02*
Y-183780D01*
Y-533780D02*
X3881880D01*
Y-8780D01*
X801880D02*
X3881880D01*
X5594860D02*
X8674860D01*
Y-533780D02*
Y-8780D01*
X5594860Y-533780D02*
X8674860D01*
X5594860D02*
Y-183780D01*
Y-8780D01*
Y-183780D02*
X8674860D01*
%TF.MD5,ab5b77850c4a880e11cb51985befe0a0*%
M02*
