%TF.GenerationSoftware,Altium Limited,Altium Designer,21.6.4 (81)*%
G04 Layer_Color=32896*
%FSLAX45Y45*%
%MOMM*%
%TF.SameCoordinates,E19561C2-E2DB-472D-B720-4EF24A879867*%
%TF.FilePolarity,Positive*%
%TF.FileFunction,Legend,Bot*%
%TF.Part,Single*%
G01*
G75*
%TA.AperFunction,NonConductor*%
%ADD33C,0.25400*%
%ADD34C,0.20000*%
%ADD35C,0.10000*%
G36*
X200000Y-2481000D02*
X123000Y-2404000D01*
Y-2481000D01*
X200000D01*
D02*
G37*
G36*
X3200000Y-1756000D02*
X3123000Y-1679000D01*
Y-1756000D01*
X3200000D01*
D02*
G37*
G36*
X3525000Y-1756000D02*
X3448000Y-1679000D01*
Y-1756000D01*
X3525000D01*
D02*
G37*
G36*
X4400000Y-2481000D02*
X4323000Y-2404000D01*
Y-2481000D01*
X4400000D01*
D02*
G37*
G36*
X5000000D02*
X4923000Y-2404000D01*
Y-2481000D01*
X5000000D01*
D02*
G37*
G36*
X8000000Y-1756000D02*
X7923000Y-1678999D01*
Y-1756000D01*
X8000000D01*
D02*
G37*
G36*
X8325000D02*
X8248000Y-1678999D01*
Y-1756000D01*
X8325000D01*
D02*
G37*
G36*
X9200000Y-2481000D02*
X9123000Y-2404000D01*
Y-2481000D01*
X9200000D01*
D02*
G37*
G36*
X9800000D02*
X9723000Y-2404000D01*
Y-2481000D01*
X9800000D01*
D02*
G37*
G36*
X12800000Y-1756000D02*
X12723000Y-1678999D01*
Y-1756000D01*
X12800000D01*
D02*
G37*
G36*
X13125000D02*
X13048000Y-1678999D01*
Y-1756000D01*
X13125000D01*
D02*
G37*
G36*
X14000000Y-2481000D02*
X13923000Y-2404000D01*
Y-2481000D01*
X14000000D01*
D02*
G37*
G36*
X14600000Y-2481000D02*
X14523000Y-2404000D01*
Y-2481000D01*
X14600000D01*
D02*
G37*
G36*
X17600000Y-1756000D02*
X17523000Y-1679000D01*
Y-1756000D01*
X17600000D01*
D02*
G37*
G36*
X17925000D02*
X17848000Y-1679000D01*
Y-1756000D01*
X17925000D01*
D02*
G37*
G36*
X18800000Y-2481000D02*
X18723000Y-2404000D01*
Y-2481000D01*
X18800000D01*
D02*
G37*
D33*
X700000Y-4950000D02*
G03*
X700000Y-4950000I-350000J0D01*
G01*
X700000Y-1325000D02*
G03*
X700000Y-1325000I-350000J0D01*
G01*
X4700000Y-4950000D02*
G03*
X4700000Y-4950000I-350000J0D01*
G01*
X4700000Y-1325000D02*
G03*
X4700000Y-1325000I-350000J0D01*
G01*
X5500000Y-4950000D02*
G03*
X5500000Y-4950000I-350000J0D01*
G01*
Y-1325000D02*
G03*
X5500000Y-1325000I-350000J0D01*
G01*
X9500000Y-4950000D02*
G03*
X9500000Y-4950000I-350000J0D01*
G01*
Y-1325000D02*
G03*
X9500000Y-1325000I-350000J0D01*
G01*
X10300000Y-4950000D02*
G03*
X10300000Y-4950000I-350000J0D01*
G01*
Y-1325000D02*
G03*
X10300000Y-1325000I-350000J0D01*
G01*
X14300000Y-4950000D02*
G03*
X14300000Y-4950000I-350000J0D01*
G01*
Y-1325000D02*
G03*
X14300000Y-1325000I-350000J0D01*
G01*
X15100000Y-4950000D02*
G03*
X15100000Y-4950000I-350000J0D01*
G01*
Y-1325000D02*
G03*
X15100000Y-1325000I-350000J0D01*
G01*
X19100000Y-4950000D02*
G03*
X19100000Y-4950000I-350000J0D01*
G01*
X19100000Y-1325000D02*
G03*
X19100000Y-1325000I-350000J0D01*
G01*
X14523000Y-2481000D02*
X14777000D01*
X14523000D02*
Y-1973002D01*
X14777000Y-2481000D02*
Y-1973002D01*
X14525000Y-2227000D02*
X14775000D01*
X14525000Y-1973000D02*
X14775000D01*
X17523000Y-1756000D02*
X17777000D01*
X17523000D02*
Y-1248001D01*
X17777000Y-1756000D02*
Y-1248001D01*
X17525000Y-1502000D02*
X17775000D01*
X17525000Y-1248000D02*
X17775000D01*
X17848000Y-1756000D02*
X18102000D01*
X17848000D02*
Y-1248001D01*
X18102000Y-1756000D02*
Y-1248001D01*
X17850000Y-1502000D02*
X18100000D01*
X17850000Y-1248000D02*
X18100000D01*
X18723000Y-2481000D02*
X18977000D01*
X18723000D02*
Y-1973002D01*
X18977000Y-2481000D02*
Y-1973002D01*
X18725000Y-2227000D02*
X18975000D01*
X18725000Y-1973000D02*
X18975000D01*
X9723000Y-2481000D02*
X9977000D01*
X9723000D02*
Y-1973001D01*
X9977000Y-2481000D02*
Y-1973001D01*
X9725000Y-2227000D02*
X9975000D01*
X9725000Y-1973000D02*
X9975000D01*
X12723000Y-1756000D02*
X12977000D01*
X12723000D02*
Y-1248001D01*
X12977000Y-1756000D02*
Y-1248001D01*
X12725000Y-1502000D02*
X12975000D01*
X12725000Y-1248000D02*
X12975000D01*
X13048000Y-1756000D02*
X13302000D01*
X13048000D02*
Y-1248001D01*
X13302000Y-1756000D02*
Y-1248001D01*
X13050000Y-1502000D02*
X13300000D01*
X13050000Y-1248000D02*
X13300000D01*
X13923000Y-2481000D02*
X14177000D01*
X13923000D02*
Y-1973001D01*
X14177000Y-2481000D02*
Y-1973001D01*
X13925000Y-2227000D02*
X14175000D01*
X13925000Y-1973000D02*
X14175000D01*
X4923000Y-2481000D02*
X5177000D01*
X4923000D02*
Y-1973001D01*
X5177000Y-2481000D02*
Y-1973001D01*
X4925000Y-2227000D02*
X5175000D01*
X4925000Y-1973000D02*
X5175000D01*
X7923000Y-1756000D02*
X8177000D01*
X7923000D02*
Y-1248001D01*
X8177000Y-1756000D02*
Y-1248001D01*
X7925000Y-1502000D02*
X8175000D01*
X7925000Y-1248000D02*
X8175000D01*
X8248000Y-1756000D02*
X8502000D01*
X8248000D02*
Y-1248001D01*
X8502000Y-1756000D02*
Y-1248001D01*
X8250000Y-1502000D02*
X8500000D01*
X8250000Y-1248000D02*
X8500000D01*
X9123000Y-2481000D02*
X9377000D01*
X9123000D02*
Y-1973001D01*
X9377000Y-2481000D02*
Y-1973001D01*
X9125000Y-2227000D02*
X9375000D01*
X9125000Y-1973000D02*
X9375000D01*
X3123000Y-1756000D02*
X3377000D01*
X3123000D02*
Y-1248001D01*
X3377000Y-1756000D02*
Y-1248001D01*
X3125000Y-1502000D02*
X3375000D01*
X3125000Y-1248000D02*
X3375000D01*
X3448000Y-1756000D02*
X3702000D01*
X3448000D02*
Y-1248002D01*
X3702000Y-1756000D02*
Y-1248002D01*
X3450000Y-1502000D02*
X3700000D01*
X3450000Y-1248000D02*
X3700000D01*
X4323000Y-2481000D02*
X4577000D01*
X4323000D02*
Y-1973001D01*
X4577000Y-2481000D02*
Y-1973001D01*
X4325000Y-2227000D02*
X4575000D01*
X4325000Y-1973000D02*
X4575000D01*
X123000Y-2481000D02*
X377000D01*
X123000D02*
Y-1973001D01*
X377000Y-2481000D02*
Y-1973001D01*
X125000Y-2227000D02*
X375000D01*
X125000Y-1973000D02*
X375000D01*
D34*
X4700000Y-22860D02*
X4700000Y-3475000D01*
X14400000Y-75000D02*
X14400000Y-5250000D01*
X14300000Y-75000D02*
X14300000Y-5250000D01*
X9600000Y-75000D02*
X9600000Y-5250000D01*
X9500000Y-75000D02*
X9500000Y-5250000D01*
X4800000Y-22860D02*
X4800001Y-5280660D01*
D35*
X5149968Y-2564012D02*
X5096652Y-2643987D01*
Y-2564012D02*
X5149968Y-2643987D01*
X5069994D02*
X5043336D01*
X5056665D01*
Y-2564012D01*
X5069994Y-2577341D01*
X4950032Y-2643987D02*
X5003348D01*
X4950032Y-2590670D01*
Y-2577341D01*
X4963361Y-2564012D01*
X4990019D01*
X5003348Y-2577341D01*
X8111639Y-1835013D02*
X8058322Y-1914987D01*
Y-1835013D02*
X8111639Y-1914987D01*
X8031664D02*
X8005006D01*
X8018335D01*
Y-1835013D01*
X8031664Y-1848342D01*
X7965019Y-1914987D02*
X7938361D01*
X7951690D01*
Y-1835013D01*
X7965019Y-1848342D01*
X8474968Y-1835013D02*
X8421652Y-1914987D01*
Y-1835013D02*
X8474968Y-1914987D01*
X8394994D02*
X8368336D01*
X8381664D01*
Y-1835013D01*
X8394994Y-1848342D01*
X8328348D02*
X8315019Y-1835013D01*
X8288361D01*
X8275032Y-1848342D01*
Y-1901658D01*
X8288361Y-1914987D01*
X8315019D01*
X8328348Y-1901658D01*
Y-1848342D01*
X9316645Y-2560013D02*
X9263329Y-2639987D01*
Y-2560013D02*
X9316645Y-2639987D01*
X9236671Y-2626658D02*
X9223342Y-2639987D01*
X9196684D01*
X9183355Y-2626658D01*
Y-2573342D01*
X9196684Y-2560013D01*
X9223342D01*
X9236671Y-2573342D01*
Y-2586671D01*
X9223342Y-2600000D01*
X9183355D01*
X316645Y-2560013D02*
X263329Y-2639987D01*
Y-2560013D02*
X316645Y-2639987D01*
X236671Y-2573342D02*
X223342Y-2560013D01*
X196684D01*
X183355Y-2573342D01*
Y-2586671D01*
X196684Y-2600000D01*
X183355Y-2613329D01*
Y-2626658D01*
X196684Y-2639987D01*
X223342D01*
X236671Y-2626658D01*
Y-2613329D01*
X223342Y-2600000D01*
X236671Y-2586671D01*
Y-2573342D01*
X223342Y-2600000D02*
X196684D01*
X3316645Y-1835013D02*
X3263329Y-1914987D01*
Y-1835013D02*
X3316645Y-1914987D01*
X3236671Y-1835013D02*
X3183355D01*
Y-1848341D01*
X3236671Y-1901658D01*
Y-1914987D01*
X3641645Y-1835013D02*
X3588329Y-1914987D01*
Y-1835013D02*
X3641645Y-1914987D01*
X3508355Y-1835013D02*
X3535013Y-1848342D01*
X3561671Y-1875000D01*
Y-1901658D01*
X3548342Y-1914987D01*
X3521684D01*
X3508355Y-1901658D01*
Y-1888329D01*
X3521684Y-1875000D01*
X3561671D01*
X4516645Y-2560013D02*
X4463329Y-2639987D01*
Y-2560013D02*
X4516645Y-2639987D01*
X4383355Y-2560013D02*
X4436671D01*
Y-2600000D01*
X4410013Y-2586671D01*
X4396684D01*
X4383355Y-2600000D01*
Y-2626658D01*
X4396684Y-2639987D01*
X4423342D01*
X4436671Y-2626658D01*
X9949968Y-2560013D02*
X9896652Y-2639987D01*
Y-2560013D02*
X9949968Y-2639987D01*
X9869994D02*
X9843336D01*
X9856665D01*
Y-2560013D01*
X9869994Y-2573342D01*
X9750032Y-2560013D02*
X9776690Y-2573342D01*
X9803348Y-2600000D01*
Y-2626658D01*
X9790019Y-2639987D01*
X9763361D01*
X9750032Y-2626658D01*
Y-2613329D01*
X9763361Y-2600000D01*
X9803348D01*
X12949968Y-1860013D02*
X12896652Y-1939987D01*
Y-1860013D02*
X12949968Y-1939987D01*
X12869994D02*
X12843336D01*
X12856664D01*
Y-1860013D01*
X12869994Y-1873342D01*
X12750032Y-1860013D02*
X12803348D01*
Y-1900000D01*
X12776690Y-1886671D01*
X12763361D01*
X12750032Y-1900000D01*
Y-1926658D01*
X12763361Y-1939987D01*
X12790019D01*
X12803348Y-1926658D01*
X13274968Y-1835013D02*
X13221652Y-1914987D01*
Y-1835013D02*
X13274968Y-1914987D01*
X13194994D02*
X13168336D01*
X13181665D01*
Y-1835013D01*
X13194994Y-1848342D01*
X13088361Y-1914987D02*
Y-1835013D01*
X13128348Y-1875000D01*
X13075032D01*
X14149968Y-2560013D02*
X14096652Y-2639987D01*
Y-2560013D02*
X14149968Y-2639987D01*
X14069994D02*
X14043336D01*
X14056665D01*
Y-2560013D01*
X14069994Y-2573342D01*
X14003348D02*
X13990019Y-2560013D01*
X13963361D01*
X13950032Y-2573342D01*
Y-2586671D01*
X13963361Y-2600000D01*
X13976691D01*
X13963361D01*
X13950032Y-2613329D01*
Y-2626658D01*
X13963361Y-2639987D01*
X13990019D01*
X14003348Y-2626658D01*
X14756631Y-2564013D02*
X14703316Y-2643987D01*
Y-2564013D02*
X14756631Y-2643987D01*
X14623341D02*
X14676659D01*
X14623341Y-2590671D01*
Y-2577342D01*
X14636671Y-2564013D01*
X14663329D01*
X14676659Y-2577342D01*
X14596684D02*
X14583356Y-2564013D01*
X14556697D01*
X14543369Y-2577342D01*
Y-2630658D01*
X14556697Y-2643987D01*
X14583356D01*
X14596684Y-2630658D01*
Y-2577342D01*
X17724968Y-1835013D02*
X17671652Y-1914987D01*
Y-1835013D02*
X17724968Y-1914987D01*
X17644994D02*
X17618336D01*
X17631665D01*
Y-1835013D01*
X17644994Y-1848341D01*
X17578348Y-1901658D02*
X17565019Y-1914987D01*
X17538361D01*
X17525032Y-1901658D01*
Y-1848341D01*
X17538361Y-1835013D01*
X17565019D01*
X17578348Y-1848341D01*
Y-1861671D01*
X17565019Y-1875000D01*
X17525032D01*
X18074968Y-1835013D02*
X18021652Y-1914987D01*
Y-1835013D02*
X18074968Y-1914987D01*
X17994994D02*
X17968336D01*
X17981665D01*
Y-1835013D01*
X17994994Y-1848341D01*
X17928348D02*
X17915019Y-1835013D01*
X17888361D01*
X17875032Y-1848341D01*
Y-1861671D01*
X17888361Y-1875000D01*
X17875032Y-1888329D01*
Y-1901658D01*
X17888361Y-1914987D01*
X17915019D01*
X17928348Y-1901658D01*
Y-1888329D01*
X17915019Y-1875000D01*
X17928348Y-1861671D01*
Y-1848341D01*
X17915019Y-1875000D02*
X17888361D01*
X18949968Y-2560013D02*
X18896652Y-2639987D01*
Y-2560013D02*
X18949968Y-2639987D01*
X18869994D02*
X18843336D01*
X18856665D01*
Y-2560013D01*
X18869994Y-2573342D01*
X18803348Y-2560013D02*
X18750032D01*
Y-2573342D01*
X18803348Y-2626658D01*
Y-2639987D01*
%TF.MD5,c4f7ba4d89754a748417ce248caf9d78*%
M02*
