%TF.GenerationSoftware,Altium Limited,Altium Designer,21.6.4 (81)*%
G04 Layer_Color=417716*
%FSLAX45Y45*%
%MOMM*%
%TF.SameCoordinates,FE6AB8E2-ACEA-43B4-A2BC-98750A1A22B8*%
%TF.FilePolarity,Positive*%
%TF.FileFunction,Drawing*%
%TF.Part,Single*%
G01*
G75*
%TA.AperFunction,NonConductor*%
%ADD63C,0.12700*%
%ADD64C,0.16933*%
%ADD65C,0.10160*%
D63*
X18089880Y-449580D02*
Y-347980D01*
X18191479D01*
Y-449580D01*
X18089880D01*
X17581880D02*
Y-347980D01*
X17683479D01*
Y-449580D01*
X17581880D01*
X17073880D02*
Y-347980D01*
X17175481D01*
Y-449580D01*
X17073880D01*
X16819881D02*
Y-347980D01*
X16921480D01*
Y-449580D01*
X16819881D01*
X16565880D02*
Y-347980D01*
X16667480D01*
Y-449580D01*
X16565880D01*
X16057880D02*
Y-347980D01*
X16159480D01*
Y-449580D01*
X16057880D01*
X15549879D02*
Y-347980D01*
X15651480D01*
Y-449580D01*
X15549879D01*
X15295880D02*
Y-347980D01*
X15397479D01*
Y-449580D01*
X15295880D01*
X13284200D02*
Y-347980D01*
X13385800D01*
Y-449580D01*
X13284200D01*
X12776200D02*
Y-347980D01*
X12877800D01*
Y-449580D01*
X12776200D01*
X12268200D02*
Y-347980D01*
X12369800D01*
Y-449580D01*
X12268200D01*
X12014200D02*
Y-347980D01*
X12115800D01*
Y-449580D01*
X12014200D01*
X11760200D02*
Y-347980D01*
X11861800D01*
Y-449580D01*
X11760200D01*
X11252200D02*
Y-347980D01*
X11353800D01*
Y-449580D01*
X11252200D01*
X10744200D02*
Y-347980D01*
X10845800D01*
Y-449580D01*
X10744200D01*
X10490200D02*
Y-347980D01*
X10591800D01*
Y-449580D01*
X10490200D01*
X3688080D02*
Y-347980D01*
X3789680D01*
Y-449580D01*
X3688080D01*
X3180080D02*
Y-347980D01*
X3281680D01*
Y-449580D01*
X3180080D01*
X2672080D02*
Y-347980D01*
X2773680D01*
Y-449580D01*
X2672080D01*
X2418080D02*
Y-347980D01*
X2519680D01*
Y-449580D01*
X2418080D01*
X2164080D02*
Y-347980D01*
X2265680D01*
Y-449580D01*
X2164080D01*
X1656080D02*
Y-347980D01*
X1757680D01*
Y-449580D01*
X1656080D01*
X1148080D02*
Y-347980D01*
X1249680D01*
Y-449580D01*
X1148080D01*
X894080D02*
Y-347980D01*
X995680D01*
Y-449580D01*
X894080D01*
X5687060D02*
Y-347980D01*
X5788660D01*
Y-449580D01*
X5687060D01*
X5941060D02*
Y-347980D01*
X6042660D01*
Y-449580D01*
X5941060D01*
X6449060D02*
Y-347980D01*
X6550660D01*
Y-449580D01*
X6449060D01*
X6957060D02*
Y-347980D01*
X7058660D01*
Y-449580D01*
X6957060D01*
X7211060D02*
Y-347980D01*
X7312660D01*
Y-449580D01*
X7211060D01*
X7465060D02*
Y-347980D01*
X7566660D01*
Y-449580D01*
X7465060D01*
X7973060D02*
Y-347980D01*
X8074660D01*
Y-449580D01*
X7973060D01*
X8481060D02*
Y-347980D01*
X8582660D01*
Y-449580D01*
X8481060D01*
X13250000Y-2650800D02*
X13199200Y-2549200D01*
X13300800D01*
X13250000Y-2650800D01*
X12750000D02*
X12699200Y-2549200D01*
X12800800D01*
X12750000Y-2650800D01*
X4102100Y-3954780D02*
X4127500Y-3929380D01*
X4152900D01*
X4127500Y-3903980D01*
X4152900Y-3878580D01*
X4127500D01*
X4102100Y-3853180D01*
X4076700Y-3878580D01*
X4051300D01*
X4076700Y-3903980D01*
X4051300Y-3929380D01*
X4076700D01*
X4102100Y-3954780D01*
X3848100D02*
X3873500Y-3929380D01*
X3898900D01*
X3873500Y-3903980D01*
X3898900Y-3878580D01*
X3873500D01*
X3848100Y-3853180D01*
X3822700Y-3878580D01*
X3797300D01*
X3822700Y-3903980D01*
X3797300Y-3929380D01*
X3822700D01*
X3848100Y-3954780D01*
X3594100D02*
X3619500Y-3929380D01*
X3644900D01*
X3619500Y-3903980D01*
X3644900Y-3878580D01*
X3619500D01*
X3594100Y-3853180D01*
X3568700Y-3878580D01*
X3543300D01*
X3568700Y-3903980D01*
X3543300Y-3929380D01*
X3568700D01*
X3594100Y-3954780D01*
X3340100D02*
X3365500Y-3929380D01*
X3390900D01*
X3365500Y-3903980D01*
X3390900Y-3878580D01*
X3365500D01*
X3340100Y-3853180D01*
X3314700Y-3878580D01*
X3289300D01*
X3314700Y-3903980D01*
X3289300Y-3929380D01*
X3314700D01*
X3340100Y-3954780D01*
X3086100D02*
X3111500Y-3929380D01*
X3136900D01*
X3111500Y-3903980D01*
X3136900Y-3878580D01*
X3111500D01*
X3086100Y-3853180D01*
X3060700Y-3878580D01*
X3035300D01*
X3060700Y-3903980D01*
X3035300Y-3929380D01*
X3060700D01*
X3086100Y-3954780D01*
X2832100D02*
X2857500Y-3929380D01*
X2882900D01*
X2857500Y-3903980D01*
X2882900Y-3878580D01*
X2857500D01*
X2832100Y-3853180D01*
X2806700Y-3878580D01*
X2781300D01*
X2806700Y-3903980D01*
X2781300Y-3929380D01*
X2806700D01*
X2832100Y-3954780D01*
X908200Y-4600800D02*
X933600Y-4550000D01*
X908200Y-4499200D01*
X959000Y-4524600D01*
X1009800Y-4499200D01*
X984400Y-4550000D01*
X1009800Y-4600800D01*
X959000Y-4575400D01*
X908200Y-4600800D01*
X1467000Y-4092800D02*
X1416200Y-3991200D01*
X1517800D01*
X1467000Y-4092800D01*
X1721000D02*
X1670200Y-3991200D01*
X1771800D01*
X1721000Y-4092800D01*
X1924200Y-4600800D02*
X1949600Y-4550000D01*
X1924200Y-4499200D01*
X1975000Y-4524600D01*
X2025800Y-4499200D01*
X2000400Y-4550000D01*
X2025800Y-4600800D01*
X1975000Y-4575400D01*
X1924200Y-4600800D01*
X18050000Y-2650800D02*
X17999200Y-2549200D01*
X18100800D01*
X18050000Y-2650800D01*
X17550000D02*
X17499200Y-2549200D01*
X17600800D01*
X17550000Y-2650800D01*
X8438960Y-2527300D02*
X8388160Y-2425700D01*
X8489760D01*
X8438960Y-2527300D01*
X7938960D02*
X7888160Y-2425700D01*
X7989760D01*
X7938960Y-2527300D01*
X3650000Y-2650800D02*
X3599200Y-2549200D01*
X3700800D01*
X3650000Y-2650800D01*
X3150000D02*
X3099200Y-2549200D01*
X3200800D01*
X3150000Y-2650800D01*
X14599200Y-2404800D02*
Y-2303200D01*
X14700800D01*
Y-2404800D01*
X14599200D01*
Y-2150800D02*
Y-2049200D01*
X14700800D01*
Y-2150800D01*
X14599200D01*
X17599200Y-1679800D02*
Y-1578200D01*
X17700800D01*
Y-1679800D01*
X17599200D01*
Y-1425800D02*
Y-1324200D01*
X17700800D01*
Y-1425800D01*
X17599200D01*
X17924200Y-1679800D02*
Y-1578200D01*
X18025800D01*
Y-1679800D01*
X17924200D01*
Y-1425800D02*
Y-1324200D01*
X18025800D01*
Y-1425800D01*
X17924200D01*
X18799200Y-2404800D02*
Y-2303200D01*
X18900800D01*
Y-2404800D01*
X18799200D01*
Y-2150800D02*
Y-2049200D01*
X18900800D01*
Y-2150800D01*
X18799200D01*
X9799200Y-2404800D02*
Y-2303200D01*
X9900800D01*
Y-2404800D01*
X9799200D01*
Y-2150800D02*
Y-2049200D01*
X9900800D01*
Y-2150800D01*
X9799200D01*
X12799200Y-1679800D02*
Y-1578200D01*
X12900800D01*
Y-1679800D01*
X12799200D01*
Y-1425800D02*
Y-1324200D01*
X12900800D01*
Y-1425800D01*
X12799200D01*
X13124200Y-1679800D02*
Y-1578200D01*
X13225800D01*
Y-1679800D01*
X13124200D01*
Y-1425800D02*
Y-1324200D01*
X13225800D01*
Y-1425800D01*
X13124200D01*
X13999200Y-2404800D02*
Y-2303200D01*
X14100800D01*
Y-2404800D01*
X13999200D01*
Y-2150800D02*
Y-2049200D01*
X14100800D01*
Y-2150800D01*
X13999200D01*
X4999200Y-2404800D02*
Y-2303200D01*
X5100800D01*
Y-2404800D01*
X4999200D01*
Y-2150800D02*
Y-2049200D01*
X5100800D01*
Y-2150800D01*
X4999200D01*
X7999200Y-1679800D02*
Y-1578200D01*
X8100800D01*
Y-1679800D01*
X7999200D01*
Y-1425800D02*
Y-1324200D01*
X8100800D01*
Y-1425800D01*
X7999200D01*
X8324200Y-1679800D02*
Y-1578200D01*
X8425800D01*
Y-1679800D01*
X8324200D01*
Y-1425800D02*
Y-1324200D01*
X8425800D01*
Y-1425800D01*
X8324200D01*
X9199200Y-2404800D02*
Y-2303200D01*
X9300800D01*
Y-2404800D01*
X9199200D01*
Y-2150800D02*
Y-2049200D01*
X9300800D01*
Y-2150800D01*
X9199200D01*
X3199200Y-1679800D02*
Y-1578200D01*
X3300800D01*
Y-1679800D01*
X3199200D01*
Y-1425800D02*
Y-1324200D01*
X3300800D01*
Y-1425800D01*
X3199200D01*
X3524200Y-1679800D02*
Y-1578200D01*
X3625800D01*
Y-1679800D01*
X3524200D01*
Y-1425800D02*
Y-1324200D01*
X3625800D01*
Y-1425800D01*
X3524200D01*
X4399200Y-2404800D02*
Y-2303200D01*
X4500800D01*
Y-2404800D01*
X4399200D01*
Y-2150800D02*
Y-2049200D01*
X4500800D01*
Y-2150800D01*
X4399200D01*
X199200Y-2404800D02*
Y-2303200D01*
X300800D01*
Y-2404800D01*
X199200D01*
Y-2150800D02*
Y-2049200D01*
X300800D01*
Y-2150800D01*
X199200D01*
X17774600Y-4325400D02*
Y-4350800D01*
X17825400D01*
Y-4325400D01*
X17850800D01*
Y-4274600D01*
X17825400D01*
Y-4249200D01*
X17774600D01*
Y-4274600D01*
X17749200D01*
Y-4325400D01*
X17774600D01*
X15774600D02*
Y-4350800D01*
X15825400D01*
Y-4325400D01*
X15850800D01*
Y-4274600D01*
X15825400D01*
Y-4249200D01*
X15774600D01*
Y-4274600D01*
X15749200D01*
Y-4325400D01*
X15774600D01*
X18699200Y-1375800D02*
X18724600D01*
X18750000Y-1350400D01*
X18775400Y-1375800D01*
X18800800D01*
Y-1350400D01*
X18775400Y-1325000D01*
X18800800Y-1299600D01*
Y-1274200D01*
X18775400D01*
X18750000Y-1299600D01*
X18724600Y-1274200D01*
X18699200D01*
Y-1299600D01*
X18724600Y-1325000D01*
X18699200Y-1350400D01*
Y-1375800D01*
X14699200D02*
X14724600D01*
X14750000Y-1350400D01*
X14775400Y-1375800D01*
X14800800D01*
Y-1350400D01*
X14775400Y-1325000D01*
X14800800Y-1299600D01*
Y-1274200D01*
X14775400D01*
X14750000Y-1299600D01*
X14724600Y-1274200D01*
X14699200D01*
Y-1299600D01*
X14724600Y-1325000D01*
X14699200Y-1350400D01*
Y-1375800D01*
X13899200Y-1375800D02*
X13924600D01*
X13950000Y-1350400D01*
X13975400Y-1375800D01*
X14000800D01*
Y-1350400D01*
X13975400Y-1325000D01*
X14000800Y-1299600D01*
Y-1274200D01*
X13975400D01*
X13950000Y-1299600D01*
X13924600Y-1274200D01*
X13899200D01*
Y-1299600D01*
X13924600Y-1325000D01*
X13899200Y-1350400D01*
Y-1375800D01*
X9899200D02*
X9924600D01*
X9950000Y-1350400D01*
X9975400Y-1375800D01*
X10000800D01*
Y-1350400D01*
X9975400Y-1325000D01*
X10000800Y-1299600D01*
Y-1274200D01*
X9975400D01*
X9950000Y-1299600D01*
X9924600Y-1274200D01*
X9899200D01*
Y-1299600D01*
X9924600Y-1325000D01*
X9899200Y-1350400D01*
Y-1375800D01*
X9099200D02*
X9124600D01*
X9150000Y-1350400D01*
X9175400Y-1375800D01*
X9200800D01*
Y-1350400D01*
X9175400Y-1325000D01*
X9200800Y-1299600D01*
Y-1274200D01*
X9175400D01*
X9150000Y-1299600D01*
X9124600Y-1274200D01*
X9099200D01*
Y-1299600D01*
X9124600Y-1325000D01*
X9099200Y-1350400D01*
Y-1375800D01*
X5099200D02*
X5124600D01*
X5150000Y-1350400D01*
X5175400Y-1375800D01*
X5200800D01*
Y-1350400D01*
X5175400Y-1325000D01*
X5200800Y-1299600D01*
Y-1274200D01*
X5175400D01*
X5150000Y-1299600D01*
X5124600Y-1274200D01*
X5099200D01*
Y-1299600D01*
X5124600Y-1325000D01*
X5099200Y-1350400D01*
Y-1375800D01*
X4299200Y-1375800D02*
X4324600D01*
X4350000Y-1350400D01*
X4375400Y-1375800D01*
X4400800D01*
Y-1350400D01*
X4375400Y-1325000D01*
X4400800Y-1299600D01*
Y-1274200D01*
X4375400D01*
X4350000Y-1299600D01*
X4324600Y-1274200D01*
X4299200D01*
Y-1299600D01*
X4324600Y-1325000D01*
X4299200Y-1350400D01*
Y-1375800D01*
X18699200Y-5000800D02*
X18724600D01*
X18750000Y-4975400D01*
X18775400Y-5000800D01*
X18800800D01*
Y-4975400D01*
X18775400Y-4950000D01*
X18800800Y-4924600D01*
Y-4899200D01*
X18775400D01*
X18750000Y-4924600D01*
X18724600Y-4899200D01*
X18699200D01*
Y-4924600D01*
X18724600Y-4950000D01*
X18699200Y-4975400D01*
Y-5000800D01*
X4299200D02*
X4324600D01*
X4350000Y-4975400D01*
X4375400Y-5000800D01*
X4400800D01*
Y-4975400D01*
X4375400Y-4950000D01*
X4400800Y-4924600D01*
Y-4899200D01*
X4375400D01*
X4350000Y-4924600D01*
X4324600Y-4899200D01*
X4299200D01*
Y-4924600D01*
X4324600Y-4950000D01*
X4299200Y-4975400D01*
Y-5000800D01*
X14699200Y-5000800D02*
X14724600D01*
X14750000Y-4975400D01*
X14775400Y-5000800D01*
X14800800D01*
Y-4975400D01*
X14775400Y-4950000D01*
X14800800Y-4924600D01*
Y-4899200D01*
X14775400D01*
X14750000Y-4924600D01*
X14724600Y-4899200D01*
X14699200D01*
Y-4924600D01*
X14724600Y-4950000D01*
X14699200Y-4975400D01*
Y-5000800D01*
X5099200Y-5000800D02*
X5124600D01*
X5150000Y-4975400D01*
X5175400Y-5000800D01*
X5200800D01*
Y-4975400D01*
X5175400Y-4950000D01*
X5200800Y-4924600D01*
Y-4899200D01*
X5175400D01*
X5150000Y-4924600D01*
X5124600Y-4899200D01*
X5099200D01*
Y-4924600D01*
X5124600Y-4950000D01*
X5099200Y-4975400D01*
Y-5000800D01*
X9099200D02*
X9124600D01*
X9150000Y-4975400D01*
X9175400Y-5000800D01*
X9200800D01*
Y-4975400D01*
X9175400Y-4950000D01*
X9200800Y-4924600D01*
Y-4899200D01*
X9175400D01*
X9150000Y-4924600D01*
X9124600Y-4899200D01*
X9099200D01*
Y-4924600D01*
X9124600Y-4950000D01*
X9099200Y-4975400D01*
Y-5000800D01*
X299200D02*
X324600D01*
X350000Y-4975400D01*
X375400Y-5000800D01*
X400800D01*
Y-4975400D01*
X375400Y-4950000D01*
X400800Y-4924600D01*
Y-4899200D01*
X375400D01*
X350000Y-4924600D01*
X324600Y-4899200D01*
X299200D01*
Y-4924600D01*
X324600Y-4950000D01*
X299200Y-4975400D01*
Y-5000800D01*
X13899200D02*
X13924600D01*
X13950000Y-4975400D01*
X13975400Y-5000800D01*
X14000800D01*
Y-4975400D01*
X13975400Y-4950000D01*
X14000800Y-4924600D01*
Y-4899200D01*
X13975400D01*
X13950000Y-4924600D01*
X13924600Y-4899200D01*
X13899200D01*
Y-4924600D01*
X13924600Y-4950000D01*
X13899200Y-4975400D01*
Y-5000800D01*
X9899200D02*
X9924600D01*
X9950000Y-4975400D01*
X9975400Y-5000800D01*
X10000800D01*
Y-4975400D01*
X9975400Y-4950000D01*
X10000800Y-4924600D01*
Y-4899200D01*
X9975400D01*
X9950000Y-4924600D01*
X9924600Y-4899200D01*
X9899200D01*
Y-4924600D01*
X9924600Y-4950000D01*
X9899200Y-4975400D01*
Y-5000800D01*
X2546730Y-4814570D02*
X2597530Y-4763770D01*
X2648330Y-4814570D01*
X2597530Y-4865370D01*
X2546730Y-4814570D01*
X3046730D02*
X3097530Y-4763770D01*
X3148330Y-4814570D01*
X3097530Y-4865370D01*
X3046730Y-4814570D01*
X3546730D02*
X3597530Y-4763770D01*
X3648330Y-4814570D01*
X3597530Y-4865370D01*
X3546730Y-4814570D01*
X299200Y-1375800D02*
X324600D01*
X350000Y-1350400D01*
X375400Y-1375800D01*
X400800D01*
Y-1350400D01*
X375400Y-1325000D01*
X400800Y-1299600D01*
Y-1274200D01*
X375400D01*
X350000Y-1299600D01*
X324600Y-1274200D01*
X299200D01*
Y-1299600D01*
X324600Y-1325000D01*
X299200Y-1350400D01*
Y-1375800D01*
X16310201Y-2882800D02*
Y-2781200D01*
X16411800D01*
Y-2882800D01*
X16310201D01*
X16330521Y-2862480D02*
Y-2801520D01*
X16391479D01*
Y-2862480D01*
X16330521D01*
X16183200Y-3136800D02*
Y-3035200D01*
X16284801D01*
Y-3136800D01*
X16183200D01*
X16203520Y-3116480D02*
Y-3055520D01*
X16264481D01*
Y-3116480D01*
X16203520D01*
X16310201Y-3390800D02*
Y-3289200D01*
X16411800D01*
Y-3390800D01*
X16310201D01*
X16330521Y-3370480D02*
Y-3309520D01*
X16391479D01*
Y-3370480D01*
X16330521D01*
X16183200Y-3644800D02*
Y-3543200D01*
X16284801D01*
Y-3644800D01*
X16183200D01*
X16203520Y-3624480D02*
Y-3563520D01*
X16264481D01*
Y-3624480D01*
X16203520D01*
X16310201Y-4406800D02*
Y-4305200D01*
X16411800D01*
Y-4406800D01*
X16310201D01*
X16330521Y-4386480D02*
Y-4325520D01*
X16391479D01*
Y-4386480D01*
X16330521D01*
X16056200Y-2882800D02*
Y-2781200D01*
X16157800D01*
Y-2882800D01*
X16056200D01*
X16076520Y-2862480D02*
Y-2801520D01*
X16137480D01*
Y-2862480D01*
X16076520D01*
X15929201Y-3136800D02*
Y-3035200D01*
X16030800D01*
Y-3136800D01*
X15929201D01*
X15949519Y-3116480D02*
Y-3055520D01*
X16010480D01*
Y-3116480D01*
X15949519D01*
X16056200Y-3390800D02*
Y-3289200D01*
X16157800D01*
Y-3390800D01*
X16056200D01*
X16076520Y-3370480D02*
Y-3309520D01*
X16137480D01*
Y-3370480D01*
X16076520D01*
X15929201Y-3644800D02*
Y-3543200D01*
X16030800D01*
Y-3644800D01*
X15929201D01*
X15949519Y-3624480D02*
Y-3563520D01*
X16010480D01*
Y-3624480D01*
X15949519D01*
X15929201Y-4152800D02*
Y-4051200D01*
X16030800D01*
Y-4152800D01*
X15929201D01*
X15949519Y-4132480D02*
Y-4071520D01*
X16010480D01*
Y-4132480D01*
X15949519D01*
X16056200Y-4406800D02*
Y-4305200D01*
X16157800D01*
Y-4406800D01*
X16056200D01*
X16076520Y-4386480D02*
Y-4325520D01*
X16137480D01*
Y-4386480D01*
X16076520D01*
X15802200Y-3390800D02*
Y-3289200D01*
X15903799D01*
Y-3390800D01*
X15802200D01*
X15822520Y-3370480D02*
Y-3309520D01*
X15883479D01*
Y-3370480D01*
X15822520D01*
X15675200Y-3644800D02*
Y-3543200D01*
X15776801D01*
Y-3644800D01*
X15675200D01*
X15695520Y-3624480D02*
Y-3563520D01*
X15756480D01*
Y-3624480D01*
X15695520D01*
X15802200Y-3898800D02*
Y-3797200D01*
X15903799D01*
Y-3898800D01*
X15802200D01*
X15822520Y-3878480D02*
Y-3817520D01*
X15883479D01*
Y-3878480D01*
X15822520D01*
X15421201Y-3136800D02*
Y-3035200D01*
X15522800D01*
Y-3136800D01*
X15421201D01*
X15441521Y-3116480D02*
Y-3055520D01*
X15502480D01*
Y-3116480D01*
X15441521D01*
X15548199Y-3390800D02*
Y-3289200D01*
X15649800D01*
Y-3390800D01*
X15548199D01*
X15568520Y-3370480D02*
Y-3309520D01*
X15629480D01*
Y-3370480D01*
X15568520D01*
X15421201Y-3644800D02*
Y-3543200D01*
X15522800D01*
Y-3644800D01*
X15421201D01*
X15441521Y-3624480D02*
Y-3563520D01*
X15502480D01*
Y-3624480D01*
X15441521D01*
X15548199Y-3898800D02*
Y-3797200D01*
X15649800D01*
Y-3898800D01*
X15548199D01*
X15568520Y-3878480D02*
Y-3817520D01*
X15629480D01*
Y-3878480D01*
X15568520D01*
X15421201Y-4152800D02*
Y-4051200D01*
X15522800D01*
Y-4152800D01*
X15421201D01*
X15441521Y-4132480D02*
Y-4071520D01*
X15502480D01*
Y-4132480D01*
X15441521D01*
X15167200Y-3136800D02*
Y-3035200D01*
X15268800D01*
Y-3136800D01*
X15167200D01*
X15187520Y-3116480D02*
Y-3055520D01*
X15248480D01*
Y-3116480D01*
X15187520D01*
X15167200Y-3644800D02*
Y-3543200D01*
X15268800D01*
Y-3644800D01*
X15167200D01*
X15187520Y-3624480D02*
Y-3563520D01*
X15248480D01*
Y-3624480D01*
X15187520D01*
X15294200Y-4406800D02*
Y-4305200D01*
X15395799D01*
Y-4406800D01*
X15294200D01*
X15314520Y-4386480D02*
Y-4325520D01*
X15375481D01*
Y-4386480D01*
X15314520D01*
X14913200Y-3136800D02*
Y-3035200D01*
X15014799D01*
Y-3136800D01*
X14913200D01*
X14933521Y-3116480D02*
Y-3055520D01*
X14994479D01*
Y-3116480D01*
X14933521D01*
X15040199Y-3390800D02*
Y-3289200D01*
X15141800D01*
Y-3390800D01*
X15040199D01*
X15060519Y-3370480D02*
Y-3309520D01*
X15121480D01*
Y-3370480D01*
X15060519D01*
X14913200Y-3644800D02*
Y-3543200D01*
X15014799D01*
Y-3644800D01*
X14913200D01*
X14933521Y-3624480D02*
Y-3563520D01*
X14994479D01*
Y-3624480D01*
X14933521D01*
X15040199Y-3898800D02*
Y-3797200D01*
X15141800D01*
Y-3898800D01*
X15040199D01*
X15060519Y-3878480D02*
Y-3817520D01*
X15121480D01*
Y-3878480D01*
X15060519D01*
X14913200Y-4152800D02*
Y-4051200D01*
X15014799D01*
Y-4152800D01*
X14913200D01*
X14933521Y-4132480D02*
Y-4071520D01*
X14994479D01*
Y-4132480D01*
X14933521D01*
X14786200Y-2882800D02*
Y-2781200D01*
X14887801D01*
Y-2882800D01*
X14786200D01*
X14806520Y-2862480D02*
Y-2801520D01*
X14867480D01*
Y-2862480D01*
X14806520D01*
X14659200Y-3136800D02*
Y-3035200D01*
X14760800D01*
Y-3136800D01*
X14659200D01*
X14679520Y-3116480D02*
Y-3055520D01*
X14740480D01*
Y-3116480D01*
X14679520D01*
X14786200Y-3390800D02*
Y-3289200D01*
X14887801D01*
Y-3390800D01*
X14786200D01*
X14806520Y-3370480D02*
Y-3309520D01*
X14867480D01*
Y-3370480D01*
X14806520D01*
X14659200Y-3644800D02*
Y-3543200D01*
X14760800D01*
Y-3644800D01*
X14659200D01*
X14679520Y-3624480D02*
Y-3563520D01*
X14740480D01*
Y-3624480D01*
X14679520D01*
X14786200Y-3898800D02*
Y-3797200D01*
X14887801D01*
Y-3898800D01*
X14786200D01*
X14806520Y-3878480D02*
Y-3817520D01*
X14867480D01*
Y-3878480D01*
X14806520D01*
X14659200Y-4152800D02*
Y-4051200D01*
X14760800D01*
Y-4152800D01*
X14659200D01*
X14679520Y-4132480D02*
Y-4071520D01*
X14740480D01*
Y-4132480D01*
X14679520D01*
X14532201Y-2882800D02*
Y-2781200D01*
X14633800D01*
Y-2882800D01*
X14532201D01*
X14552521Y-2862480D02*
Y-2801520D01*
X14613480D01*
Y-2862480D01*
X14552521D01*
X14405200Y-3136800D02*
Y-3035200D01*
X14506799D01*
Y-3136800D01*
X14405200D01*
X14425520Y-3116480D02*
Y-3055520D01*
X14486481D01*
Y-3116480D01*
X14425520D01*
X14532201Y-3390800D02*
Y-3289200D01*
X14633800D01*
Y-3390800D01*
X14532201D01*
X14552521Y-3370480D02*
Y-3309520D01*
X14613480D01*
Y-3370480D01*
X14552521D01*
X14405200Y-3644800D02*
Y-3543200D01*
X14506799D01*
Y-3644800D01*
X14405200D01*
X14425520Y-3624480D02*
Y-3563520D01*
X14486481D01*
Y-3624480D01*
X14425520D01*
X14532201Y-3898800D02*
Y-3797200D01*
X14633800D01*
Y-3898800D01*
X14532201D01*
X14552521Y-3878480D02*
Y-3817520D01*
X14613480D01*
Y-3878480D01*
X14552521D01*
X14405200Y-4152800D02*
Y-4051200D01*
X14506799D01*
Y-4152800D01*
X14405200D01*
X14425520Y-4132480D02*
Y-4071520D01*
X14486481D01*
Y-4132480D01*
X14425520D01*
X14278200Y-2882800D02*
Y-2781200D01*
X14379800D01*
Y-2882800D01*
X14278200D01*
X14298520Y-2862480D02*
Y-2801520D01*
X14359480D01*
Y-2862480D01*
X14298520D01*
X14151199Y-3136800D02*
Y-3035200D01*
X14252800D01*
Y-3136800D01*
X14151199D01*
X14171519Y-3116480D02*
Y-3055520D01*
X14232480D01*
Y-3116480D01*
X14171519D01*
X14278200Y-3390800D02*
Y-3289200D01*
X14379800D01*
Y-3390800D01*
X14278200D01*
X14298520Y-3370480D02*
Y-3309520D01*
X14359480D01*
Y-3370480D01*
X14298520D01*
X14151199Y-3644800D02*
Y-3543200D01*
X14252800D01*
Y-3644800D01*
X14151199D01*
X14171519Y-3624480D02*
Y-3563520D01*
X14232480D01*
Y-3624480D01*
X14171519D01*
X14278200Y-3898800D02*
Y-3797200D01*
X14379800D01*
Y-3898800D01*
X14278200D01*
X14298520Y-3878480D02*
Y-3817520D01*
X14359480D01*
Y-3878480D01*
X14298520D01*
X14151199Y-4152800D02*
Y-4051200D01*
X14252800D01*
Y-4152800D01*
X14151199D01*
X14171519Y-4132480D02*
Y-4071520D01*
X14232480D01*
Y-4132480D01*
X14171519D01*
X14024200Y-2882800D02*
Y-2781200D01*
X14125800D01*
Y-2882800D01*
X14024200D01*
X14044521Y-2862480D02*
Y-2801520D01*
X14105479D01*
Y-2862480D01*
X14044521D01*
X13897200Y-3136800D02*
Y-3035200D01*
X13998801D01*
Y-3136800D01*
X13897200D01*
X13917520Y-3116480D02*
Y-3055520D01*
X13978481D01*
Y-3116480D01*
X13917520D01*
X14024200Y-3390800D02*
Y-3289200D01*
X14125800D01*
Y-3390800D01*
X14024200D01*
X14044521Y-3370480D02*
Y-3309520D01*
X14105479D01*
Y-3370480D01*
X14044521D01*
X13897200Y-3644800D02*
Y-3543200D01*
X13998801D01*
Y-3644800D01*
X13897200D01*
X13917520Y-3624480D02*
Y-3563520D01*
X13978481D01*
Y-3624480D01*
X13917520D01*
X14024200Y-3898800D02*
Y-3797200D01*
X14125800D01*
Y-3898800D01*
X14024200D01*
X14044521Y-3878480D02*
Y-3817520D01*
X14105479D01*
Y-3878480D01*
X14044521D01*
X13897200Y-4152800D02*
Y-4051200D01*
X13998801D01*
Y-4152800D01*
X13897200D01*
X13917520Y-4132480D02*
Y-4071520D01*
X13978481D01*
Y-4132480D01*
X13917520D01*
X13770200Y-2882800D02*
Y-2781200D01*
X13871800D01*
Y-2882800D01*
X13770200D01*
X13790520Y-2862480D02*
Y-2801520D01*
X13851480D01*
Y-2862480D01*
X13790520D01*
X13643201Y-3136800D02*
Y-3035200D01*
X13744800D01*
Y-3136800D01*
X13643201D01*
X13663519Y-3116480D02*
Y-3055520D01*
X13724480D01*
Y-3116480D01*
X13663519D01*
X13770200Y-3390800D02*
Y-3289200D01*
X13871800D01*
Y-3390800D01*
X13770200D01*
X13790520Y-3370480D02*
Y-3309520D01*
X13851480D01*
Y-3370480D01*
X13790520D01*
X13643201Y-3644800D02*
Y-3543200D01*
X13744800D01*
Y-3644800D01*
X13643201D01*
X13663519Y-3624480D02*
Y-3563520D01*
X13724480D01*
Y-3624480D01*
X13663519D01*
X13770200Y-3898800D02*
Y-3797200D01*
X13871800D01*
Y-3898800D01*
X13770200D01*
X13790520Y-3878480D02*
Y-3817520D01*
X13851480D01*
Y-3878480D01*
X13790520D01*
X13643201Y-4152800D02*
Y-4051200D01*
X13744800D01*
Y-4152800D01*
X13643201D01*
X13663519Y-4132480D02*
Y-4071520D01*
X13724480D01*
Y-4132480D01*
X13663519D01*
X13516200Y-2882800D02*
Y-2781200D01*
X13617799D01*
Y-2882800D01*
X13516200D01*
X13536520Y-2862480D02*
Y-2801520D01*
X13597479D01*
Y-2862480D01*
X13536520D01*
X13389200Y-3136800D02*
Y-3035200D01*
X13490800D01*
Y-3136800D01*
X13389200D01*
X13409520Y-3116480D02*
Y-3055520D01*
X13470480D01*
Y-3116480D01*
X13409520D01*
X13516200Y-3390800D02*
Y-3289200D01*
X13617799D01*
Y-3390800D01*
X13516200D01*
X13536520Y-3370480D02*
Y-3309520D01*
X13597479D01*
Y-3370480D01*
X13536520D01*
X13389200Y-3644800D02*
Y-3543200D01*
X13490800D01*
Y-3644800D01*
X13389200D01*
X13409520Y-3624480D02*
Y-3563520D01*
X13470480D01*
Y-3624480D01*
X13409520D01*
X13516200Y-3898800D02*
Y-3797200D01*
X13617799D01*
Y-3898800D01*
X13516200D01*
X13536520Y-3878480D02*
Y-3817520D01*
X13597479D01*
Y-3878480D01*
X13536520D01*
X13389200Y-4152800D02*
Y-4051200D01*
X13490800D01*
Y-4152800D01*
X13389200D01*
X13409520Y-4132480D02*
Y-4071520D01*
X13470480D01*
Y-4132480D01*
X13409520D01*
X13262199Y-2882800D02*
Y-2781200D01*
X13363800D01*
Y-2882800D01*
X13262199D01*
X13282520Y-2862480D02*
Y-2801520D01*
X13343480D01*
Y-2862480D01*
X13282520D01*
X13135201Y-3136800D02*
Y-3035200D01*
X13236800D01*
Y-3136800D01*
X13135201D01*
X13155521Y-3116480D02*
Y-3055520D01*
X13216479D01*
Y-3116480D01*
X13155521D01*
X13262199Y-3390800D02*
Y-3289200D01*
X13363800D01*
Y-3390800D01*
X13262199D01*
X13282520Y-3370480D02*
Y-3309520D01*
X13343480D01*
Y-3370480D01*
X13282520D01*
X13135201Y-3644800D02*
Y-3543200D01*
X13236800D01*
Y-3644800D01*
X13135201D01*
X13155521Y-3624480D02*
Y-3563520D01*
X13216479D01*
Y-3624480D01*
X13155521D01*
X13262199Y-3898800D02*
Y-3797200D01*
X13363800D01*
Y-3898800D01*
X13262199D01*
X13282520Y-3878480D02*
Y-3817520D01*
X13343480D01*
Y-3878480D01*
X13282520D01*
X13135201Y-4152800D02*
Y-4051200D01*
X13236800D01*
Y-4152800D01*
X13135201D01*
X13155521Y-4132480D02*
Y-4071520D01*
X13216479D01*
Y-4132480D01*
X13155521D01*
X13008200Y-2882800D02*
Y-2781200D01*
X13109801D01*
Y-2882800D01*
X13008200D01*
X13028520Y-2862480D02*
Y-2801520D01*
X13089481D01*
Y-2862480D01*
X13028520D01*
X12881200Y-3136800D02*
Y-3035200D01*
X12982800D01*
Y-3136800D01*
X12881200D01*
X12901520Y-3116480D02*
Y-3055520D01*
X12962480D01*
Y-3116480D01*
X12901520D01*
X13008200Y-3390800D02*
Y-3289200D01*
X13109801D01*
Y-3390800D01*
X13008200D01*
X13028520Y-3370480D02*
Y-3309520D01*
X13089481D01*
Y-3370480D01*
X13028520D01*
X12881200Y-3644800D02*
Y-3543200D01*
X12982800D01*
Y-3644800D01*
X12881200D01*
X12901520Y-3624480D02*
Y-3563520D01*
X12962480D01*
Y-3624480D01*
X12901520D01*
X13008200Y-3898800D02*
Y-3797200D01*
X13109801D01*
Y-3898800D01*
X13008200D01*
X13028520Y-3878480D02*
Y-3817520D01*
X13089481D01*
Y-3878480D01*
X13028520D01*
X12881200Y-4152800D02*
Y-4051200D01*
X12982800D01*
Y-4152800D01*
X12881200D01*
X12901520Y-4132480D02*
Y-4071520D01*
X12962480D01*
Y-4132480D01*
X12901520D01*
X12754200Y-2882800D02*
Y-2781200D01*
X12855800D01*
Y-2882800D01*
X12754200D01*
X12774520Y-2862480D02*
Y-2801520D01*
X12835480D01*
Y-2862480D01*
X12774520D01*
X12627200Y-3136800D02*
Y-3035200D01*
X12728800D01*
Y-3136800D01*
X12627200D01*
X12647520Y-3116480D02*
Y-3055520D01*
X12708480D01*
Y-3116480D01*
X12647520D01*
X12754200Y-3390800D02*
Y-3289200D01*
X12855800D01*
Y-3390800D01*
X12754200D01*
X12774520Y-3370480D02*
Y-3309520D01*
X12835480D01*
Y-3370480D01*
X12774520D01*
X12627200Y-3644800D02*
Y-3543200D01*
X12728800D01*
Y-3644800D01*
X12627200D01*
X12647520Y-3624480D02*
Y-3563520D01*
X12708480D01*
Y-3624480D01*
X12647520D01*
X12754200Y-3898800D02*
Y-3797200D01*
X12855800D01*
Y-3898800D01*
X12754200D01*
X12774520Y-3878480D02*
Y-3817520D01*
X12835480D01*
Y-3878480D01*
X12774520D01*
X12627200Y-4152800D02*
Y-4051200D01*
X12728800D01*
Y-4152800D01*
X12627200D01*
X12647520Y-4132480D02*
Y-4071520D01*
X12708480D01*
Y-4132480D01*
X12647520D01*
X12500200Y-2882800D02*
Y-2781200D01*
X12601800D01*
Y-2882800D01*
X12500200D01*
X12520520Y-2862480D02*
Y-2801520D01*
X12581480D01*
Y-2862480D01*
X12520520D01*
X12373200Y-3136800D02*
Y-3035200D01*
X12474800D01*
Y-3136800D01*
X12373200D01*
X12393520Y-3116480D02*
Y-3055520D01*
X12454480D01*
Y-3116480D01*
X12393520D01*
X12500200Y-3390800D02*
Y-3289200D01*
X12601800D01*
Y-3390800D01*
X12500200D01*
X12520520Y-3370480D02*
Y-3309520D01*
X12581480D01*
Y-3370480D01*
X12520520D01*
X12373200Y-3644800D02*
Y-3543200D01*
X12474800D01*
Y-3644800D01*
X12373200D01*
X12393520Y-3624480D02*
Y-3563520D01*
X12454480D01*
Y-3624480D01*
X12393520D01*
X12500200Y-3898800D02*
Y-3797200D01*
X12601800D01*
Y-3898800D01*
X12500200D01*
X12520520Y-3878480D02*
Y-3817520D01*
X12581480D01*
Y-3878480D01*
X12520520D01*
X12373200Y-4152800D02*
Y-4051200D01*
X12474800D01*
Y-4152800D01*
X12373200D01*
X12393520Y-4132480D02*
Y-4071520D01*
X12454480D01*
Y-4132480D01*
X12393520D01*
X12246200Y-2882800D02*
Y-2781200D01*
X12347800D01*
Y-2882800D01*
X12246200D01*
X12266520Y-2862480D02*
Y-2801520D01*
X12327480D01*
Y-2862480D01*
X12266520D01*
X12119200Y-3136800D02*
Y-3035200D01*
X12220800D01*
Y-3136800D01*
X12119200D01*
X12139520Y-3116480D02*
Y-3055520D01*
X12200480D01*
Y-3116480D01*
X12139520D01*
X12246200Y-3390800D02*
Y-3289200D01*
X12347800D01*
Y-3390800D01*
X12246200D01*
X12266520Y-3370480D02*
Y-3309520D01*
X12327480D01*
Y-3370480D01*
X12266520D01*
X12119200Y-3644800D02*
Y-3543200D01*
X12220800D01*
Y-3644800D01*
X12119200D01*
X12139520Y-3624480D02*
Y-3563520D01*
X12200480D01*
Y-3624480D01*
X12139520D01*
X12246200Y-3898800D02*
Y-3797200D01*
X12347800D01*
Y-3898800D01*
X12246200D01*
X12266520Y-3878480D02*
Y-3817520D01*
X12327480D01*
Y-3878480D01*
X12266520D01*
X12119200Y-4152800D02*
Y-4051200D01*
X12220800D01*
Y-4152800D01*
X12119200D01*
X12139520Y-4132480D02*
Y-4071520D01*
X12200480D01*
Y-4132480D01*
X12139520D01*
X11992200Y-2882800D02*
Y-2781200D01*
X12093800D01*
Y-2882800D01*
X11992200D01*
X12012520Y-2862480D02*
Y-2801520D01*
X12073480D01*
Y-2862480D01*
X12012520D01*
X11865200Y-3136800D02*
Y-3035200D01*
X11966800D01*
Y-3136800D01*
X11865200D01*
X11885520Y-3116480D02*
Y-3055520D01*
X11946480D01*
Y-3116480D01*
X11885520D01*
X11992200Y-3390800D02*
Y-3289200D01*
X12093800D01*
Y-3390800D01*
X11992200D01*
X12012520Y-3370480D02*
Y-3309520D01*
X12073480D01*
Y-3370480D01*
X12012520D01*
X11865200Y-3644800D02*
Y-3543200D01*
X11966800D01*
Y-3644800D01*
X11865200D01*
X11885520Y-3624480D02*
Y-3563520D01*
X11946480D01*
Y-3624480D01*
X11885520D01*
X11992200Y-3898800D02*
Y-3797200D01*
X12093800D01*
Y-3898800D01*
X11992200D01*
X12012520Y-3878480D02*
Y-3817520D01*
X12073480D01*
Y-3878480D01*
X12012520D01*
X11865200Y-4152800D02*
Y-4051200D01*
X11966800D01*
Y-4152800D01*
X11865200D01*
X11885520Y-4132480D02*
Y-4071520D01*
X11946480D01*
Y-4132480D01*
X11885520D01*
X11738200Y-2882800D02*
Y-2781200D01*
X11839800D01*
Y-2882800D01*
X11738200D01*
X11758520Y-2862480D02*
Y-2801520D01*
X11819480D01*
Y-2862480D01*
X11758520D01*
X11611200Y-3136800D02*
Y-3035200D01*
X11712800D01*
Y-3136800D01*
X11611200D01*
X11631520Y-3116480D02*
Y-3055520D01*
X11692480D01*
Y-3116480D01*
X11631520D01*
X11738200Y-3390800D02*
Y-3289200D01*
X11839800D01*
Y-3390800D01*
X11738200D01*
X11758520Y-3370480D02*
Y-3309520D01*
X11819480D01*
Y-3370480D01*
X11758520D01*
X11611200Y-3644800D02*
Y-3543200D01*
X11712800D01*
Y-3644800D01*
X11611200D01*
X11631520Y-3624480D02*
Y-3563520D01*
X11692480D01*
Y-3624480D01*
X11631520D01*
X11738200Y-3898800D02*
Y-3797200D01*
X11839800D01*
Y-3898800D01*
X11738200D01*
X11758520Y-3878480D02*
Y-3817520D01*
X11819480D01*
Y-3878480D01*
X11758520D01*
X11611200Y-4152800D02*
Y-4051200D01*
X11712800D01*
Y-4152800D01*
X11611200D01*
X11631520Y-4132480D02*
Y-4071520D01*
X11692480D01*
Y-4132480D01*
X11631520D01*
X11484200Y-2882800D02*
Y-2781200D01*
X11585800D01*
Y-2882800D01*
X11484200D01*
X11504520Y-2862480D02*
Y-2801520D01*
X11565480D01*
Y-2862480D01*
X11504520D01*
X11357200Y-3136800D02*
Y-3035200D01*
X11458800D01*
Y-3136800D01*
X11357200D01*
X11377520Y-3116480D02*
Y-3055520D01*
X11438480D01*
Y-3116480D01*
X11377520D01*
X11484200Y-3390800D02*
Y-3289200D01*
X11585800D01*
Y-3390800D01*
X11484200D01*
X11504520Y-3370480D02*
Y-3309520D01*
X11565480D01*
Y-3370480D01*
X11504520D01*
X11357200Y-3644800D02*
Y-3543200D01*
X11458800D01*
Y-3644800D01*
X11357200D01*
X11377520Y-3624480D02*
Y-3563520D01*
X11438480D01*
Y-3624480D01*
X11377520D01*
X11484200Y-3898800D02*
Y-3797200D01*
X11585800D01*
Y-3898800D01*
X11484200D01*
X11504520Y-3878480D02*
Y-3817520D01*
X11565480D01*
Y-3878480D01*
X11504520D01*
X11357200Y-4152800D02*
Y-4051200D01*
X11458800D01*
Y-4152800D01*
X11357200D01*
X11377520Y-4132480D02*
Y-4071520D01*
X11438480D01*
Y-4132480D01*
X11377520D01*
X11230200Y-2882800D02*
Y-2781200D01*
X11331800D01*
Y-2882800D01*
X11230200D01*
X11250520Y-2862480D02*
Y-2801520D01*
X11311480D01*
Y-2862480D01*
X11250520D01*
X11103200Y-3136800D02*
Y-3035200D01*
X11204800D01*
Y-3136800D01*
X11103200D01*
X11123520Y-3116480D02*
Y-3055520D01*
X11184480D01*
Y-3116480D01*
X11123520D01*
X11230200Y-3390800D02*
Y-3289200D01*
X11331800D01*
Y-3390800D01*
X11230200D01*
X11250520Y-3370480D02*
Y-3309520D01*
X11311480D01*
Y-3370480D01*
X11250520D01*
X11103200Y-3644800D02*
Y-3543200D01*
X11204800D01*
Y-3644800D01*
X11103200D01*
X11123520Y-3624480D02*
Y-3563520D01*
X11184480D01*
Y-3624480D01*
X11123520D01*
X11230200Y-3898800D02*
Y-3797200D01*
X11331800D01*
Y-3898800D01*
X11230200D01*
X11250520Y-3878480D02*
Y-3817520D01*
X11311480D01*
Y-3878480D01*
X11250520D01*
X11103200Y-4152800D02*
Y-4051200D01*
X11204800D01*
Y-4152800D01*
X11103200D01*
X11123520Y-4132480D02*
Y-4071520D01*
X11184480D01*
Y-4132480D01*
X11123520D01*
X10976200Y-2882800D02*
Y-2781200D01*
X11077800D01*
Y-2882800D01*
X10976200D01*
X10996520Y-2862480D02*
Y-2801520D01*
X11057480D01*
Y-2862480D01*
X10996520D01*
X10849200Y-3136800D02*
Y-3035200D01*
X10950800D01*
Y-3136800D01*
X10849200D01*
X10869520Y-3116480D02*
Y-3055520D01*
X10930480D01*
Y-3116480D01*
X10869520D01*
X10976200Y-3390800D02*
Y-3289200D01*
X11077800D01*
Y-3390800D01*
X10976200D01*
X10996520Y-3370480D02*
Y-3309520D01*
X11057480D01*
Y-3370480D01*
X10996520D01*
X10849200Y-3644800D02*
Y-3543200D01*
X10950800D01*
Y-3644800D01*
X10849200D01*
X10869520Y-3624480D02*
Y-3563520D01*
X10930480D01*
Y-3624480D01*
X10869520D01*
X10976200Y-3898800D02*
Y-3797200D01*
X11077800D01*
Y-3898800D01*
X10976200D01*
X10996520Y-3878480D02*
Y-3817520D01*
X11057480D01*
Y-3878480D01*
X10996520D01*
X10849200Y-4152800D02*
Y-4051200D01*
X10950800D01*
Y-4152800D01*
X10849200D01*
X10869520Y-4132480D02*
Y-4071520D01*
X10930480D01*
Y-4132480D01*
X10869520D01*
X10722200Y-2882800D02*
Y-2781200D01*
X10823800D01*
Y-2882800D01*
X10722200D01*
X10742520Y-2862480D02*
Y-2801520D01*
X10803480D01*
Y-2862480D01*
X10742520D01*
X10595200Y-3136800D02*
Y-3035200D01*
X10696800D01*
Y-3136800D01*
X10595200D01*
X10615520Y-3116480D02*
Y-3055520D01*
X10676480D01*
Y-3116480D01*
X10615520D01*
X10722200Y-3390800D02*
Y-3289200D01*
X10823800D01*
Y-3390800D01*
X10722200D01*
X10742520Y-3370480D02*
Y-3309520D01*
X10803480D01*
Y-3370480D01*
X10742520D01*
X10595200Y-3644800D02*
Y-3543200D01*
X10696800D01*
Y-3644800D01*
X10595200D01*
X10615520Y-3624480D02*
Y-3563520D01*
X10676480D01*
Y-3624480D01*
X10615520D01*
X10722200Y-3898800D02*
Y-3797200D01*
X10823800D01*
Y-3898800D01*
X10722200D01*
X10742520Y-3878480D02*
Y-3817520D01*
X10803480D01*
Y-3878480D01*
X10742520D01*
X10595200Y-4152800D02*
Y-4051200D01*
X10696800D01*
Y-4152800D01*
X10595200D01*
X10615520Y-4132480D02*
Y-4071520D01*
X10676480D01*
Y-4132480D01*
X10615520D01*
X10468200Y-2882800D02*
Y-2781200D01*
X10569800D01*
Y-2882800D01*
X10468200D01*
X10488520Y-2862480D02*
Y-2801520D01*
X10549480D01*
Y-2862480D01*
X10488520D01*
X10341200Y-3136800D02*
Y-3035200D01*
X10442800D01*
Y-3136800D01*
X10341200D01*
X10361520Y-3116480D02*
Y-3055520D01*
X10422480D01*
Y-3116480D01*
X10361520D01*
X10468200Y-3390800D02*
Y-3289200D01*
X10569800D01*
Y-3390800D01*
X10468200D01*
X10488520Y-3370480D02*
Y-3309520D01*
X10549480D01*
Y-3370480D01*
X10488520D01*
X10341200Y-3644800D02*
Y-3543200D01*
X10442800D01*
Y-3644800D01*
X10341200D01*
X10361520Y-3624480D02*
Y-3563520D01*
X10422480D01*
Y-3624480D01*
X10361520D01*
X10468200Y-3898800D02*
Y-3797200D01*
X10569800D01*
Y-3898800D01*
X10468200D01*
X10488520Y-3878480D02*
Y-3817520D01*
X10549480D01*
Y-3878480D01*
X10488520D01*
X10341200Y-4152800D02*
Y-4051200D01*
X10442800D01*
Y-4152800D01*
X10341200D01*
X10361520Y-4132480D02*
Y-4071520D01*
X10422480D01*
Y-4132480D01*
X10361520D01*
X10214200Y-2882800D02*
Y-2781200D01*
X10315800D01*
Y-2882800D01*
X10214200D01*
X10234520Y-2862480D02*
Y-2801520D01*
X10295480D01*
Y-2862480D01*
X10234520D01*
X10087200Y-3136800D02*
Y-3035200D01*
X10188800D01*
Y-3136800D01*
X10087200D01*
X10107520Y-3116480D02*
Y-3055520D01*
X10168480D01*
Y-3116480D01*
X10107520D01*
X10214200Y-3390800D02*
Y-3289200D01*
X10315800D01*
Y-3390800D01*
X10214200D01*
X10234520Y-3370480D02*
Y-3309520D01*
X10295480D01*
Y-3370480D01*
X10234520D01*
X10087200Y-3644800D02*
Y-3543200D01*
X10188800D01*
Y-3644800D01*
X10087200D01*
X10107520Y-3624480D02*
Y-3563520D01*
X10168480D01*
Y-3624480D01*
X10107520D01*
X10214200Y-3898800D02*
Y-3797200D01*
X10315800D01*
Y-3898800D01*
X10214200D01*
X10234520Y-3878480D02*
Y-3817520D01*
X10295480D01*
Y-3878480D01*
X10234520D01*
X10087200Y-4152800D02*
Y-4051200D01*
X10188800D01*
Y-4152800D01*
X10087200D01*
X10107520Y-4132480D02*
Y-4071520D01*
X10168480D01*
Y-4132480D01*
X10107520D01*
X9960200Y-2882800D02*
Y-2781200D01*
X10061800D01*
Y-2882800D01*
X9960200D01*
X9980520Y-2862480D02*
Y-2801520D01*
X10041480D01*
Y-2862480D01*
X9980520D01*
X9833200Y-3136800D02*
Y-3035200D01*
X9934800D01*
Y-3136800D01*
X9833200D01*
X9853520Y-3116480D02*
Y-3055520D01*
X9914480D01*
Y-3116480D01*
X9853520D01*
X9960200Y-3390800D02*
Y-3289200D01*
X10061800D01*
Y-3390800D01*
X9960200D01*
X9980520Y-3370480D02*
Y-3309520D01*
X10041480D01*
Y-3370480D01*
X9980520D01*
X9833200Y-3644800D02*
Y-3543200D01*
X9934800D01*
Y-3644800D01*
X9833200D01*
X9853520Y-3624480D02*
Y-3563520D01*
X9914480D01*
Y-3624480D01*
X9853520D01*
X9960200Y-3898800D02*
Y-3797200D01*
X10061800D01*
Y-3898800D01*
X9960200D01*
X9980520Y-3878480D02*
Y-3817520D01*
X10041480D01*
Y-3878480D01*
X9980520D01*
X9833200Y-4152800D02*
Y-4051200D01*
X9934800D01*
Y-4152800D01*
X9833200D01*
X9853520Y-4132480D02*
Y-4071520D01*
X9914480D01*
Y-4132480D01*
X9853520D01*
X9706200Y-2882800D02*
Y-2781200D01*
X9807800D01*
Y-2882800D01*
X9706200D01*
X9726520Y-2862480D02*
Y-2801520D01*
X9787480D01*
Y-2862480D01*
X9726520D01*
X9579200Y-3136800D02*
Y-3035200D01*
X9680800D01*
Y-3136800D01*
X9579200D01*
X9599520Y-3116480D02*
Y-3055520D01*
X9660480D01*
Y-3116480D01*
X9599520D01*
X9706200Y-3390800D02*
Y-3289200D01*
X9807800D01*
Y-3390800D01*
X9706200D01*
X9726520Y-3370480D02*
Y-3309520D01*
X9787480D01*
Y-3370480D01*
X9726520D01*
X9579200Y-3644800D02*
Y-3543200D01*
X9680800D01*
Y-3644800D01*
X9579200D01*
X9599520Y-3624480D02*
Y-3563520D01*
X9660480D01*
Y-3624480D01*
X9599520D01*
X9706200Y-3898800D02*
Y-3797200D01*
X9807800D01*
Y-3898800D01*
X9706200D01*
X9726520Y-3878480D02*
Y-3817520D01*
X9787480D01*
Y-3878480D01*
X9726520D01*
X9579200Y-4152800D02*
Y-4051200D01*
X9680800D01*
Y-4152800D01*
X9579200D01*
X9599520Y-4132480D02*
Y-4071520D01*
X9660480D01*
Y-4132480D01*
X9599520D01*
X9452200Y-2882800D02*
Y-2781200D01*
X9553800D01*
Y-2882800D01*
X9452200D01*
X9472520Y-2862480D02*
Y-2801520D01*
X9533480D01*
Y-2862480D01*
X9472520D01*
X9325200Y-3136800D02*
Y-3035200D01*
X9426800D01*
Y-3136800D01*
X9325200D01*
X9345520Y-3116480D02*
Y-3055520D01*
X9406480D01*
Y-3116480D01*
X9345520D01*
X9452200Y-3390800D02*
Y-3289200D01*
X9553800D01*
Y-3390800D01*
X9452200D01*
X9472520Y-3370480D02*
Y-3309520D01*
X9533480D01*
Y-3370480D01*
X9472520D01*
X9325200Y-3644800D02*
Y-3543200D01*
X9426800D01*
Y-3644800D01*
X9325200D01*
X9345520Y-3624480D02*
Y-3563520D01*
X9406480D01*
Y-3624480D01*
X9345520D01*
X9452200Y-3898800D02*
Y-3797200D01*
X9553800D01*
Y-3898800D01*
X9452200D01*
X9472520Y-3878480D02*
Y-3817520D01*
X9533480D01*
Y-3878480D01*
X9472520D01*
X9325200Y-4152800D02*
Y-4051200D01*
X9426800D01*
Y-4152800D01*
X9325200D01*
X9345520Y-4132480D02*
Y-4071520D01*
X9406480D01*
Y-4132480D01*
X9345520D01*
X9198200Y-2882800D02*
Y-2781200D01*
X9299800D01*
Y-2882800D01*
X9198200D01*
X9218520Y-2862480D02*
Y-2801520D01*
X9279480D01*
Y-2862480D01*
X9218520D01*
X9071200Y-3136800D02*
Y-3035200D01*
X9172800D01*
Y-3136800D01*
X9071200D01*
X9091520Y-3116480D02*
Y-3055520D01*
X9152480D01*
Y-3116480D01*
X9091520D01*
X9198200Y-3390800D02*
Y-3289200D01*
X9299800D01*
Y-3390800D01*
X9198200D01*
X9218520Y-3370480D02*
Y-3309520D01*
X9279480D01*
Y-3370480D01*
X9218520D01*
X9071200Y-3644800D02*
Y-3543200D01*
X9172800D01*
Y-3644800D01*
X9071200D01*
X9091520Y-3624480D02*
Y-3563520D01*
X9152480D01*
Y-3624480D01*
X9091520D01*
X9198200Y-3898800D02*
Y-3797200D01*
X9299800D01*
Y-3898800D01*
X9198200D01*
X9218520Y-3878480D02*
Y-3817520D01*
X9279480D01*
Y-3878480D01*
X9218520D01*
X9071200Y-4152800D02*
Y-4051200D01*
X9172800D01*
Y-4152800D01*
X9071200D01*
X9091520Y-4132480D02*
Y-4071520D01*
X9152480D01*
Y-4132480D01*
X9091520D01*
X8944200Y-2882800D02*
Y-2781200D01*
X9045800D01*
Y-2882800D01*
X8944200D01*
X8964520Y-2862480D02*
Y-2801520D01*
X9025480D01*
Y-2862480D01*
X8964520D01*
X8817200Y-3136800D02*
Y-3035200D01*
X8918800D01*
Y-3136800D01*
X8817200D01*
X8837520Y-3116480D02*
Y-3055520D01*
X8898480D01*
Y-3116480D01*
X8837520D01*
X8944200Y-3390800D02*
Y-3289200D01*
X9045800D01*
Y-3390800D01*
X8944200D01*
X8964520Y-3370480D02*
Y-3309520D01*
X9025480D01*
Y-3370480D01*
X8964520D01*
X8817200Y-3644800D02*
Y-3543200D01*
X8918800D01*
Y-3644800D01*
X8817200D01*
X8837520Y-3624480D02*
Y-3563520D01*
X8898480D01*
Y-3624480D01*
X8837520D01*
X8944200Y-3898800D02*
Y-3797200D01*
X9045800D01*
Y-3898800D01*
X8944200D01*
X8964520Y-3878480D02*
Y-3817520D01*
X9025480D01*
Y-3878480D01*
X8964520D01*
X8817200Y-4152800D02*
Y-4051200D01*
X8918800D01*
Y-4152800D01*
X8817200D01*
X8837520Y-4132480D02*
Y-4071520D01*
X8898480D01*
Y-4132480D01*
X8837520D01*
X8690200Y-2882800D02*
Y-2781200D01*
X8791800D01*
Y-2882800D01*
X8690200D01*
X8710520Y-2862480D02*
Y-2801520D01*
X8771480D01*
Y-2862480D01*
X8710520D01*
X8563200Y-3136800D02*
Y-3035200D01*
X8664800D01*
Y-3136800D01*
X8563200D01*
X8583520Y-3116480D02*
Y-3055520D01*
X8644480D01*
Y-3116480D01*
X8583520D01*
X8690200Y-3390800D02*
Y-3289200D01*
X8791800D01*
Y-3390800D01*
X8690200D01*
X8710520Y-3370480D02*
Y-3309520D01*
X8771480D01*
Y-3370480D01*
X8710520D01*
X8563200Y-3644800D02*
Y-3543200D01*
X8664800D01*
Y-3644800D01*
X8563200D01*
X8583520Y-3624480D02*
Y-3563520D01*
X8644480D01*
Y-3624480D01*
X8583520D01*
X8690200Y-3898800D02*
Y-3797200D01*
X8791800D01*
Y-3898800D01*
X8690200D01*
X8710520Y-3878480D02*
Y-3817520D01*
X8771480D01*
Y-3878480D01*
X8710520D01*
X8563200Y-4152800D02*
Y-4051200D01*
X8664800D01*
Y-4152800D01*
X8563200D01*
X8583520Y-4132480D02*
Y-4071520D01*
X8644480D01*
Y-4132480D01*
X8583520D01*
X8436200Y-2882800D02*
Y-2781200D01*
X8537800D01*
Y-2882800D01*
X8436200D01*
X8456520Y-2862480D02*
Y-2801520D01*
X8517480D01*
Y-2862480D01*
X8456520D01*
X8309200Y-3136800D02*
Y-3035200D01*
X8410800D01*
Y-3136800D01*
X8309200D01*
X8329520Y-3116480D02*
Y-3055520D01*
X8390480D01*
Y-3116480D01*
X8329520D01*
X8436200Y-3390800D02*
Y-3289200D01*
X8537800D01*
Y-3390800D01*
X8436200D01*
X8456520Y-3370480D02*
Y-3309520D01*
X8517480D01*
Y-3370480D01*
X8456520D01*
X8309200Y-3644800D02*
Y-3543200D01*
X8410800D01*
Y-3644800D01*
X8309200D01*
X8329520Y-3624480D02*
Y-3563520D01*
X8390480D01*
Y-3624480D01*
X8329520D01*
X8436200Y-3898800D02*
Y-3797200D01*
X8537800D01*
Y-3898800D01*
X8436200D01*
X8456520Y-3878480D02*
Y-3817520D01*
X8517480D01*
Y-3878480D01*
X8456520D01*
X8182200Y-2882800D02*
Y-2781200D01*
X8283800D01*
Y-2882800D01*
X8182200D01*
X8202520Y-2862480D02*
Y-2801520D01*
X8263480D01*
Y-2862480D01*
X8202520D01*
X8055200Y-3136800D02*
Y-3035200D01*
X8156800D01*
Y-3136800D01*
X8055200D01*
X8075520Y-3116480D02*
Y-3055520D01*
X8136480D01*
Y-3116480D01*
X8075520D01*
X8182200Y-3390800D02*
Y-3289200D01*
X8283800D01*
Y-3390800D01*
X8182200D01*
X8202520Y-3370480D02*
Y-3309520D01*
X8263480D01*
Y-3370480D01*
X8202520D01*
X8055200Y-3644800D02*
Y-3543200D01*
X8156800D01*
Y-3644800D01*
X8055200D01*
X8075520Y-3624480D02*
Y-3563520D01*
X8136480D01*
Y-3624480D01*
X8075520D01*
X7928200Y-2882800D02*
Y-2781200D01*
X8029800D01*
Y-2882800D01*
X7928200D01*
X7948520Y-2862480D02*
Y-2801520D01*
X8009480D01*
Y-2862480D01*
X7948520D01*
X7674200Y-2882800D02*
Y-2781200D01*
X7775800D01*
Y-2882800D01*
X7674200D01*
X7694520Y-2862480D02*
Y-2801520D01*
X7755480D01*
Y-2862480D01*
X7694520D01*
X7420200Y-2882800D02*
Y-2781200D01*
X7521800D01*
Y-2882800D01*
X7420200D01*
X7440520Y-2862480D02*
Y-2801520D01*
X7501480D01*
Y-2862480D01*
X7440520D01*
X7166200Y-2882800D02*
Y-2781200D01*
X7267800D01*
Y-2882800D01*
X7166200D01*
X7186520Y-2862480D02*
Y-2801520D01*
X7247480D01*
Y-2862480D01*
X7186520D01*
X6912200Y-2882800D02*
Y-2781200D01*
X7013800D01*
Y-2882800D01*
X6912200D01*
X6932520Y-2862480D02*
Y-2801520D01*
X6993480D01*
Y-2862480D01*
X6932520D01*
X6658200Y-2882800D02*
Y-2781200D01*
X6759800D01*
Y-2882800D01*
X6658200D01*
X6678520Y-2862480D02*
Y-2801520D01*
X6739480D01*
Y-2862480D01*
X6678520D01*
X6404200Y-2882800D02*
Y-2781200D01*
X6505800D01*
Y-2882800D01*
X6404200D01*
X6424520Y-2862480D02*
Y-2801520D01*
X6485480D01*
Y-2862480D01*
X6424520D01*
X6150200Y-2882800D02*
Y-2781200D01*
X6251800D01*
Y-2882800D01*
X6150200D01*
X6170520Y-2862480D02*
Y-2801520D01*
X6231480D01*
Y-2862480D01*
X6170520D01*
X5896200Y-2882800D02*
Y-2781200D01*
X5997800D01*
Y-2882800D01*
X5896200D01*
X5916520Y-2862480D02*
Y-2801520D01*
X5977480D01*
Y-2862480D01*
X5916520D01*
X5642200Y-2882800D02*
Y-2781200D01*
X5743800D01*
Y-2882800D01*
X5642200D01*
X5662520Y-2862480D02*
Y-2801520D01*
X5723480D01*
Y-2862480D01*
X5662520D01*
X5388200Y-2882800D02*
Y-2781200D01*
X5489800D01*
Y-2882800D01*
X5388200D01*
X5408520Y-2862480D02*
Y-2801520D01*
X5469480D01*
Y-2862480D01*
X5408520D01*
X5134200Y-2882800D02*
Y-2781200D01*
X5235800D01*
Y-2882800D01*
X5134200D01*
X5154520Y-2862480D02*
Y-2801520D01*
X5215480D01*
Y-2862480D01*
X5154520D01*
X4880200Y-2882800D02*
Y-2781200D01*
X4981800D01*
Y-2882800D01*
X4880200D01*
X4900520Y-2862480D02*
Y-2801520D01*
X4961480D01*
Y-2862480D01*
X4900520D01*
X4499200Y-596800D02*
Y-495200D01*
X4600800D01*
Y-596800D01*
X4499200D01*
X4519520Y-576480D02*
Y-515520D01*
X4580480D01*
Y-576480D01*
X4519520D01*
X4499200Y-1104800D02*
Y-1003200D01*
X4600800D01*
Y-1104800D01*
X4499200D01*
X4519520Y-1084480D02*
Y-1023520D01*
X4580480D01*
Y-1084480D01*
X4519520D01*
X4499200Y-1612800D02*
Y-1511200D01*
X4600800D01*
Y-1612800D01*
X4499200D01*
X4519520Y-1592480D02*
Y-1531520D01*
X4580480D01*
Y-1592480D01*
X4519520D01*
X4499200Y-2628800D02*
Y-2527200D01*
X4600800D01*
Y-2628800D01*
X4499200D01*
X4519520Y-2608480D02*
Y-2547520D01*
X4580480D01*
Y-2608480D01*
X4519520D01*
X4626200Y-2882800D02*
Y-2781200D01*
X4727800D01*
Y-2882800D01*
X4626200D01*
X4646520Y-2862480D02*
Y-2801520D01*
X4707480D01*
Y-2862480D01*
X4646520D01*
X4245200Y-596800D02*
Y-495200D01*
X4346800D01*
Y-596800D01*
X4245200D01*
X4265520Y-576480D02*
Y-515520D01*
X4326480D01*
Y-576480D01*
X4265520D01*
X4372200Y-1866800D02*
Y-1765200D01*
X4473800D01*
Y-1866800D01*
X4372200D01*
X4392520Y-1846480D02*
Y-1785520D01*
X4453480D01*
Y-1846480D01*
X4392520D01*
X4245200Y-2628800D02*
Y-2527200D01*
X4346800D01*
Y-2628800D01*
X4245200D01*
X4265520Y-2608480D02*
Y-2547520D01*
X4326480D01*
Y-2608480D01*
X4265520D01*
X4372200Y-2882800D02*
Y-2781200D01*
X4473800D01*
Y-2882800D01*
X4372200D01*
X4392520Y-2862480D02*
Y-2801520D01*
X4453480D01*
Y-2862480D01*
X4392520D01*
X4245200Y-3136800D02*
Y-3035200D01*
X4346800D01*
Y-3136800D01*
X4245200D01*
X4265520Y-3116480D02*
Y-3055520D01*
X4326480D01*
Y-3116480D01*
X4265520D01*
X3991200Y-596800D02*
Y-495200D01*
X4092800D01*
Y-596800D01*
X3991200D01*
X4011520Y-576480D02*
Y-515520D01*
X4072480D01*
Y-576480D01*
X4011520D01*
X3991200Y-1104800D02*
Y-1003200D01*
X4092800D01*
Y-1104800D01*
X3991200D01*
X4011520Y-1084480D02*
Y-1023520D01*
X4072480D01*
Y-1084480D01*
X4011520D01*
X3991200Y-1612800D02*
Y-1511200D01*
X4092800D01*
Y-1612800D01*
X3991200D01*
X4011520Y-1592480D02*
Y-1531520D01*
X4072480D01*
Y-1592480D01*
X4011520D01*
X4118200Y-1866800D02*
Y-1765200D01*
X4219800D01*
Y-1866800D01*
X4118200D01*
X4138520Y-1846480D02*
Y-1785520D01*
X4199480D01*
Y-1846480D01*
X4138520D01*
X4118200Y-2374800D02*
Y-2273200D01*
X4219800D01*
Y-2374800D01*
X4118200D01*
X4138520Y-2354480D02*
Y-2293520D01*
X4199480D01*
Y-2354480D01*
X4138520D01*
X3991200Y-2628800D02*
Y-2527200D01*
X4092800D01*
Y-2628800D01*
X3991200D01*
X4011520Y-2608480D02*
Y-2547520D01*
X4072480D01*
Y-2608480D01*
X4011520D01*
X4118200Y-2882800D02*
Y-2781200D01*
X4219800D01*
Y-2882800D01*
X4118200D01*
X4138520Y-2862480D02*
Y-2801520D01*
X4199480D01*
Y-2862480D01*
X4138520D01*
X3991200Y-3136800D02*
Y-3035200D01*
X4092800D01*
Y-3136800D01*
X3991200D01*
X4011520Y-3116480D02*
Y-3055520D01*
X4072480D01*
Y-3116480D01*
X4011520D01*
X4118200Y-3390800D02*
Y-3289200D01*
X4219800D01*
Y-3390800D01*
X4118200D01*
X4138520Y-3370480D02*
Y-3309520D01*
X4199480D01*
Y-3370480D01*
X4138520D01*
X3991200Y-4660800D02*
Y-4559200D01*
X4092800D01*
Y-4660800D01*
X3991200D01*
X4011520Y-4640480D02*
Y-4579520D01*
X4072480D01*
Y-4640480D01*
X4011520D01*
X3991200Y-5168800D02*
Y-5067200D01*
X4092800D01*
Y-5168800D01*
X3991200D01*
X4011520Y-5148480D02*
Y-5087520D01*
X4072480D01*
Y-5148480D01*
X4011520D01*
X3737200Y-1104800D02*
Y-1003200D01*
X3838800D01*
Y-1104800D01*
X3737200D01*
X3757520Y-1084480D02*
Y-1023520D01*
X3818480D01*
Y-1084480D01*
X3757520D01*
X3864200Y-1358800D02*
Y-1257200D01*
X3965800D01*
Y-1358800D01*
X3864200D01*
X3884520Y-1338480D02*
Y-1277520D01*
X3945480D01*
Y-1338480D01*
X3884520D01*
X3737200Y-1612800D02*
Y-1511200D01*
X3838800D01*
Y-1612800D01*
X3737200D01*
X3757520Y-1592480D02*
Y-1531520D01*
X3818480D01*
Y-1592480D01*
X3757520D01*
X3864200Y-1866800D02*
Y-1765200D01*
X3965800D01*
Y-1866800D01*
X3864200D01*
X3884520Y-1846480D02*
Y-1785520D01*
X3945480D01*
Y-1846480D01*
X3884520D01*
X3864200Y-2374800D02*
Y-2273200D01*
X3965800D01*
Y-2374800D01*
X3864200D01*
X3884520Y-2354480D02*
Y-2293520D01*
X3945480D01*
Y-2354480D01*
X3884520D01*
X3864200Y-2882800D02*
Y-2781200D01*
X3965800D01*
Y-2882800D01*
X3864200D01*
X3884520Y-2862480D02*
Y-2801520D01*
X3945480D01*
Y-2862480D01*
X3884520D01*
X3737200Y-3136800D02*
Y-3035200D01*
X3838800D01*
Y-3136800D01*
X3737200D01*
X3757520Y-3116480D02*
Y-3055520D01*
X3818480D01*
Y-3116480D01*
X3757520D01*
X3864200Y-3390800D02*
Y-3289200D01*
X3965800D01*
Y-3390800D01*
X3864200D01*
X3884520Y-3370480D02*
Y-3309520D01*
X3945480D01*
Y-3370480D01*
X3884520D01*
X3737200Y-4152800D02*
Y-4051200D01*
X3838800D01*
Y-4152800D01*
X3737200D01*
X3757520Y-4132480D02*
Y-4071520D01*
X3818480D01*
Y-4132480D01*
X3757520D01*
X3864200Y-4406800D02*
Y-4305200D01*
X3965800D01*
Y-4406800D01*
X3864200D01*
X3884520Y-4386480D02*
Y-4325520D01*
X3945480D01*
Y-4386480D01*
X3884520D01*
X3737200Y-4660800D02*
Y-4559200D01*
X3838800D01*
Y-4660800D01*
X3737200D01*
X3757520Y-4640480D02*
Y-4579520D01*
X3818480D01*
Y-4640480D01*
X3757520D01*
X3864200Y-4914800D02*
Y-4813200D01*
X3965800D01*
Y-4914800D01*
X3864200D01*
X3884520Y-4894480D02*
Y-4833520D01*
X3945480D01*
Y-4894480D01*
X3884520D01*
X3737200Y-5168800D02*
Y-5067200D01*
X3838800D01*
Y-5168800D01*
X3737200D01*
X3757520Y-5148480D02*
Y-5087520D01*
X3818480D01*
Y-5148480D01*
X3757520D01*
X3610200Y-2882800D02*
Y-2781200D01*
X3711800D01*
Y-2882800D01*
X3610200D01*
X3630520Y-2862480D02*
Y-2801520D01*
X3691480D01*
Y-2862480D01*
X3630520D01*
X3483200Y-3136800D02*
Y-3035200D01*
X3584800D01*
Y-3136800D01*
X3483200D01*
X3503520Y-3116480D02*
Y-3055520D01*
X3564480D01*
Y-3116480D01*
X3503520D01*
X3483200Y-4152800D02*
Y-4051200D01*
X3584800D01*
Y-4152800D01*
X3483200D01*
X3503520Y-4132480D02*
Y-4071520D01*
X3564480D01*
Y-4132480D01*
X3503520D01*
X3483200Y-5168800D02*
Y-5067200D01*
X3584800D01*
Y-5168800D01*
X3483200D01*
X3503520Y-5148480D02*
Y-5087520D01*
X3564480D01*
Y-5148480D01*
X3503520D01*
X3356200Y-2882800D02*
Y-2781200D01*
X3457800D01*
Y-2882800D01*
X3356200D01*
X3376520Y-2862480D02*
Y-2801520D01*
X3437480D01*
Y-2862480D01*
X3376520D01*
X3229200Y-3136800D02*
Y-3035200D01*
X3330800D01*
Y-3136800D01*
X3229200D01*
X3249520Y-3116480D02*
Y-3055520D01*
X3310480D01*
Y-3116480D01*
X3249520D01*
X3229200Y-4660800D02*
Y-4559200D01*
X3330800D01*
Y-4660800D01*
X3229200D01*
X3249520Y-4640480D02*
Y-4579520D01*
X3310480D01*
Y-4640480D01*
X3249520D01*
X3229200Y-5168800D02*
Y-5067200D01*
X3330800D01*
Y-5168800D01*
X3229200D01*
X3249520Y-5148480D02*
Y-5087520D01*
X3310480D01*
Y-5148480D01*
X3249520D01*
X2975200Y-2120800D02*
Y-2019200D01*
X3076800D01*
Y-2120800D01*
X2975200D01*
X2995520Y-2100480D02*
Y-2039520D01*
X3056480D01*
Y-2100480D01*
X2995520D01*
X3102200Y-2882800D02*
Y-2781200D01*
X3203800D01*
Y-2882800D01*
X3102200D01*
X3122520Y-2862480D02*
Y-2801520D01*
X3183480D01*
Y-2862480D01*
X3122520D01*
X2975200Y-4152800D02*
Y-4051200D01*
X3076800D01*
Y-4152800D01*
X2975200D01*
X2995520Y-4132480D02*
Y-4071520D01*
X3056480D01*
Y-4132480D01*
X2995520D01*
X3102200Y-4406800D02*
Y-4305200D01*
X3203800D01*
Y-4406800D01*
X3102200D01*
X3122520Y-4386480D02*
Y-4325520D01*
X3183480D01*
Y-4386480D01*
X3122520D01*
X2975200Y-4660800D02*
Y-4559200D01*
X3076800D01*
Y-4660800D01*
X2975200D01*
X2995520Y-4640480D02*
Y-4579520D01*
X3056480D01*
Y-4640480D01*
X2995520D01*
X2975200Y-5168800D02*
Y-5067200D01*
X3076800D01*
Y-5168800D01*
X2975200D01*
X2995520Y-5148480D02*
Y-5087520D01*
X3056480D01*
Y-5148480D01*
X2995520D01*
X2721200Y-1104800D02*
Y-1003200D01*
X2822800D01*
Y-1104800D01*
X2721200D01*
X2741520Y-1084480D02*
Y-1023520D01*
X2802480D01*
Y-1084480D01*
X2741520D01*
X2848200Y-1358800D02*
Y-1257200D01*
X2949800D01*
Y-1358800D01*
X2848200D01*
X2868520Y-1338480D02*
Y-1277520D01*
X2929480D01*
Y-1338480D01*
X2868520D01*
X2721200Y-2120800D02*
Y-2019200D01*
X2822800D01*
Y-2120800D01*
X2721200D01*
X2741520Y-2100480D02*
Y-2039520D01*
X2802480D01*
Y-2100480D01*
X2741520D01*
X2848200Y-2374800D02*
Y-2273200D01*
X2949800D01*
Y-2374800D01*
X2848200D01*
X2868520Y-2354480D02*
Y-2293520D01*
X2929480D01*
Y-2354480D01*
X2868520D01*
X2721200Y-2628800D02*
Y-2527200D01*
X2822800D01*
Y-2628800D01*
X2721200D01*
X2741520Y-2608480D02*
Y-2547520D01*
X2802480D01*
Y-2608480D01*
X2741520D01*
X2848200Y-2882800D02*
Y-2781200D01*
X2949800D01*
Y-2882800D01*
X2848200D01*
X2868520Y-2862480D02*
Y-2801520D01*
X2929480D01*
Y-2862480D01*
X2868520D01*
X2848200Y-4406800D02*
Y-4305200D01*
X2949800D01*
Y-4406800D01*
X2848200D01*
X2868520Y-4386480D02*
Y-4325520D01*
X2929480D01*
Y-4386480D01*
X2868520D01*
X2721200Y-4660800D02*
Y-4559200D01*
X2822800D01*
Y-4660800D01*
X2721200D01*
X2741520Y-4640480D02*
Y-4579520D01*
X2802480D01*
Y-4640480D01*
X2741520D01*
X2848200Y-4914800D02*
Y-4813200D01*
X2949800D01*
Y-4914800D01*
X2848200D01*
X2868520Y-4894480D02*
Y-4833520D01*
X2929480D01*
Y-4894480D01*
X2868520D01*
X2721200Y-5168800D02*
Y-5067200D01*
X2822800D01*
Y-5168800D01*
X2721200D01*
X2741520Y-5148480D02*
Y-5087520D01*
X2802480D01*
Y-5148480D01*
X2741520D01*
X2594200Y-850800D02*
Y-749200D01*
X2695800D01*
Y-850800D01*
X2594200D01*
X2614520Y-830480D02*
Y-769520D01*
X2675480D01*
Y-830480D01*
X2614520D01*
X2467200Y-1612800D02*
Y-1511200D01*
X2568800D01*
Y-1612800D01*
X2467200D01*
X2487520Y-1592480D02*
Y-1531520D01*
X2548480D01*
Y-1592480D01*
X2487520D01*
X2594200Y-1866800D02*
Y-1765200D01*
X2695800D01*
Y-1866800D01*
X2594200D01*
X2614520Y-1846480D02*
Y-1785520D01*
X2675480D01*
Y-1846480D01*
X2614520D01*
X2467200Y-2120800D02*
Y-2019200D01*
X2568800D01*
Y-2120800D01*
X2467200D01*
X2487520Y-2100480D02*
Y-2039520D01*
X2548480D01*
Y-2100480D01*
X2487520D01*
X2594200Y-2374800D02*
Y-2273200D01*
X2695800D01*
Y-2374800D01*
X2594200D01*
X2614520Y-2354480D02*
Y-2293520D01*
X2675480D01*
Y-2354480D01*
X2614520D01*
X2467200Y-3136800D02*
Y-3035200D01*
X2568800D01*
Y-3136800D01*
X2467200D01*
X2487520Y-3116480D02*
Y-3055520D01*
X2548480D01*
Y-3116480D01*
X2487520D01*
X2594200Y-3390800D02*
Y-3289200D01*
X2695800D01*
Y-3390800D01*
X2594200D01*
X2614520Y-3370480D02*
Y-3309520D01*
X2675480D01*
Y-3370480D01*
X2614520D01*
X2467200Y-4152800D02*
Y-4051200D01*
X2568800D01*
Y-4152800D01*
X2467200D01*
X2487520Y-4132480D02*
Y-4071520D01*
X2548480D01*
Y-4132480D01*
X2487520D01*
X2467200Y-5168800D02*
Y-5067200D01*
X2568800D01*
Y-5168800D01*
X2467200D01*
X2487520Y-5148480D02*
Y-5087520D01*
X2548480D01*
Y-5148480D01*
X2487520D01*
X2213200Y-1612800D02*
Y-1511200D01*
X2314800D01*
Y-1612800D01*
X2213200D01*
X2233520Y-1592480D02*
Y-1531520D01*
X2294480D01*
Y-1592480D01*
X2233520D01*
X2340200Y-1866800D02*
Y-1765200D01*
X2441800D01*
Y-1866800D01*
X2340200D01*
X2360520Y-1846480D02*
Y-1785520D01*
X2421480D01*
Y-1846480D01*
X2360520D01*
X2213200Y-2120800D02*
Y-2019200D01*
X2314800D01*
Y-2120800D01*
X2213200D01*
X2233520Y-2100480D02*
Y-2039520D01*
X2294480D01*
Y-2100480D01*
X2233520D01*
X2340200Y-2374800D02*
Y-2273200D01*
X2441800D01*
Y-2374800D01*
X2340200D01*
X2360520Y-2354480D02*
Y-2293520D01*
X2421480D01*
Y-2354480D01*
X2360520D01*
X2213200Y-3136800D02*
Y-3035200D01*
X2314800D01*
Y-3136800D01*
X2213200D01*
X2233520Y-3116480D02*
Y-3055520D01*
X2294480D01*
Y-3116480D01*
X2233520D01*
X2340200Y-3390800D02*
Y-3289200D01*
X2441800D01*
Y-3390800D01*
X2340200D01*
X2360520Y-3370480D02*
Y-3309520D01*
X2421480D01*
Y-3370480D01*
X2360520D01*
X2340200Y-3898800D02*
Y-3797200D01*
X2441800D01*
Y-3898800D01*
X2340200D01*
X2360520Y-3878480D02*
Y-3817520D01*
X2421480D01*
Y-3878480D01*
X2360520D01*
X2213200Y-4152800D02*
Y-4051200D01*
X2314800D01*
Y-4152800D01*
X2213200D01*
X2233520Y-4132480D02*
Y-4071520D01*
X2294480D01*
Y-4132480D01*
X2233520D01*
X2340200Y-4406800D02*
Y-4305200D01*
X2441800D01*
Y-4406800D01*
X2340200D01*
X2360520Y-4386480D02*
Y-4325520D01*
X2421480D01*
Y-4386480D01*
X2360520D01*
X2213200Y-4660800D02*
Y-4559200D01*
X2314800D01*
Y-4660800D01*
X2213200D01*
X2233520Y-4640480D02*
Y-4579520D01*
X2294480D01*
Y-4640480D01*
X2233520D01*
X2213200Y-5168800D02*
Y-5067200D01*
X2314800D01*
Y-5168800D01*
X2213200D01*
X2233520Y-5148480D02*
Y-5087520D01*
X2294480D01*
Y-5148480D01*
X2233520D01*
X1959200Y-1612800D02*
Y-1511200D01*
X2060800D01*
Y-1612800D01*
X1959200D01*
X1979520Y-1592480D02*
Y-1531520D01*
X2040480D01*
Y-1592480D01*
X1979520D01*
X2086200Y-1866800D02*
Y-1765200D01*
X2187800D01*
Y-1866800D01*
X2086200D01*
X2106520Y-1846480D02*
Y-1785520D01*
X2167480D01*
Y-1846480D01*
X2106520D01*
X1959200Y-2628800D02*
Y-2527200D01*
X2060800D01*
Y-2628800D01*
X1959200D01*
X1979520Y-2608480D02*
Y-2547520D01*
X2040480D01*
Y-2608480D01*
X1979520D01*
X2086200Y-2882800D02*
Y-2781200D01*
X2187800D01*
Y-2882800D01*
X2086200D01*
X2106520Y-2862480D02*
Y-2801520D01*
X2167480D01*
Y-2862480D01*
X2106520D01*
X1959200Y-3136800D02*
Y-3035200D01*
X2060800D01*
Y-3136800D01*
X1959200D01*
X1979520Y-3116480D02*
Y-3055520D01*
X2040480D01*
Y-3116480D01*
X1979520D01*
X2086200Y-3390800D02*
Y-3289200D01*
X2187800D01*
Y-3390800D01*
X2086200D01*
X2106520Y-3370480D02*
Y-3309520D01*
X2167480D01*
Y-3370480D01*
X2106520D01*
X2086200Y-3898800D02*
Y-3797200D01*
X2187800D01*
Y-3898800D01*
X2086200D01*
X2106520Y-3878480D02*
Y-3817520D01*
X2167480D01*
Y-3878480D01*
X2106520D01*
X1959200Y-4152800D02*
Y-4051200D01*
X2060800D01*
Y-4152800D01*
X1959200D01*
X1979520Y-4132480D02*
Y-4071520D01*
X2040480D01*
Y-4132480D01*
X1979520D01*
X2086200Y-4406800D02*
Y-4305200D01*
X2187800D01*
Y-4406800D01*
X2086200D01*
X2106520Y-4386480D02*
Y-4325520D01*
X2167480D01*
Y-4386480D01*
X2106520D01*
X2086200Y-4914800D02*
Y-4813200D01*
X2187800D01*
Y-4914800D01*
X2086200D01*
X2106520Y-4894480D02*
Y-4833520D01*
X2167480D01*
Y-4894480D01*
X2106520D01*
X1959200Y-5168800D02*
Y-5067200D01*
X2060800D01*
Y-5168800D01*
X1959200D01*
X1979520Y-5148480D02*
Y-5087520D01*
X2040480D01*
Y-5148480D01*
X1979520D01*
X1832200Y-1866800D02*
Y-1765200D01*
X1933800D01*
Y-1866800D01*
X1832200D01*
X1852520Y-1846480D02*
Y-1785520D01*
X1913480D01*
Y-1846480D01*
X1852520D01*
X1705200Y-2628800D02*
Y-2527200D01*
X1806800D01*
Y-2628800D01*
X1705200D01*
X1725520Y-2608480D02*
Y-2547520D01*
X1786480D01*
Y-2608480D01*
X1725520D01*
X1832200Y-2882800D02*
Y-2781200D01*
X1933800D01*
Y-2882800D01*
X1832200D01*
X1852520Y-2862480D02*
Y-2801520D01*
X1913480D01*
Y-2862480D01*
X1852520D01*
X1705200Y-3136800D02*
Y-3035200D01*
X1806800D01*
Y-3136800D01*
X1705200D01*
X1725520Y-3116480D02*
Y-3055520D01*
X1786480D01*
Y-3116480D01*
X1725520D01*
X1832200Y-3390800D02*
Y-3289200D01*
X1933800D01*
Y-3390800D01*
X1832200D01*
X1852520Y-3370480D02*
Y-3309520D01*
X1913480D01*
Y-3370480D01*
X1852520D01*
X1832200Y-3898800D02*
Y-3797200D01*
X1933800D01*
Y-3898800D01*
X1832200D01*
X1852520Y-3878480D02*
Y-3817520D01*
X1913480D01*
Y-3878480D01*
X1852520D01*
X1705200Y-4660800D02*
Y-4559200D01*
X1806800D01*
Y-4660800D01*
X1705200D01*
X1725520Y-4640480D02*
Y-4579520D01*
X1786480D01*
Y-4640480D01*
X1725520D01*
X1832200Y-4914800D02*
Y-4813200D01*
X1933800D01*
Y-4914800D01*
X1832200D01*
X1852520Y-4894480D02*
Y-4833520D01*
X1913480D01*
Y-4894480D01*
X1852520D01*
X1705200Y-5168800D02*
Y-5067200D01*
X1806800D01*
Y-5168800D01*
X1705200D01*
X1725520Y-5148480D02*
Y-5087520D01*
X1786480D01*
Y-5148480D01*
X1725520D01*
X1451200Y-596800D02*
Y-495200D01*
X1552800D01*
Y-596800D01*
X1451200D01*
X1471520Y-576480D02*
Y-515520D01*
X1532480D01*
Y-576480D01*
X1471520D01*
X1578200Y-2374800D02*
Y-2273200D01*
X1679800D01*
Y-2374800D01*
X1578200D01*
X1598520Y-2354480D02*
Y-2293520D01*
X1659480D01*
Y-2354480D01*
X1598520D01*
X1451200Y-2628800D02*
Y-2527200D01*
X1552800D01*
Y-2628800D01*
X1451200D01*
X1471520Y-2608480D02*
Y-2547520D01*
X1532480D01*
Y-2608480D01*
X1471520D01*
X1578200Y-2882800D02*
Y-2781200D01*
X1679800D01*
Y-2882800D01*
X1578200D01*
X1598520Y-2862480D02*
Y-2801520D01*
X1659480D01*
Y-2862480D01*
X1598520D01*
X1578200Y-4406800D02*
Y-4305200D01*
X1679800D01*
Y-4406800D01*
X1578200D01*
X1598520Y-4386480D02*
Y-4325520D01*
X1659480D01*
Y-4386480D01*
X1598520D01*
X1451200Y-4660800D02*
Y-4559200D01*
X1552800D01*
Y-4660800D01*
X1451200D01*
X1471520Y-4640480D02*
Y-4579520D01*
X1532480D01*
Y-4640480D01*
X1471520D01*
X1578200Y-4914800D02*
Y-4813200D01*
X1679800D01*
Y-4914800D01*
X1578200D01*
X1598520Y-4894480D02*
Y-4833520D01*
X1659480D01*
Y-4894480D01*
X1598520D01*
X1451200Y-5168800D02*
Y-5067200D01*
X1552800D01*
Y-5168800D01*
X1451200D01*
X1471520Y-5148480D02*
Y-5087520D01*
X1532480D01*
Y-5148480D01*
X1471520D01*
X1197200Y-596800D02*
Y-495200D01*
X1298800D01*
Y-596800D01*
X1197200D01*
X1217520Y-576480D02*
Y-515520D01*
X1278480D01*
Y-576480D01*
X1217520D01*
X1324200Y-2374800D02*
Y-2273200D01*
X1425800D01*
Y-2374800D01*
X1324200D01*
X1344520Y-2354480D02*
Y-2293520D01*
X1405480D01*
Y-2354480D01*
X1344520D01*
X1197200Y-2628800D02*
Y-2527200D01*
X1298800D01*
Y-2628800D01*
X1197200D01*
X1217520Y-2608480D02*
Y-2547520D01*
X1278480D01*
Y-2608480D01*
X1217520D01*
X1197200Y-3644800D02*
Y-3543200D01*
X1298800D01*
Y-3644800D01*
X1197200D01*
X1217520Y-3624480D02*
Y-3563520D01*
X1278480D01*
Y-3624480D01*
X1217520D01*
X1197200Y-4152800D02*
Y-4051200D01*
X1298800D01*
Y-4152800D01*
X1197200D01*
X1217520Y-4132480D02*
Y-4071520D01*
X1278480D01*
Y-4132480D01*
X1217520D01*
X1324200Y-4406800D02*
Y-4305200D01*
X1425800D01*
Y-4406800D01*
X1324200D01*
X1344520Y-4386480D02*
Y-4325520D01*
X1405480D01*
Y-4386480D01*
X1344520D01*
X1197200Y-4660800D02*
Y-4559200D01*
X1298800D01*
Y-4660800D01*
X1197200D01*
X1217520Y-4640480D02*
Y-4579520D01*
X1278480D01*
Y-4640480D01*
X1217520D01*
X1324200Y-4914800D02*
Y-4813200D01*
X1425800D01*
Y-4914800D01*
X1324200D01*
X1344520Y-4894480D02*
Y-4833520D01*
X1405480D01*
Y-4894480D01*
X1344520D01*
X1197200Y-5168800D02*
Y-5067200D01*
X1298800D01*
Y-5168800D01*
X1197200D01*
X1217520Y-5148480D02*
Y-5087520D01*
X1278480D01*
Y-5148480D01*
X1217520D01*
X1070200Y-1358800D02*
Y-1257200D01*
X1171800D01*
Y-1358800D01*
X1070200D01*
X1090520Y-1338480D02*
Y-1277520D01*
X1151480D01*
Y-1338480D01*
X1090520D01*
X943200Y-3136800D02*
Y-3035200D01*
X1044800D01*
Y-3136800D01*
X943200D01*
X963520Y-3116480D02*
Y-3055520D01*
X1024480D01*
Y-3116480D01*
X963520D01*
X1070200Y-3390800D02*
Y-3289200D01*
X1171800D01*
Y-3390800D01*
X1070200D01*
X1090520Y-3370480D02*
Y-3309520D01*
X1151480D01*
Y-3370480D01*
X1090520D01*
X943200Y-3644800D02*
Y-3543200D01*
X1044800D01*
Y-3644800D01*
X943200D01*
X963520Y-3624480D02*
Y-3563520D01*
X1024480D01*
Y-3624480D01*
X963520D01*
X1070200Y-3898800D02*
Y-3797200D01*
X1171800D01*
Y-3898800D01*
X1070200D01*
X1090520Y-3878480D02*
Y-3817520D01*
X1151480D01*
Y-3878480D01*
X1090520D01*
X943200Y-4152800D02*
Y-4051200D01*
X1044800D01*
Y-4152800D01*
X943200D01*
X963520Y-4132480D02*
Y-4071520D01*
X1024480D01*
Y-4132480D01*
X963520D01*
X1070200Y-4406800D02*
Y-4305200D01*
X1171800D01*
Y-4406800D01*
X1070200D01*
X1090520Y-4386480D02*
Y-4325520D01*
X1151480D01*
Y-4386480D01*
X1090520D01*
X1070200Y-4914800D02*
Y-4813200D01*
X1171800D01*
Y-4914800D01*
X1070200D01*
X1090520Y-4894480D02*
Y-4833520D01*
X1151480D01*
Y-4894480D01*
X1090520D01*
X943200Y-5168800D02*
Y-5067200D01*
X1044800D01*
Y-5168800D01*
X943200D01*
X963520Y-5148480D02*
Y-5087520D01*
X1024480D01*
Y-5148480D01*
X963520D01*
X816200Y-1358800D02*
Y-1257200D01*
X917800D01*
Y-1358800D01*
X816200D01*
X836520Y-1338480D02*
Y-1277520D01*
X897480D01*
Y-1338480D01*
X836520D01*
X689200Y-2120800D02*
Y-2019200D01*
X790800D01*
Y-2120800D01*
X689200D01*
X709520Y-2100480D02*
Y-2039520D01*
X770480D01*
Y-2100480D01*
X709520D01*
X689200Y-2628800D02*
Y-2527200D01*
X790800D01*
Y-2628800D01*
X689200D01*
X709520Y-2608480D02*
Y-2547520D01*
X770480D01*
Y-2608480D01*
X709520D01*
X816200Y-2882800D02*
Y-2781200D01*
X917800D01*
Y-2882800D01*
X816200D01*
X836520Y-2862480D02*
Y-2801520D01*
X897480D01*
Y-2862480D01*
X836520D01*
X689200Y-3136800D02*
Y-3035200D01*
X790800D01*
Y-3136800D01*
X689200D01*
X709520Y-3116480D02*
Y-3055520D01*
X770480D01*
Y-3116480D01*
X709520D01*
X816200Y-3390800D02*
Y-3289200D01*
X917800D01*
Y-3390800D01*
X816200D01*
X836520Y-3370480D02*
Y-3309520D01*
X897480D01*
Y-3370480D01*
X836520D01*
X689200Y-3644800D02*
Y-3543200D01*
X790800D01*
Y-3644800D01*
X689200D01*
X709520Y-3624480D02*
Y-3563520D01*
X770480D01*
Y-3624480D01*
X709520D01*
X816200Y-3898800D02*
Y-3797200D01*
X917800D01*
Y-3898800D01*
X816200D01*
X836520Y-3878480D02*
Y-3817520D01*
X897480D01*
Y-3878480D01*
X836520D01*
X689200Y-4152800D02*
Y-4051200D01*
X790800D01*
Y-4152800D01*
X689200D01*
X709520Y-4132480D02*
Y-4071520D01*
X770480D01*
Y-4132480D01*
X709520D01*
X689200Y-4660800D02*
Y-4559200D01*
X790800D01*
Y-4660800D01*
X689200D01*
X709520Y-4640480D02*
Y-4579520D01*
X770480D01*
Y-4640480D01*
X709520D01*
X816200Y-4914800D02*
Y-4813200D01*
X917800D01*
Y-4914800D01*
X816200D01*
X836520Y-4894480D02*
Y-4833520D01*
X897480D01*
Y-4894480D01*
X836520D01*
X689200Y-5168800D02*
Y-5067200D01*
X790800D01*
Y-5168800D01*
X689200D01*
X709520Y-5148480D02*
Y-5087520D01*
X770480D01*
Y-5148480D01*
X709520D01*
X435200Y-1104800D02*
Y-1003200D01*
X536800D01*
Y-1104800D01*
X435200D01*
X455520Y-1084480D02*
Y-1023520D01*
X516480D01*
Y-1084480D01*
X455520D01*
X562200Y-1866800D02*
Y-1765200D01*
X663800D01*
Y-1866800D01*
X562200D01*
X582520Y-1846480D02*
Y-1785520D01*
X643480D01*
Y-1846480D01*
X582520D01*
X435200Y-2120800D02*
Y-2019200D01*
X536800D01*
Y-2120800D01*
X435200D01*
X455520Y-2100480D02*
Y-2039520D01*
X516480D01*
Y-2100480D01*
X455520D01*
X562200Y-2374800D02*
Y-2273200D01*
X663800D01*
Y-2374800D01*
X562200D01*
X582520Y-2354480D02*
Y-2293520D01*
X643480D01*
Y-2354480D01*
X582520D01*
X435200Y-2628800D02*
Y-2527200D01*
X536800D01*
Y-2628800D01*
X435200D01*
X455520Y-2608480D02*
Y-2547520D01*
X516480D01*
Y-2608480D01*
X455520D01*
X562200Y-2882800D02*
Y-2781200D01*
X663800D01*
Y-2882800D01*
X562200D01*
X582520Y-2862480D02*
Y-2801520D01*
X643480D01*
Y-2862480D01*
X582520D01*
X435200Y-3136800D02*
Y-3035200D01*
X536800D01*
Y-3136800D01*
X435200D01*
X455520Y-3116480D02*
Y-3055520D01*
X516480D01*
Y-3116480D01*
X455520D01*
X562200Y-3390800D02*
Y-3289200D01*
X663800D01*
Y-3390800D01*
X562200D01*
X582520Y-3370480D02*
Y-3309520D01*
X643480D01*
Y-3370480D01*
X582520D01*
X435200Y-3644800D02*
Y-3543200D01*
X536800D01*
Y-3644800D01*
X435200D01*
X455520Y-3624480D02*
Y-3563520D01*
X516480D01*
Y-3624480D01*
X455520D01*
X562200Y-3898800D02*
Y-3797200D01*
X663800D01*
Y-3898800D01*
X562200D01*
X582520Y-3878480D02*
Y-3817520D01*
X643480D01*
Y-3878480D01*
X582520D01*
X435200Y-4152800D02*
Y-4051200D01*
X536800D01*
Y-4152800D01*
X435200D01*
X455520Y-4132480D02*
Y-4071520D01*
X516480D01*
Y-4132480D01*
X455520D01*
X562200Y-4406800D02*
Y-4305200D01*
X663800D01*
Y-4406800D01*
X562200D01*
X582520Y-4386480D02*
Y-4325520D01*
X643480D01*
Y-4386480D01*
X582520D01*
X435200Y-4660800D02*
Y-4559200D01*
X536800D01*
Y-4660800D01*
X435200D01*
X455520Y-4640480D02*
Y-4579520D01*
X516480D01*
Y-4640480D01*
X455520D01*
X181200Y-1104800D02*
Y-1003200D01*
X282800D01*
Y-1104800D01*
X181200D01*
X201520Y-1084480D02*
Y-1023520D01*
X262480D01*
Y-1084480D01*
X201520D01*
X308200Y-1866800D02*
Y-1765200D01*
X409800D01*
Y-1866800D01*
X308200D01*
X328520Y-1846480D02*
Y-1785520D01*
X389480D01*
Y-1846480D01*
X328520D01*
X181200Y-2628800D02*
Y-2527200D01*
X282800D01*
Y-2628800D01*
X181200D01*
X201520Y-2608480D02*
Y-2547520D01*
X262480D01*
Y-2608480D01*
X201520D01*
X308200Y-2882800D02*
Y-2781200D01*
X409800D01*
Y-2882800D01*
X308200D01*
X328520Y-2862480D02*
Y-2801520D01*
X389480D01*
Y-2862480D01*
X328520D01*
X181200Y-3136800D02*
Y-3035200D01*
X282800D01*
Y-3136800D01*
X181200D01*
X201520Y-3116480D02*
Y-3055520D01*
X262480D01*
Y-3116480D01*
X201520D01*
X308200Y-3390800D02*
Y-3289200D01*
X409800D01*
Y-3390800D01*
X308200D01*
X328520Y-3370480D02*
Y-3309520D01*
X389480D01*
Y-3370480D01*
X328520D01*
X181200Y-3644800D02*
Y-3543200D01*
X282800D01*
Y-3644800D01*
X181200D01*
X201520Y-3624480D02*
Y-3563520D01*
X262480D01*
Y-3624480D01*
X201520D01*
X308200Y-3898800D02*
Y-3797200D01*
X409800D01*
Y-3898800D01*
X308200D01*
X328520Y-3878480D02*
Y-3817520D01*
X389480D01*
Y-3878480D01*
X328520D01*
X181200Y-4152800D02*
Y-4051200D01*
X282800D01*
Y-4152800D01*
X181200D01*
X201520Y-4132480D02*
Y-4071520D01*
X262480D01*
Y-4132480D01*
X201520D01*
X308200Y-4406800D02*
Y-4305200D01*
X409800D01*
Y-4406800D01*
X308200D01*
X328520Y-4386480D02*
Y-4325520D01*
X389480D01*
Y-4386480D01*
X328520D01*
X181200Y-4660800D02*
Y-4559200D01*
X282800D01*
Y-4660800D01*
X181200D01*
X201520Y-4640480D02*
Y-4579520D01*
X262480D01*
Y-4640480D01*
X201520D01*
D64*
X14750800Y-3100000D02*
G03*
X14750800Y-3100000I-50800J0D01*
G01*
X15050800Y-2000000D02*
G03*
X15050800Y-2000000I-50800J0D01*
G01*
X18900800Y-2775000D02*
G03*
X18900800Y-2775000I-50800J0D01*
G01*
X10150800Y-2000000D02*
G03*
X10150800Y-2000000I-50800J0D01*
G01*
X5350800D02*
G03*
X5350800Y-2000000I-50800J0D01*
G01*
X18350800Y-3920000D02*
G03*
X18350800Y-3920000I-50800J0D01*
G01*
X17350800D02*
G03*
X17350800Y-3920000I-50800J0D01*
G01*
X18350800Y-4940000D02*
G03*
X18350800Y-4940000I-50800J0D01*
G01*
X17350800D02*
G03*
X17350800Y-4940000I-50800J0D01*
G01*
X16350800Y-3920000D02*
G03*
X16350800Y-3920000I-50800J0D01*
G01*
X15350800D02*
G03*
X15350800Y-3920000I-50800J0D01*
G01*
X16350800Y-4940000D02*
G03*
X16350800Y-4940000I-50800J0D01*
G01*
X15350800D02*
G03*
X15350800Y-4940000I-50800J0D01*
G01*
X5300800Y-3800000D02*
G03*
X5300800Y-3800000I-50800J0D01*
G01*
X13601660Y-828040D02*
G03*
X13601660Y-828040I-50800J0D01*
G01*
X7875800Y-3800000D02*
G03*
X7875800Y-3800000I-50800J0D01*
G01*
X5650800Y-4750000D02*
G03*
X5650800Y-4750000I-50800J0D01*
G01*
X4525800Y-3800000D02*
G03*
X4525800Y-3800000I-50800J0D01*
G01*
X10934700Y-2882900D02*
G03*
X10934700Y-2882900I-50800J0D01*
G01*
X5872480Y-2702560D02*
G03*
X5872480Y-2702560I-50800J0D01*
G01*
X18417500Y-822920D02*
G03*
X18417500Y-822920I-50800J0D01*
G01*
X8735020Y-835660D02*
G03*
X8735020Y-835660I-50800J0D01*
G01*
X3916640Y-830580D02*
G03*
X3916640Y-830580I-50800J0D01*
G01*
D65*
X13581340Y-828040D02*
G03*
X13581340Y-828040I-30480J0D01*
G01*
X7855480Y-3800000D02*
G03*
X7855480Y-3800000I-30480J0D01*
G01*
X5630480Y-4750000D02*
G03*
X5630480Y-4750000I-30480J0D01*
G01*
X4505480Y-3800000D02*
G03*
X4505480Y-3800000I-30480J0D01*
G01*
X10914380Y-2882900D02*
G03*
X10914380Y-2882900I-30480J0D01*
G01*
X5852160Y-2702560D02*
G03*
X5852160Y-2702560I-30480J0D01*
G01*
X18397180Y-822920D02*
G03*
X18397180Y-822920I-30480J0D01*
G01*
X8714700Y-835660D02*
G03*
X8714700Y-835660I-30480J0D01*
G01*
X3896320Y-830580D02*
G03*
X3896320Y-830580I-30480J0D01*
G01*
%TF.MD5,6bd381cbdc01a4927b24580c406a2007*%
M02*
