%TF.GenerationSoftware,Altium Limited,Altium Designer,21.6.4 (81)*%
G04 Layer_Physical_Order=1*
G04 Layer_Color=255*
%FSLAX45Y45*%
%MOMM*%
%TF.SameCoordinates,E19561C2-E2DB-472D-B720-4EF24A879867*%
%TF.FilePolarity,Positive*%
%TF.FileFunction,Copper,L1,Top,Signal*%
%TF.Part,Single*%
G01*
G75*
%TA.AperFunction,SMDPad,CuDef*%
G04:AMPARAMS|DCode=10|XSize=3.7mm|YSize=1.7mm|CornerRadius=0.425mm|HoleSize=0mm|Usage=FLASHONLY|Rotation=90.000|XOffset=0mm|YOffset=0mm|HoleType=Round|Shape=RoundedRectangle|*
%AMROUNDEDRECTD10*
21,1,3.70000,0.85000,0,0,90.0*
21,1,2.85000,1.70000,0,0,90.0*
1,1,0.85000,0.42500,1.42500*
1,1,0.85000,0.42500,-1.42500*
1,1,0.85000,-0.42500,-1.42500*
1,1,0.85000,-0.42500,1.42500*
%
%ADD10ROUNDEDRECTD10*%
G04:AMPARAMS|DCode=11|XSize=1.2mm|YSize=1.3mm|CornerRadius=0.3mm|HoleSize=0mm|Usage=FLASHONLY|Rotation=90.000|XOffset=0mm|YOffset=0mm|HoleType=Round|Shape=RoundedRectangle|*
%AMROUNDEDRECTD11*
21,1,1.20000,0.70000,0,0,90.0*
21,1,0.60000,1.30000,0,0,90.0*
1,1,0.60000,0.35000,0.30000*
1,1,0.60000,0.35000,-0.30000*
1,1,0.60000,-0.35000,-0.30000*
1,1,0.60000,-0.35000,0.30000*
%
%ADD11ROUNDEDRECTD11*%
G04:AMPARAMS|DCode=12|XSize=3.3mm|YSize=1.5mm|CornerRadius=0.375mm|HoleSize=0mm|Usage=FLASHONLY|Rotation=90.000|XOffset=0mm|YOffset=0mm|HoleType=Round|Shape=RoundedRectangle|*
%AMROUNDEDRECTD12*
21,1,3.30000,0.75000,0,0,90.0*
21,1,2.55000,1.50000,0,0,90.0*
1,1,0.75000,0.37500,1.27500*
1,1,0.75000,0.37500,-1.27500*
1,1,0.75000,-0.37500,-1.27500*
1,1,0.75000,-0.37500,1.27500*
%
%ADD12ROUNDEDRECTD12*%
G04:AMPARAMS|DCode=13|XSize=1.2mm|YSize=1.3mm|CornerRadius=0.3mm|HoleSize=0mm|Usage=FLASHONLY|Rotation=180.000|XOffset=0mm|YOffset=0mm|HoleType=Round|Shape=RoundedRectangle|*
%AMROUNDEDRECTD13*
21,1,1.20000,0.70000,0,0,180.0*
21,1,0.60000,1.30000,0,0,180.0*
1,1,0.60000,-0.30000,0.35000*
1,1,0.60000,0.30000,0.35000*
1,1,0.60000,0.30000,-0.35000*
1,1,0.60000,-0.30000,-0.35000*
%
%ADD13ROUNDEDRECTD13*%
G04:AMPARAMS|DCode=14|XSize=3.7mm|YSize=1.7mm|CornerRadius=0.425mm|HoleSize=0mm|Usage=FLASHONLY|Rotation=180.000|XOffset=0mm|YOffset=0mm|HoleType=Round|Shape=RoundedRectangle|*
%AMROUNDEDRECTD14*
21,1,3.70000,0.85000,0,0,180.0*
21,1,2.85000,1.70000,0,0,180.0*
1,1,0.85000,-1.42500,0.42500*
1,1,0.85000,1.42500,0.42500*
1,1,0.85000,1.42500,-0.42500*
1,1,0.85000,-1.42500,-0.42500*
%
%ADD14ROUNDEDRECTD14*%
G04:AMPARAMS|DCode=15|XSize=1.7mm|YSize=1.4mm|CornerRadius=0.35mm|HoleSize=0mm|Usage=FLASHONLY|Rotation=180.000|XOffset=0mm|YOffset=0mm|HoleType=Round|Shape=RoundedRectangle|*
%AMROUNDEDRECTD15*
21,1,1.70000,0.70000,0,0,180.0*
21,1,1.00000,1.40000,0,0,180.0*
1,1,0.70000,-0.50000,0.35000*
1,1,0.70000,0.50000,0.35000*
1,1,0.70000,0.50000,-0.35000*
1,1,0.70000,-0.50000,-0.35000*
%
%ADD15ROUNDEDRECTD15*%
G04:AMPARAMS|DCode=16|XSize=1.7mm|YSize=1.4mm|CornerRadius=0.35mm|HoleSize=0mm|Usage=FLASHONLY|Rotation=90.000|XOffset=0mm|YOffset=0mm|HoleType=Round|Shape=RoundedRectangle|*
%AMROUNDEDRECTD16*
21,1,1.70000,0.70000,0,0,90.0*
21,1,1.00000,1.40000,0,0,90.0*
1,1,0.70000,0.35000,0.50000*
1,1,0.70000,0.35000,-0.50000*
1,1,0.70000,-0.35000,-0.50000*
1,1,0.70000,-0.35000,0.50000*
%
%ADD16ROUNDEDRECTD16*%
%TA.AperFunction,Conductor*%
%ADD17C,1.00000*%
%TA.AperFunction,ComponentPad*%
%ADD18C,1.42240*%
%ADD19C,2.00000*%
G04:AMPARAMS|DCode=20|XSize=1.8mm|YSize=1.8mm|CornerRadius=0mm|HoleSize=0mm|Usage=FLASHONLY|Rotation=180.000|XOffset=0mm|YOffset=0mm|HoleType=Round|Shape=Octagon|*
%AMOCTAGOND20*
4,1,8,-0.90000,0.45000,-0.90000,-0.45000,-0.45000,-0.90000,0.45000,-0.90000,0.90000,-0.45000,0.90000,0.45000,0.45000,0.90000,-0.45000,0.90000,-0.90000,0.45000,0.0*
%
%ADD20OCTAGOND20*%

%ADD21C,1.80000*%
%ADD22C,1.50000*%
G04:AMPARAMS|DCode=23|XSize=1.5mm|YSize=1.5mm|CornerRadius=0mm|HoleSize=0mm|Usage=FLASHONLY|Rotation=180.000|XOffset=0mm|YOffset=0mm|HoleType=Round|Shape=Octagon|*
%AMOCTAGOND23*
4,1,8,-0.75000,0.37500,-0.75000,-0.37500,-0.37500,-0.75000,0.37500,-0.75000,0.75000,-0.37500,0.75000,0.37500,0.37500,0.75000,-0.37500,0.75000,-0.75000,0.37500,0.0*
%
%ADD23OCTAGOND23*%

%ADD24C,2.20000*%
G04:AMPARAMS|DCode=25|XSize=1.3mm|YSize=1.3mm|CornerRadius=0mm|HoleSize=0mm|Usage=FLASHONLY|Rotation=270.000|XOffset=0mm|YOffset=0mm|HoleType=Round|Shape=Octagon|*
%AMOCTAGOND25*
4,1,8,-0.32500,-0.65000,0.32500,-0.65000,0.65000,-0.32500,0.65000,0.32500,0.32500,0.65000,-0.32500,0.65000,-0.65000,0.32500,-0.65000,-0.32500,-0.32500,-0.65000,0.0*
%
%ADD25OCTAGOND25*%

%ADD26C,1.30000*%
%ADD27C,3.50000*%
%TA.AperFunction,ViaPad*%
%ADD28C,3.50000*%
%TA.AperFunction,ComponentPad*%
G04:AMPARAMS|DCode=29|XSize=2.5mm|YSize=2.5mm|CornerRadius=0mm|HoleSize=0mm|Usage=FLASHONLY|Rotation=0.000|XOffset=0mm|YOffset=0mm|HoleType=Round|Shape=Octagon|*
%AMOCTAGOND29*
4,1,8,1.25000,-0.62500,1.25000,0.62500,0.62500,1.25000,-0.62500,1.25000,-1.25000,0.62500,-1.25000,-0.62500,-0.62500,-1.25000,0.62500,-1.25000,1.25000,-0.62500,0.0*
%
%ADD29OCTAGOND29*%

%ADD30C,2.50000*%
%TA.AperFunction,ViaPad*%
%ADD31C,0.80000*%
%ADD32C,1.27000*%
G36*
X4694920Y-2227921D02*
X4576079D01*
Y-2161625D01*
X4580459Y-2154038D01*
X4590000Y-2118431D01*
Y-2081569D01*
X4580459Y-2045962D01*
X4562028Y-2014038D01*
X4535962Y-1987972D01*
X4504038Y-1969541D01*
X4468431Y-1960000D01*
X4431569D01*
X4395962Y-1969541D01*
X4364038Y-1987972D01*
X4337973Y-2014038D01*
X4319541Y-2045962D01*
X4310000Y-2081569D01*
Y-2118431D01*
X4319541Y-2154038D01*
X4323922Y-2161625D01*
Y-2270079D01*
X4310000Y-2284000D01*
Y-2424000D01*
X4380000Y-2494000D01*
X4520000D01*
X4533921Y-2480079D01*
X4694920D01*
Y-2555080D01*
X7194920D01*
X7394920Y-2755080D01*
X12693231D01*
X12701871Y-2758659D01*
X12733749Y-2765000D01*
X12766251D01*
X12798129Y-2758659D01*
X12806769Y-2755080D01*
X13157581D01*
X13167500Y-2765000D01*
X13332500D01*
X13342419Y-2755080D01*
X15088986D01*
Y-2772500D01*
X15093024Y-2803173D01*
X15104865Y-2831757D01*
X15123698Y-2856302D01*
X15148244Y-2875136D01*
X15176826Y-2886975D01*
X15207500Y-2891014D01*
X15492500D01*
X15523174Y-2886975D01*
X15551756Y-2875136D01*
X15556874Y-2871209D01*
X15569142Y-2874496D01*
X15570483Y-2877733D01*
X15572391Y-2880220D01*
Y-2910691D01*
X15562444Y-2934710D01*
X15558833Y-2962120D01*
Y-3022120D01*
X15562444Y-3049530D01*
X15573022Y-3075073D01*
X15589853Y-3097007D01*
X15611787Y-3113837D01*
X15632336Y-3122349D01*
X15634486Y-3135815D01*
X15634377Y-3136261D01*
X15625087Y-3142467D01*
X15612930Y-3160660D01*
X15608662Y-3182120D01*
Y-3187120D01*
X15699741D01*
X15790817D01*
Y-3182120D01*
X15786549Y-3160660D01*
X15774393Y-3142467D01*
X15765105Y-3136261D01*
X15764993Y-3135815D01*
X15767143Y-3122349D01*
X15787692Y-3113837D01*
X15809627Y-3097007D01*
X15826457Y-3075073D01*
X15837038Y-3049530D01*
X15840646Y-3022120D01*
Y-2962120D01*
X15837038Y-2934710D01*
X15826457Y-2909167D01*
X15824548Y-2906680D01*
Y-2876209D01*
X15834497Y-2852190D01*
X15838106Y-2824780D01*
Y-2764780D01*
X15838086Y-2764628D01*
X15846460Y-2755080D01*
X16444920D01*
Y-3799484D01*
X16432220Y-3804733D01*
X16411555Y-3784068D01*
X16382893Y-3764917D01*
X16351047Y-3751725D01*
X16317236Y-3745000D01*
X16282764D01*
X16248953Y-3751725D01*
X16217107Y-3764917D01*
X16188445Y-3784068D01*
X16164069Y-3808444D01*
X16144917Y-3837106D01*
X16131725Y-3868954D01*
X16125000Y-3902764D01*
Y-3937236D01*
X16131725Y-3971046D01*
X16144917Y-4002894D01*
X16164069Y-4031556D01*
X16188445Y-4055932D01*
X16217107Y-4075083D01*
X16248953Y-4088275D01*
X16282764Y-4095000D01*
X16317236D01*
X16351047Y-4088275D01*
X16382893Y-4075083D01*
X16411555Y-4055932D01*
X16432220Y-4035268D01*
X16444920Y-4040516D01*
Y-4555080D01*
X15494920D01*
X15244920Y-4305080D01*
X8694920D01*
X7981014Y-3591174D01*
Y-3307500D01*
X7976976Y-3276827D01*
X7965136Y-3248243D01*
X7962461Y-3244757D01*
Y-3176384D01*
X7962461Y-3176382D01*
X7958165Y-3143751D01*
X7945570Y-3113343D01*
X7925533Y-3087231D01*
X7925532Y-3087230D01*
X7894785Y-3056483D01*
X7892297Y-3037590D01*
X7881717Y-3012047D01*
X7864887Y-2990113D01*
X7842953Y-2973283D01*
X7817410Y-2962703D01*
X7790000Y-2959094D01*
X7730000D01*
X7702590Y-2962703D01*
X7677047Y-2973283D01*
X7655113Y-2990113D01*
X7644886D01*
X7622953Y-2973283D01*
X7597410Y-2962703D01*
X7570000Y-2959094D01*
X7510000D01*
X7482590Y-2962703D01*
X7457047Y-2973283D01*
X7456215Y-2973921D01*
X7443785D01*
X7442953Y-2973283D01*
X7417410Y-2962703D01*
X7390000Y-2959094D01*
X7330000D01*
X7302590Y-2962703D01*
X7277047Y-2973283D01*
X7255114Y-2990113D01*
X7244886D01*
X7222953Y-2973283D01*
X7197410Y-2962703D01*
X7170000Y-2959094D01*
X7110000D01*
X7082590Y-2962703D01*
X7057047Y-2973283D01*
X7056215Y-2973921D01*
X6943785D01*
X6942953Y-2973283D01*
X6917410Y-2962703D01*
X6890000Y-2959094D01*
X6830000D01*
X6802590Y-2962703D01*
X6777047Y-2973283D01*
X6758752Y-2987321D01*
X6750000Y-2989084D01*
X6741248Y-2987321D01*
X6722953Y-2973283D01*
X6697410Y-2962703D01*
X6670000Y-2959094D01*
X6610000D01*
X6582590Y-2962703D01*
X6557047Y-2973283D01*
X6556215Y-2973921D01*
X6543785D01*
X6542953Y-2973283D01*
X6517410Y-2962703D01*
X6490000Y-2959094D01*
X6430000D01*
X6402590Y-2962703D01*
X6377047Y-2973283D01*
X6355114Y-2990113D01*
X6344886D01*
X6322953Y-2973283D01*
X6297410Y-2962703D01*
X6270000Y-2959094D01*
X6210000D01*
X6182590Y-2962703D01*
X6157047Y-2973283D01*
X6156215Y-2973921D01*
X6043785D01*
X6042953Y-2973283D01*
X6017410Y-2962703D01*
X5990000Y-2959094D01*
X5930000D01*
X5902590Y-2962703D01*
X5877047Y-2973283D01*
X5855114Y-2990113D01*
X5844886D01*
X5822953Y-2973283D01*
X5797410Y-2962703D01*
X5770000Y-2959094D01*
X5710000D01*
X5682590Y-2962703D01*
X5657047Y-2973283D01*
X5656215Y-2973921D01*
X5643785D01*
X5642953Y-2973283D01*
X5617410Y-2962703D01*
X5590000Y-2959094D01*
X5530000D01*
X5502589Y-2962703D01*
X5477047Y-2973283D01*
X5455113Y-2990113D01*
X5444886D01*
X5422953Y-2973283D01*
X5397410Y-2962703D01*
X5370000Y-2959094D01*
X5310000D01*
X5282589Y-2962703D01*
X5257047Y-2973283D01*
X5235113Y-2990113D01*
X5231350Y-2995017D01*
X5218650D01*
X5214887Y-2990113D01*
X5192953Y-2973283D01*
X5167410Y-2962703D01*
X5140000Y-2959094D01*
X5080000D01*
X5052590Y-2962703D01*
X5027047Y-2973283D01*
X5008752Y-2987321D01*
X5000000Y-2989084D01*
X4991248Y-2987321D01*
X4972953Y-2973283D01*
X4947410Y-2962703D01*
X4920000Y-2959094D01*
X4860000D01*
X4832590Y-2962703D01*
X4807047Y-2973283D01*
X4806215Y-2973921D01*
X4793785D01*
X4792953Y-2973283D01*
X4767410Y-2962703D01*
X4740000Y-2959094D01*
X4680000D01*
X4652590Y-2962703D01*
X4627047Y-2973283D01*
X4605113Y-2990113D01*
X4594886D01*
X4572953Y-2973283D01*
X4547410Y-2962703D01*
X4520000Y-2959094D01*
X4460000D01*
X4432590Y-2962703D01*
X4407047Y-2973283D01*
X4385113Y-2990113D01*
X4368283Y-3012047D01*
X4357702Y-3037590D01*
X4354094Y-3065000D01*
Y-3135000D01*
X4357702Y-3162410D01*
X4358921Y-3165353D01*
Y-3219690D01*
X4353698Y-3223698D01*
X4334864Y-3248243D01*
X4323024Y-3276827D01*
X4318986Y-3307500D01*
Y-3592500D01*
X4323024Y-3623174D01*
X4334864Y-3651757D01*
X4351421Y-3673335D01*
Y-3737044D01*
X4345938Y-3746541D01*
X4336500Y-3781766D01*
Y-3818234D01*
X4345938Y-3853459D01*
X4351421Y-3862956D01*
Y-3926665D01*
X4334864Y-3948243D01*
X4323024Y-3976826D01*
X4318986Y-4007500D01*
Y-4232712D01*
X4280472Y-4271226D01*
X4260436Y-4297337D01*
X4247840Y-4327745D01*
X4243544Y-4360377D01*
Y-4479624D01*
X4247840Y-4512255D01*
X4254094Y-4527352D01*
Y-4535000D01*
X4257702Y-4562411D01*
X4268283Y-4587953D01*
X4285113Y-4609887D01*
X4307047Y-4626718D01*
X4332590Y-4637298D01*
X4360000Y-4640906D01*
X4420000D01*
X4447410Y-4637298D01*
X4472953Y-4626718D01*
X4491248Y-4612680D01*
X4500000Y-4610917D01*
X4508752Y-4612680D01*
X4527047Y-4626718D01*
X4552590Y-4637298D01*
X4580000Y-4640906D01*
X4640000D01*
X4667410Y-4637298D01*
X4682220Y-4631163D01*
X4694920Y-4639649D01*
Y-5236276D01*
X63725D01*
X63724Y-857217D01*
X76424Y-856385D01*
X79342Y-878550D01*
X89923Y-904093D01*
X106753Y-926027D01*
X128687Y-942857D01*
X154230Y-953438D01*
X181640Y-957046D01*
X251640D01*
X279050Y-953438D01*
X294769Y-946927D01*
X318943Y-965476D01*
X347526Y-977316D01*
X378200Y-981354D01*
X566239D01*
X569429Y-985511D01*
X595540Y-1005547D01*
X625948Y-1018143D01*
X658580Y-1022439D01*
X775373D01*
X775944Y-1023817D01*
X794778Y-1048362D01*
X819323Y-1067196D01*
X847906Y-1079035D01*
X878580Y-1083074D01*
X1163580D01*
X1194254Y-1079035D01*
X1222837Y-1067196D01*
X1244897Y-1050269D01*
X1311696D01*
X1317313Y-1061659D01*
X1316003Y-1063367D01*
X1305423Y-1088910D01*
X1301814Y-1116320D01*
Y-1176320D01*
X1305423Y-1203730D01*
X1316003Y-1229273D01*
X1316641Y-1230105D01*
Y-1246737D01*
X1307963Y-1267690D01*
X1304354Y-1295100D01*
Y-1355100D01*
X1307963Y-1382510D01*
X1318543Y-1408053D01*
X1332581Y-1426348D01*
X1334344Y-1435100D01*
X1332581Y-1443852D01*
X1318543Y-1462147D01*
X1307963Y-1487690D01*
X1304354Y-1515100D01*
Y-1575100D01*
X1307963Y-1602510D01*
X1318543Y-1628053D01*
X1319181Y-1628885D01*
Y-1645955D01*
X1318543Y-1646787D01*
X1307963Y-1672330D01*
X1304354Y-1699740D01*
Y-1759740D01*
X1307963Y-1787150D01*
X1317825Y-1810961D01*
X1312917Y-1823661D01*
X1147159D01*
Y-1723074D01*
X1163580D01*
X1194254Y-1719036D01*
X1222837Y-1707196D01*
X1247382Y-1688362D01*
X1266216Y-1663817D01*
X1278056Y-1635234D01*
X1282094Y-1604560D01*
Y-1519560D01*
X1278056Y-1488887D01*
X1266216Y-1460303D01*
X1247382Y-1435758D01*
X1222837Y-1416924D01*
X1194254Y-1405085D01*
X1163580Y-1401046D01*
X878580D01*
X847906Y-1405085D01*
X819323Y-1416924D01*
X794778Y-1435758D01*
X775944Y-1460303D01*
X764104Y-1488887D01*
X760066Y-1519560D01*
Y-1604560D01*
X764104Y-1635234D01*
X775944Y-1663817D01*
X794778Y-1688362D01*
X819323Y-1707196D01*
X847906Y-1719036D01*
X878580Y-1723074D01*
X895001D01*
Y-1954425D01*
Y-2636520D01*
X899297Y-2669152D01*
X911893Y-2699559D01*
X931929Y-2725671D01*
X1340922Y-3134664D01*
X1340921Y-3960697D01*
X1334072Y-3970948D01*
X1322765Y-3998247D01*
X1317000Y-4027226D01*
Y-4056774D01*
X1322765Y-4085753D01*
X1334072Y-4113052D01*
X1350488Y-4137619D01*
X1371381Y-4158513D01*
X1395948Y-4174928D01*
X1423247Y-4186235D01*
X1452226Y-4192000D01*
X1481774D01*
X1510753Y-4186235D01*
X1538052Y-4174928D01*
X1562619Y-4158513D01*
X1583513Y-4137619D01*
X1599928Y-4113052D01*
X1611236Y-4085753D01*
X1613286Y-4075445D01*
X1626320Y-4075018D01*
X1627815Y-4080598D01*
X1640980Y-4103401D01*
X1659599Y-4122020D01*
X1671001Y-4128603D01*
Y-4042001D01*
Y-3955397D01*
X1659599Y-3961980D01*
X1640980Y-3980599D01*
X1627815Y-4003402D01*
X1626320Y-4008982D01*
X1613286Y-4008555D01*
X1611236Y-3998247D01*
X1599928Y-3970948D01*
X1593079Y-3960698D01*
X1593079Y-3082440D01*
X1588783Y-3049809D01*
X1576188Y-3019401D01*
X1556152Y-2993289D01*
X1147159Y-2584296D01*
Y-2075819D01*
X1367836D01*
X1382850Y-2082037D01*
X1410260Y-2085646D01*
X1480260D01*
X1507670Y-2082037D01*
X1533213Y-2071457D01*
X1555147Y-2054627D01*
X1564384Y-2042588D01*
X1581240Y-2041484D01*
X2803435Y-3263678D01*
X2803440Y-3263682D01*
X2994408Y-3454650D01*
X2994409Y-3454651D01*
X3020521Y-3474687D01*
X3050929Y-3487283D01*
X3083560Y-3491579D01*
X3450436D01*
X3468021Y-3509164D01*
Y-3802575D01*
X3460678Y-3806299D01*
X3455321Y-3807069D01*
X3435719Y-3787467D01*
X3411152Y-3771052D01*
X3383853Y-3759745D01*
X3354874Y-3753980D01*
X3325326D01*
X3296347Y-3759745D01*
X3269048Y-3771052D01*
X3244481Y-3787467D01*
X3223587Y-3808361D01*
X3207172Y-3832928D01*
X3195865Y-3860227D01*
X3193814Y-3870535D01*
X3180780Y-3870962D01*
X3179285Y-3865382D01*
X3166120Y-3842579D01*
X3147501Y-3823960D01*
X3136100Y-3817378D01*
Y-3903979D01*
Y-3990582D01*
X3147501Y-3984000D01*
X3166120Y-3965381D01*
X3179285Y-3942578D01*
X3180780Y-3936998D01*
X3193814Y-3937425D01*
X3195865Y-3947733D01*
X3207172Y-3975032D01*
X3223587Y-3999599D01*
X3244481Y-4020493D01*
X3269048Y-4036908D01*
X3296347Y-4048215D01*
X3325326Y-4053980D01*
X3354874D01*
X3383853Y-4048215D01*
X3411152Y-4036908D01*
X3435719Y-4020493D01*
X3456613Y-3999599D01*
X3460750Y-3993407D01*
X3473450D01*
X3477587Y-3999599D01*
X3498481Y-4020493D01*
X3523048Y-4036908D01*
X3550347Y-4048215D01*
X3579326Y-4053980D01*
X3608874D01*
X3637853Y-4048215D01*
X3665152Y-4036908D01*
X3689719Y-4020493D01*
X3710613Y-3999599D01*
X3714750Y-3993407D01*
X3727450D01*
X3731587Y-3999599D01*
X3752481Y-4020493D01*
X3777048Y-4036908D01*
X3804347Y-4048215D01*
X3833326Y-4053980D01*
X3862874D01*
X3891853Y-4048215D01*
X3919152Y-4036908D01*
X3943719Y-4020493D01*
X3964613Y-3999599D01*
X3968750Y-3993407D01*
X3981450D01*
X3985587Y-3999599D01*
X4006481Y-4020493D01*
X4031048Y-4036908D01*
X4058347Y-4048215D01*
X4087326Y-4053980D01*
X4116874D01*
X4145853Y-4048215D01*
X4173152Y-4036908D01*
X4197719Y-4020493D01*
X4218613Y-3999599D01*
X4235028Y-3975032D01*
X4246335Y-3947733D01*
X4252100Y-3918754D01*
Y-3889206D01*
X4246335Y-3860227D01*
X4235028Y-3832928D01*
X4218613Y-3808361D01*
X4197719Y-3787467D01*
X4173152Y-3771052D01*
X4145853Y-3759745D01*
X4116874Y-3753980D01*
X4087326D01*
X4058347Y-3759745D01*
X4031048Y-3771052D01*
X4006481Y-3787467D01*
X3985587Y-3808361D01*
X3981450Y-3814553D01*
X3968750D01*
X3964613Y-3808361D01*
X3943719Y-3787467D01*
X3919152Y-3771052D01*
X3891853Y-3759745D01*
X3862874Y-3753980D01*
X3833326D01*
X3804347Y-3759745D01*
X3777048Y-3771052D01*
X3752481Y-3787467D01*
X3732879Y-3807069D01*
X3727522Y-3806299D01*
X3720179Y-3802575D01*
Y-3456940D01*
X3715883Y-3424308D01*
X3703287Y-3393901D01*
X3683251Y-3367789D01*
X3591811Y-3276349D01*
X3565699Y-3256313D01*
X3535292Y-3243717D01*
X3502660Y-3239421D01*
X3135784D01*
X2981739Y-3085376D01*
X2981733Y-3085372D01*
X1769459Y-1873097D01*
Y-1332931D01*
X1782159Y-1324445D01*
X1798344Y-1331149D01*
X1827060Y-1334929D01*
X1927060D01*
X1955776Y-1331149D01*
X1982535Y-1320065D01*
X1989059Y-1315059D01*
X2013211D01*
X2023045Y-1322605D01*
X2049804Y-1333689D01*
X2078520Y-1337469D01*
X2178520D01*
X2207236Y-1333689D01*
X2233995Y-1322605D01*
X2256973Y-1304973D01*
X2274605Y-1281995D01*
X2285689Y-1255236D01*
X2289469Y-1226520D01*
Y-1156520D01*
X2285689Y-1127804D01*
X2274605Y-1101046D01*
X2256973Y-1078067D01*
X2233995Y-1060435D01*
X2223029Y-1055893D01*
Y-1042147D01*
X2233995Y-1037605D01*
X2256973Y-1019973D01*
X2274605Y-996994D01*
X2285689Y-970236D01*
X2289469Y-941520D01*
Y-871520D01*
X2285689Y-842804D01*
X2274605Y-816045D01*
X2268436Y-808006D01*
X2302611Y-773831D01*
X2322648Y-747719D01*
X2335243Y-717311D01*
X2339539Y-684680D01*
X2339539Y-684678D01*
Y-492395D01*
X2350917Y-488826D01*
X2352239Y-488784D01*
X2379160Y-515705D01*
X2412480Y-534942D01*
X2426816Y-538784D01*
X2434829Y-542103D01*
X2443427Y-543234D01*
X2449643Y-544900D01*
X2456079D01*
X2467460Y-546398D01*
X2478842Y-544900D01*
X2488117D01*
X2497076Y-542500D01*
X2500092Y-542103D01*
X2502902Y-540938D01*
X2525280Y-534942D01*
X2558600Y-515705D01*
X2585805Y-488500D01*
X2589530Y-482048D01*
X2602230D01*
X2605955Y-488500D01*
X2633160Y-515705D01*
X2666480Y-534942D01*
X2703643Y-544900D01*
X2742117D01*
X2779280Y-534942D01*
X2812600Y-515705D01*
X2839805Y-488500D01*
X2859042Y-455180D01*
X2869000Y-418017D01*
Y-379543D01*
X2859042Y-342380D01*
X2847488Y-322367D01*
X2853838Y-311369D01*
X3099922D01*
X3106272Y-322367D01*
X3094718Y-342380D01*
X3084760Y-379543D01*
Y-417648D01*
X3081657Y-425138D01*
X3077361Y-457770D01*
Y-803897D01*
X3067672Y-816525D01*
X3056336Y-843892D01*
X3052469Y-873260D01*
Y-1128260D01*
X3056336Y-1157628D01*
X3067672Y-1184995D01*
X3074321Y-1193661D01*
Y-1317282D01*
X3078617Y-1349914D01*
X3091213Y-1380322D01*
X3111249Y-1406433D01*
X3114302Y-1409486D01*
X3119541Y-1429038D01*
X3123921Y-1436625D01*
Y-1545078D01*
X3110000Y-1559000D01*
Y-1699000D01*
X3123921Y-1712921D01*
Y-1881440D01*
X3128217Y-1914072D01*
X3130391Y-1919320D01*
Y-1972780D01*
X3134171Y-2001496D01*
X3145255Y-2028255D01*
X3150261Y-2034779D01*
Y-2152672D01*
X3060849Y-2242085D01*
X3040813Y-2268196D01*
X3028217Y-2298604D01*
X3023921Y-2331236D01*
Y-2492733D01*
X3021836Y-2494818D01*
X3003779Y-2521843D01*
X2991341Y-2551871D01*
X2985000Y-2583749D01*
Y-2616251D01*
X2991341Y-2648129D01*
X3003779Y-2678157D01*
X3021836Y-2705181D01*
X3044819Y-2728164D01*
X3071843Y-2746221D01*
X3101871Y-2758659D01*
X3133749Y-2765000D01*
X3166251D01*
X3198129Y-2758659D01*
X3228157Y-2746221D01*
X3255181Y-2728164D01*
X3278164Y-2705181D01*
X3296221Y-2678157D01*
X3308659Y-2648129D01*
X3315000Y-2616251D01*
Y-2583749D01*
X3308659Y-2551871D01*
X3296221Y-2521843D01*
X3278164Y-2494818D01*
X3276079Y-2492733D01*
Y-2383460D01*
X3365491Y-2294047D01*
X3385527Y-2267936D01*
X3398123Y-2237528D01*
X3402419Y-2204896D01*
Y-2034779D01*
X3407425Y-2028255D01*
X3411967Y-2017289D01*
X3425713D01*
X3430255Y-2028255D01*
X3435261Y-2034779D01*
Y-2495630D01*
X3439557Y-2528261D01*
X3452153Y-2558669D01*
X3472189Y-2584781D01*
X3485000Y-2597592D01*
Y-2682500D01*
X3567500Y-2765000D01*
X3732500D01*
X3815000Y-2682500D01*
Y-2517500D01*
X3732500Y-2435000D01*
X3687419D01*
Y-2034779D01*
X3692425Y-2028255D01*
X3703509Y-2001496D01*
X3707289Y-1972780D01*
Y-1872780D01*
X3703509Y-1844064D01*
X3694249Y-1821709D01*
Y-1719751D01*
X3715000Y-1699000D01*
Y-1559000D01*
X3701079Y-1545079D01*
Y-1436625D01*
X3705459Y-1429038D01*
X3715000Y-1393431D01*
Y-1356569D01*
X3705459Y-1320962D01*
X3701079Y-1313375D01*
Y-1208570D01*
X3701176Y-1208496D01*
X3719208Y-1184995D01*
X3730544Y-1157628D01*
X3734411Y-1128260D01*
Y-905338D01*
X3747111Y-901935D01*
X3755013Y-915621D01*
X3780799Y-941408D01*
X3812381Y-959641D01*
X3847606Y-969080D01*
X3884074D01*
X3919299Y-959641D01*
X3924465Y-956659D01*
X4012787D01*
X4012958Y-956882D01*
X4037503Y-975716D01*
X4066086Y-987556D01*
X4096760Y-991594D01*
X4381760D01*
X4412434Y-987556D01*
X4441017Y-975716D01*
X4465562Y-956882D01*
X4484396Y-932337D01*
X4496236Y-903754D01*
X4500274Y-873080D01*
Y-788080D01*
X4496236Y-757406D01*
X4484396Y-728823D01*
X4465562Y-704278D01*
X4441017Y-685444D01*
X4412434Y-673604D01*
X4381760Y-669566D01*
X4096760D01*
X4066086Y-673604D01*
X4037503Y-685444D01*
X4012958Y-704278D01*
X4012787Y-704501D01*
X3924465D01*
X3919299Y-701519D01*
X3884074Y-692080D01*
X3847606D01*
X3812381Y-701519D01*
X3780799Y-719752D01*
X3755013Y-745539D01*
X3736779Y-777121D01*
X3728549Y-807835D01*
X3716314Y-811306D01*
X3715118Y-811193D01*
X3701176Y-793024D01*
X3701079Y-792950D01*
Y-547719D01*
X3756660D01*
X3789292Y-543423D01*
X3819699Y-530827D01*
X3845811Y-510791D01*
X3865847Y-484679D01*
X3878443Y-454272D01*
X3881492Y-431109D01*
X3885000Y-418017D01*
Y-379543D01*
X3875042Y-342380D01*
X3863488Y-322367D01*
X3869838Y-311369D01*
X4008728D01*
X4012958Y-316882D01*
X4037503Y-335716D01*
X4066086Y-347555D01*
X4096760Y-351594D01*
X4381760D01*
X4412434Y-347555D01*
X4441017Y-335716D01*
X4465562Y-316882D01*
X4484396Y-292337D01*
X4496236Y-263753D01*
X4500274Y-233080D01*
Y-148080D01*
X4496236Y-117406D01*
X4484396Y-88823D01*
X4474882Y-76424D01*
X4481145Y-63724D01*
X4694920D01*
Y-2227921D01*
D02*
G37*
G36*
X1582272Y-322367D02*
X1570718Y-342380D01*
X1560760Y-379543D01*
Y-418017D01*
X1570718Y-455180D01*
X1579381Y-470186D01*
Y-567540D01*
X1583677Y-600172D01*
X1596273Y-630580D01*
X1616309Y-656691D01*
X1747387Y-787769D01*
Y-792118D01*
X1730975Y-813505D01*
X1719891Y-840264D01*
X1716997Y-862252D01*
X1703588Y-866804D01*
X1673952Y-837169D01*
X1647841Y-817132D01*
X1617433Y-804537D01*
X1584801Y-800241D01*
X1520144D01*
X1505130Y-794023D01*
X1477720Y-790414D01*
X1407720D01*
X1380310Y-794023D01*
X1370439Y-798111D01*
X1249188D01*
X1247382Y-795758D01*
X1222837Y-776924D01*
X1194254Y-765084D01*
X1163580Y-761046D01*
X1069539D01*
Y-475105D01*
X1081042Y-455180D01*
X1091000Y-418017D01*
Y-416615D01*
X1103700Y-414943D01*
X1109310Y-435881D01*
X1121965Y-457799D01*
X1139861Y-475695D01*
X1148880Y-480902D01*
Y-398780D01*
X1198880D01*
Y-348780D01*
X1281002D01*
X1275795Y-339761D01*
X1260103Y-324069D01*
X1263219Y-311369D01*
X1575922D01*
X1582272Y-322367D01*
D02*
G37*
%LPC*%
G36*
X374623Y-1075000D02*
X325378D01*
X277078Y-1084607D01*
X231581Y-1103453D01*
X190635Y-1130812D01*
X155813Y-1165634D01*
X128453Y-1206580D01*
X109608Y-1252077D01*
X100000Y-1300377D01*
Y-1349622D01*
X109608Y-1397922D01*
X128453Y-1443419D01*
X155813Y-1484365D01*
X190635Y-1519187D01*
X231581Y-1546547D01*
X277078Y-1565392D01*
X325378Y-1575000D01*
X374623D01*
X422923Y-1565392D01*
X468420Y-1546547D01*
X509366Y-1519187D01*
X544188Y-1484365D01*
X571547Y-1443419D01*
X590393Y-1397922D01*
X600000Y-1349622D01*
Y-1300377D01*
X590393Y-1252077D01*
X571547Y-1206580D01*
X544188Y-1165634D01*
X509366Y-1130812D01*
X468420Y-1103453D01*
X422923Y-1084607D01*
X374623Y-1075000D01*
D02*
G37*
G36*
X4374622Y-1075000D02*
X4325377D01*
X4277077Y-1084607D01*
X4231580Y-1103453D01*
X4190634Y-1130812D01*
X4155812Y-1165634D01*
X4128453Y-1206581D01*
X4109607Y-1252078D01*
X4100000Y-1300377D01*
Y-1349623D01*
X4109607Y-1397922D01*
X4128453Y-1443419D01*
X4155812Y-1484366D01*
X4190634Y-1519187D01*
X4231580Y-1546547D01*
X4277077Y-1565392D01*
X4325377Y-1575000D01*
X4374622D01*
X4422922Y-1565392D01*
X4468419Y-1546547D01*
X4509365Y-1519187D01*
X4544187Y-1484366D01*
X4571547Y-1443419D01*
X4590392Y-1397922D01*
X4600000Y-1349623D01*
Y-1300377D01*
X4590392Y-1252078D01*
X4571547Y-1206581D01*
X4544187Y-1165634D01*
X4509365Y-1130812D01*
X4468419Y-1103453D01*
X4422922Y-1084607D01*
X4374622Y-1075000D01*
D02*
G37*
G36*
X300001Y-2024945D02*
Y-2050001D01*
X325056D01*
X322018Y-2044739D01*
X305261Y-2027982D01*
X300001Y-2024945D01*
D02*
G37*
G36*
X200001Y-2024944D02*
X194739Y-2027982D01*
X177983Y-2044739D01*
X174945Y-2050001D01*
X200001D01*
Y-2024944D01*
D02*
G37*
G36*
X325055Y-2150001D02*
X300001D01*
Y-2175055D01*
X305261Y-2172018D01*
X322018Y-2155261D01*
X325055Y-2150001D01*
D02*
G37*
G36*
X200001D02*
X174946D01*
X177983Y-2155261D01*
X194739Y-2172018D01*
X200001Y-2175056D01*
Y-2150001D01*
D02*
G37*
G36*
X300001Y-2269001D02*
Y-2304001D01*
X335001D01*
X300001Y-2269001D01*
D02*
G37*
G36*
X200001Y-2268999D02*
X165000Y-2304001D01*
X200001D01*
Y-2268999D01*
D02*
G37*
G36*
X334999Y-2404001D02*
X300001D01*
Y-2438999D01*
X334999Y-2404001D01*
D02*
G37*
G36*
X200001D02*
X165001D01*
X200001Y-2439000D01*
Y-2404001D01*
D02*
G37*
G36*
X14750000Y-2984529D02*
Y-3050000D01*
X14815469D01*
X14800024Y-3023248D01*
X14776752Y-2999975D01*
X14750000Y-2984529D01*
D02*
G37*
G36*
X14650000D02*
X14623248Y-2999975D01*
X14599976Y-3023248D01*
X14584531Y-3050000D01*
X14650000D01*
Y-2984529D01*
D02*
G37*
G36*
X14815469Y-3150000D02*
X14750000D01*
Y-3215470D01*
X14776752Y-3200025D01*
X14800024Y-3176752D01*
X14815469Y-3150000D01*
D02*
G37*
G36*
X14650000D02*
X14584531D01*
X14599976Y-3176752D01*
X14623248Y-3200025D01*
X14650000Y-3215470D01*
Y-3150000D01*
D02*
G37*
G36*
X15790817Y-3237120D02*
X15724741D01*
Y-3298197D01*
X15734740D01*
X15756200Y-3293929D01*
X15774393Y-3281773D01*
X15786549Y-3263580D01*
X15790817Y-3242120D01*
Y-3237120D01*
D02*
G37*
G36*
X15674741D02*
X15608662D01*
Y-3242120D01*
X15612930Y-3263580D01*
X15625087Y-3281773D01*
X15643280Y-3293929D01*
X15664740Y-3298197D01*
X15674741D01*
Y-3237120D01*
D02*
G37*
G36*
X15492500Y-3259418D02*
X15375002D01*
Y-3345001D01*
X15560582D01*
Y-3327500D01*
X15558263Y-3309879D01*
X15551460Y-3293459D01*
X15540642Y-3279359D01*
X15526541Y-3268539D01*
X15510121Y-3261738D01*
X15492500Y-3259418D01*
D02*
G37*
G36*
X15325002D02*
X15207500D01*
X15189879Y-3261738D01*
X15173459Y-3268539D01*
X15159360Y-3279359D01*
X15148540Y-3293459D01*
X15141737Y-3309879D01*
X15139418Y-3327500D01*
Y-3345001D01*
X15325002D01*
Y-3259418D01*
D02*
G37*
G36*
X15560582Y-3395001D02*
X15375002D01*
Y-3480582D01*
X15492500D01*
X15510121Y-3478263D01*
X15526541Y-3471461D01*
X15540642Y-3460642D01*
X15551460Y-3446541D01*
X15558263Y-3430121D01*
X15560582Y-3412500D01*
Y-3395001D01*
D02*
G37*
G36*
X15325002D02*
X15139418D01*
Y-3412500D01*
X15141737Y-3430121D01*
X15148540Y-3446541D01*
X15159360Y-3460642D01*
X15173459Y-3471461D01*
X15189879Y-3478263D01*
X15207500Y-3480582D01*
X15325002D01*
Y-3395001D01*
D02*
G37*
G36*
X2907100Y-3753980D02*
X2757100D01*
X2682100Y-3828980D01*
Y-3978980D01*
X2757100Y-4053980D01*
X2907100D01*
X2982100Y-3978980D01*
Y-3949246D01*
X2994800Y-3945843D01*
X3006080Y-3965381D01*
X3024699Y-3984000D01*
X3036101Y-3990583D01*
Y-3903979D01*
Y-3817377D01*
X3024699Y-3823960D01*
X3006080Y-3842579D01*
X2994800Y-3862117D01*
X2982100Y-3858714D01*
Y-3828980D01*
X2907100Y-3753980D01*
D02*
G37*
G36*
X1771001Y-3955398D02*
Y-3992001D01*
X1807603D01*
X1801020Y-3980599D01*
X1782401Y-3961980D01*
X1771001Y-3955398D01*
D02*
G37*
G36*
X15317236Y-3745000D02*
X15282764D01*
X15248953Y-3751725D01*
X15217107Y-3764917D01*
X15188445Y-3784068D01*
X15164069Y-3808444D01*
X15144917Y-3837106D01*
X15131725Y-3868954D01*
X15125000Y-3902764D01*
Y-3937236D01*
X15131725Y-3971046D01*
X15144917Y-4002894D01*
X15164069Y-4031556D01*
X15188445Y-4055932D01*
X15217107Y-4075083D01*
X15248953Y-4088275D01*
X15282764Y-4095000D01*
X15317236D01*
X15351045Y-4088275D01*
X15382893Y-4075083D01*
X15411555Y-4055932D01*
X15435931Y-4031556D01*
X15455083Y-4002894D01*
X15468275Y-3971046D01*
X15475000Y-3937236D01*
Y-3902764D01*
X15468275Y-3868954D01*
X15455083Y-3837106D01*
X15435931Y-3808444D01*
X15411555Y-3784068D01*
X15382893Y-3764917D01*
X15351045Y-3751725D01*
X15317236Y-3745000D01*
D02*
G37*
G36*
X1807602Y-4092000D02*
X1771001D01*
Y-4128602D01*
X1782401Y-4122020D01*
X1801020Y-4103401D01*
X1807602Y-4092000D01*
D02*
G37*
G36*
X15849998Y-4106027D02*
Y-4250000D01*
X15993971D01*
X15992314Y-4241662D01*
X15977238Y-4205265D01*
X15955350Y-4172508D01*
X15927492Y-4144650D01*
X15894736Y-4122762D01*
X15858337Y-4107686D01*
X15849998Y-4106027D01*
D02*
G37*
G36*
X15749998Y-4106028D02*
X15741663Y-4107686D01*
X15705264Y-4122762D01*
X15672507Y-4144650D01*
X15644650Y-4172508D01*
X15622762Y-4205265D01*
X15607686Y-4241662D01*
X15606027Y-4250000D01*
X15749998D01*
Y-4106028D01*
D02*
G37*
G36*
Y-4349999D02*
X15606027D01*
X15607686Y-4358338D01*
X15622762Y-4394735D01*
X15644650Y-4427493D01*
X15672507Y-4455350D01*
X15705264Y-4477238D01*
X15741663Y-4492314D01*
X15749998Y-4493972D01*
Y-4349999D01*
D02*
G37*
G36*
X15993973D02*
X15849998D01*
Y-4493973D01*
X15858337Y-4492314D01*
X15894736Y-4477238D01*
X15927492Y-4455350D01*
X15955350Y-4427493D01*
X15977238Y-4394735D01*
X15992314Y-4358338D01*
X15993973Y-4349999D01*
D02*
G37*
G36*
X1993221Y-4365000D02*
X1956779D01*
X1921038Y-4372109D01*
X1887370Y-4386055D01*
X1857069Y-4406301D01*
X1831301Y-4432069D01*
X1811055Y-4462370D01*
X1797109Y-4496037D01*
X1790000Y-4531779D01*
Y-4568221D01*
X1797109Y-4603963D01*
X1811055Y-4637631D01*
X1831301Y-4667931D01*
X1857069Y-4693699D01*
X1887370Y-4713945D01*
X1921038Y-4727891D01*
X1956779Y-4735000D01*
X1993221D01*
X2028963Y-4727891D01*
X2062631Y-4713945D01*
X2092931Y-4693699D01*
X2118699Y-4667931D01*
X2138945Y-4637631D01*
X2152891Y-4603963D01*
X2160000Y-4568221D01*
Y-4531779D01*
X2152891Y-4496037D01*
X2138945Y-4462370D01*
X2118699Y-4432069D01*
X2092931Y-4406301D01*
X2062631Y-4386055D01*
X2028963Y-4372109D01*
X1993221Y-4365000D01*
D02*
G37*
G36*
X977221D02*
X940779D01*
X905038Y-4372109D01*
X871370Y-4386055D01*
X841069Y-4406301D01*
X815301Y-4432069D01*
X795055Y-4462370D01*
X781109Y-4496037D01*
X774000Y-4531779D01*
Y-4568221D01*
X781109Y-4603963D01*
X795055Y-4637631D01*
X815301Y-4667931D01*
X841069Y-4693699D01*
X871370Y-4713945D01*
X905038Y-4727891D01*
X940779Y-4735000D01*
X977221D01*
X1012963Y-4727891D01*
X1046631Y-4713945D01*
X1076931Y-4693699D01*
X1102699Y-4667931D01*
X1122945Y-4637631D01*
X1136891Y-4603963D01*
X1144000Y-4568221D01*
Y-4531779D01*
X1136891Y-4496037D01*
X1122945Y-4462370D01*
X1102699Y-4432069D01*
X1076931Y-4406301D01*
X1046631Y-4386055D01*
X1012963Y-4372109D01*
X977221Y-4365000D01*
D02*
G37*
G36*
X3147530Y-4672922D02*
Y-4764570D01*
X3239178D01*
X3230458Y-4743518D01*
X3214043Y-4718951D01*
X3193149Y-4698057D01*
X3168582Y-4681642D01*
X3147530Y-4672922D01*
D02*
G37*
G36*
X3047530D02*
X3026478Y-4681642D01*
X3001911Y-4698057D01*
X2981017Y-4718951D01*
X2964602Y-4743518D01*
X2955882Y-4764570D01*
X3047530D01*
Y-4672922D01*
D02*
G37*
G36*
X3239178Y-4864570D02*
X3147530D01*
Y-4956218D01*
X3168582Y-4947498D01*
X3193149Y-4931083D01*
X3214043Y-4910189D01*
X3230458Y-4885622D01*
X3239178Y-4864570D01*
D02*
G37*
G36*
X3047530D02*
X2955882D01*
X2964602Y-4885622D01*
X2981017Y-4910189D01*
X3001911Y-4931083D01*
X3026478Y-4947498D01*
X3047530Y-4956218D01*
Y-4864570D01*
D02*
G37*
G36*
X3617228Y-4614570D02*
X3577832D01*
X3539192Y-4622256D01*
X3502794Y-4637332D01*
X3470037Y-4659220D01*
X3442180Y-4687077D01*
X3420292Y-4719834D01*
X3405216Y-4756232D01*
X3397530Y-4794872D01*
Y-4834268D01*
X3405216Y-4872908D01*
X3420292Y-4909306D01*
X3442180Y-4942063D01*
X3470037Y-4969920D01*
X3502794Y-4991808D01*
X3539192Y-5006884D01*
X3577832Y-5014570D01*
X3617228D01*
X3655868Y-5006884D01*
X3692266Y-4991808D01*
X3725023Y-4969920D01*
X3752880Y-4942063D01*
X3774768Y-4909306D01*
X3789844Y-4872908D01*
X3797530Y-4834268D01*
Y-4794872D01*
X3789844Y-4756232D01*
X3774768Y-4719834D01*
X3752880Y-4687077D01*
X3725023Y-4659220D01*
X3692266Y-4637332D01*
X3655868Y-4622256D01*
X3617228Y-4614570D01*
D02*
G37*
G36*
X2697530D02*
X2497530D01*
X2397530Y-4714570D01*
Y-4914570D01*
X2497530Y-5014570D01*
X2697530D01*
X2797530Y-4914570D01*
Y-4714570D01*
X2697530Y-4614570D01*
D02*
G37*
G36*
X4374623Y-4700000D02*
X4325377D01*
X4277078Y-4709607D01*
X4231581Y-4728453D01*
X4190634Y-4755812D01*
X4155812Y-4790634D01*
X4128453Y-4831580D01*
X4109607Y-4877077D01*
X4100000Y-4925377D01*
Y-4974623D01*
X4109607Y-5022922D01*
X4128453Y-5068419D01*
X4155812Y-5109365D01*
X4190634Y-5144187D01*
X4231581Y-5171547D01*
X4277078Y-5190392D01*
X4325377Y-5200000D01*
X4374623D01*
X4422922Y-5190392D01*
X4468419Y-5171547D01*
X4509366Y-5144187D01*
X4544188Y-5109365D01*
X4571547Y-5068419D01*
X4590392Y-5022922D01*
X4600000Y-4974623D01*
Y-4925377D01*
X4590392Y-4877077D01*
X4571547Y-4831580D01*
X4544188Y-4790634D01*
X4509366Y-4755812D01*
X4468419Y-4728453D01*
X4422922Y-4709607D01*
X4374623Y-4700000D01*
D02*
G37*
G36*
X374623D02*
X325378D01*
X277078Y-4709607D01*
X231581Y-4728453D01*
X190635Y-4755812D01*
X155813Y-4790634D01*
X128453Y-4831580D01*
X109608Y-4877077D01*
X100000Y-4925377D01*
Y-4974623D01*
X109608Y-5022922D01*
X128453Y-5068419D01*
X155813Y-5109365D01*
X190635Y-5144187D01*
X231581Y-5171547D01*
X277078Y-5190392D01*
X325378Y-5200000D01*
X374623D01*
X422923Y-5190392D01*
X468420Y-5171547D01*
X509366Y-5144187D01*
X544188Y-5109365D01*
X571547Y-5068419D01*
X590393Y-5022922D01*
X600000Y-4974623D01*
Y-4925377D01*
X590393Y-4877077D01*
X571547Y-4831580D01*
X544188Y-4790634D01*
X509366Y-4755812D01*
X468420Y-4728453D01*
X422923Y-4709607D01*
X374623Y-4700000D01*
D02*
G37*
G36*
X1281002Y-448780D02*
X1248880D01*
Y-480902D01*
X1257899Y-475695D01*
X1275795Y-457799D01*
X1281002Y-448780D01*
D02*
G37*
%LPD*%
D10*
X4480000Y-3450000D02*
D03*
X5120000D02*
D03*
X6280000Y-4150000D02*
D03*
X6920000D02*
D03*
X5380000D02*
D03*
X6020000D02*
D03*
X7180000D02*
D03*
X7820000D02*
D03*
Y-3450000D02*
D03*
X7180000D02*
D03*
X5380000D02*
D03*
X6020000D02*
D03*
X5120000Y-4150000D02*
D03*
X4480000D02*
D03*
X6280000Y-3450000D02*
D03*
X6920000D02*
D03*
D11*
X1445260Y-1545100D02*
D03*
Y-1325100D02*
D03*
X1442720Y-926320D02*
D03*
Y-1146320D02*
D03*
X1445260Y-1949740D02*
D03*
Y-1729740D02*
D03*
X11000000Y-2060000D02*
D03*
Y-1840000D02*
D03*
Y-2460000D02*
D03*
Y-2240000D02*
D03*
X15699741Y-3212120D02*
D03*
Y-2992120D02*
D03*
X15697200Y-2794780D02*
D03*
Y-2574780D02*
D03*
X15694659Y-2368840D02*
D03*
Y-2148840D02*
D03*
X15699741Y-1948960D02*
D03*
Y-1728960D02*
D03*
X15697200Y-1537480D02*
D03*
Y-1317480D02*
D03*
X15694659Y-1126000D02*
D03*
Y-906000D02*
D03*
X14516100Y-828820D02*
D03*
Y-608820D02*
D03*
X14513560Y-407180D02*
D03*
Y-187180D02*
D03*
X11000000Y-1560000D02*
D03*
Y-1340000D02*
D03*
Y-1160000D02*
D03*
Y-940000D02*
D03*
X9710420Y-864380D02*
D03*
Y-644380D02*
D03*
X9715500Y-407180D02*
D03*
Y-187180D02*
D03*
X6164580Y-1570500D02*
D03*
Y-1350500D02*
D03*
X6177280Y-1144560D02*
D03*
Y-924560D02*
D03*
X4917440Y-833900D02*
D03*
Y-613900D02*
D03*
Y-415580D02*
D03*
Y-195580D02*
D03*
X216640Y-821140D02*
D03*
Y-601140D02*
D03*
X219180Y-412200D02*
D03*
Y-192200D02*
D03*
D12*
X3583440Y-1000760D02*
D03*
X3203440D02*
D03*
X17579340Y-906780D02*
D03*
X17959340D02*
D03*
X7986260Y-988060D02*
D03*
X8366260D02*
D03*
X12784320Y-962660D02*
D03*
X13164320D02*
D03*
D13*
X5410000Y-4500000D02*
D03*
X5190000D02*
D03*
X5010000D02*
D03*
X4790000D02*
D03*
X4610000D02*
D03*
X4390000D02*
D03*
X5110000Y-3100000D02*
D03*
X4890000D02*
D03*
X4710000D02*
D03*
X4490000D02*
D03*
X6210000Y-4500000D02*
D03*
X5990000D02*
D03*
X7010000D02*
D03*
X6790000D02*
D03*
X6610000D02*
D03*
X6390000D02*
D03*
X5810000D02*
D03*
X5590000D02*
D03*
X7760000Y-3100000D02*
D03*
X7540000D02*
D03*
X7460000Y-4500000D02*
D03*
X7240000D02*
D03*
X7860000D02*
D03*
X7640000D02*
D03*
X7360000Y-3100000D02*
D03*
X7140000D02*
D03*
X5560000D02*
D03*
X5340000D02*
D03*
X5960000D02*
D03*
X5740000D02*
D03*
X6460000D02*
D03*
X6240000D02*
D03*
X6640000D02*
D03*
X6860000D02*
D03*
D14*
X15350000Y-1830000D02*
D03*
Y-2470000D02*
D03*
Y-2730000D02*
D03*
Y-3370000D02*
D03*
X1021080Y-922060D02*
D03*
Y-1562060D02*
D03*
X520700Y-180340D02*
D03*
Y-820340D02*
D03*
X4239260Y-830580D02*
D03*
Y-190580D02*
D03*
X18724879Y-827960D02*
D03*
Y-187960D02*
D03*
X15349220Y-1559480D02*
D03*
Y-919480D02*
D03*
X14843761Y-822880D02*
D03*
Y-182880D02*
D03*
X5252720Y-835660D02*
D03*
Y-195660D02*
D03*
X9042400Y-835660D02*
D03*
Y-195660D02*
D03*
X10623740Y-2501860D02*
D03*
Y-1861860D02*
D03*
X10627360Y-1569640D02*
D03*
Y-929640D02*
D03*
X13911580Y-833080D02*
D03*
Y-193080D02*
D03*
X10045700Y-833080D02*
D03*
Y-193080D02*
D03*
X5821680Y-1556940D02*
D03*
Y-916940D02*
D03*
D15*
X16507460Y-1079760D02*
D03*
Y-794760D02*
D03*
X16256000D02*
D03*
Y-1079760D02*
D03*
X2128520Y-906520D02*
D03*
Y-1191520D02*
D03*
X6611620Y-848360D02*
D03*
Y-1133360D02*
D03*
X6875780Y-1135640D02*
D03*
Y-850640D02*
D03*
X1877060Y-903980D02*
D03*
Y-1188980D02*
D03*
X11732260Y-1145800D02*
D03*
Y-860800D02*
D03*
X11478260D02*
D03*
Y-1145800D02*
D03*
D16*
X17942500Y-1950000D02*
D03*
X17657500D02*
D03*
X8351780Y-1838960D02*
D03*
X8066780D02*
D03*
X3561340Y-1922780D02*
D03*
X3276340D02*
D03*
X13154919Y-1920240D02*
D03*
X12869920D02*
D03*
D17*
X15349220Y-919480D02*
Y-401320D01*
X16256000Y-794760D02*
Y-546100D01*
X16108681Y-398780D02*
X16256000Y-546100D01*
X16878761Y-418292D02*
X16884477Y-412577D01*
X16878761Y-436730D02*
Y-418292D01*
X16885921Y-3985920D02*
Y-443888D01*
Y-3985920D02*
X17200000Y-4300000D01*
X16878761Y-436730D02*
X16885921Y-443888D01*
X16507460Y-478479D02*
X16579077Y-406862D01*
X16608598D01*
X16507460Y-794760D02*
Y-478479D01*
X16608598Y-406862D02*
X16616679Y-398780D01*
X17579340Y-494030D02*
X17611560Y-461810D01*
Y-431330D01*
X17579340Y-1301421D02*
Y-494030D01*
X17611560Y-431330D02*
X17632680Y-410210D01*
Y-398780D01*
X17959340Y-906780D02*
Y-580120D01*
X18140680Y-398780D01*
X1445260Y-1545100D02*
Y-1544320D01*
Y-1719740D02*
Y-1545100D01*
X1643380Y-1925321D02*
Y-984899D01*
X1442720Y-926320D02*
X1584801D01*
X1643380Y-984899D01*
Y-1925321D02*
X2892586Y-3174527D01*
X1021080Y-2636520D02*
X1467000Y-3082440D01*
X1021080Y-2636520D02*
Y-1954425D01*
X1467000Y-4042000D02*
X1467000Y-3082440D01*
X1021080Y-1954425D02*
Y-1562060D01*
X1079659Y-1949740D02*
X1445260D01*
X3502660Y-3365500D02*
X3594100Y-3456940D01*
X3083560Y-3365500D02*
X3502660D01*
X2892587Y-3174527D02*
X3083560Y-3365500D01*
X2892586Y-3174527D02*
X2892587D01*
X1008750Y-924190D02*
X1386840D01*
X1440590D01*
X4480000Y-3450000D02*
X4485000Y-3445000D01*
X4477500Y-3452500D02*
X4480000Y-3450000D01*
X1442880Y-1722120D02*
X1445260Y-1719740D01*
X1432560Y-1722120D02*
X1442880D01*
X1442720Y-1308100D02*
Y-1146320D01*
X1440180Y-1310640D02*
X1442720Y-1308100D01*
X943460Y-844440D02*
X1021080Y-922060D01*
X1000760Y-932180D02*
X1008750Y-924190D01*
X1440590D02*
X1442720Y-926320D01*
X217210Y-820570D02*
X549430D01*
X15349220Y-919480D02*
X15415260D01*
X15656180D01*
X16885921Y-414020D02*
Y-190500D01*
X14843761D02*
X16885921D01*
X18722340D01*
X13174980Y-1628979D02*
Y-1375000D01*
Y-960120D01*
X13164320Y-962660D02*
Y-587040D01*
X13336121Y-415240D01*
X12784320Y-470470D02*
X12828120Y-426670D01*
X12784320Y-962660D02*
Y-470470D01*
X12828120Y-426670D02*
Y-415240D01*
X12070043Y-411316D02*
Y-190130D01*
X13908630D01*
X9718450D02*
X10045700D01*
X12070043D01*
X12066120Y-415240D02*
X12070043Y-411316D01*
X11304120Y-415240D02*
X11478260Y-589380D01*
Y-860800D02*
Y-589380D01*
X11732260Y-860800D02*
Y-617220D01*
X11812120Y-537360D02*
Y-415240D01*
X11732260Y-617220D02*
X11812120Y-537360D01*
X10553700Y-855980D02*
Y-438250D01*
X10550202Y-434752D02*
Y-430311D01*
X10553700Y-855980D02*
X10627360Y-929640D01*
X10550202Y-434752D02*
X10553700Y-438250D01*
X10550202Y-430311D02*
X10553700Y-426813D01*
X10627360Y-929640D02*
X10984640D01*
X8427179Y-417069D02*
X8518548D01*
X8522581Y-413036D02*
Y-403125D01*
X8366260Y-988060D02*
Y-477988D01*
X8427179Y-417069D01*
X8518548D02*
X8522581Y-413036D01*
X8011260Y-963060D02*
Y-816459D01*
X8021978Y-453189D02*
Y-421952D01*
X7986260Y-988060D02*
X8011260Y-963060D01*
Y-816459D02*
X8013238Y-814481D01*
Y-413212D02*
X8021978Y-421952D01*
X8013238Y-814481D02*
Y-461929D01*
X8021978Y-453189D01*
X5779060Y-916940D02*
X5821680D01*
X5744060Y-881940D02*
Y-415240D01*
Y-881940D02*
X5779060Y-916940D01*
X6514142Y-423322D02*
X6562863D01*
X6634480Y-828360D02*
Y-494938D01*
X6562863Y-423322D02*
X6634480Y-494938D01*
X6506060Y-415240D02*
X6514142Y-423322D01*
X6611620Y-848360D02*
X6614480D01*
X6634480Y-828360D01*
X7005978Y-423322D02*
X7014060Y-415240D01*
X6875780Y-518160D02*
X6970618Y-423322D01*
X7005978D01*
X6875780Y-858520D02*
Y-518160D01*
X1705460Y-567540D02*
Y-420320D01*
Y-567540D02*
X1873465Y-735545D01*
X2141005Y-757135D02*
X2213460Y-684680D01*
Y-420320D01*
X2467460Y-185290D02*
X4223890D01*
X555290D02*
X2467460D01*
Y-420320D02*
Y-185290D01*
X3203440Y-457770D02*
X3229460Y-431750D01*
X3203440Y-1000760D02*
Y-457770D01*
X3229460Y-431750D02*
Y-420320D01*
X3600559Y-421640D02*
X3756660D01*
X3575000Y-1375000D02*
Y-990600D01*
Y-447199D02*
X3600559Y-421640D01*
X943460Y-844440D02*
Y-420320D01*
X16256000Y-1079760D02*
X16507460D01*
X16235420D02*
X16256000D01*
X16217900Y-1097280D02*
X16235420Y-1079760D01*
X14513560Y-187180D02*
X14519051Y-192670D01*
X14830650Y-177390D02*
X14843761Y-190500D01*
X14519051Y-192670D02*
X14833189D01*
X17650000Y-1375000D02*
Y-1372081D01*
X17579340Y-1301421D02*
X17650000Y-1372081D01*
Y-1375000D02*
X17653751Y-1378750D01*
X17969260Y-1369260D02*
Y-916700D01*
X17959340Y-906780D02*
X17969260Y-916700D01*
X11478260Y-1145800D02*
X11684260D01*
X11694160Y-1155700D01*
X13550861Y-828040D02*
X13924280D01*
X12850000Y-1629000D02*
Y-1367601D01*
X12783820Y-1301421D02*
Y-972698D01*
Y-1301421D02*
X12850000Y-1367601D01*
X13174980Y-960120D02*
X13174980Y-960120D01*
X1873465Y-883980D02*
Y-735545D01*
Y-883980D02*
X1877060Y-887575D01*
Y-903980D02*
Y-887575D01*
X2141005Y-894035D02*
Y-757135D01*
X1851660Y-1188980D02*
X2125980D01*
X2128520Y-1191520D01*
Y-906520D02*
X2141005Y-894035D01*
X6601980Y-1138440D02*
X6870700D01*
X6601460Y-1137920D02*
X6601980Y-1138440D01*
X6870700D02*
X6875780Y-1143520D01*
X5252720Y-195660D02*
X7259320D01*
X9042400D01*
X7259320Y-393700D02*
Y-195660D01*
X7985760Y-1302642D02*
Y-988060D01*
Y-1302642D02*
X8050000Y-1366882D01*
Y-1629000D02*
Y-1366882D01*
X8375000Y-1044099D02*
Y-988060D01*
X5721680Y-881940D02*
X5735320D01*
Y-916940D02*
Y-881940D01*
X5826370Y-921630D02*
X6177280D01*
X5735320Y-916940D02*
X5821680D01*
X225280Y-186100D02*
X586100D01*
X3192780Y-998220D02*
X3200400Y-1005840D01*
Y-1317282D02*
X3250000Y-1366882D01*
X3200400Y-1317282D02*
Y-1005840D01*
X3250000Y-1375000D02*
Y-1366882D01*
X3575000Y-990600D02*
Y-447199D01*
X11000000Y-1340000D02*
Y-1160000D01*
X10995000Y-940000D02*
X11000000D01*
X10984640Y-929640D02*
X10995000Y-940000D01*
Y-1560000D02*
X11000000D01*
X10981120Y-1573880D02*
X10995000Y-1560000D01*
X10631600Y-1573880D02*
X10981120D01*
X10627360Y-1569640D02*
X10631600Y-1573880D01*
X10990000Y-2470000D02*
X11000000Y-2460000D01*
X10758740Y-2470000D02*
X10990000D01*
X10745166Y-2483574D02*
X10758740Y-2470000D01*
X10745166Y-2493380D02*
Y-2483574D01*
X11000000Y-2240000D02*
Y-2060000D01*
X10995000Y-1840000D02*
X11000000D01*
X10972900Y-1862100D02*
X10995000Y-1840000D01*
X10623980Y-1862100D02*
X10972900D01*
X10623740Y-1861860D02*
X10623980Y-1862100D01*
X10718646Y-2493380D02*
X10745166D01*
X10623740Y-2501860D02*
X10710166D01*
X10745166Y-2736860D02*
X10883900Y-2875594D01*
X10745166Y-2736860D02*
Y-2536860D01*
X10710166Y-2501860D02*
X10745166Y-2536860D01*
X10883900Y-2882900D02*
Y-2875594D01*
X10627360Y-1858240D02*
Y-1569640D01*
X10623740Y-1861860D02*
X10627360Y-1858240D01*
X15365070Y-2454930D02*
X15446561D01*
X15695930D01*
X15350000Y-2730000D02*
Y-2470000D01*
X15365070Y-2454930D01*
X15350000Y-1830000D02*
X15385001Y-1795000D01*
X15569496D01*
X15625536Y-1738960D01*
X15687199D01*
X15698470Y-1727690D01*
X15699741Y-1728960D01*
X15481651Y-3515000D02*
X15602119D01*
X15455707Y-3489056D02*
X15481651Y-3515000D01*
X15455707Y-3489056D02*
Y-3475711D01*
X15350000Y-3370004D02*
X15455707Y-3475711D01*
X15350000Y-3370004D02*
Y-3370000D01*
X15602119Y-3515000D02*
X15684996Y-3432124D01*
X15699741D02*
Y-3212120D01*
Y-3650000D02*
X15699997D01*
X15800000Y-3950000D02*
Y-3800000D01*
X15699741Y-3650000D02*
Y-3432124D01*
X219180Y-192200D02*
X225280Y-186100D01*
X216640Y-601140D02*
X217910Y-599870D01*
Y-413470D01*
X219180Y-412200D01*
X216640Y-821140D02*
X217210Y-820570D01*
X549430D02*
X550000Y-821140D01*
X658580Y-896360D02*
Y-855000D01*
X623580Y-820000D02*
X658580Y-855000D01*
X550000Y-820000D02*
X623580D01*
X658580Y-896360D02*
X964820D01*
X18850000Y-3950000D02*
Y-2354000D01*
X18500000Y-4300000D02*
X18850000Y-3950000D01*
X17800000Y-4300000D02*
X18500000D01*
X5410000Y-4495000D02*
Y-4180000D01*
X5380000Y-4150000D02*
X5410000Y-4180000D01*
X7010000Y-4500000D02*
X7180000D01*
X7180000Y-4500000D01*
Y-4150000D01*
X7822500Y-3802500D02*
X7825000Y-3800000D01*
X7822500Y-3797500D02*
Y-3463882D01*
Y-3797500D02*
X7825000Y-3800000D01*
X7822500Y-4147500D02*
Y-3802500D01*
Y-3463882D02*
X7836382Y-3450000D01*
Y-3176382D01*
X7820000Y-4150000D02*
X7822500Y-4147500D01*
X5600000Y-4536500D02*
Y-4510000D01*
X5600000Y-4750000D02*
Y-4536500D01*
X5590000Y-4500000D02*
X5600000Y-4510000D01*
Y-4536500D02*
X5600000Y-4536500D01*
X4477500Y-4147500D02*
X4480000Y-4150000D01*
X4475000Y-3800000D02*
X4477500Y-3802500D01*
Y-3797500D02*
Y-3452500D01*
Y-4147500D02*
Y-3802500D01*
X4475000Y-3800000D02*
X4477500Y-3797500D01*
X4480000Y-4250000D02*
Y-4150000D01*
X250000Y-4206081D02*
X310919Y-4267000D01*
X1550198D01*
X1560198D02*
X3030061D01*
X3088640Y-4208421D01*
Y-3906520D01*
X3086100Y-3903980D02*
X3088640Y-3906520D01*
X1721000Y-4257000D02*
Y-4042000D01*
X6920000Y-3450000D02*
X7180000D01*
X7460000Y-4500000D02*
X7640000D01*
X6610000D02*
X6790000D01*
X6920000Y-4150000D02*
X7180000D01*
X6210000Y-4500000D02*
X6390000D01*
X6210000D02*
Y-4495000D01*
X6263579Y-4441421D02*
X6280000D01*
Y-4150000D01*
X6210000Y-4495000D02*
X6263579Y-4441421D01*
X6020000Y-4150000D02*
X6280000D01*
X5810000Y-4500000D02*
X5990000D01*
X5010000D02*
X5190000D01*
X5410000D02*
X5590000D01*
X5960000Y-3290000D02*
X6020000Y-3350000D01*
Y-3450000D02*
Y-3350000D01*
X5960000Y-3290000D02*
Y-3100000D01*
X6240000D02*
X6275000Y-3135000D01*
Y-3445000D02*
Y-3135000D01*
Y-3445000D02*
X6280000Y-3450000D01*
X7150000Y-3420000D02*
Y-3110000D01*
Y-3420000D02*
X7180000Y-3450000D01*
X7140000Y-3100000D02*
X7150000Y-3110000D01*
X7360000Y-3100000D02*
X7540000D01*
X6860000D02*
X7140000D01*
X6460000D02*
X6640000D01*
X5960000D02*
X6240000D01*
X5560000D02*
X5740000D01*
X7770000Y-3115000D02*
X7775000D01*
X7760000Y-3105000D02*
Y-3100000D01*
X7860000Y-4500000D02*
Y-4150000D01*
X7775000Y-3115000D02*
X7836382Y-3176382D01*
X7760000Y-3105000D02*
X7770000Y-3115000D01*
X5250000Y-3443616D02*
X5373616D01*
X5126384D02*
X5250000D01*
X5250000Y-3800000D02*
Y-3443616D01*
X5250000Y-3443616D01*
X5373616D02*
X5380000Y-3450000D01*
X5350000Y-3420000D02*
X5373616Y-3443616D01*
X5350000Y-3420000D02*
Y-3110000D01*
X5340000Y-3100000D02*
X5350000Y-3110000D01*
X5120000Y-3450000D02*
X5126384Y-3443616D01*
X5120000Y-3135000D02*
Y-3110000D01*
X5120000Y-3450000D02*
Y-3135000D01*
X5110000Y-3100000D02*
X5120000Y-3110000D01*
Y-3135000D02*
X5120000Y-3135000D01*
Y-4150000D02*
X5380000D01*
X4610000Y-4500000D02*
X4790000D01*
X4369623Y-4479624D02*
X4390000Y-4500000D01*
X4369623Y-4479624D02*
Y-4360377D01*
X4480000Y-4250000D01*
X4710000Y-3100000D02*
X4890000D01*
X4485000Y-3445000D02*
Y-3105000D01*
X4490000Y-3100000D01*
X15699741Y-3699740D02*
Y-3650000D01*
X15800000Y-4300000D02*
Y-3950000D01*
X15699741Y-3699740D02*
X15800000Y-3800000D01*
X17200000Y-4300000D02*
X17800000D01*
X18850000Y-2354000D02*
Y-2100000D01*
X8371780Y-2359116D02*
X8414670Y-2402006D01*
X8371780Y-2359116D02*
Y-1858960D01*
X8081760Y-2314460D02*
Y-1915160D01*
X7909816Y-2486404D02*
X8081760Y-2314460D01*
X8414670Y-2452210D02*
Y-2402006D01*
X8370880Y-1838960D02*
Y-1629000D01*
X8414670Y-2452210D02*
X8438960Y-2476500D01*
X8351780Y-1838960D02*
X8371780Y-1858960D01*
X8370880Y-1629000D02*
Y-1379120D01*
X5821680Y-2702560D02*
Y-1556940D01*
X14520770Y-833490D02*
X14841631D01*
X14516100Y-828820D02*
X14520770Y-833490D01*
X14841631D02*
X14846300Y-838160D01*
X9720420Y-854380D02*
X10024400D01*
X9710420Y-864380D02*
X9720420Y-854380D01*
X10024400D02*
X10045700Y-833080D01*
X9715500Y-187180D02*
X9718450Y-190130D01*
X9715500Y-639300D02*
Y-407180D01*
X4918320Y-834780D02*
X5251840D01*
X4917440Y-833900D02*
X4918320Y-834780D01*
X5251840D02*
X5252720Y-835660D01*
X4917440Y-613900D02*
Y-415580D01*
X4917480Y-195620D02*
X5252680D01*
X5252720Y-195660D01*
X4917440Y-195580D02*
X4917480Y-195620D01*
X15695930Y-2454930D02*
Y-2370110D01*
Y-2573510D02*
Y-2454930D01*
X15698470Y-2990850D02*
Y-2796050D01*
X15697200Y-2794780D02*
X15698470Y-2796050D01*
Y-2990850D02*
X15699741Y-2992120D01*
X15694659Y-2368840D02*
X15695930Y-2370110D01*
Y-2573510D02*
X15697200Y-2574780D01*
Y-2146300D02*
Y-1951500D01*
X15699741Y-1948960D01*
X15694659Y-2148840D02*
X15697200Y-2146300D01*
X15698470Y-1727690D02*
Y-1538750D01*
X15697200Y-1537480D02*
X15698470Y-1538750D01*
X15675200Y-1559480D02*
X15697200Y-1537480D01*
X15349220Y-1559480D02*
X15675200D01*
X14514830Y-599930D02*
X14518640Y-603740D01*
X14514830Y-599930D02*
Y-413530D01*
X14511020Y-409720D02*
X14514830Y-413530D01*
X15695930Y-1316210D02*
Y-1127270D01*
X15694659Y-1126000D02*
X15695930Y-1127270D01*
Y-1316210D02*
X15697200Y-1317480D01*
X15659660Y-916000D02*
X15684660D01*
X15694659Y-906000D01*
X15656180Y-919480D02*
X15659660Y-916000D01*
X5821680Y-1570500D02*
X6164580D01*
X6167280Y-1350500D02*
X6177280Y-1340500D01*
Y-1144560D01*
X6164580Y-1350500D02*
X6167280D01*
X5821680Y-916940D02*
X5826370Y-921630D01*
X13247180Y-2597180D02*
Y-2027500D01*
Y-2597180D02*
X13250000Y-2600000D01*
X13154919Y-1935240D02*
Y-1920240D01*
Y-1935240D02*
X13247180Y-2027500D01*
X12747180Y-2597180D02*
Y-2057980D01*
Y-2597180D02*
X12750000Y-2600000D01*
X12747180Y-2057980D02*
X12859959Y-1945200D01*
X8684220Y-835660D02*
X9042400D01*
X18366701Y-822920D02*
X18740120D01*
X15167900Y-838160D02*
X15249220Y-919480D01*
X14846300Y-838160D02*
X15167900D01*
X15249220Y-919480D02*
X15349220D01*
X17653751Y-1968750D02*
Y-1378750D01*
X10045700Y-833080D02*
X10145700D01*
X10180700Y-868080D01*
X10239279Y-929640D02*
X10527360D01*
X10180700Y-871061D02*
Y-868080D01*
Y-871061D02*
X10239279Y-929640D01*
X5352720Y-835660D02*
X5434000Y-916940D01*
X5686680D02*
X5721680Y-881940D01*
X5252720Y-835660D02*
X5352720D01*
X5434000Y-916940D02*
X5686680D01*
X17975000Y-1902500D02*
X18050000Y-1977500D01*
Y-2600000D02*
Y-1977500D01*
X17550000Y-2072500D02*
X17653751Y-1968750D01*
X17550000Y-2600000D02*
Y-2072500D01*
X17975000Y-1629000D02*
Y-1375000D01*
Y-1902500D02*
Y-1629000D01*
X17969260Y-1369260D02*
X17975000Y-1375000D01*
X13175000Y-1844000D02*
Y-1632210D01*
X13174921Y-1900240D02*
Y-1844080D01*
X13175000Y-1844000D01*
X13154919Y-1920240D02*
X13174921Y-1900240D01*
X12859959Y-1945200D02*
Y-1638959D01*
X12850000Y-1629000D02*
X12859959Y-1638959D01*
X8375000Y-1375000D02*
Y-1044099D01*
X8370880Y-1379120D02*
X8375000Y-1375000D01*
X8050000Y-1868400D02*
Y-1629000D01*
Y-1868400D02*
X8081760Y-1900160D01*
Y-1915160D02*
Y-1900160D01*
X14650000Y-2354000D02*
Y-2100000D01*
X14050000Y-2354000D02*
X14650000D01*
X14050000Y-2354000D02*
X14050000Y-2354000D01*
X14050000Y-2354000D02*
Y-2100000D01*
X3865840Y-830580D02*
X4239260D01*
X250000Y-4206081D02*
Y-2354000D01*
Y-2354000D02*
Y-2100000D01*
X3594100Y-3903980D02*
Y-3456940D01*
X5050000Y-2354000D02*
Y-2100000D01*
X4450000Y-2354000D02*
X5050000D01*
X4450000D02*
Y-2100000D01*
X3561340Y-2495630D02*
X3650000Y-2584289D01*
X3561340Y-2495630D02*
Y-1922780D01*
X3650000Y-2600000D02*
Y-2584289D01*
X3150000Y-2331236D02*
X3276340Y-2204896D01*
Y-1922780D01*
X3150000Y-2600000D02*
Y-2331236D01*
X3250000Y-1881440D02*
X3276340Y-1907780D01*
X3250000Y-1881440D02*
Y-1629000D01*
X3276340Y-1922780D02*
Y-1907780D01*
X3561340Y-1922780D02*
X3568170Y-1915950D01*
Y-1635830D02*
X3575000Y-1629000D01*
X3568170Y-1915950D02*
Y-1635830D01*
X3575000Y-990600D02*
X3575000Y-990600D01*
Y-1629000D02*
Y-1375000D01*
X3203440Y-1000760D02*
X3207359Y-1004679D01*
X3250000Y-1629000D02*
Y-1375000D01*
D18*
X18140680Y-398780D02*
D03*
X17632680D02*
D03*
X17124680D02*
D03*
X16870680D02*
D03*
X16616679D02*
D03*
X16108681D02*
D03*
X15600681D02*
D03*
X15346680D02*
D03*
X13335001D02*
D03*
X12827000D02*
D03*
X12319000D02*
D03*
X12065000D02*
D03*
X11811000D02*
D03*
X11303000D02*
D03*
X10795000D02*
D03*
X10541000D02*
D03*
X3738880D02*
D03*
X3230880D02*
D03*
X2722880D02*
D03*
X2468880D02*
D03*
X2214880D02*
D03*
X1706880D02*
D03*
X1198880D02*
D03*
X944880D02*
D03*
X5737860D02*
D03*
X5991860D02*
D03*
X6499860D02*
D03*
X7007860D02*
D03*
X7261860D02*
D03*
X7515860D02*
D03*
X8023860D02*
D03*
X8531860D02*
D03*
D19*
X14700000Y-3100000D02*
D03*
X15000000Y-2000000D02*
D03*
X18850000Y-2775000D02*
D03*
X10100000Y-2000000D02*
D03*
X5300000D02*
D03*
X18300000Y-3920000D02*
D03*
X17300000D02*
D03*
X18300000Y-4940000D02*
D03*
X17300000D02*
D03*
X16300000Y-3920000D02*
D03*
X15300000D02*
D03*
X16300000Y-4940000D02*
D03*
X15300000D02*
D03*
X5250000Y-3800000D02*
D03*
D20*
X13250000Y-2600000D02*
D03*
X18050000D02*
D03*
X8438960Y-2476500D02*
D03*
X3650000Y-2600000D02*
D03*
D21*
X12750000D02*
D03*
X17550000D02*
D03*
X7938960Y-2476500D02*
D03*
X3150000Y-2600000D02*
D03*
D22*
X4102100Y-3903980D02*
D03*
X3848100D02*
D03*
X3594100D02*
D03*
X3340100D02*
D03*
X3086100D02*
D03*
X1467000Y-4042000D02*
D03*
X1721000D02*
D03*
D23*
X2832100Y-3903980D02*
D03*
D24*
X959000Y-4550000D02*
D03*
X1975000D02*
D03*
D25*
X14650000Y-2354000D02*
D03*
X17650000Y-1629000D02*
D03*
X17975000D02*
D03*
X18850000Y-2354000D02*
D03*
X9850000Y-2354000D02*
D03*
X12850000Y-1629000D02*
D03*
X13175000D02*
D03*
X14050000Y-2354000D02*
D03*
X5050000D02*
D03*
X8050000Y-1629000D02*
D03*
X8375000D02*
D03*
X9250000Y-2354000D02*
D03*
X3250000Y-1629000D02*
D03*
X3575000Y-1629000D02*
D03*
X4450000Y-2354000D02*
D03*
X250000D02*
D03*
D26*
X14650000Y-2100000D02*
D03*
X17650000Y-1375000D02*
D03*
X17975000D02*
D03*
X18850000Y-2100000D02*
D03*
X9850000Y-2100000D02*
D03*
X12850000Y-1375000D02*
D03*
X13175000D02*
D03*
X14050000Y-2100000D02*
D03*
X5050000D02*
D03*
X8050000Y-1375000D02*
D03*
X8375000D02*
D03*
X9250000Y-2100000D02*
D03*
X3250000Y-1375000D02*
D03*
X3575000Y-1375000D02*
D03*
X4450000Y-2100000D02*
D03*
X250000D02*
D03*
D27*
X17800000Y-4300000D02*
D03*
X15800000D02*
D03*
D28*
X18750000Y-1325000D02*
D03*
X14750000D02*
D03*
X13950000Y-1325000D02*
D03*
X9950000D02*
D03*
X9150000D02*
D03*
X5150000D02*
D03*
X4350000Y-1325000D02*
D03*
X18750000Y-4950000D02*
D03*
X4350000D02*
D03*
X14750000Y-4950000D02*
D03*
X5150000Y-4950000D02*
D03*
X9150000D02*
D03*
X350000D02*
D03*
X13950000D02*
D03*
X9950000D02*
D03*
X350000Y-1325000D02*
D03*
D29*
X2597530Y-4814570D02*
D03*
D30*
X3097530D02*
D03*
X3597530D02*
D03*
D31*
X16361000Y-2832000D02*
D03*
X16234000Y-3086000D02*
D03*
X16361000Y-3340000D02*
D03*
X16234000Y-3594000D02*
D03*
X16361000Y-4356000D02*
D03*
X16107001Y-2832000D02*
D03*
X15980000Y-3086000D02*
D03*
X16107001Y-3340000D02*
D03*
X15980000Y-3594000D02*
D03*
Y-4102000D02*
D03*
X16107001Y-4356000D02*
D03*
X15853000Y-3340000D02*
D03*
X15725999Y-3594000D02*
D03*
X15853000Y-3848000D02*
D03*
X15472000Y-3086000D02*
D03*
X15599001Y-3340000D02*
D03*
X15472000Y-3594000D02*
D03*
X15599001Y-3848000D02*
D03*
X15472000Y-4102000D02*
D03*
X15217999Y-3086000D02*
D03*
Y-3594000D02*
D03*
X15345000Y-4356000D02*
D03*
X14964000Y-3086000D02*
D03*
X15091000Y-3340000D02*
D03*
X14964000Y-3594000D02*
D03*
X15091000Y-3848000D02*
D03*
X14964000Y-4102000D02*
D03*
X14837000Y-2832000D02*
D03*
X14710001Y-3086000D02*
D03*
X14837000Y-3340000D02*
D03*
X14710001Y-3594000D02*
D03*
X14837000Y-3848000D02*
D03*
X14710001Y-4102000D02*
D03*
X14583000Y-2832000D02*
D03*
X14456000Y-3086000D02*
D03*
X14583000Y-3340000D02*
D03*
X14456000Y-3594000D02*
D03*
X14583000Y-3848000D02*
D03*
X14456000Y-4102000D02*
D03*
X14328999Y-2832000D02*
D03*
X14202000Y-3086000D02*
D03*
X14328999Y-3340000D02*
D03*
X14202000Y-3594000D02*
D03*
X14328999Y-3848000D02*
D03*
X14202000Y-4102000D02*
D03*
X14075000Y-2832000D02*
D03*
X13948000Y-3086000D02*
D03*
X14075000Y-3340000D02*
D03*
X13948000Y-3594000D02*
D03*
X14075000Y-3848000D02*
D03*
X13948000Y-4102000D02*
D03*
X13821001Y-2832000D02*
D03*
X13694000Y-3086000D02*
D03*
X13821001Y-3340000D02*
D03*
X13694000Y-3594000D02*
D03*
X13821001Y-3848000D02*
D03*
X13694000Y-4102000D02*
D03*
X13567000Y-2832000D02*
D03*
X13439999Y-3086000D02*
D03*
X13567000Y-3340000D02*
D03*
X13439999Y-3594000D02*
D03*
X13567000Y-3848000D02*
D03*
X13439999Y-4102000D02*
D03*
X13313000Y-2832000D02*
D03*
X13186000Y-3086000D02*
D03*
X13313000Y-3340000D02*
D03*
X13186000Y-3594000D02*
D03*
X13313000Y-3848000D02*
D03*
X13186000Y-4102000D02*
D03*
X13059000Y-2832000D02*
D03*
X12932001Y-3086000D02*
D03*
X13059000Y-3340000D02*
D03*
X12932001Y-3594000D02*
D03*
X13059000Y-3848000D02*
D03*
X12932001Y-4102000D02*
D03*
X12805000Y-2832000D02*
D03*
X12678000Y-3086000D02*
D03*
X12805000Y-3340000D02*
D03*
X12678000Y-3594000D02*
D03*
X12805000Y-3848000D02*
D03*
X12678000Y-4102000D02*
D03*
X12551000Y-2832000D02*
D03*
X12424000Y-3086000D02*
D03*
X12551000Y-3340000D02*
D03*
X12424000Y-3594000D02*
D03*
X12551000Y-3848000D02*
D03*
X12424000Y-4102000D02*
D03*
X12297000Y-2832000D02*
D03*
X12170000Y-3086000D02*
D03*
X12297000Y-3340000D02*
D03*
X12170000Y-3594000D02*
D03*
X12297000Y-3848000D02*
D03*
X12170000Y-4102000D02*
D03*
X12043000Y-2832000D02*
D03*
X11916000Y-3086000D02*
D03*
X12043000Y-3340000D02*
D03*
X11916000Y-3594000D02*
D03*
X12043000Y-3848000D02*
D03*
X11916000Y-4102000D02*
D03*
X11789000Y-2832000D02*
D03*
X11662000Y-3086000D02*
D03*
X11789000Y-3340000D02*
D03*
X11662000Y-3594000D02*
D03*
X11789000Y-3848000D02*
D03*
X11662000Y-4102000D02*
D03*
X11535000Y-2832000D02*
D03*
X11408000Y-3086000D02*
D03*
X11535000Y-3340000D02*
D03*
X11408000Y-3594000D02*
D03*
X11535000Y-3848000D02*
D03*
X11408000Y-4102000D02*
D03*
X11281000Y-2832000D02*
D03*
X11154000Y-3086000D02*
D03*
X11281000Y-3340000D02*
D03*
X11154000Y-3594000D02*
D03*
X11281000Y-3848000D02*
D03*
X11154000Y-4102000D02*
D03*
X11027000Y-2832000D02*
D03*
X10900000Y-3086000D02*
D03*
X11027000Y-3340000D02*
D03*
X10900000Y-3594000D02*
D03*
X11027000Y-3848000D02*
D03*
X10900000Y-4102000D02*
D03*
X10773000Y-2832000D02*
D03*
X10646000Y-3086000D02*
D03*
X10773000Y-3340000D02*
D03*
X10646000Y-3594000D02*
D03*
X10773000Y-3848000D02*
D03*
X10646000Y-4102000D02*
D03*
X10519000Y-2832000D02*
D03*
X10392000Y-3086000D02*
D03*
X10519000Y-3340000D02*
D03*
X10392000Y-3594000D02*
D03*
X10519000Y-3848000D02*
D03*
X10392000Y-4102000D02*
D03*
X10265000Y-2832000D02*
D03*
X10138000Y-3086000D02*
D03*
X10265000Y-3340000D02*
D03*
X10138000Y-3594000D02*
D03*
X10265000Y-3848000D02*
D03*
X10138000Y-4102000D02*
D03*
X10011000Y-2832000D02*
D03*
X9884000Y-3086000D02*
D03*
X10011000Y-3340000D02*
D03*
X9884000Y-3594000D02*
D03*
X10011000Y-3848000D02*
D03*
X9884000Y-4102000D02*
D03*
X9757000Y-2832000D02*
D03*
X9630000Y-3086000D02*
D03*
X9757000Y-3340000D02*
D03*
X9630000Y-3594000D02*
D03*
X9757000Y-3848000D02*
D03*
X9630000Y-4102000D02*
D03*
X9503000Y-2832000D02*
D03*
X9376000Y-3086000D02*
D03*
X9503000Y-3340000D02*
D03*
X9376000Y-3594000D02*
D03*
X9503000Y-3848000D02*
D03*
X9376000Y-4102000D02*
D03*
X9249000Y-2832000D02*
D03*
X9122000Y-3086000D02*
D03*
X9249000Y-3340000D02*
D03*
X9122000Y-3594000D02*
D03*
X9249000Y-3848000D02*
D03*
X9122000Y-4102000D02*
D03*
X8995000Y-2832000D02*
D03*
X8868000Y-3086000D02*
D03*
X8995000Y-3340000D02*
D03*
X8868000Y-3594000D02*
D03*
X8995000Y-3848000D02*
D03*
X8868000Y-4102000D02*
D03*
X8741000Y-2832000D02*
D03*
X8614000Y-3086000D02*
D03*
X8741000Y-3340000D02*
D03*
X8614000Y-3594000D02*
D03*
X8741000Y-3848000D02*
D03*
X8614000Y-4102000D02*
D03*
X8487000Y-2832000D02*
D03*
X8360000Y-3086000D02*
D03*
X8487000Y-3340000D02*
D03*
X8360000Y-3594000D02*
D03*
X8487000Y-3848000D02*
D03*
X8233000Y-2832000D02*
D03*
X8106000Y-3086000D02*
D03*
X8233000Y-3340000D02*
D03*
X8106000Y-3594000D02*
D03*
X7979000Y-2832000D02*
D03*
X7725000D02*
D03*
X7471000D02*
D03*
X7217000D02*
D03*
X6963000D02*
D03*
X6709000D02*
D03*
X6455000D02*
D03*
X6201000D02*
D03*
X5947000D02*
D03*
X5693000D02*
D03*
X5439000D02*
D03*
X5185000D02*
D03*
X4931000D02*
D03*
X4550000Y-546000D02*
D03*
Y-1054000D02*
D03*
Y-1562000D02*
D03*
Y-2578000D02*
D03*
X4677000Y-2832000D02*
D03*
X4296000Y-546000D02*
D03*
X4423000Y-1816000D02*
D03*
X4296000Y-2578000D02*
D03*
X4423000Y-2832000D02*
D03*
X4296000Y-3086000D02*
D03*
X4042000Y-546000D02*
D03*
Y-1054000D02*
D03*
Y-1562000D02*
D03*
X4169000Y-1816000D02*
D03*
Y-2324000D02*
D03*
X4042000Y-2578000D02*
D03*
X4169000Y-2832000D02*
D03*
X4042000Y-3086000D02*
D03*
X4169000Y-3340000D02*
D03*
X4042000Y-4610000D02*
D03*
Y-5118000D02*
D03*
X3788000Y-1054000D02*
D03*
X3915000Y-1308000D02*
D03*
X3788000Y-1562000D02*
D03*
X3915000Y-1816000D02*
D03*
Y-2324000D02*
D03*
Y-2832000D02*
D03*
X3788000Y-3086000D02*
D03*
X3915000Y-3340000D02*
D03*
X3788000Y-4102000D02*
D03*
X3915000Y-4356000D02*
D03*
X3788000Y-4610000D02*
D03*
X3915000Y-4864000D02*
D03*
X3788000Y-5118000D02*
D03*
X3661000Y-2832000D02*
D03*
X3534000Y-3086000D02*
D03*
Y-4102000D02*
D03*
Y-5118000D02*
D03*
X3407000Y-2832000D02*
D03*
X3280000Y-3086000D02*
D03*
Y-4610000D02*
D03*
Y-5118000D02*
D03*
X3026000Y-2070000D02*
D03*
X3153000Y-2832000D02*
D03*
X3026000Y-4102000D02*
D03*
X3153000Y-4356000D02*
D03*
X3026000Y-4610000D02*
D03*
Y-5118000D02*
D03*
X2772000Y-1054000D02*
D03*
X2899000Y-1308000D02*
D03*
X2772000Y-2070000D02*
D03*
X2899000Y-2324000D02*
D03*
X2772000Y-2578000D02*
D03*
X2899000Y-2832000D02*
D03*
Y-4356000D02*
D03*
X2772000Y-4610000D02*
D03*
X2899000Y-4864000D02*
D03*
X2772000Y-5118000D02*
D03*
X2645000Y-800000D02*
D03*
X2518000Y-1562000D02*
D03*
X2645000Y-1816000D02*
D03*
X2518000Y-2070000D02*
D03*
X2645000Y-2324000D02*
D03*
X2518000Y-3086000D02*
D03*
X2645000Y-3340000D02*
D03*
X2518000Y-4102000D02*
D03*
Y-5118000D02*
D03*
X2264000Y-1562000D02*
D03*
X2391000Y-1816000D02*
D03*
X2264000Y-2070000D02*
D03*
X2391000Y-2324000D02*
D03*
X2264000Y-3086000D02*
D03*
X2391000Y-3340000D02*
D03*
Y-3848000D02*
D03*
X2264000Y-4102000D02*
D03*
X2391000Y-4356000D02*
D03*
X2264000Y-4610000D02*
D03*
Y-5118000D02*
D03*
X2010000Y-1562000D02*
D03*
X2137000Y-1816000D02*
D03*
X2010000Y-2578000D02*
D03*
X2137000Y-2832000D02*
D03*
X2010000Y-3086000D02*
D03*
X2137000Y-3340000D02*
D03*
Y-3848000D02*
D03*
X2010000Y-4102000D02*
D03*
X2137000Y-4356000D02*
D03*
Y-4864000D02*
D03*
X2010000Y-5118000D02*
D03*
X1883000Y-1816000D02*
D03*
X1756000Y-2578000D02*
D03*
X1883000Y-2832000D02*
D03*
X1756000Y-3086000D02*
D03*
X1883000Y-3340000D02*
D03*
Y-3848000D02*
D03*
X1756000Y-4610000D02*
D03*
X1883000Y-4864000D02*
D03*
X1756000Y-5118000D02*
D03*
X1502000Y-546000D02*
D03*
X1629000Y-2324000D02*
D03*
X1502000Y-2578000D02*
D03*
X1629000Y-2832000D02*
D03*
Y-4356000D02*
D03*
X1502000Y-4610000D02*
D03*
X1629000Y-4864000D02*
D03*
X1502000Y-5118000D02*
D03*
X1248000Y-546000D02*
D03*
X1375000Y-2324000D02*
D03*
X1248000Y-2578000D02*
D03*
Y-3594000D02*
D03*
Y-4102000D02*
D03*
X1375000Y-4356000D02*
D03*
X1248000Y-4610000D02*
D03*
X1375000Y-4864000D02*
D03*
X1248000Y-5118000D02*
D03*
X1121000Y-1308000D02*
D03*
X994000Y-3086000D02*
D03*
X1121000Y-3340000D02*
D03*
X994000Y-3594000D02*
D03*
X1121000Y-3848000D02*
D03*
X994000Y-4102000D02*
D03*
X1121000Y-4356000D02*
D03*
Y-4864000D02*
D03*
X994000Y-5118000D02*
D03*
X867000Y-1308000D02*
D03*
X740000Y-2070000D02*
D03*
Y-2578000D02*
D03*
X867000Y-2832000D02*
D03*
X740000Y-3086000D02*
D03*
X867000Y-3340000D02*
D03*
X740000Y-3594000D02*
D03*
X867000Y-3848000D02*
D03*
X740000Y-4102000D02*
D03*
Y-4610000D02*
D03*
X867000Y-4864000D02*
D03*
X740000Y-5118000D02*
D03*
X486000Y-1054000D02*
D03*
X613000Y-1816000D02*
D03*
X486000Y-2070000D02*
D03*
X613000Y-2324000D02*
D03*
X486000Y-2578000D02*
D03*
X613000Y-2832000D02*
D03*
X486000Y-3086000D02*
D03*
X613000Y-3340000D02*
D03*
X486000Y-3594000D02*
D03*
X613000Y-3848000D02*
D03*
X486000Y-4102000D02*
D03*
X613000Y-4356000D02*
D03*
X486000Y-4610000D02*
D03*
X232000Y-1054000D02*
D03*
X359000Y-1816000D02*
D03*
X232000Y-2578000D02*
D03*
X359000Y-2832000D02*
D03*
X232000Y-3086000D02*
D03*
X359000Y-3340000D02*
D03*
X232000Y-3594000D02*
D03*
X359000Y-3848000D02*
D03*
X232000Y-4102000D02*
D03*
X359000Y-4356000D02*
D03*
X232000Y-4610000D02*
D03*
D32*
X13550861Y-828040D02*
D03*
X7825000Y-3800000D02*
D03*
X5600000Y-4750000D02*
D03*
X4475000Y-3800000D02*
D03*
X10883900Y-2882900D02*
D03*
X5821680Y-2702560D02*
D03*
X18366701Y-822920D02*
D03*
X8684220Y-835660D02*
D03*
X3865840Y-830580D02*
D03*
%TF.MD5,01fbce4c06b463fe920f1eb8d0d8d467*%
M02*
